<?xml version="1.0" encoding="UTF-8" standalone="no"?>
<!DOCTYPE svg PUBLIC "-//W3C//DTD SVG 1.1//EN"
 "http://www.w3.org/Graphics/SVG/1.1/DTD/svg11.dtd">
<!-- Generated by graphviz version 2.38.0 (20140413.2041)
 -->
<!-- Title: controllers_diagram Pages: 1 -->
<svg width="720pt" height="662pt"
 viewBox="0.00 0.00 720.34 662.25" xmlns="http://www.w3.org/2000/svg" xmlns:xlink="http://www.w3.org/1999/xlink">
<g id="graph0" class="graph" transform="scale(1 1) rotate(0) translate(279.891 336.129)">
<title>controllers_diagram</title>
<polygon fill="white" stroke="none" points="-279.891,326.125 -279.891,-336.129 440.45,-336.129 440.45,326.125 -279.891,326.125"/>
<!-- _diagram_info -->
<g id="node1" class="node"><title>_diagram_info</title>
<text text-anchor="start" x="237.55" y="170.9" font-family="Times,serif" font-size="13.00">Controllers diagram</text>
<text text-anchor="start" x="237.55" y="183.9" font-family="Times,serif" font-size="13.00">Date: Sep 26 2014 &#45; 21:02</text>
<text text-anchor="start" x="237.55" y="196.9" font-family="Times,serif" font-size="13.00">Migration version: 20140926114154</text>
<text text-anchor="start" x="237.55" y="209.9" font-family="Times,serif" font-size="13.00">Generated by RailRoady 1.1.2</text>
<text text-anchor="start" x="237.55" y="222.9" font-family="Times,serif" font-size="13.00">http://railroady.prestonlee.com</text>
</g>
<!-- AcquisitionsController -->
<g id="node2" class="node"><title>AcquisitionsController</title>
<path fill="none" stroke="black" d="M-263.891,102.833C-263.891,102.833 -143.567,102.833 -143.567,102.833 -137.567,102.833 -131.567,96.8331 -131.567,90.8331 -131.567,90.8331 -131.567,-87.1669 -131.567,-87.1669 -131.567,-93.1669 -137.567,-99.1669 -143.567,-99.1669 -143.567,-99.1669 -263.891,-99.1669 -263.891,-99.1669 -269.891,-99.1669 -275.891,-93.1669 -275.891,-87.1669 -275.891,-87.1669 -275.891,90.8331 -275.891,90.8331 -275.891,96.8331 -269.891,102.833 -263.891,102.833"/>
<text text-anchor="middle" x="-203.729" y="-83.9669" font-family="Times,serif" font-size="14.00">AcquisitionsController</text>
<polyline fill="none" stroke="black" points="-275.891,-77.1669 -131.567,-77.1669 "/>
<text text-anchor="start" x="-267.891" y="-61.9669" font-family="Times,serif" font-size="14.00">create</text>
<text text-anchor="start" x="-267.891" y="-47.9669" font-family="Times,serif" font-size="14.00">destroy</text>
<text text-anchor="start" x="-267.891" y="-33.9669" font-family="Times,serif" font-size="14.00">edit</text>
<text text-anchor="start" x="-267.891" y="-19.9669" font-family="Times,serif" font-size="14.00">index</text>
<text text-anchor="start" x="-267.891" y="-5.96688" font-family="Times,serif" font-size="14.00">new</text>
<text text-anchor="start" x="-267.891" y="8.03312" font-family="Times,serif" font-size="14.00">show</text>
<text text-anchor="start" x="-267.891" y="22.0331" font-family="Times,serif" font-size="14.00">update</text>
<polyline fill="none" stroke="black" points="-275.891,28.8331 -131.567,28.8331 "/>
<polyline fill="none" stroke="black" points="-275.891,52.8331 -131.567,52.8331 "/>
<text text-anchor="start" x="-267.891" y="68.0331" font-family="Times,serif" font-size="14.00">_layout</text>
<text text-anchor="start" x="-267.891" y="82.0331" font-family="Times,serif" font-size="14.00">acquisition_params</text>
<text text-anchor="start" x="-267.891" y="96.0331" font-family="Times,serif" font-size="14.00">set_acquisition</text>
</g>
<!-- ApplicationController -->
<g id="node3" class="node"><title>ApplicationController</title>
<path fill="none" stroke="black" d="M-79.8225,44.1093C-79.8225,44.1093 35.8191,44.1093 35.8191,44.1093 41.8191,44.1093 47.8191,38.1093 47.8191,32.1093 47.8191,32.1093 47.8191,-35.8907 47.8191,-35.8907 47.8191,-41.8907 41.8191,-47.8907 35.8191,-47.8907 35.8191,-47.8907 -79.8225,-47.8907 -79.8225,-47.8907 -85.8225,-47.8907 -91.8225,-41.8907 -91.8225,-35.8907 -91.8225,-35.8907 -91.8225,32.1093 -91.8225,32.1093 -91.8225,38.1093 -85.8225,44.1093 -79.8225,44.1093"/>
<text text-anchor="middle" x="-22.0017" y="-32.6907" font-family="Times,serif" font-size="14.00">ApplicationController</text>
<polyline fill="none" stroke="black" points="-91.8225,-25.8907 47.8191,-25.8907 "/>
<polyline fill="none" stroke="black" points="-91.8225,-1.89068 47.8191,-1.89068 "/>
<polyline fill="none" stroke="black" points="-91.8225,22.1093 47.8191,22.1093 "/>
<text text-anchor="start" x="-83.8225" y="37.3093" font-family="Times,serif" font-size="14.00">_layout</text>
</g>
<!-- ApplicationController&#45;&gt;AcquisitionsController -->
<g id="edge1" class="edge"><title>ApplicationController&#45;&gt;AcquisitionsController</title>
<path fill="none" stroke="black" d="M-92.0023,-0.456284C-104.901,-0.191983 -118.392,0.0844681 -131.358,0.350168"/>
</g>
<!-- CategoriesController -->
<g id="node4" class="node"><title>CategoriesController</title>
<path fill="none" stroke="black" d="M47.9341,321.625C47.9341,321.625 157.348,321.625 157.348,321.625 163.348,321.625 169.348,315.625 169.348,309.625 169.348,309.625 169.348,131.625 169.348,131.625 169.348,125.625 163.348,119.625 157.348,119.625 157.348,119.625 47.9341,119.625 47.9341,119.625 41.9341,119.625 35.9341,125.625 35.9341,131.625 35.9341,131.625 35.9341,309.625 35.9341,309.625 35.9341,315.625 41.9341,321.625 47.9341,321.625"/>
<text text-anchor="middle" x="102.641" y="134.825" font-family="Times,serif" font-size="14.00">CategoriesController</text>
<polyline fill="none" stroke="black" points="35.9341,141.625 169.348,141.625 "/>
<text text-anchor="start" x="43.9341" y="156.825" font-family="Times,serif" font-size="14.00">create</text>
<text text-anchor="start" x="43.9341" y="170.825" font-family="Times,serif" font-size="14.00">destroy</text>
<text text-anchor="start" x="43.9341" y="184.825" font-family="Times,serif" font-size="14.00">edit</text>
<text text-anchor="start" x="43.9341" y="198.825" font-family="Times,serif" font-size="14.00">index</text>
<text text-anchor="start" x="43.9341" y="212.825" font-family="Times,serif" font-size="14.00">new</text>
<text text-anchor="start" x="43.9341" y="226.825" font-family="Times,serif" font-size="14.00">show</text>
<text text-anchor="start" x="43.9341" y="240.825" font-family="Times,serif" font-size="14.00">update</text>
<polyline fill="none" stroke="black" points="35.9341,247.625 169.348,247.625 "/>
<polyline fill="none" stroke="black" points="35.9341,271.625 169.348,271.625 "/>
<text text-anchor="start" x="43.9341" y="286.825" font-family="Times,serif" font-size="14.00">_layout</text>
<text text-anchor="start" x="43.9341" y="300.825" font-family="Times,serif" font-size="14.00">category_params</text>
<text text-anchor="start" x="43.9341" y="314.825" font-family="Times,serif" font-size="14.00">set_category</text>
</g>
<!-- ApplicationController&#45;&gt;CategoriesController -->
<g id="edge2" class="edge"><title>ApplicationController&#45;&gt;CategoriesController</title>
<path fill="none" stroke="black" d="M3.82441,44.2148C16.089,66.1099 31.2652,93.2029 46.0127,119.53"/>
</g>
<!-- LevelsController -->
<g id="node5" class="node"><title>LevelsController</title>
<path fill="none" stroke="black" d="M-57.3279,-129.629C-57.3279,-129.629 29.5345,-129.629 29.5345,-129.629 35.5345,-129.629 41.5345,-135.629 41.5345,-141.629 41.5345,-141.629 41.5345,-319.629 41.5345,-319.629 41.5345,-325.629 35.5345,-331.629 29.5345,-331.629 29.5345,-331.629 -57.3279,-331.629 -57.3279,-331.629 -63.3279,-331.629 -69.3279,-325.629 -69.3279,-319.629 -69.3279,-319.629 -69.3279,-141.629 -69.3279,-141.629 -69.3279,-135.629 -63.3279,-129.629 -57.3279,-129.629"/>
<text text-anchor="middle" x="-13.8967" y="-316.429" font-family="Times,serif" font-size="14.00">LevelsController</text>
<polyline fill="none" stroke="black" points="-69.3279,-309.629 41.5345,-309.629 "/>
<text text-anchor="start" x="-61.3279" y="-294.429" font-family="Times,serif" font-size="14.00">create</text>
<text text-anchor="start" x="-61.3279" y="-280.429" font-family="Times,serif" font-size="14.00">destroy</text>
<text text-anchor="start" x="-61.3279" y="-266.429" font-family="Times,serif" font-size="14.00">edit</text>
<text text-anchor="start" x="-61.3279" y="-252.429" font-family="Times,serif" font-size="14.00">index</text>
<text text-anchor="start" x="-61.3279" y="-238.429" font-family="Times,serif" font-size="14.00">new</text>
<text text-anchor="start" x="-61.3279" y="-224.429" font-family="Times,serif" font-size="14.00">show</text>
<text text-anchor="start" x="-61.3279" y="-210.429" font-family="Times,serif" font-size="14.00">update</text>
<polyline fill="none" stroke="black" points="-69.3279,-203.629 41.5345,-203.629 "/>
<polyline fill="none" stroke="black" points="-69.3279,-179.629 41.5345,-179.629 "/>
<text text-anchor="start" x="-61.3279" y="-164.429" font-family="Times,serif" font-size="14.00">_layout</text>
<text text-anchor="start" x="-61.3279" y="-150.429" font-family="Times,serif" font-size="14.00">level_params</text>
<text text-anchor="start" x="-61.3279" y="-136.429" font-family="Times,serif" font-size="14.00">set_level</text>
</g>
<!-- ApplicationController&#45;&gt;LevelsController -->
<g id="edge3" class="edge"><title>ApplicationController&#45;&gt;LevelsController</title>
<path fill="none" stroke="black" d="M-20.3713,-47.9041C-19.5392,-71.3868 -18.4919,-100.942 -17.4836,-129.398"/>
</g>
<!-- MissionsController -->
<g id="node6" class="node"><title>MissionsController</title>
<path fill="none" stroke="black" d="M106.114,-105.183C106.114,-105.183 206.231,-105.183 206.231,-105.183 212.231,-105.183 218.231,-111.183 218.231,-117.183 218.231,-117.183 218.231,-295.183 218.231,-295.183 218.231,-301.183 212.231,-307.183 206.231,-307.183 206.231,-307.183 106.114,-307.183 106.114,-307.183 100.114,-307.183 94.1138,-301.183 94.1138,-295.183 94.1138,-295.183 94.1138,-117.183 94.1138,-117.183 94.1138,-111.183 100.114,-105.183 106.114,-105.183"/>
<text text-anchor="middle" x="156.172" y="-291.983" font-family="Times,serif" font-size="14.00">MissionsController</text>
<polyline fill="none" stroke="black" points="94.1138,-285.183 218.231,-285.183 "/>
<text text-anchor="start" x="102.114" y="-269.983" font-family="Times,serif" font-size="14.00">create</text>
<text text-anchor="start" x="102.114" y="-255.983" font-family="Times,serif" font-size="14.00">destroy</text>
<text text-anchor="start" x="102.114" y="-241.983" font-family="Times,serif" font-size="14.00">edit</text>
<text text-anchor="start" x="102.114" y="-227.983" font-family="Times,serif" font-size="14.00">index</text>
<text text-anchor="start" x="102.114" y="-213.983" font-family="Times,serif" font-size="14.00">new</text>
<text text-anchor="start" x="102.114" y="-199.983" font-family="Times,serif" font-size="14.00">show</text>
<text text-anchor="start" x="102.114" y="-185.983" font-family="Times,serif" font-size="14.00">update</text>
<polyline fill="none" stroke="black" points="94.1138,-179.183 218.231,-179.183 "/>
<polyline fill="none" stroke="black" points="94.1138,-155.183 218.231,-155.183 "/>
<text text-anchor="start" x="102.114" y="-139.983" font-family="Times,serif" font-size="14.00">_layout</text>
<text text-anchor="start" x="102.114" y="-125.983" font-family="Times,serif" font-size="14.00">mission_params</text>
<text text-anchor="start" x="102.114" y="-111.983" font-family="Times,serif" font-size="14.00">set_mission</text>
</g>
<!-- ApplicationController&#45;&gt;MissionsController -->
<g id="edge4" class="edge"><title>ApplicationController&#45;&gt;MissionsController</title>
<path fill="none" stroke="black" d="M18.2062,-47.9927C40.5813,-73.6477 68.9144,-106.134 94.0756,-134.984"/>
</g>
<!-- RolesController -->
<g id="node7" class="node"><title>RolesController</title>
<path fill="none" stroke="black" d="M-236.5,-118.097C-236.5,-118.097 -155.065,-118.097 -155.065,-118.097 -149.065,-118.097 -143.065,-124.097 -143.065,-130.097 -143.065,-130.097 -143.065,-308.097 -143.065,-308.097 -143.065,-314.097 -149.065,-320.097 -155.065,-320.097 -155.065,-320.097 -236.5,-320.097 -236.5,-320.097 -242.5,-320.097 -248.5,-314.097 -248.5,-308.097 -248.5,-308.097 -248.5,-130.097 -248.5,-130.097 -248.5,-124.097 -242.5,-118.097 -236.5,-118.097"/>
<text text-anchor="middle" x="-195.782" y="-304.897" font-family="Times,serif" font-size="14.00">RolesController</text>
<polyline fill="none" stroke="black" points="-248.5,-298.097 -143.065,-298.097 "/>
<text text-anchor="start" x="-240.5" y="-282.897" font-family="Times,serif" font-size="14.00">create</text>
<text text-anchor="start" x="-240.5" y="-268.897" font-family="Times,serif" font-size="14.00">destroy</text>
<text text-anchor="start" x="-240.5" y="-254.897" font-family="Times,serif" font-size="14.00">edit</text>
<text text-anchor="start" x="-240.5" y="-240.897" font-family="Times,serif" font-size="14.00">index</text>
<text text-anchor="start" x="-240.5" y="-226.897" font-family="Times,serif" font-size="14.00">new</text>
<text text-anchor="start" x="-240.5" y="-212.897" font-family="Times,serif" font-size="14.00">show</text>
<text text-anchor="start" x="-240.5" y="-198.897" font-family="Times,serif" font-size="14.00">update</text>
<polyline fill="none" stroke="black" points="-248.5,-192.097 -143.065,-192.097 "/>
<polyline fill="none" stroke="black" points="-248.5,-168.097 -143.065,-168.097 "/>
<text text-anchor="start" x="-240.5" y="-152.897" font-family="Times,serif" font-size="14.00">_layout</text>
<text text-anchor="start" x="-240.5" y="-138.897" font-family="Times,serif" font-size="14.00">role_params</text>
<text text-anchor="start" x="-240.5" y="-124.897" font-family="Times,serif" font-size="14.00">set_role</text>
</g>
<!-- ApplicationController&#45;&gt;RolesController -->
<g id="edge5" class="edge"><title>ApplicationController&#45;&gt;RolesController</title>
<path fill="none" stroke="black" d="M-58.856,-47.9545C-83.2659,-78.4641 -115.668,-118.963 -142.824,-152.905"/>
</g>
<!-- UsersController -->
<g id="node8" class="node"><title>UsersController</title>
<path fill="none" stroke="black" d="M-202.027,257.235C-202.027,257.235 -120.599,257.235 -120.599,257.235 -114.599,257.235 -108.599,251.235 -108.599,245.235 -108.599,245.235 -108.599,179.235 -108.599,179.235 -108.599,173.235 -114.599,167.235 -120.599,167.235 -120.599,167.235 -202.027,167.235 -202.027,167.235 -208.027,167.235 -214.027,173.235 -214.027,179.235 -214.027,179.235 -214.027,245.235 -214.027,245.235 -214.027,251.235 -208.027,257.235 -202.027,257.235"/>
<text text-anchor="middle" x="-161.313" y="182.435" font-family="Times,serif" font-size="14.00">UsersController</text>
<polyline fill="none" stroke="black" points="-214.027,189.235 -108.599,189.235 "/>
<text text-anchor="start" x="-206.027" y="204.435" font-family="Times,serif" font-size="14.00">index</text>
<polyline fill="none" stroke="black" points="-214.027,211.235 -108.599,211.235 "/>
<polyline fill="none" stroke="black" points="-214.027,235.235 -108.599,235.235 "/>
<text text-anchor="start" x="-206.027" y="250.435" font-family="Times,serif" font-size="14.00">_layout</text>
</g>
<!-- ApplicationController&#45;&gt;UsersController -->
<g id="edge6" class="edge"><title>ApplicationController&#45;&gt;UsersController</title>
<path fill="none" stroke="black" d="M-52.0586,44.3077C-75.7349,80.699 -108.551,131.139 -132.026,167.221"/>
</g>
<!-- WelcomeController -->
<g id="node9" class="node"><title>WelcomeController</title>
<path fill="none" stroke="black" d="M105.678,83.9977C105.678,83.9977 207.744,83.9977 207.744,83.9977 213.744,83.9977 219.744,77.9977 219.744,71.9977 219.744,71.9977 219.744,-22.0023 219.744,-22.0023 219.744,-28.0023 213.744,-34.0023 207.744,-34.0023 207.744,-34.0023 105.678,-34.0023 105.678,-34.0023 99.6783,-34.0023 93.6783,-28.0023 93.6783,-22.0023 93.6783,-22.0023 93.6783,71.9977 93.6783,71.9977 93.6783,77.9977 99.6783,83.9977 105.678,83.9977"/>
<text text-anchor="middle" x="156.711" y="-18.8023" font-family="Times,serif" font-size="14.00">WelcomeController</text>
<polyline fill="none" stroke="black" points="93.6783,-12.0023 219.744,-12.0023 "/>
<text text-anchor="start" x="101.678" y="3.19766" font-family="Times,serif" font-size="14.00">about</text>
<text text-anchor="start" x="101.678" y="17.1977" font-family="Times,serif" font-size="14.00">contact</text>
<text text-anchor="start" x="101.678" y="31.1977" font-family="Times,serif" font-size="14.00">index</text>
<polyline fill="none" stroke="black" points="93.6783,37.9977 219.744,37.9977 "/>
<polyline fill="none" stroke="black" points="93.6783,61.9977 219.744,61.9977 "/>
<text text-anchor="start" x="101.678" y="77.1977" font-family="Times,serif" font-size="14.00">_layout</text>
</g>
<!-- ApplicationController&#45;&gt;WelcomeController -->
<g id="edge7" class="edge"><title>ApplicationController&#45;&gt;WelcomeController</title>
<path fill="none" stroke="black" d="M47.8611,8.62058C62.9374,10.8889 78.7919,13.2743 93.5926,15.5011"/>
</g>
</g>
</svg>
