<?xml version="1.0" encoding="UTF-8" standalone="no"?>
<!DOCTYPE svg PUBLIC "-//W3C//DTD SVG 1.1//EN"
 "http://www.w3.org/Graphics/SVG/1.1/DTD/svg11.dtd">
<!-- Generated by graphviz version 2.38.0 (20140413.2041)
 -->
<!-- Title: controllers_diagram Pages: 1 -->
<svg width="899pt" height="877pt"
 viewBox="0.00 0.00 899.34 876.55" xmlns="http://www.w3.org/2000/svg" xmlns:xlink="http://www.w3.org/1999/xlink">
<g id="graph0" class="graph" transform="scale(1 1) rotate(0) translate(288.653 416.141)">
<title>controllers_diagram</title>
<polygon fill="white" stroke="none" points="-288.653,460.412 -288.653,-416.141 610.688,-416.141 610.688,460.412 -288.653,460.412"/>
<!-- _diagram_info -->
<g id="node1" class="node"><title>_diagram_info</title>
<text text-anchor="start" x="407.312" y="339.9" font-family="Times,serif" font-size="13.00">Controllers diagram</text>
<text text-anchor="start" x="407.312" y="352.9" font-family="Times,serif" font-size="13.00">Date: Sep 28 2014 &#45; 19:30</text>
<text text-anchor="start" x="407.312" y="365.9" font-family="Times,serif" font-size="13.00">Migration version: 20140926151604</text>
<text text-anchor="start" x="407.312" y="378.9" font-family="Times,serif" font-size="13.00">Generated by RailRoady 1.1.2</text>
<text text-anchor="start" x="407.312" y="391.9" font-family="Times,serif" font-size="13.00">http://railroady.prestonlee.com</text>
</g>
<!-- AcquisitionsController -->
<g id="node2" class="node"><title>AcquisitionsController</title>
<path fill="none" stroke="black" d="M-272.653,15.1444C-272.653,15.1444 -152.329,15.1444 -152.329,15.1444 -146.329,15.1444 -140.329,9.14442 -140.329,3.14442 -140.329,3.14442 -140.329,-174.856 -140.329,-174.856 -140.329,-180.856 -146.329,-186.856 -152.329,-186.856 -152.329,-186.856 -272.653,-186.856 -272.653,-186.856 -278.653,-186.856 -284.653,-180.856 -284.653,-174.856 -284.653,-174.856 -284.653,3.14442 -284.653,3.14442 -284.653,9.14442 -278.653,15.1444 -272.653,15.1444"/>
<text text-anchor="middle" x="-212.491" y="-171.656" font-family="Times,serif" font-size="14.00">AcquisitionsController</text>
<polyline fill="none" stroke="black" points="-284.653,-164.856 -140.329,-164.856 "/>
<text text-anchor="start" x="-276.653" y="-149.656" font-family="Times,serif" font-size="14.00">create</text>
<text text-anchor="start" x="-276.653" y="-135.656" font-family="Times,serif" font-size="14.00">destroy</text>
<text text-anchor="start" x="-276.653" y="-121.656" font-family="Times,serif" font-size="14.00">edit</text>
<text text-anchor="start" x="-276.653" y="-107.656" font-family="Times,serif" font-size="14.00">index</text>
<text text-anchor="start" x="-276.653" y="-93.6556" font-family="Times,serif" font-size="14.00">new</text>
<text text-anchor="start" x="-276.653" y="-79.6556" font-family="Times,serif" font-size="14.00">show</text>
<text text-anchor="start" x="-276.653" y="-65.6556" font-family="Times,serif" font-size="14.00">update</text>
<polyline fill="none" stroke="black" points="-284.653,-58.8556 -140.329,-58.8556 "/>
<polyline fill="none" stroke="black" points="-284.653,-34.8556 -140.329,-34.8556 "/>
<text text-anchor="start" x="-276.653" y="-19.6556" font-family="Times,serif" font-size="14.00">_layout</text>
<text text-anchor="start" x="-276.653" y="-5.65558" font-family="Times,serif" font-size="14.00">acquisition_params</text>
<text text-anchor="start" x="-276.653" y="8.34442" font-family="Times,serif" font-size="14.00">set_acquisition</text>
</g>
<!-- ApplicationController -->
<g id="node3" class="node"><title>ApplicationController</title>
<path fill="none" stroke="black" d="M-49.0814,68.6931C-49.0814,68.6931 66.5602,68.6931 66.5602,68.6931 72.5602,68.6931 78.5602,62.6931 78.5602,56.6931 78.5602,56.6931 78.5602,-11.3069 78.5602,-11.3069 78.5602,-17.3069 72.5602,-23.3069 66.5602,-23.3069 66.5602,-23.3069 -49.0814,-23.3069 -49.0814,-23.3069 -55.0814,-23.3069 -61.0814,-17.3069 -61.0814,-11.3069 -61.0814,-11.3069 -61.0814,56.6931 -61.0814,56.6931 -61.0814,62.6931 -55.0814,68.6931 -49.0814,68.6931"/>
<text text-anchor="middle" x="8.73939" y="-8.10686" font-family="Times,serif" font-size="14.00">ApplicationController</text>
<polyline fill="none" stroke="black" points="-61.0814,-1.30686 78.5602,-1.30686 "/>
<polyline fill="none" stroke="black" points="-61.0814,22.6931 78.5602,22.6931 "/>
<polyline fill="none" stroke="black" points="-61.0814,46.6931 78.5602,46.6931 "/>
<text text-anchor="start" x="-53.0814" y="61.8931" font-family="Times,serif" font-size="14.00">_layout</text>
</g>
<!-- ApplicationController&#45;&gt;AcquisitionsController -->
<g id="edge1" class="edge"><title>ApplicationController&#45;&gt;AcquisitionsController</title>
<path fill="none" stroke="black" d="M-61.2593,-11.6524C-86.4505,-24.0127 -114.905,-37.9743 -140.281,-50.4253"/>
</g>
<!-- AssignsController -->
<g id="node4" class="node"><title>AssignsController</title>
<path fill="none" stroke="black" d="M-39.4012,412.033C-39.4012,412.033 54.4884,412.033 54.4884,412.033 60.4884,412.033 66.4884,406.033 66.4884,400.033 66.4884,400.033 66.4884,222.033 66.4884,222.033 66.4884,216.033 60.4884,210.033 54.4884,210.033 54.4884,210.033 -39.4012,210.033 -39.4012,210.033 -45.4012,210.033 -51.4012,216.033 -51.4012,222.033 -51.4012,222.033 -51.4012,400.033 -51.4012,400.033 -51.4012,406.033 -45.4012,412.033 -39.4012,412.033"/>
<text text-anchor="middle" x="7.54359" y="225.233" font-family="Times,serif" font-size="14.00">AssignsController</text>
<polyline fill="none" stroke="black" points="-51.4012,232.033 66.4884,232.033 "/>
<text text-anchor="start" x="-43.4012" y="247.233" font-family="Times,serif" font-size="14.00">create</text>
<text text-anchor="start" x="-43.4012" y="261.233" font-family="Times,serif" font-size="14.00">destroy</text>
<text text-anchor="start" x="-43.4012" y="275.233" font-family="Times,serif" font-size="14.00">edit</text>
<text text-anchor="start" x="-43.4012" y="289.233" font-family="Times,serif" font-size="14.00">index</text>
<text text-anchor="start" x="-43.4012" y="303.233" font-family="Times,serif" font-size="14.00">new</text>
<text text-anchor="start" x="-43.4012" y="317.233" font-family="Times,serif" font-size="14.00">show</text>
<text text-anchor="start" x="-43.4012" y="331.233" font-family="Times,serif" font-size="14.00">update</text>
<polyline fill="none" stroke="black" points="-51.4012,338.033 66.4884,338.033 "/>
<polyline fill="none" stroke="black" points="-51.4012,362.033 66.4884,362.033 "/>
<text text-anchor="start" x="-43.4012" y="377.233" font-family="Times,serif" font-size="14.00">_layout</text>
<text text-anchor="start" x="-43.4012" y="391.233" font-family="Times,serif" font-size="14.00">assign_params</text>
<text text-anchor="start" x="-43.4012" y="405.233" font-family="Times,serif" font-size="14.00">set_assign</text>
</g>
<!-- ApplicationController&#45;&gt;AssignsController -->
<g id="edge2" class="edge"><title>ApplicationController&#45;&gt;AssignsController</title>
<path fill="none" stroke="black" d="M8.54859,68.7002C8.39133,106.621 8.1625,161.796 7.96291,209.923"/>
</g>
<!-- CategoriesController -->
<g id="node5" class="node"><title>CategoriesController</title>
<path fill="none" stroke="black" d="M-44.7214,-164.41C-44.7214,-164.41 64.6926,-164.41 64.6926,-164.41 70.6926,-164.41 76.6926,-170.41 76.6926,-176.41 76.6926,-176.41 76.6926,-354.41 76.6926,-354.41 76.6926,-360.41 70.6926,-366.41 64.6926,-366.41 64.6926,-366.41 -44.7214,-366.41 -44.7214,-366.41 -50.7214,-366.41 -56.7214,-360.41 -56.7214,-354.41 -56.7214,-354.41 -56.7214,-176.41 -56.7214,-176.41 -56.7214,-170.41 -50.7214,-164.41 -44.7214,-164.41"/>
<text text-anchor="middle" x="9.98559" y="-351.21" font-family="Times,serif" font-size="14.00">CategoriesController</text>
<polyline fill="none" stroke="black" points="-56.7214,-344.41 76.6926,-344.41 "/>
<text text-anchor="start" x="-48.7214" y="-329.21" font-family="Times,serif" font-size="14.00">create</text>
<text text-anchor="start" x="-48.7214" y="-315.21" font-family="Times,serif" font-size="14.00">destroy</text>
<text text-anchor="start" x="-48.7214" y="-301.21" font-family="Times,serif" font-size="14.00">edit</text>
<text text-anchor="start" x="-48.7214" y="-287.21" font-family="Times,serif" font-size="14.00">index</text>
<text text-anchor="start" x="-48.7214" y="-273.21" font-family="Times,serif" font-size="14.00">new</text>
<text text-anchor="start" x="-48.7214" y="-259.21" font-family="Times,serif" font-size="14.00">show</text>
<text text-anchor="start" x="-48.7214" y="-245.21" font-family="Times,serif" font-size="14.00">update</text>
<polyline fill="none" stroke="black" points="-56.7214,-238.41 76.6926,-238.41 "/>
<polyline fill="none" stroke="black" points="-56.7214,-214.41 76.6926,-214.41 "/>
<text text-anchor="start" x="-48.7214" y="-199.21" font-family="Times,serif" font-size="14.00">_layout</text>
<text text-anchor="start" x="-48.7214" y="-185.21" font-family="Times,serif" font-size="14.00">category_params</text>
<text text-anchor="start" x="-48.7214" y="-171.21" font-family="Times,serif" font-size="14.00">set_category</text>
</g>
<!-- ApplicationController&#45;&gt;CategoriesController -->
<g id="edge3" class="edge"><title>ApplicationController&#45;&gt;CategoriesController</title>
<path fill="none" stroke="black" d="M8.93961,-23.5956C9.10337,-61.4525 9.3409,-116.365 9.54823,-164.298"/>
</g>
<!-- HistoriesController -->
<g id="node6" class="node"><title>HistoriesController</title>
<path fill="none" stroke="black" d="M183.607,-208.083C183.607,-208.083 283.703,-208.083 283.703,-208.083 289.703,-208.083 295.703,-214.083 295.703,-220.083 295.703,-220.083 295.703,-398.083 295.703,-398.083 295.703,-404.083 289.703,-410.083 283.703,-410.083 283.703,-410.083 183.607,-410.083 183.607,-410.083 177.607,-410.083 171.607,-404.083 171.607,-398.083 171.607,-398.083 171.607,-220.083 171.607,-220.083 171.607,-214.083 177.607,-208.083 183.607,-208.083"/>
<text text-anchor="middle" x="233.655" y="-394.883" font-family="Times,serif" font-size="14.00">HistoriesController</text>
<polyline fill="none" stroke="black" points="171.607,-388.083 295.703,-388.083 "/>
<text text-anchor="start" x="179.607" y="-372.883" font-family="Times,serif" font-size="14.00">create</text>
<text text-anchor="start" x="179.607" y="-358.883" font-family="Times,serif" font-size="14.00">destroy</text>
<text text-anchor="start" x="179.607" y="-344.883" font-family="Times,serif" font-size="14.00">edit</text>
<text text-anchor="start" x="179.607" y="-330.883" font-family="Times,serif" font-size="14.00">index</text>
<text text-anchor="start" x="179.607" y="-316.883" font-family="Times,serif" font-size="14.00">new</text>
<text text-anchor="start" x="179.607" y="-302.883" font-family="Times,serif" font-size="14.00">show</text>
<text text-anchor="start" x="179.607" y="-288.883" font-family="Times,serif" font-size="14.00">update</text>
<polyline fill="none" stroke="black" points="171.607,-282.083 295.703,-282.083 "/>
<polyline fill="none" stroke="black" points="171.607,-258.083 295.703,-258.083 "/>
<text text-anchor="start" x="179.607" y="-242.883" font-family="Times,serif" font-size="14.00">_layout</text>
<text text-anchor="start" x="179.607" y="-228.883" font-family="Times,serif" font-size="14.00">history_params</text>
<text text-anchor="start" x="179.607" y="-214.883" font-family="Times,serif" font-size="14.00">set_history</text>
</g>
<!-- ApplicationController&#45;&gt;HistoriesController -->
<g id="edge4" class="edge"><title>ApplicationController&#45;&gt;HistoriesController</title>
<path fill="none" stroke="black" d="M40.0129,-23.4389C73.8705,-73.3827 128.75,-154.336 171.456,-217.332"/>
</g>
<!-- LevelsController -->
<g id="node7" class="node"><title>LevelsController</title>
<path fill="none" stroke="black" d="M-258.278,-209.641C-258.278,-209.641 -171.415,-209.641 -171.415,-209.641 -165.415,-209.641 -159.415,-215.641 -159.415,-221.641 -159.415,-221.641 -159.415,-399.641 -159.415,-399.641 -159.415,-405.641 -165.415,-411.641 -171.415,-411.641 -171.415,-411.641 -258.278,-411.641 -258.278,-411.641 -264.278,-411.641 -270.278,-405.641 -270.278,-399.641 -270.278,-399.641 -270.278,-221.641 -270.278,-221.641 -270.278,-215.641 -264.278,-209.641 -258.278,-209.641"/>
<text text-anchor="middle" x="-214.847" y="-396.441" font-family="Times,serif" font-size="14.00">LevelsController</text>
<polyline fill="none" stroke="black" points="-270.278,-389.641 -159.415,-389.641 "/>
<text text-anchor="start" x="-262.278" y="-374.441" font-family="Times,serif" font-size="14.00">create</text>
<text text-anchor="start" x="-262.278" y="-360.441" font-family="Times,serif" font-size="14.00">destroy</text>
<text text-anchor="start" x="-262.278" y="-346.441" font-family="Times,serif" font-size="14.00">edit</text>
<text text-anchor="start" x="-262.278" y="-332.441" font-family="Times,serif" font-size="14.00">index</text>
<text text-anchor="start" x="-262.278" y="-318.441" font-family="Times,serif" font-size="14.00">new</text>
<text text-anchor="start" x="-262.278" y="-304.441" font-family="Times,serif" font-size="14.00">show</text>
<text text-anchor="start" x="-262.278" y="-290.441" font-family="Times,serif" font-size="14.00">update</text>
<polyline fill="none" stroke="black" points="-270.278,-283.641 -159.415,-283.641 "/>
<polyline fill="none" stroke="black" points="-270.278,-259.641 -159.415,-259.641 "/>
<text text-anchor="start" x="-262.278" y="-244.441" font-family="Times,serif" font-size="14.00">_layout</text>
<text text-anchor="start" x="-262.278" y="-230.441" font-family="Times,serif" font-size="14.00">level_params</text>
<text text-anchor="start" x="-262.278" y="-216.441" font-family="Times,serif" font-size="14.00">set_level</text>
</g>
<!-- ApplicationController&#45;&gt;LevelsController -->
<g id="edge5" class="edge"><title>ApplicationController&#45;&gt;LevelsController</title>
<path fill="none" stroke="black" d="M-22.3493,-23.6555C-57.6866,-76.3383 -116.06,-163.364 -159.277,-227.795"/>
</g>
<!-- MissionsController -->
<g id="node8" class="node"><title>MissionsController</title>
<path fill="none" stroke="black" d="M-266.168,455.912C-266.168,455.912 -166.051,455.912 -166.051,455.912 -160.051,455.912 -154.051,449.912 -154.051,443.912 -154.051,443.912 -154.051,265.912 -154.051,265.912 -154.051,259.912 -160.051,253.912 -166.051,253.912 -166.051,253.912 -266.168,253.912 -266.168,253.912 -272.168,253.912 -278.168,259.912 -278.168,265.912 -278.168,265.912 -278.168,443.912 -278.168,443.912 -278.168,449.912 -272.168,455.912 -266.168,455.912"/>
<text text-anchor="middle" x="-216.109" y="269.112" font-family="Times,serif" font-size="14.00">MissionsController</text>
<polyline fill="none" stroke="black" points="-278.168,275.912 -154.051,275.912 "/>
<text text-anchor="start" x="-270.168" y="291.112" font-family="Times,serif" font-size="14.00">create</text>
<text text-anchor="start" x="-270.168" y="305.112" font-family="Times,serif" font-size="14.00">destroy</text>
<text text-anchor="start" x="-270.168" y="319.112" font-family="Times,serif" font-size="14.00">edit</text>
<text text-anchor="start" x="-270.168" y="333.112" font-family="Times,serif" font-size="14.00">index</text>
<text text-anchor="start" x="-270.168" y="347.112" font-family="Times,serif" font-size="14.00">new</text>
<text text-anchor="start" x="-270.168" y="361.112" font-family="Times,serif" font-size="14.00">show</text>
<text text-anchor="start" x="-270.168" y="375.112" font-family="Times,serif" font-size="14.00">update</text>
<polyline fill="none" stroke="black" points="-278.168,381.912 -154.051,381.912 "/>
<polyline fill="none" stroke="black" points="-278.168,405.912 -154.051,405.912 "/>
<text text-anchor="start" x="-270.168" y="421.112" font-family="Times,serif" font-size="14.00">_layout</text>
<text text-anchor="start" x="-270.168" y="435.112" font-family="Times,serif" font-size="14.00">mission_params</text>
<text text-anchor="start" x="-270.168" y="449.112" font-family="Times,serif" font-size="14.00">set_mission</text>
</g>
<!-- ApplicationController&#45;&gt;MissionsController -->
<g id="edge6" class="edge"><title>ApplicationController&#45;&gt;MissionsController</title>
<path fill="none" stroke="black" d="M-22.5249,68.8867C-56.3724,118.897 -111.236,199.959 -153.929,263.039"/>
</g>
<!-- RolesController -->
<g id="node9" class="node"><title>RolesController</title>
<path fill="none" stroke="black" d="M190.072,18.9624C190.072,18.9624 271.507,18.9624 271.507,18.9624 277.507,18.9624 283.507,12.9624 283.507,6.96244 283.507,6.96244 283.507,-171.038 283.507,-171.038 283.507,-177.038 277.507,-183.038 271.507,-183.038 271.507,-183.038 190.072,-183.038 190.072,-183.038 184.072,-183.038 178.072,-177.038 178.072,-171.038 178.072,-171.038 178.072,6.96244 178.072,6.96244 178.072,12.9624 184.072,18.9624 190.072,18.9624"/>
<text text-anchor="middle" x="230.79" y="-167.838" font-family="Times,serif" font-size="14.00">RolesController</text>
<polyline fill="none" stroke="black" points="178.072,-161.038 283.507,-161.038 "/>
<text text-anchor="start" x="186.072" y="-145.838" font-family="Times,serif" font-size="14.00">create</text>
<text text-anchor="start" x="186.072" y="-131.838" font-family="Times,serif" font-size="14.00">destroy</text>
<text text-anchor="start" x="186.072" y="-117.838" font-family="Times,serif" font-size="14.00">edit</text>
<text text-anchor="start" x="186.072" y="-103.838" font-family="Times,serif" font-size="14.00">index</text>
<text text-anchor="start" x="186.072" y="-89.8376" font-family="Times,serif" font-size="14.00">new</text>
<text text-anchor="start" x="186.072" y="-75.8376" font-family="Times,serif" font-size="14.00">show</text>
<text text-anchor="start" x="186.072" y="-61.8376" font-family="Times,serif" font-size="14.00">update</text>
<polyline fill="none" stroke="black" points="178.072,-55.0376 283.507,-55.0376 "/>
<polyline fill="none" stroke="black" points="178.072,-31.0376 283.507,-31.0376 "/>
<text text-anchor="start" x="186.072" y="-15.8376" font-family="Times,serif" font-size="14.00">_layout</text>
<text text-anchor="start" x="186.072" y="-1.83756" font-family="Times,serif" font-size="14.00">role_params</text>
<text text-anchor="start" x="186.072" y="12.1624" font-family="Times,serif" font-size="14.00">set_role</text>
</g>
<!-- ApplicationController&#45;&gt;RolesController -->
<g id="edge7" class="edge"><title>ApplicationController&#45;&gt;RolesController</title>
<path fill="none" stroke="black" d="M78.6927,-10.3006C110.728,-25.41 148.074,-43.0243 177.742,-57.0175"/>
</g>
<!-- StatusesController -->
<g id="node10" class="node"><title>StatusesController</title>
<path fill="none" stroke="black" d="M-260.937,228.825C-260.937,228.825 -165.502,228.825 -165.502,228.825 -159.502,228.825 -153.502,222.825 -153.502,216.825 -153.502,216.825 -153.502,38.8248 -153.502,38.8248 -153.502,32.8248 -159.502,26.8248 -165.502,26.8248 -165.502,26.8248 -260.937,26.8248 -260.937,26.8248 -266.937,26.8248 -272.937,32.8248 -272.937,38.8248 -272.937,38.8248 -272.937,216.825 -272.937,216.825 -272.937,222.825 -266.937,228.825 -260.937,228.825"/>
<text text-anchor="middle" x="-213.219" y="42.0248" font-family="Times,serif" font-size="14.00">StatusesController</text>
<polyline fill="none" stroke="black" points="-272.937,48.8248 -153.502,48.8248 "/>
<text text-anchor="start" x="-264.937" y="64.0248" font-family="Times,serif" font-size="14.00">create</text>
<text text-anchor="start" x="-264.937" y="78.0248" font-family="Times,serif" font-size="14.00">destroy</text>
<text text-anchor="start" x="-264.937" y="92.0248" font-family="Times,serif" font-size="14.00">edit</text>
<text text-anchor="start" x="-264.937" y="106.025" font-family="Times,serif" font-size="14.00">index</text>
<text text-anchor="start" x="-264.937" y="120.025" font-family="Times,serif" font-size="14.00">new</text>
<text text-anchor="start" x="-264.937" y="134.025" font-family="Times,serif" font-size="14.00">show</text>
<text text-anchor="start" x="-264.937" y="148.025" font-family="Times,serif" font-size="14.00">update</text>
<polyline fill="none" stroke="black" points="-272.937,154.825 -153.502,154.825 "/>
<polyline fill="none" stroke="black" points="-272.937,178.825 -153.502,178.825 "/>
<text text-anchor="start" x="-264.937" y="194.025" font-family="Times,serif" font-size="14.00">_layout</text>
<text text-anchor="start" x="-264.937" y="208.025" font-family="Times,serif" font-size="14.00">set_status</text>
<text text-anchor="start" x="-264.937" y="222.025" font-family="Times,serif" font-size="14.00">status_params</text>
</g>
<!-- ApplicationController&#45;&gt;StatusesController -->
<g id="edge8" class="edge"><title>ApplicationController&#45;&gt;StatusesController</title>
<path fill="none" stroke="black" d="M-61.1851,55.8132C-90.7927,69.8369 -124.938,86.0102 -153.36,99.4723"/>
</g>
<!-- UsersController -->
<g id="node11" class="node"><title>UsersController</title>
<path fill="none" stroke="black" d="M189.17,176.618C189.17,176.618 270.598,176.618 270.598,176.618 276.598,176.618 282.598,170.618 282.598,164.618 282.598,164.618 282.598,98.6184 282.598,98.6184 282.598,92.6184 276.598,86.6184 270.598,86.6184 270.598,86.6184 189.17,86.6184 189.17,86.6184 183.17,86.6184 177.17,92.6184 177.17,98.6184 177.17,98.6184 177.17,164.618 177.17,164.618 177.17,170.618 183.17,176.618 189.17,176.618"/>
<text text-anchor="middle" x="229.884" y="101.818" font-family="Times,serif" font-size="14.00">UsersController</text>
<polyline fill="none" stroke="black" points="177.17,108.618 282.598,108.618 "/>
<text text-anchor="start" x="185.17" y="123.818" font-family="Times,serif" font-size="14.00">index</text>
<polyline fill="none" stroke="black" points="177.17,130.618 282.598,130.618 "/>
<polyline fill="none" stroke="black" points="177.17,154.618 282.598,154.618 "/>
<text text-anchor="start" x="185.17" y="169.818" font-family="Times,serif" font-size="14.00">_layout</text>
</g>
<!-- ApplicationController&#45;&gt;UsersController -->
<g id="edge9" class="edge"><title>ApplicationController&#45;&gt;UsersController</title>
<path fill="none" stroke="black" d="M78.7109,57.1578C110.472,72.802 147.424,91.0026 176.844,105.493"/>
</g>
<!-- WelcomeController -->
<g id="node12" class="node"><title>WelcomeController</title>
<path fill="none" stroke="black" d="M181.287,415.453C181.287,415.453 283.352,415.453 283.352,415.453 289.352,415.453 295.352,409.453 295.352,403.453 295.352,403.453 295.352,309.453 295.352,309.453 295.352,303.453 289.352,297.453 283.352,297.453 283.352,297.453 181.287,297.453 181.287,297.453 175.287,297.453 169.287,303.453 169.287,309.453 169.287,309.453 169.287,403.453 169.287,403.453 169.287,409.453 175.287,415.453 181.287,415.453"/>
<text text-anchor="middle" x="232.319" y="312.653" font-family="Times,serif" font-size="14.00">WelcomeController</text>
<polyline fill="none" stroke="black" points="169.287,319.453 295.352,319.453 "/>
<text text-anchor="start" x="177.287" y="334.653" font-family="Times,serif" font-size="14.00">about</text>
<text text-anchor="start" x="177.287" y="348.653" font-family="Times,serif" font-size="14.00">contact</text>
<text text-anchor="start" x="177.287" y="362.653" font-family="Times,serif" font-size="14.00">index</text>
<polyline fill="none" stroke="black" points="169.287,369.453 295.352,369.453 "/>
<polyline fill="none" stroke="black" points="169.287,393.453 295.352,393.453 "/>
<text text-anchor="start" x="177.287" y="408.653" font-family="Times,serif" font-size="14.00">_layout</text>
</g>
<!-- ApplicationController&#45;&gt;WelcomeController -->
<g id="edge10" class="edge"><title>ApplicationController&#45;&gt;WelcomeController</title>
<path fill="none" stroke="black" d="M39.5925,68.7506C79.4834,128.3 149.01,232.089 192.748,297.382"/>
</g>
</g>
</svg>
