<?xml version="1.0" encoding="UTF-8" standalone="no"?>
<!DOCTYPE svg PUBLIC "-//W3C//DTD SVG 1.1//EN"
 "http://www.w3.org/Graphics/SVG/1.1/DTD/svg11.dtd">
<!-- Generated by graphviz version 2.38.0 (20140413.2041)
 -->
<!-- Title: controllers_diagram Pages: 1 -->
<svg width="900pt" height="878pt"
 viewBox="0.00 0.00 900.08 877.98" xmlns="http://www.w3.org/2000/svg" xmlns:xlink="http://www.w3.org/1999/xlink">
<g id="graph0" class="graph" transform="scale(1 1) rotate(0) translate(289.393 417.653)">
<title>controllers_diagram</title>
<polygon fill="white" stroke="none" points="-289.393,460.323 -289.393,-417.653 610.688,-417.653 610.688,460.323 -289.393,460.323"/>
<!-- _diagram_info -->
<g id="node1" class="node"><title>_diagram_info</title>
<text text-anchor="start" x="407.312" y="339.9" font-family="Times,serif" font-size="13.00">Controllers diagram</text>
<text text-anchor="start" x="407.312" y="352.9" font-family="Times,serif" font-size="13.00">Date: Sep 29 2014 &#45; 09:01</text>
<text text-anchor="start" x="407.312" y="365.9" font-family="Times,serif" font-size="13.00">Migration version: 20140928235009</text>
<text text-anchor="start" x="407.312" y="378.9" font-family="Times,serif" font-size="13.00">Generated by RailRoady 1.1.2</text>
<text text-anchor="start" x="407.312" y="391.9" font-family="Times,serif" font-size="13.00">http://railroady.prestonlee.com</text>
</g>
<!-- AcquisitionsController -->
<g id="node2" class="node"><title>AcquisitionsController</title>
<path fill="none" stroke="black" d="M-273.393,13.6169C-273.393,13.6169 -153.069,13.6169 -153.069,13.6169 -147.069,13.6169 -141.069,7.6169 -141.069,1.6169 -141.069,1.6169 -141.069,-176.383 -141.069,-176.383 -141.069,-182.383 -147.069,-188.383 -153.069,-188.383 -153.069,-188.383 -273.393,-188.383 -273.393,-188.383 -279.393,-188.383 -285.393,-182.383 -285.393,-176.383 -285.393,-176.383 -285.393,1.6169 -285.393,1.6169 -285.393,7.6169 -279.393,13.6169 -273.393,13.6169"/>
<text text-anchor="middle" x="-213.231" y="-173.183" font-family="Times,serif" font-size="14.00">AcquisitionsController</text>
<polyline fill="none" stroke="black" points="-285.393,-166.383 -141.069,-166.383 "/>
<text text-anchor="start" x="-277.393" y="-151.183" font-family="Times,serif" font-size="14.00">create</text>
<text text-anchor="start" x="-277.393" y="-137.183" font-family="Times,serif" font-size="14.00">destroy</text>
<text text-anchor="start" x="-277.393" y="-123.183" font-family="Times,serif" font-size="14.00">edit</text>
<text text-anchor="start" x="-277.393" y="-109.183" font-family="Times,serif" font-size="14.00">index</text>
<text text-anchor="start" x="-277.393" y="-95.1831" font-family="Times,serif" font-size="14.00">new</text>
<text text-anchor="start" x="-277.393" y="-81.1831" font-family="Times,serif" font-size="14.00">show</text>
<text text-anchor="start" x="-277.393" y="-67.1831" font-family="Times,serif" font-size="14.00">update</text>
<polyline fill="none" stroke="black" points="-285.393,-60.3831 -141.069,-60.3831 "/>
<polyline fill="none" stroke="black" points="-285.393,-36.3831 -141.069,-36.3831 "/>
<text text-anchor="start" x="-277.393" y="-21.1831" font-family="Times,serif" font-size="14.00">_layout</text>
<text text-anchor="start" x="-277.393" y="-7.1831" font-family="Times,serif" font-size="14.00">acquisition_params</text>
<text text-anchor="start" x="-277.393" y="6.8169" font-family="Times,serif" font-size="14.00">set_acquisition</text>
</g>
<!-- ApplicationController -->
<g id="node3" class="node"><title>ApplicationController</title>
<path fill="none" stroke="black" d="M-79.2266,66.7571C-79.2266,66.7571 94.705,66.7571 94.705,66.7571 100.705,66.7571 106.705,60.7571 106.705,54.7571 106.705,54.7571 106.705,-11.2429 106.705,-11.2429 106.705,-17.2429 100.705,-23.2429 94.705,-23.2429 94.705,-23.2429 -79.2266,-23.2429 -79.2266,-23.2429 -85.2266,-23.2429 -91.2266,-17.2429 -91.2266,-11.2429 -91.2266,-11.2429 -91.2266,54.7571 -91.2266,54.7571 -91.2266,60.7571 -85.2266,66.7571 -79.2266,66.7571"/>
<text text-anchor="middle" x="7.73919" y="-8.04287" font-family="Times,serif" font-size="14.00">ApplicationController</text>
<polyline fill="none" stroke="black" points="-91.2266,-1.24287 106.705,-1.24287 "/>
<polyline fill="none" stroke="black" points="-91.2266,22.7571 106.705,22.7571 "/>
<text text-anchor="start" x="-83.2266" y="37.9571" font-family="Times,serif" font-size="14.00">configure_permitted_parameters</text>
<polyline fill="none" stroke="black" points="-91.2266,44.7571 106.705,44.7571 "/>
<text text-anchor="start" x="-83.2266" y="59.9571" font-family="Times,serif" font-size="14.00">_layout</text>
</g>
<!-- ApplicationController&#45;&gt;AcquisitionsController -->
<g id="edge1" class="edge"><title>ApplicationController&#45;&gt;AcquisitionsController</title>
<path fill="none" stroke="black" d="M-83.4135,-23.2645C-102.554,-32.7182 -122.493,-42.5665 -140.836,-51.6264"/>
</g>
<!-- AssignsController -->
<g id="node4" class="node"><title>AssignsController</title>
<path fill="none" stroke="black" d="M-40.0767,412.718C-40.0767,412.718 53.813,412.718 53.813,412.718 59.813,412.718 65.813,406.718 65.813,400.718 65.813,400.718 65.813,222.718 65.813,222.718 65.813,216.718 59.813,210.718 53.813,210.718 53.813,210.718 -40.0767,210.718 -40.0767,210.718 -46.0767,210.718 -52.0767,216.718 -52.0767,222.718 -52.0767,222.718 -52.0767,400.718 -52.0767,400.718 -52.0767,406.718 -46.0767,412.718 -40.0767,412.718"/>
<text text-anchor="middle" x="6.86815" y="225.918" font-family="Times,serif" font-size="14.00">AssignsController</text>
<polyline fill="none" stroke="black" points="-52.0767,232.718 65.813,232.718 "/>
<text text-anchor="start" x="-44.0767" y="247.918" font-family="Times,serif" font-size="14.00">create</text>
<text text-anchor="start" x="-44.0767" y="261.918" font-family="Times,serif" font-size="14.00">destroy</text>
<text text-anchor="start" x="-44.0767" y="275.918" font-family="Times,serif" font-size="14.00">edit</text>
<text text-anchor="start" x="-44.0767" y="289.918" font-family="Times,serif" font-size="14.00">index</text>
<text text-anchor="start" x="-44.0767" y="303.918" font-family="Times,serif" font-size="14.00">new</text>
<text text-anchor="start" x="-44.0767" y="317.918" font-family="Times,serif" font-size="14.00">show</text>
<text text-anchor="start" x="-44.0767" y="331.918" font-family="Times,serif" font-size="14.00">update</text>
<polyline fill="none" stroke="black" points="-52.0767,338.718 65.813,338.718 "/>
<polyline fill="none" stroke="black" points="-52.0767,362.718 65.813,362.718 "/>
<text text-anchor="start" x="-44.0767" y="377.918" font-family="Times,serif" font-size="14.00">_layout</text>
<text text-anchor="start" x="-44.0767" y="391.918" font-family="Times,serif" font-size="14.00">assign_params</text>
<text text-anchor="start" x="-44.0767" y="405.918" font-family="Times,serif" font-size="14.00">set_assign</text>
</g>
<!-- ApplicationController&#45;&gt;AssignsController -->
<g id="edge2" class="edge"><title>ApplicationController&#45;&gt;AssignsController</title>
<path fill="none" stroke="black" d="M7.60309,67.0635C7.48801,105.37 7.31889,161.671 7.17188,210.609"/>
</g>
<!-- CategoriesController -->
<g id="node5" class="node"><title>CategoriesController</title>
<path fill="none" stroke="black" d="M-46.0683,-167.031C-46.0683,-167.031 63.3458,-167.031 63.3458,-167.031 69.3458,-167.031 75.3458,-173.031 75.3458,-179.031 75.3458,-179.031 75.3458,-357.031 75.3458,-357.031 75.3458,-363.031 69.3458,-369.031 63.3458,-369.031 63.3458,-369.031 -46.0683,-369.031 -46.0683,-369.031 -52.0683,-369.031 -58.0683,-363.031 -58.0683,-357.031 -58.0683,-357.031 -58.0683,-179.031 -58.0683,-179.031 -58.0683,-173.031 -52.0683,-167.031 -46.0683,-167.031"/>
<text text-anchor="middle" x="8.63872" y="-353.831" font-family="Times,serif" font-size="14.00">CategoriesController</text>
<polyline fill="none" stroke="black" points="-58.0683,-347.031 75.3458,-347.031 "/>
<text text-anchor="start" x="-50.0683" y="-331.831" font-family="Times,serif" font-size="14.00">create</text>
<text text-anchor="start" x="-50.0683" y="-317.831" font-family="Times,serif" font-size="14.00">destroy</text>
<text text-anchor="start" x="-50.0683" y="-303.831" font-family="Times,serif" font-size="14.00">edit</text>
<text text-anchor="start" x="-50.0683" y="-289.831" font-family="Times,serif" font-size="14.00">index</text>
<text text-anchor="start" x="-50.0683" y="-275.831" font-family="Times,serif" font-size="14.00">new</text>
<text text-anchor="start" x="-50.0683" y="-261.831" font-family="Times,serif" font-size="14.00">show</text>
<text text-anchor="start" x="-50.0683" y="-247.831" font-family="Times,serif" font-size="14.00">update</text>
<polyline fill="none" stroke="black" points="-58.0683,-241.031 75.3458,-241.031 "/>
<polyline fill="none" stroke="black" points="-58.0683,-217.031 75.3458,-217.031 "/>
<text text-anchor="start" x="-50.0683" y="-201.831" font-family="Times,serif" font-size="14.00">_layout</text>
<text text-anchor="start" x="-50.0683" y="-187.831" font-family="Times,serif" font-size="14.00">category_params</text>
<text text-anchor="start" x="-50.0683" y="-173.831" font-family="Times,serif" font-size="14.00">set_category</text>
</g>
<!-- ApplicationController&#45;&gt;CategoriesController -->
<g id="edge3" class="edge"><title>ApplicationController&#45;&gt;CategoriesController</title>
<path fill="none" stroke="black" d="M7.87974,-23.5222C7.99858,-61.8063 8.17324,-118.073 8.32506,-166.982"/>
</g>
<!-- HistoriesController -->
<g id="node6" class="node"><title>HistoriesController</title>
<path fill="none" stroke="black" d="M183.043,-210.004C183.043,-210.004 283.14,-210.004 283.14,-210.004 289.14,-210.004 295.14,-216.004 295.14,-222.004 295.14,-222.004 295.14,-400.004 295.14,-400.004 295.14,-406.004 289.14,-412.004 283.14,-412.004 283.14,-412.004 183.043,-412.004 183.043,-412.004 177.043,-412.004 171.043,-406.004 171.043,-400.004 171.043,-400.004 171.043,-222.004 171.043,-222.004 171.043,-216.004 177.043,-210.004 183.043,-210.004"/>
<text text-anchor="middle" x="233.091" y="-396.804" font-family="Times,serif" font-size="14.00">HistoriesController</text>
<polyline fill="none" stroke="black" points="171.043,-390.004 295.14,-390.004 "/>
<text text-anchor="start" x="179.043" y="-374.804" font-family="Times,serif" font-size="14.00">create</text>
<text text-anchor="start" x="179.043" y="-360.804" font-family="Times,serif" font-size="14.00">destroy</text>
<text text-anchor="start" x="179.043" y="-346.804" font-family="Times,serif" font-size="14.00">edit</text>
<text text-anchor="start" x="179.043" y="-332.804" font-family="Times,serif" font-size="14.00">index</text>
<text text-anchor="start" x="179.043" y="-318.804" font-family="Times,serif" font-size="14.00">new</text>
<text text-anchor="start" x="179.043" y="-304.804" font-family="Times,serif" font-size="14.00">show</text>
<text text-anchor="start" x="179.043" y="-290.804" font-family="Times,serif" font-size="14.00">update</text>
<polyline fill="none" stroke="black" points="171.043,-284.004 295.14,-284.004 "/>
<polyline fill="none" stroke="black" points="171.043,-260.004 295.14,-260.004 "/>
<text text-anchor="start" x="179.043" y="-244.804" font-family="Times,serif" font-size="14.00">_layout</text>
<text text-anchor="start" x="179.043" y="-230.804" font-family="Times,serif" font-size="14.00">history_params</text>
<text text-anchor="start" x="179.043" y="-216.804" font-family="Times,serif" font-size="14.00">set_history</text>
</g>
<!-- ApplicationController&#45;&gt;HistoriesController -->
<g id="edge4" class="edge"><title>ApplicationController&#45;&gt;HistoriesController</title>
<path fill="none" stroke="black" d="M38.3657,-23.4668C72.2422,-73.4898 127.73,-155.425 170.826,-219.061"/>
</g>
<!-- LevelsController -->
<g id="node7" class="node"><title>LevelsController</title>
<path fill="none" stroke="black" d="M-260.091,-211.153C-260.091,-211.153 -173.229,-211.153 -173.229,-211.153 -167.229,-211.153 -161.229,-217.153 -161.229,-223.153 -161.229,-223.153 -161.229,-401.153 -161.229,-401.153 -161.229,-407.153 -167.229,-413.153 -173.229,-413.153 -173.229,-413.153 -260.091,-413.153 -260.091,-413.153 -266.091,-413.153 -272.091,-407.153 -272.091,-401.153 -272.091,-401.153 -272.091,-223.153 -272.091,-223.153 -272.091,-217.153 -266.091,-211.153 -260.091,-211.153"/>
<text text-anchor="middle" x="-216.66" y="-397.953" font-family="Times,serif" font-size="14.00">LevelsController</text>
<polyline fill="none" stroke="black" points="-272.091,-391.153 -161.229,-391.153 "/>
<text text-anchor="start" x="-264.091" y="-375.953" font-family="Times,serif" font-size="14.00">create</text>
<text text-anchor="start" x="-264.091" y="-361.953" font-family="Times,serif" font-size="14.00">destroy</text>
<text text-anchor="start" x="-264.091" y="-347.953" font-family="Times,serif" font-size="14.00">edit</text>
<text text-anchor="start" x="-264.091" y="-333.953" font-family="Times,serif" font-size="14.00">index</text>
<text text-anchor="start" x="-264.091" y="-319.953" font-family="Times,serif" font-size="14.00">new</text>
<text text-anchor="start" x="-264.091" y="-305.953" font-family="Times,serif" font-size="14.00">show</text>
<text text-anchor="start" x="-264.091" y="-291.953" font-family="Times,serif" font-size="14.00">update</text>
<polyline fill="none" stroke="black" points="-272.091,-285.153 -161.229,-285.153 "/>
<polyline fill="none" stroke="black" points="-272.091,-261.153 -161.229,-261.153 "/>
<text text-anchor="start" x="-264.091" y="-245.953" font-family="Times,serif" font-size="14.00">_layout</text>
<text text-anchor="start" x="-264.091" y="-231.953" font-family="Times,serif" font-size="14.00">level_params</text>
<text text-anchor="start" x="-264.091" y="-217.953" font-family="Times,serif" font-size="14.00">set_level</text>
</g>
<!-- ApplicationController&#45;&gt;LevelsController -->
<g id="edge5" class="edge"><title>ApplicationController&#45;&gt;LevelsController</title>
<path fill="none" stroke="black" d="M-22.5243,-23.2755C-57.9352,-75.9676 -117.288,-164.286 -161.064,-229.426"/>
</g>
<!-- MissionsController -->
<g id="node8" class="node"><title>MissionsController</title>
<path fill="none" stroke="black" d="M-267.632,455.823C-267.632,455.823 -167.515,455.823 -167.515,455.823 -161.515,455.823 -155.515,449.823 -155.515,443.823 -155.515,443.823 -155.515,265.823 -155.515,265.823 -155.515,259.823 -161.515,253.823 -167.515,253.823 -167.515,253.823 -267.632,253.823 -267.632,253.823 -273.632,253.823 -279.632,259.823 -279.632,265.823 -279.632,265.823 -279.632,443.823 -279.632,443.823 -279.632,449.823 -273.632,455.823 -267.632,455.823"/>
<text text-anchor="middle" x="-217.573" y="269.023" font-family="Times,serif" font-size="14.00">MissionsController</text>
<polyline fill="none" stroke="black" points="-279.632,275.823 -155.515,275.823 "/>
<text text-anchor="start" x="-271.632" y="291.023" font-family="Times,serif" font-size="14.00">create</text>
<text text-anchor="start" x="-271.632" y="305.023" font-family="Times,serif" font-size="14.00">destroy</text>
<text text-anchor="start" x="-271.632" y="319.023" font-family="Times,serif" font-size="14.00">edit</text>
<text text-anchor="start" x="-271.632" y="333.023" font-family="Times,serif" font-size="14.00">index</text>
<text text-anchor="start" x="-271.632" y="347.023" font-family="Times,serif" font-size="14.00">new</text>
<text text-anchor="start" x="-271.632" y="361.023" font-family="Times,serif" font-size="14.00">show</text>
<text text-anchor="start" x="-271.632" y="375.023" font-family="Times,serif" font-size="14.00">update</text>
<polyline fill="none" stroke="black" points="-279.632,381.823 -155.515,381.823 "/>
<polyline fill="none" stroke="black" points="-279.632,405.823 -155.515,405.823 "/>
<text text-anchor="start" x="-271.632" y="421.023" font-family="Times,serif" font-size="14.00">_layout</text>
<text text-anchor="start" x="-271.632" y="435.023" font-family="Times,serif" font-size="14.00">mission_params</text>
<text text-anchor="start" x="-271.632" y="449.023" font-family="Times,serif" font-size="14.00">set_mission</text>
</g>
<!-- ApplicationController&#45;&gt;MissionsController -->
<g id="edge6" class="edge"><title>ApplicationController&#45;&gt;MissionsController</title>
<path fill="none" stroke="black" d="M-22.882,67.0225C-56.7525,117.091 -112.231,199.102 -155.319,262.795"/>
</g>
<!-- RolesController -->
<g id="node9" class="node"><title>RolesController</title>
<path fill="none" stroke="black" d="M188.579,16.4146C188.579,16.4146 270.014,16.4146 270.014,16.4146 276.014,16.4146 282.014,10.4146 282.014,4.41455 282.014,4.41455 282.014,-173.585 282.014,-173.585 282.014,-179.585 276.014,-185.585 270.014,-185.585 270.014,-185.585 188.579,-185.585 188.579,-185.585 182.579,-185.585 176.579,-179.585 176.579,-173.585 176.579,-173.585 176.579,4.41455 176.579,4.41455 176.579,10.4146 182.579,16.4146 188.579,16.4146"/>
<text text-anchor="middle" x="229.296" y="-170.385" font-family="Times,serif" font-size="14.00">RolesController</text>
<polyline fill="none" stroke="black" points="176.579,-163.585 282.014,-163.585 "/>
<text text-anchor="start" x="184.579" y="-148.385" font-family="Times,serif" font-size="14.00">create</text>
<text text-anchor="start" x="184.579" y="-134.385" font-family="Times,serif" font-size="14.00">destroy</text>
<text text-anchor="start" x="184.579" y="-120.385" font-family="Times,serif" font-size="14.00">edit</text>
<text text-anchor="start" x="184.579" y="-106.385" font-family="Times,serif" font-size="14.00">index</text>
<text text-anchor="start" x="184.579" y="-92.3854" font-family="Times,serif" font-size="14.00">new</text>
<text text-anchor="start" x="184.579" y="-78.3854" font-family="Times,serif" font-size="14.00">show</text>
<text text-anchor="start" x="184.579" y="-64.3854" font-family="Times,serif" font-size="14.00">update</text>
<polyline fill="none" stroke="black" points="176.579,-57.5854 282.014,-57.5854 "/>
<polyline fill="none" stroke="black" points="176.579,-33.5854 282.014,-33.5854 "/>
<text text-anchor="start" x="184.579" y="-18.3854" font-family="Times,serif" font-size="14.00">_layout</text>
<text text-anchor="start" x="184.579" y="-4.38545" font-family="Times,serif" font-size="14.00">role_params</text>
<text text-anchor="start" x="184.579" y="9.61455" font-family="Times,serif" font-size="14.00">set_role</text>
</g>
<!-- ApplicationController&#45;&gt;RolesController -->
<g id="edge7" class="edge"><title>ApplicationController&#45;&gt;RolesController</title>
<path fill="none" stroke="black" d="M101.699,-23.3417C127.292,-35.6258 154.112,-48.4984 176.52,-59.2541"/>
</g>
<!-- StatusesController -->
<g id="node10" class="node"><title>StatusesController</title>
<path fill="none" stroke="black" d="M-261.47,229.373C-261.47,229.373 -166.036,229.373 -166.036,229.373 -160.036,229.373 -154.036,223.373 -154.036,217.373 -154.036,217.373 -154.036,39.3725 -154.036,39.3725 -154.036,33.3725 -160.036,27.3725 -166.036,27.3725 -166.036,27.3725 -261.47,27.3725 -261.47,27.3725 -267.47,27.3725 -273.47,33.3725 -273.47,39.3725 -273.47,39.3725 -273.47,217.373 -273.47,217.373 -273.47,223.373 -267.47,229.373 -261.47,229.373"/>
<text text-anchor="middle" x="-213.753" y="42.5725" font-family="Times,serif" font-size="14.00">StatusesController</text>
<polyline fill="none" stroke="black" points="-273.47,49.3725 -154.036,49.3725 "/>
<text text-anchor="start" x="-265.47" y="64.5725" font-family="Times,serif" font-size="14.00">create</text>
<text text-anchor="start" x="-265.47" y="78.5725" font-family="Times,serif" font-size="14.00">destroy</text>
<text text-anchor="start" x="-265.47" y="92.5725" font-family="Times,serif" font-size="14.00">edit</text>
<text text-anchor="start" x="-265.47" y="106.573" font-family="Times,serif" font-size="14.00">index</text>
<text text-anchor="start" x="-265.47" y="120.573" font-family="Times,serif" font-size="14.00">new</text>
<text text-anchor="start" x="-265.47" y="134.573" font-family="Times,serif" font-size="14.00">show</text>
<text text-anchor="start" x="-265.47" y="148.573" font-family="Times,serif" font-size="14.00">update</text>
<polyline fill="none" stroke="black" points="-273.47,155.373 -154.036,155.373 "/>
<polyline fill="none" stroke="black" points="-273.47,179.373 -154.036,179.373 "/>
<text text-anchor="start" x="-265.47" y="194.573" font-family="Times,serif" font-size="14.00">_layout</text>
<text text-anchor="start" x="-265.47" y="208.573" font-family="Times,serif" font-size="14.00">set_status</text>
<text text-anchor="start" x="-265.47" y="222.573" font-family="Times,serif" font-size="14.00">status_params</text>
</g>
<!-- ApplicationController&#45;&gt;StatusesController -->
<g id="edge8" class="edge"><title>ApplicationController&#45;&gt;StatusesController</title>
<path fill="none" stroke="black" d="M-85.8725,66.8171C-108.896,77.8993 -132.931,89.4688 -153.868,99.5469"/>
</g>
<!-- UsersController -->
<g id="node11" class="node"><title>UsersController</title>
<path fill="none" stroke="black" d="M187.935,190.157C187.935,190.157 269.363,190.157 269.363,190.157 275.363,190.157 281.363,184.157 281.363,178.157 281.363,178.157 281.363,84.1569 281.363,84.1569 281.363,78.1569 275.363,72.1569 269.363,72.1569 269.363,72.1569 187.935,72.1569 187.935,72.1569 181.935,72.1569 175.935,78.1569 175.935,84.1569 175.935,84.1569 175.935,178.157 175.935,178.157 175.935,184.157 181.935,190.157 187.935,190.157"/>
<text text-anchor="middle" x="228.649" y="87.3569" font-family="Times,serif" font-size="14.00">UsersController</text>
<polyline fill="none" stroke="black" points="175.935,94.1569 281.363,94.1569 "/>
<text text-anchor="start" x="183.935" y="109.357" font-family="Times,serif" font-size="14.00">index</text>
<text text-anchor="start" x="183.935" y="123.357" font-family="Times,serif" font-size="14.00">show</text>
<polyline fill="none" stroke="black" points="175.935,130.157 281.363,130.157 "/>
<polyline fill="none" stroke="black" points="175.935,154.157 281.363,154.157 "/>
<text text-anchor="start" x="183.935" y="169.357" font-family="Times,serif" font-size="14.00">_layout</text>
<text text-anchor="start" x="183.935" y="183.357" font-family="Times,serif" font-size="14.00">set_user</text>
</g>
<!-- ApplicationController&#45;&gt;UsersController -->
<g id="edge9" class="edge"><title>ApplicationController&#45;&gt;UsersController</title>
<path fill="none" stroke="black" d="M98.867,66.8858C125.014,79.8346 152.653,93.522 175.674,104.922"/>
</g>
<!-- WelcomeController -->
<g id="node12" class="node"><title>WelcomeController</title>
<path fill="none" stroke="black" d="M181.102,414.963C181.102,414.963 283.167,414.963 283.167,414.963 289.167,414.963 295.167,408.963 295.167,402.963 295.167,402.963 295.167,308.963 295.167,308.963 295.167,302.963 289.167,296.963 283.167,296.963 283.167,296.963 181.102,296.963 181.102,296.963 175.102,296.963 169.102,302.963 169.102,308.963 169.102,308.963 169.102,402.963 169.102,402.963 169.102,408.963 175.102,414.963 181.102,414.963"/>
<text text-anchor="middle" x="232.134" y="312.163" font-family="Times,serif" font-size="14.00">WelcomeController</text>
<polyline fill="none" stroke="black" points="169.102,318.963 295.167,318.963 "/>
<text text-anchor="start" x="177.102" y="334.163" font-family="Times,serif" font-size="14.00">about</text>
<text text-anchor="start" x="177.102" y="348.163" font-family="Times,serif" font-size="14.00">contact</text>
<text text-anchor="start" x="177.102" y="362.163" font-family="Times,serif" font-size="14.00">index</text>
<polyline fill="none" stroke="black" points="169.102,368.963 295.167,368.963 "/>
<polyline fill="none" stroke="black" points="169.102,392.963 295.167,392.963 "/>
<text text-anchor="start" x="177.102" y="408.163" font-family="Times,serif" font-size="14.00">_layout</text>
</g>
<!-- ApplicationController&#45;&gt;WelcomeController -->
<g id="edge10" class="edge"><title>ApplicationController&#45;&gt;WelcomeController</title>
<path fill="none" stroke="black" d="M38.0021,66.8296C77.8985,126.25 148.187,230.934 192.347,296.705"/>
</g>
</g>
</svg>
