<?xml version="1.0" encoding="UTF-8" standalone="no"?>
<!DOCTYPE svg PUBLIC "-//W3C//DTD SVG 1.1//EN"
 "http://www.w3.org/Graphics/SVG/1.1/DTD/svg11.dtd">
<!-- Generated by graphviz version 2.38.0 (20140413.2041)
 -->
<!-- Title: controllers_diagram Pages: 1 -->
<svg width="972pt" height="951pt"
 viewBox="0.00 0.00 971.65 950.61" xmlns="http://www.w3.org/2000/svg" xmlns:xlink="http://www.w3.org/1999/xlink">
<g id="graph0" class="graph" transform="scale(1 1) rotate(0) translate(318.959 443.026)">
<title>controllers_diagram</title>
<polygon fill="white" stroke="none" points="-318.959,507.587 -318.959,-443.026 652.688,-443.026 652.688,507.587 -318.959,507.587"/>
<!-- _diagram_info -->
<g id="node1" class="node"><title>_diagram_info</title>
<text text-anchor="start" x="449.312" y="381.9" font-family="Times,serif" font-size="13.00">Controllers diagram</text>
<text text-anchor="start" x="449.312" y="394.9" font-family="Times,serif" font-size="13.00">Date: Oct 01 2014 &#45; 14:28</text>
<text text-anchor="start" x="449.312" y="407.9" font-family="Times,serif" font-size="13.00">Migration version: 20141001034704</text>
<text text-anchor="start" x="449.312" y="420.9" font-family="Times,serif" font-size="13.00">Generated by RailRoady 1.1.2</text>
<text text-anchor="start" x="449.312" y="433.9" font-family="Times,serif" font-size="13.00">http://railroady.prestonlee.com</text>
</g>
<!-- AcquisitionsController -->
<g id="node2" class="node"><title>AcquisitionsController</title>
<path fill="none" stroke="black" d="M-302.959,38.752C-302.959,38.752 -182.635,38.752 -182.635,38.752 -176.635,38.752 -170.635,32.752 -170.635,26.752 -170.635,26.752 -170.635,-151.248 -170.635,-151.248 -170.635,-157.248 -176.635,-163.248 -182.635,-163.248 -182.635,-163.248 -302.959,-163.248 -302.959,-163.248 -308.959,-163.248 -314.959,-157.248 -314.959,-151.248 -314.959,-151.248 -314.959,26.752 -314.959,26.752 -314.959,32.752 -308.959,38.752 -302.959,38.752"/>
<text text-anchor="middle" x="-242.797" y="-148.048" font-family="Times,serif" font-size="14.00">AcquisitionsController</text>
<polyline fill="none" stroke="black" points="-314.959,-141.248 -170.635,-141.248 "/>
<text text-anchor="start" x="-306.959" y="-126.048" font-family="Times,serif" font-size="14.00">create</text>
<text text-anchor="start" x="-306.959" y="-112.048" font-family="Times,serif" font-size="14.00">destroy</text>
<text text-anchor="start" x="-306.959" y="-98.048" font-family="Times,serif" font-size="14.00">edit</text>
<text text-anchor="start" x="-306.959" y="-84.048" font-family="Times,serif" font-size="14.00">index</text>
<text text-anchor="start" x="-306.959" y="-70.048" font-family="Times,serif" font-size="14.00">new</text>
<text text-anchor="start" x="-306.959" y="-56.048" font-family="Times,serif" font-size="14.00">show</text>
<text text-anchor="start" x="-306.959" y="-42.048" font-family="Times,serif" font-size="14.00">update</text>
<polyline fill="none" stroke="black" points="-314.959,-35.248 -170.635,-35.248 "/>
<polyline fill="none" stroke="black" points="-314.959,-11.248 -170.635,-11.248 "/>
<text text-anchor="start" x="-306.959" y="3.95196" font-family="Times,serif" font-size="14.00">_layout</text>
<text text-anchor="start" x="-306.959" y="17.952" font-family="Times,serif" font-size="14.00">acquisition_params</text>
<text text-anchor="start" x="-306.959" y="31.952" font-family="Times,serif" font-size="14.00">set_acquisition</text>
</g>
<!-- ApplicationController -->
<g id="node3" class="node"><title>ApplicationController</title>
<path fill="none" stroke="black" d="M-59.6848,143.091C-59.6848,143.091 114.247,143.091 114.247,143.091 120.247,143.091 126.247,137.091 126.247,131.091 126.247,131.091 126.247,65.0911 126.247,65.0911 126.247,59.0911 120.247,53.0911 114.247,53.0911 114.247,53.0911 -59.6848,53.0911 -59.6848,53.0911 -65.6848,53.0911 -71.6848,59.0911 -71.6848,65.0911 -71.6848,65.0911 -71.6848,131.091 -71.6848,131.091 -71.6848,137.091 -65.6848,143.091 -59.6848,143.091"/>
<text text-anchor="middle" x="27.281" y="68.2911" font-family="Times,serif" font-size="14.00">ApplicationController</text>
<polyline fill="none" stroke="black" points="-71.6848,75.0911 126.247,75.0911 "/>
<polyline fill="none" stroke="black" points="-71.6848,99.0911 126.247,99.0911 "/>
<text text-anchor="start" x="-63.6848" y="114.291" font-family="Times,serif" font-size="14.00">configure_permitted_parameters</text>
<polyline fill="none" stroke="black" points="-71.6848,121.091 126.247,121.091 "/>
<text text-anchor="start" x="-63.6848" y="136.291" font-family="Times,serif" font-size="14.00">_layout</text>
</g>
<!-- ApplicationController&#45;&gt;AcquisitionsController -->
<g id="edge1" class="edge"><title>ApplicationController&#45;&gt;AcquisitionsController</title>
<path fill="none" stroke="black" d="M-48.6696,53.001C-86.7385,30.4003 -132.612,3.16652 -170.205,-19.1516"/>
</g>
<!-- AssignsController -->
<g id="node4" class="node"><title>AssignsController</title>
<path fill="none" stroke="black" d="M-22.1939,472.119C-22.1939,472.119 71.6957,472.119 71.6957,472.119 77.6957,472.119 83.6957,466.119 83.6957,460.119 83.6957,460.119 83.6957,282.119 83.6957,282.119 83.6957,276.119 77.6957,270.119 71.6957,270.119 71.6957,270.119 -22.1939,270.119 -22.1939,270.119 -28.1939,270.119 -34.1939,276.119 -34.1939,282.119 -34.1939,282.119 -34.1939,460.119 -34.1939,460.119 -34.1939,466.119 -28.1939,472.119 -22.1939,472.119"/>
<text text-anchor="middle" x="24.7509" y="285.319" font-family="Times,serif" font-size="14.00">AssignsController</text>
<polyline fill="none" stroke="black" points="-34.1939,292.119 83.6957,292.119 "/>
<text text-anchor="start" x="-26.1939" y="307.319" font-family="Times,serif" font-size="14.00">create</text>
<text text-anchor="start" x="-26.1939" y="321.319" font-family="Times,serif" font-size="14.00">destroy</text>
<text text-anchor="start" x="-26.1939" y="335.319" font-family="Times,serif" font-size="14.00">edit</text>
<text text-anchor="start" x="-26.1939" y="349.319" font-family="Times,serif" font-size="14.00">index</text>
<text text-anchor="start" x="-26.1939" y="363.319" font-family="Times,serif" font-size="14.00">new</text>
<text text-anchor="start" x="-26.1939" y="377.319" font-family="Times,serif" font-size="14.00">show</text>
<text text-anchor="start" x="-26.1939" y="391.319" font-family="Times,serif" font-size="14.00">update</text>
<polyline fill="none" stroke="black" points="-34.1939,398.119 83.6957,398.119 "/>
<polyline fill="none" stroke="black" points="-34.1939,422.119 83.6957,422.119 "/>
<text text-anchor="start" x="-26.1939" y="437.319" font-family="Times,serif" font-size="14.00">_layout</text>
<text text-anchor="start" x="-26.1939" y="451.319" font-family="Times,serif" font-size="14.00">assign_params</text>
<text text-anchor="start" x="-26.1939" y="465.319" font-family="Times,serif" font-size="14.00">set_assign</text>
</g>
<!-- ApplicationController&#45;&gt;AssignsController -->
<g id="edge2" class="edge"><title>ApplicationController&#45;&gt;AssignsController</title>
<path fill="none" stroke="black" d="M26.8632,143.176C26.5439,177.633 26.0913,226.473 25.6869,270.111"/>
</g>
<!-- CategoriesController -->
<g id="node5" class="node"><title>CategoriesController</title>
<path fill="none" stroke="black" d="M-57.5172,-19.0059C-57.5172,-19.0059 51.8969,-19.0059 51.8969,-19.0059 57.8969,-19.0059 63.8969,-25.0059 63.8969,-31.0059 63.8969,-31.0059 63.8969,-209.006 63.8969,-209.006 63.8969,-215.006 57.8969,-221.006 51.8969,-221.006 51.8969,-221.006 -57.5172,-221.006 -57.5172,-221.006 -63.5172,-221.006 -69.5172,-215.006 -69.5172,-209.006 -69.5172,-209.006 -69.5172,-31.0059 -69.5172,-31.0059 -69.5172,-25.0059 -63.5172,-19.0059 -57.5172,-19.0059"/>
<text text-anchor="middle" x="-2.81014" y="-205.806" font-family="Times,serif" font-size="14.00">CategoriesController</text>
<polyline fill="none" stroke="black" points="-69.5172,-199.006 63.8969,-199.006 "/>
<text text-anchor="start" x="-61.5172" y="-183.806" font-family="Times,serif" font-size="14.00">create</text>
<text text-anchor="start" x="-61.5172" y="-169.806" font-family="Times,serif" font-size="14.00">destroy</text>
<text text-anchor="start" x="-61.5172" y="-155.806" font-family="Times,serif" font-size="14.00">edit</text>
<text text-anchor="start" x="-61.5172" y="-141.806" font-family="Times,serif" font-size="14.00">index</text>
<text text-anchor="start" x="-61.5172" y="-127.806" font-family="Times,serif" font-size="14.00">new</text>
<text text-anchor="start" x="-61.5172" y="-113.806" font-family="Times,serif" font-size="14.00">show</text>
<text text-anchor="start" x="-61.5172" y="-99.8059" font-family="Times,serif" font-size="14.00">update</text>
<polyline fill="none" stroke="black" points="-69.5172,-93.0059 63.8969,-93.0059 "/>
<polyline fill="none" stroke="black" points="-69.5172,-69.0059 63.8969,-69.0059 "/>
<text text-anchor="start" x="-61.5172" y="-53.8059" font-family="Times,serif" font-size="14.00">_layout</text>
<text text-anchor="start" x="-61.5172" y="-39.8059" font-family="Times,serif" font-size="14.00">category_params</text>
<text text-anchor="start" x="-61.5172" y="-25.8059" font-family="Times,serif" font-size="14.00">set_category</text>
</g>
<!-- ApplicationController&#45;&gt;CategoriesController -->
<g id="edge3" class="edge"><title>ApplicationController&#45;&gt;CategoriesController</title>
<path fill="none" stroke="black" d="M21.0461,52.9012C18.1713,32.0647 14.6338,6.42555 11.1718,-18.6666"/>
</g>
<!-- HistoriesController -->
<g id="node6" class="node"><title>HistoriesController</title>
<path fill="none" stroke="black" d="M240.442,-214.475C240.442,-214.475 340.539,-214.475 340.539,-214.475 346.539,-214.475 352.539,-220.475 352.539,-226.475 352.539,-226.475 352.539,-404.475 352.539,-404.475 352.539,-410.475 346.539,-416.475 340.539,-416.475 340.539,-416.475 240.442,-416.475 240.442,-416.475 234.442,-416.475 228.442,-410.475 228.442,-404.475 228.442,-404.475 228.442,-226.475 228.442,-226.475 228.442,-220.475 234.442,-214.475 240.442,-214.475"/>
<text text-anchor="middle" x="290.49" y="-401.275" font-family="Times,serif" font-size="14.00">HistoriesController</text>
<polyline fill="none" stroke="black" points="228.442,-394.475 352.539,-394.475 "/>
<text text-anchor="start" x="236.442" y="-379.275" font-family="Times,serif" font-size="14.00">create</text>
<text text-anchor="start" x="236.442" y="-365.275" font-family="Times,serif" font-size="14.00">destroy</text>
<text text-anchor="start" x="236.442" y="-351.275" font-family="Times,serif" font-size="14.00">edit</text>
<text text-anchor="start" x="236.442" y="-337.275" font-family="Times,serif" font-size="14.00">index</text>
<text text-anchor="start" x="236.442" y="-323.275" font-family="Times,serif" font-size="14.00">new</text>
<text text-anchor="start" x="236.442" y="-309.275" font-family="Times,serif" font-size="14.00">show</text>
<text text-anchor="start" x="236.442" y="-295.275" font-family="Times,serif" font-size="14.00">update</text>
<polyline fill="none" stroke="black" points="228.442,-288.475 352.539,-288.475 "/>
<polyline fill="none" stroke="black" points="228.442,-264.475 352.539,-264.475 "/>
<text text-anchor="start" x="236.442" y="-249.275" font-family="Times,serif" font-size="14.00">_layout</text>
<text text-anchor="start" x="236.442" y="-235.275" font-family="Times,serif" font-size="14.00">history_params</text>
<text text-anchor="start" x="236.442" y="-221.275" font-family="Times,serif" font-size="14.00">set_history</text>
</g>
<!-- ApplicationController&#45;&gt;HistoriesController -->
<g id="edge4" class="edge"><title>ApplicationController&#45;&gt;HistoriesController</title>
<path fill="none" stroke="black" d="M55.9501,53.0449C97.0541,-11.5397 173.775,-132.087 228.269,-217.711"/>
</g>
<!-- LevelsController -->
<g id="node7" class="node"><title>LevelsController</title>
<path fill="none" stroke="black" d="M1.04932,-236.526C1.04932,-236.526 87.9116,-236.526 87.9116,-236.526 93.9116,-236.526 99.9116,-242.526 99.9116,-248.526 99.9116,-248.526 99.9116,-426.526 99.9116,-426.526 99.9116,-432.526 93.9116,-438.526 87.9116,-438.526 87.9116,-438.526 1.04932,-438.526 1.04932,-438.526 -4.95068,-438.526 -10.9507,-432.526 -10.9507,-426.526 -10.9507,-426.526 -10.9507,-248.526 -10.9507,-248.526 -10.9507,-242.526 -4.95068,-236.526 1.04932,-236.526"/>
<text text-anchor="middle" x="44.4805" y="-423.326" font-family="Times,serif" font-size="14.00">LevelsController</text>
<polyline fill="none" stroke="black" points="-10.9507,-416.526 99.9116,-416.526 "/>
<text text-anchor="start" x="-2.95068" y="-401.326" font-family="Times,serif" font-size="14.00">create</text>
<text text-anchor="start" x="-2.95068" y="-387.326" font-family="Times,serif" font-size="14.00">destroy</text>
<text text-anchor="start" x="-2.95068" y="-373.326" font-family="Times,serif" font-size="14.00">edit</text>
<text text-anchor="start" x="-2.95068" y="-359.326" font-family="Times,serif" font-size="14.00">index</text>
<text text-anchor="start" x="-2.95068" y="-345.326" font-family="Times,serif" font-size="14.00">new</text>
<text text-anchor="start" x="-2.95068" y="-331.326" font-family="Times,serif" font-size="14.00">show</text>
<text text-anchor="start" x="-2.95068" y="-317.326" font-family="Times,serif" font-size="14.00">update</text>
<polyline fill="none" stroke="black" points="-10.9507,-310.526 99.9116,-310.526 "/>
<polyline fill="none" stroke="black" points="-10.9507,-286.526 99.9116,-286.526 "/>
<text text-anchor="start" x="-2.95068" y="-271.326" font-family="Times,serif" font-size="14.00">_layout</text>
<text text-anchor="start" x="-2.95068" y="-257.326" font-family="Times,serif" font-size="14.00">level_params</text>
<text text-anchor="start" x="-2.95068" y="-243.326" font-family="Times,serif" font-size="14.00">set_level</text>
</g>
<!-- ApplicationController&#45;&gt;LevelsController -->
<g id="edge5" class="edge"><title>ApplicationController&#45;&gt;LevelsController</title>
<path fill="none" stroke="black" d="M46.9642,53.0228C54.9135,32.457 63.1355,7.5306 67.0969,-15.8059 82.598,-107.122 76.2051,-132.033 67.0969,-224.206 66.7023,-228.199 66.2314,-232.259 65.6984,-236.353"/>
</g>
<!-- MissionsController -->
<g id="node8" class="node"><title>MissionsController</title>
<path fill="none" stroke="black" d="M-278.578,503.087C-278.578,503.087 -178.461,503.087 -178.461,503.087 -172.461,503.087 -166.461,497.087 -166.461,491.087 -166.461,491.087 -166.461,313.087 -166.461,313.087 -166.461,307.087 -172.461,301.087 -178.461,301.087 -178.461,301.087 -278.578,301.087 -278.578,301.087 -284.578,301.087 -290.578,307.087 -290.578,313.087 -290.578,313.087 -290.578,491.087 -290.578,491.087 -290.578,497.087 -284.578,503.087 -278.578,503.087"/>
<text text-anchor="middle" x="-228.519" y="316.287" font-family="Times,serif" font-size="14.00">MissionsController</text>
<polyline fill="none" stroke="black" points="-290.578,323.087 -166.461,323.087 "/>
<text text-anchor="start" x="-282.578" y="338.287" font-family="Times,serif" font-size="14.00">create</text>
<text text-anchor="start" x="-282.578" y="352.287" font-family="Times,serif" font-size="14.00">destroy</text>
<text text-anchor="start" x="-282.578" y="366.287" font-family="Times,serif" font-size="14.00">edit</text>
<text text-anchor="start" x="-282.578" y="380.287" font-family="Times,serif" font-size="14.00">index</text>
<text text-anchor="start" x="-282.578" y="394.287" font-family="Times,serif" font-size="14.00">new</text>
<text text-anchor="start" x="-282.578" y="408.287" font-family="Times,serif" font-size="14.00">show</text>
<text text-anchor="start" x="-282.578" y="422.287" font-family="Times,serif" font-size="14.00">update</text>
<polyline fill="none" stroke="black" points="-290.578,429.087 -166.461,429.087 "/>
<polyline fill="none" stroke="black" points="-290.578,453.087 -166.461,453.087 "/>
<text text-anchor="start" x="-282.578" y="468.287" font-family="Times,serif" font-size="14.00">_layout</text>
<text text-anchor="start" x="-282.578" y="482.287" font-family="Times,serif" font-size="14.00">mission_params</text>
<text text-anchor="start" x="-282.578" y="496.287" font-family="Times,serif" font-size="14.00">set_mission</text>
</g>
<!-- ApplicationController&#45;&gt;MissionsController -->
<g id="edge6" class="edge"><title>ApplicationController&#45;&gt;MissionsController</title>
<path fill="none" stroke="black" d="M-10.7386,143.274C-51.7955,192.067 -117.838,270.553 -166.445,328.317"/>
</g>
<!-- RolesController -->
<g id="node9" class="node"><title>RolesController</title>
<path fill="none" stroke="black" d="M227.355,32.2934C227.355,32.2934 308.789,32.2934 308.789,32.2934 314.789,32.2934 320.789,26.2934 320.789,20.2934 320.789,20.2934 320.789,-157.707 320.789,-157.707 320.789,-163.707 314.789,-169.707 308.789,-169.707 308.789,-169.707 227.355,-169.707 227.355,-169.707 221.355,-169.707 215.355,-163.707 215.355,-157.707 215.355,-157.707 215.355,20.2934 215.355,20.2934 215.355,26.2934 221.355,32.2934 227.355,32.2934"/>
<text text-anchor="middle" x="268.072" y="-154.507" font-family="Times,serif" font-size="14.00">RolesController</text>
<polyline fill="none" stroke="black" points="215.355,-147.707 320.789,-147.707 "/>
<text text-anchor="start" x="223.355" y="-132.507" font-family="Times,serif" font-size="14.00">create</text>
<text text-anchor="start" x="223.355" y="-118.507" font-family="Times,serif" font-size="14.00">destroy</text>
<text text-anchor="start" x="223.355" y="-104.507" font-family="Times,serif" font-size="14.00">edit</text>
<text text-anchor="start" x="223.355" y="-90.5066" font-family="Times,serif" font-size="14.00">index</text>
<text text-anchor="start" x="223.355" y="-76.5066" font-family="Times,serif" font-size="14.00">new</text>
<text text-anchor="start" x="223.355" y="-62.5066" font-family="Times,serif" font-size="14.00">show</text>
<text text-anchor="start" x="223.355" y="-48.5066" font-family="Times,serif" font-size="14.00">update</text>
<polyline fill="none" stroke="black" points="215.355,-41.7066 320.789,-41.7066 "/>
<polyline fill="none" stroke="black" points="215.355,-17.7066 320.789,-17.7066 "/>
<text text-anchor="start" x="223.355" y="-2.50655" font-family="Times,serif" font-size="14.00">_layout</text>
<text text-anchor="start" x="223.355" y="11.4934" font-family="Times,serif" font-size="14.00">role_params</text>
<text text-anchor="start" x="223.355" y="25.4934" font-family="Times,serif" font-size="14.00">set_role</text>
</g>
<!-- ApplicationController&#45;&gt;RolesController -->
<g id="edge7" class="edge"><title>ApplicationController&#45;&gt;RolesController</title>
<path fill="none" stroke="black" d="M92.4425,52.9532C130.884,26.3247 178.916,-6.94785 215.029,-31.9634"/>
</g>
<!-- SeminarsController -->
<g id="node10" class="node"><title>SeminarsController</title>
<path fill="none" stroke="black" d="M-274.65,263.169C-274.65,263.169 -173.001,263.169 -173.001,263.169 -167.001,263.169 -161.001,257.169 -161.001,251.169 -161.001,251.169 -161.001,73.1693 -161.001,73.1693 -161.001,67.1693 -167.001,61.1693 -173.001,61.1693 -173.001,61.1693 -274.65,61.1693 -274.65,61.1693 -280.65,61.1693 -286.65,67.1693 -286.65,73.1693 -286.65,73.1693 -286.65,251.169 -286.65,251.169 -286.65,257.169 -280.65,263.169 -274.65,263.169"/>
<text text-anchor="middle" x="-223.825" y="76.3693" font-family="Times,serif" font-size="14.00">SeminarsController</text>
<polyline fill="none" stroke="black" points="-286.65,83.1693 -161.001,83.1693 "/>
<text text-anchor="start" x="-278.65" y="98.3693" font-family="Times,serif" font-size="14.00">create</text>
<text text-anchor="start" x="-278.65" y="112.369" font-family="Times,serif" font-size="14.00">destroy</text>
<text text-anchor="start" x="-278.65" y="126.369" font-family="Times,serif" font-size="14.00">edit</text>
<text text-anchor="start" x="-278.65" y="140.369" font-family="Times,serif" font-size="14.00">index</text>
<text text-anchor="start" x="-278.65" y="154.369" font-family="Times,serif" font-size="14.00">new</text>
<text text-anchor="start" x="-278.65" y="168.369" font-family="Times,serif" font-size="14.00">show</text>
<text text-anchor="start" x="-278.65" y="182.369" font-family="Times,serif" font-size="14.00">update</text>
<polyline fill="none" stroke="black" points="-286.65,189.169 -161.001,189.169 "/>
<polyline fill="none" stroke="black" points="-286.65,213.169 -161.001,213.169 "/>
<text text-anchor="start" x="-278.65" y="228.369" font-family="Times,serif" font-size="14.00">_layout</text>
<text text-anchor="start" x="-278.65" y="242.369" font-family="Times,serif" font-size="14.00">seminar_params</text>
<text text-anchor="start" x="-278.65" y="256.369" font-family="Times,serif" font-size="14.00">set_seminar</text>
</g>
<!-- ApplicationController&#45;&gt;SeminarsController -->
<g id="edge8" class="edge"><title>ApplicationController&#45;&gt;SeminarsController</title>
<path fill="none" stroke="black" d="M-71.9629,123.416C-101.848,131.043 -133.815,139.2 -160.673,146.054"/>
</g>
<!-- StatusesController -->
<g id="node11" class="node"><title>StatusesController</title>
<path fill="none" stroke="black" d="M231.077,257.84C231.077,257.84 326.512,257.84 326.512,257.84 332.512,257.84 338.512,251.84 338.512,245.84 338.512,245.84 338.512,67.8399 338.512,67.8399 338.512,61.8399 332.512,55.8399 326.512,55.8399 326.512,55.8399 231.077,55.8399 231.077,55.8399 225.077,55.8399 219.077,61.8399 219.077,67.8399 219.077,67.8399 219.077,245.84 219.077,245.84 219.077,251.84 225.077,257.84 231.077,257.84"/>
<text text-anchor="middle" x="278.794" y="71.0399" font-family="Times,serif" font-size="14.00">StatusesController</text>
<polyline fill="none" stroke="black" points="219.077,77.8399 338.512,77.8399 "/>
<text text-anchor="start" x="227.077" y="93.0399" font-family="Times,serif" font-size="14.00">create</text>
<text text-anchor="start" x="227.077" y="107.04" font-family="Times,serif" font-size="14.00">destroy</text>
<text text-anchor="start" x="227.077" y="121.04" font-family="Times,serif" font-size="14.00">edit</text>
<text text-anchor="start" x="227.077" y="135.04" font-family="Times,serif" font-size="14.00">index</text>
<text text-anchor="start" x="227.077" y="149.04" font-family="Times,serif" font-size="14.00">new</text>
<text text-anchor="start" x="227.077" y="163.04" font-family="Times,serif" font-size="14.00">show</text>
<text text-anchor="start" x="227.077" y="177.04" font-family="Times,serif" font-size="14.00">update</text>
<polyline fill="none" stroke="black" points="219.077,183.84 338.512,183.84 "/>
<polyline fill="none" stroke="black" points="219.077,207.84 338.512,207.84 "/>
<text text-anchor="start" x="227.077" y="223.04" font-family="Times,serif" font-size="14.00">_layout</text>
<text text-anchor="start" x="227.077" y="237.04" font-family="Times,serif" font-size="14.00">set_status</text>
<text text-anchor="start" x="227.077" y="251.04" font-family="Times,serif" font-size="14.00">status_params</text>
</g>
<!-- ApplicationController&#45;&gt;StatusesController -->
<g id="edge9" class="edge"><title>ApplicationController&#45;&gt;StatusesController</title>
<path fill="none" stroke="black" d="M126.325,121.226C157.667,128.547 191.33,136.41 219.032,142.881"/>
</g>
<!-- UsersController -->
<g id="node12" class="node"><title>UsersController</title>
<path fill="none" stroke="black" d="M235.93,460.003C235.93,460.003 317.358,460.003 317.358,460.003 323.358,460.003 329.358,454.003 329.358,448.003 329.358,448.003 329.358,354.003 329.358,354.003 329.358,348.003 323.358,342.003 317.358,342.003 317.358,342.003 235.93,342.003 235.93,342.003 229.93,342.003 223.93,348.003 223.93,354.003 223.93,354.003 223.93,448.003 223.93,448.003 223.93,454.003 229.93,460.003 235.93,460.003"/>
<text text-anchor="middle" x="276.644" y="357.203" font-family="Times,serif" font-size="14.00">UsersController</text>
<polyline fill="none" stroke="black" points="223.93,364.003 329.358,364.003 "/>
<text text-anchor="start" x="231.93" y="379.203" font-family="Times,serif" font-size="14.00">index</text>
<text text-anchor="start" x="231.93" y="393.203" font-family="Times,serif" font-size="14.00">show</text>
<polyline fill="none" stroke="black" points="223.93,400.003 329.358,400.003 "/>
<polyline fill="none" stroke="black" points="223.93,424.003 329.358,424.003 "/>
<text text-anchor="start" x="231.93" y="439.203" font-family="Times,serif" font-size="14.00">_layout</text>
<text text-anchor="start" x="231.93" y="453.203" font-family="Times,serif" font-size="14.00">set_user</text>
</g>
<!-- ApplicationController&#45;&gt;UsersController -->
<g id="edge10" class="edge"><title>ApplicationController&#45;&gt;UsersController</title>
<path fill="none" stroke="black" d="M64.3439,143.113C107.827,195.934 180.061,283.679 228.011,341.927"/>
</g>
<!-- WelcomeController -->
<g id="node13" class="node"><title>WelcomeController</title>
<path fill="none" stroke="black" d="M-277.571,-261.952C-277.571,-261.952 -175.506,-261.952 -175.506,-261.952 -169.506,-261.952 -163.506,-267.952 -163.506,-273.952 -163.506,-273.952 -163.506,-367.952 -163.506,-367.952 -163.506,-373.952 -169.506,-379.952 -175.506,-379.952 -175.506,-379.952 -277.571,-379.952 -277.571,-379.952 -283.571,-379.952 -289.571,-373.952 -289.571,-367.952 -289.571,-367.952 -289.571,-273.952 -289.571,-273.952 -289.571,-267.952 -283.571,-261.952 -277.571,-261.952"/>
<text text-anchor="middle" x="-226.538" y="-364.752" font-family="Times,serif" font-size="14.00">WelcomeController</text>
<polyline fill="none" stroke="black" points="-289.571,-357.952 -163.506,-357.952 "/>
<text text-anchor="start" x="-281.571" y="-342.752" font-family="Times,serif" font-size="14.00">about</text>
<text text-anchor="start" x="-281.571" y="-328.752" font-family="Times,serif" font-size="14.00">contact</text>
<text text-anchor="start" x="-281.571" y="-314.752" font-family="Times,serif" font-size="14.00">index</text>
<polyline fill="none" stroke="black" points="-289.571,-307.952 -163.506,-307.952 "/>
<polyline fill="none" stroke="black" points="-289.571,-283.952 -163.506,-283.952 "/>
<text text-anchor="start" x="-281.571" y="-268.752" font-family="Times,serif" font-size="14.00">_layout</text>
</g>
<!-- ApplicationController&#45;&gt;WelcomeController -->
<g id="edge11" class="edge"><title>ApplicationController&#45;&gt;WelcomeController</title>
<path fill="none" stroke="black" d="M-17.144,52.8922C-35.5956,32.8102 -56.4506,8.29467 -72.7172,-15.8059 -126.983,-96.206 -174.676,-198.377 -202.058,-261.715"/>
</g>
</g>
</svg>
