<?xml version="1.0" encoding="UTF-8" standalone="no"?>
<!DOCTYPE svg PUBLIC "-//W3C//DTD SVG 1.1//EN"
 "http://www.w3.org/Graphics/SVG/1.1/DTD/svg11.dtd">
<!-- Generated by graphviz version 2.38.0 (20140413.2041)
 -->
<!-- Title: controllers_diagram Pages: 1 -->
<svg width="1158pt" height="949pt"
 viewBox="0.00 0.00 1157.65 949.18" xmlns="http://www.w3.org/2000/svg" xmlns:xlink="http://www.w3.org/1999/xlink">
<g id="graph0" class="graph" transform="scale(1 1) rotate(0) translate(321.832 468.277)">
<title>controllers_diagram</title>
<polygon fill="white" stroke="none" points="-321.832,480.902 -321.832,-468.277 835.82,-468.277 835.82,480.902 -321.832,480.902"/>
<!-- _diagram_info -->
<g id="node1" class="node"><title>_diagram_info</title>
<text text-anchor="start" x="432.312" y="152.9" font-family="Times,serif" font-size="13.00">Controllers diagram</text>
<text text-anchor="start" x="432.312" y="165.9" font-family="Times,serif" font-size="13.00">Date: Oct 29 2014 &#45; 23:17</text>
<text text-anchor="start" x="432.312" y="178.9" font-family="Times,serif" font-size="13.00">Migration version: 20141029121409</text>
<text text-anchor="start" x="432.312" y="191.9" font-family="Times,serif" font-size="13.00">Generated by RailRoady 1.1.2</text>
<text text-anchor="start" x="432.312" y="204.9" font-family="Times,serif" font-size="13.00">http://railroady.prestonlee.com</text>
</g>
<!-- AcquisitionsController -->
<g id="node2" class="node"><title>AcquisitionsController</title>
<path fill="none" stroke="black" d="M-305.832,13.1943C-305.832,13.1943 -185.508,13.1943 -185.508,13.1943 -179.508,13.1943 -173.508,7.19431 -173.508,1.19431 -173.508,1.19431 -173.508,-176.806 -173.508,-176.806 -173.508,-182.806 -179.508,-188.806 -185.508,-188.806 -185.508,-188.806 -305.832,-188.806 -305.832,-188.806 -311.832,-188.806 -317.832,-182.806 -317.832,-176.806 -317.832,-176.806 -317.832,1.19431 -317.832,1.19431 -317.832,7.19431 -311.832,13.1943 -305.832,13.1943"/>
<text text-anchor="middle" x="-245.67" y="-173.606" font-family="Times,serif" font-size="14.00">AcquisitionsController</text>
<polyline fill="none" stroke="black" points="-317.832,-166.806 -173.508,-166.806 "/>
<text text-anchor="start" x="-309.832" y="-151.606" font-family="Times,serif" font-size="14.00">create</text>
<text text-anchor="start" x="-309.832" y="-137.606" font-family="Times,serif" font-size="14.00">destroy</text>
<text text-anchor="start" x="-309.832" y="-123.606" font-family="Times,serif" font-size="14.00">edit</text>
<text text-anchor="start" x="-309.832" y="-109.606" font-family="Times,serif" font-size="14.00">index</text>
<text text-anchor="start" x="-309.832" y="-95.6057" font-family="Times,serif" font-size="14.00">new</text>
<text text-anchor="start" x="-309.832" y="-81.6057" font-family="Times,serif" font-size="14.00">show</text>
<text text-anchor="start" x="-309.832" y="-67.6057" font-family="Times,serif" font-size="14.00">update</text>
<polyline fill="none" stroke="black" points="-317.832,-60.8057 -173.508,-60.8057 "/>
<polyline fill="none" stroke="black" points="-317.832,-36.8057 -173.508,-36.8057 "/>
<text text-anchor="start" x="-309.832" y="-21.6057" font-family="Times,serif" font-size="14.00">_layout</text>
<text text-anchor="start" x="-309.832" y="-7.60569" font-family="Times,serif" font-size="14.00">acquisition_params</text>
<text text-anchor="start" x="-309.832" y="6.39431" font-family="Times,serif" font-size="14.00">set_acquisition</text>
</g>
<!-- ApplicationController -->
<g id="node3" class="node"><title>ApplicationController</title>
<path fill="none" stroke="black" d="M-62.6535,138.962C-62.6535,138.962 111.278,138.962 111.278,138.962 117.278,138.962 123.278,132.962 123.278,126.962 123.278,126.962 123.278,18.9621 123.278,18.9621 123.278,12.9621 117.278,6.96212 111.278,6.96212 111.278,6.96212 -62.6535,6.96212 -62.6535,6.96212 -68.6535,6.96212 -74.6535,12.9621 -74.6535,18.9621 -74.6535,18.9621 -74.6535,126.962 -74.6535,126.962 -74.6535,132.962 -68.6535,138.962 -62.6535,138.962"/>
<text text-anchor="middle" x="24.3123" y="22.1621" font-family="Times,serif" font-size="14.00">ApplicationController</text>
<polyline fill="none" stroke="black" points="-74.6535,28.9621 123.278,28.9621 "/>
<polyline fill="none" stroke="black" points="-74.6535,52.9621 123.278,52.9621 "/>
<text text-anchor="start" x="-66.6535" y="68.1621" font-family="Times,serif" font-size="14.00">configure_permitted_parameters</text>
<text text-anchor="start" x="-66.6535" y="82.1621" font-family="Times,serif" font-size="14.00">rescue_403</text>
<text text-anchor="start" x="-66.6535" y="96.1621" font-family="Times,serif" font-size="14.00">rescue_404</text>
<text text-anchor="start" x="-66.6535" y="110.162" font-family="Times,serif" font-size="14.00">rescue_500</text>
<polyline fill="none" stroke="black" points="-74.6535,116.962 123.278,116.962 "/>
<text text-anchor="start" x="-66.6535" y="132.162" font-family="Times,serif" font-size="14.00">_layout</text>
</g>
<!-- ApplicationController&#45;&gt;AcquisitionsController -->
<g id="edge1" class="edge"><title>ApplicationController&#45;&gt;AcquisitionsController</title>
<path fill="none" stroke="black" d="M-74.6861,14.011C-107.343,-5.43552 -143.032,-26.6874 -173.317,-44.7212"/>
</g>
<!-- AssignsController -->
<g id="node4" class="node"><title>AssignsController</title>
<path fill="none" stroke="black" d="M-25.1872,445.859C-25.1872,445.859 68.7024,445.859 68.7024,445.859 74.7024,445.859 80.7024,439.859 80.7024,433.859 80.7024,433.859 80.7024,255.859 80.7024,255.859 80.7024,249.859 74.7024,243.859 68.7024,243.859 68.7024,243.859 -25.1872,243.859 -25.1872,243.859 -31.1872,243.859 -37.1872,249.859 -37.1872,255.859 -37.1872,255.859 -37.1872,433.859 -37.1872,433.859 -37.1872,439.859 -31.1872,445.859 -25.1872,445.859"/>
<text text-anchor="middle" x="21.7576" y="259.059" font-family="Times,serif" font-size="14.00">AssignsController</text>
<polyline fill="none" stroke="black" points="-37.1872,265.859 80.7024,265.859 "/>
<text text-anchor="start" x="-29.1872" y="281.059" font-family="Times,serif" font-size="14.00">create</text>
<text text-anchor="start" x="-29.1872" y="295.059" font-family="Times,serif" font-size="14.00">destroy</text>
<text text-anchor="start" x="-29.1872" y="309.059" font-family="Times,serif" font-size="14.00">edit</text>
<text text-anchor="start" x="-29.1872" y="323.059" font-family="Times,serif" font-size="14.00">index</text>
<text text-anchor="start" x="-29.1872" y="337.059" font-family="Times,serif" font-size="14.00">new</text>
<text text-anchor="start" x="-29.1872" y="351.059" font-family="Times,serif" font-size="14.00">show</text>
<text text-anchor="start" x="-29.1872" y="365.059" font-family="Times,serif" font-size="14.00">update</text>
<polyline fill="none" stroke="black" points="-37.1872,371.859 80.7024,371.859 "/>
<polyline fill="none" stroke="black" points="-37.1872,395.859 80.7024,395.859 "/>
<text text-anchor="start" x="-29.1872" y="411.059" font-family="Times,serif" font-size="14.00">_layout</text>
<text text-anchor="start" x="-29.1872" y="425.059" font-family="Times,serif" font-size="14.00">assign_params</text>
<text text-anchor="start" x="-29.1872" y="439.059" font-family="Times,serif" font-size="14.00">set_assign</text>
</g>
<!-- ApplicationController&#45;&gt;AssignsController -->
<g id="edge2" class="edge"><title>ApplicationController&#45;&gt;AssignsController</title>
<path fill="none" stroke="black" d="M23.6906,139.128C23.3952,170.566 23.0356,208.835 22.7071,243.802"/>
</g>
<!-- CategoriesController -->
<g id="node5" class="node"><title>CategoriesController</title>
<path fill="none" stroke="black" d="M-59.5802,-42.8755C-59.5802,-42.8755 49.8339,-42.8755 49.8339,-42.8755 55.8339,-42.8755 61.8339,-48.8755 61.8339,-54.8755 61.8339,-54.8755 61.8339,-232.876 61.8339,-232.876 61.8339,-238.876 55.8339,-244.876 49.8339,-244.876 49.8339,-244.876 -59.5802,-244.876 -59.5802,-244.876 -65.5802,-244.876 -71.5802,-238.876 -71.5802,-232.876 -71.5802,-232.876 -71.5802,-54.8755 -71.5802,-54.8755 -71.5802,-48.8755 -65.5802,-42.8755 -59.5802,-42.8755"/>
<text text-anchor="middle" x="-4.87318" y="-229.676" font-family="Times,serif" font-size="14.00">CategoriesController</text>
<polyline fill="none" stroke="black" points="-71.5802,-222.876 61.8339,-222.876 "/>
<text text-anchor="start" x="-63.5802" y="-207.676" font-family="Times,serif" font-size="14.00">create</text>
<text text-anchor="start" x="-63.5802" y="-193.676" font-family="Times,serif" font-size="14.00">destroy</text>
<text text-anchor="start" x="-63.5802" y="-179.676" font-family="Times,serif" font-size="14.00">edit</text>
<text text-anchor="start" x="-63.5802" y="-165.676" font-family="Times,serif" font-size="14.00">index</text>
<text text-anchor="start" x="-63.5802" y="-151.676" font-family="Times,serif" font-size="14.00">new</text>
<text text-anchor="start" x="-63.5802" y="-137.676" font-family="Times,serif" font-size="14.00">show</text>
<text text-anchor="start" x="-63.5802" y="-123.676" font-family="Times,serif" font-size="14.00">update</text>
<polyline fill="none" stroke="black" points="-71.5802,-116.876 61.8339,-116.876 "/>
<polyline fill="none" stroke="black" points="-71.5802,-92.8755 61.8339,-92.8755 "/>
<text text-anchor="start" x="-63.5802" y="-77.6755" font-family="Times,serif" font-size="14.00">_layout</text>
<text text-anchor="start" x="-63.5802" y="-63.6755" font-family="Times,serif" font-size="14.00">category_params</text>
<text text-anchor="start" x="-63.5802" y="-49.6755" font-family="Times,serif" font-size="14.00">set_category</text>
</g>
<!-- ApplicationController&#45;&gt;CategoriesController -->
<g id="edge3" class="edge"><title>ApplicationController&#45;&gt;CategoriesController</title>
<path fill="none" stroke="black" d="M15.3971,6.72545C13.3017,-8.84291 11.0212,-25.786 8.77091,-42.5047"/>
</g>
<!-- HistoriesController -->
<g id="node6" class="node"><title>HistoriesController</title>
<path fill="none" stroke="black" d="M237.012,-239.76C237.012,-239.76 337.108,-239.76 337.108,-239.76 343.108,-239.76 349.108,-245.76 349.108,-251.76 349.108,-251.76 349.108,-429.76 349.108,-429.76 349.108,-435.76 343.108,-441.76 337.108,-441.76 337.108,-441.76 237.012,-441.76 237.012,-441.76 231.012,-441.76 225.012,-435.76 225.012,-429.76 225.012,-429.76 225.012,-251.76 225.012,-251.76 225.012,-245.76 231.012,-239.76 237.012,-239.76"/>
<text text-anchor="middle" x="287.06" y="-426.56" font-family="Times,serif" font-size="14.00">HistoriesController</text>
<polyline fill="none" stroke="black" points="225.012,-419.76 349.108,-419.76 "/>
<text text-anchor="start" x="233.012" y="-404.56" font-family="Times,serif" font-size="14.00">create</text>
<text text-anchor="start" x="233.012" y="-390.56" font-family="Times,serif" font-size="14.00">destroy</text>
<text text-anchor="start" x="233.012" y="-376.56" font-family="Times,serif" font-size="14.00">edit</text>
<text text-anchor="start" x="233.012" y="-362.56" font-family="Times,serif" font-size="14.00">index</text>
<text text-anchor="start" x="233.012" y="-348.56" font-family="Times,serif" font-size="14.00">new</text>
<text text-anchor="start" x="233.012" y="-334.56" font-family="Times,serif" font-size="14.00">show</text>
<text text-anchor="start" x="233.012" y="-320.56" font-family="Times,serif" font-size="14.00">update</text>
<polyline fill="none" stroke="black" points="225.012,-313.76 349.108,-313.76 "/>
<polyline fill="none" stroke="black" points="225.012,-289.76 349.108,-289.76 "/>
<text text-anchor="start" x="233.012" y="-274.56" font-family="Times,serif" font-size="14.00">_layout</text>
<text text-anchor="start" x="233.012" y="-260.56" font-family="Times,serif" font-size="14.00">histories_params</text>
<text text-anchor="start" x="233.012" y="-246.56" font-family="Times,serif" font-size="14.00">set_history</text>
</g>
<!-- ApplicationController&#45;&gt;HistoriesController -->
<g id="edge4" class="edge"><title>ApplicationController&#45;&gt;HistoriesController</title>
<path fill="none" stroke="black" d="M66.2359,6.94912C109.049,-60.4647 176,-165.885 224.965,-242.986"/>
</g>
<!-- LevelsController -->
<g id="node7" class="node"><title>LevelsController</title>
<path fill="none" stroke="black" d="M-2.86249,-261.777C-2.86249,-261.777 83.9998,-261.777 83.9998,-261.777 89.9998,-261.777 95.9998,-267.777 95.9998,-273.777 95.9998,-273.777 95.9998,-451.777 95.9998,-451.777 95.9998,-457.777 89.9998,-463.777 83.9998,-463.777 83.9998,-463.777 -2.86249,-463.777 -2.86249,-463.777 -8.86249,-463.777 -14.8625,-457.777 -14.8625,-451.777 -14.8625,-451.777 -14.8625,-273.777 -14.8625,-273.777 -14.8625,-267.777 -8.86249,-261.777 -2.86249,-261.777"/>
<text text-anchor="middle" x="40.5687" y="-448.577" font-family="Times,serif" font-size="14.00">LevelsController</text>
<polyline fill="none" stroke="black" points="-14.8625,-441.777 95.9998,-441.777 "/>
<text text-anchor="start" x="-6.86249" y="-426.577" font-family="Times,serif" font-size="14.00">create</text>
<text text-anchor="start" x="-6.86249" y="-412.577" font-family="Times,serif" font-size="14.00">destroy</text>
<text text-anchor="start" x="-6.86249" y="-398.577" font-family="Times,serif" font-size="14.00">edit</text>
<text text-anchor="start" x="-6.86249" y="-384.577" font-family="Times,serif" font-size="14.00">index</text>
<text text-anchor="start" x="-6.86249" y="-370.577" font-family="Times,serif" font-size="14.00">new</text>
<text text-anchor="start" x="-6.86249" y="-356.577" font-family="Times,serif" font-size="14.00">show</text>
<text text-anchor="start" x="-6.86249" y="-342.577" font-family="Times,serif" font-size="14.00">update</text>
<polyline fill="none" stroke="black" points="-14.8625,-335.777 95.9998,-335.777 "/>
<polyline fill="none" stroke="black" points="-14.8625,-311.777 95.9998,-311.777 "/>
<text text-anchor="start" x="-6.86249" y="-296.577" font-family="Times,serif" font-size="14.00">_layout</text>
<text text-anchor="start" x="-6.86249" y="-282.577" font-family="Times,serif" font-size="14.00">level_params</text>
<text text-anchor="start" x="-6.86249" y="-268.577" font-family="Times,serif" font-size="14.00">set_level</text>
</g>
<!-- ApplicationController&#45;&gt;LevelsController -->
<g id="edge5" class="edge"><title>ApplicationController&#45;&gt;LevelsController</title>
<path fill="none" stroke="black" d="M52.5599,6.70021C57.7327,-8.28581 62.3423,-24.3141 65.0339,-39.6755 81.0191,-130.908 74.748,-155.964 65.0339,-248.076 64.564,-252.53 63.9943,-257.067 63.3453,-261.637"/>
</g>
<!-- MissionsController -->
<g id="node8" class="node"><title>MissionsController</title>
<path fill="none" stroke="black" d="M-281.442,476.402C-281.442,476.402 -181.324,476.402 -181.324,476.402 -175.324,476.402 -169.324,470.402 -169.324,464.402 -169.324,464.402 -169.324,286.402 -169.324,286.402 -169.324,280.402 -175.324,274.402 -181.324,274.402 -181.324,274.402 -281.442,274.402 -281.442,274.402 -287.442,274.402 -293.442,280.402 -293.442,286.402 -293.442,286.402 -293.442,464.402 -293.442,464.402 -293.442,470.402 -287.442,476.402 -281.442,476.402"/>
<text text-anchor="middle" x="-231.383" y="289.602" font-family="Times,serif" font-size="14.00">MissionsController</text>
<polyline fill="none" stroke="black" points="-293.442,296.402 -169.324,296.402 "/>
<text text-anchor="start" x="-285.442" y="311.602" font-family="Times,serif" font-size="14.00">create</text>
<text text-anchor="start" x="-285.442" y="325.602" font-family="Times,serif" font-size="14.00">destroy</text>
<text text-anchor="start" x="-285.442" y="339.602" font-family="Times,serif" font-size="14.00">edit</text>
<text text-anchor="start" x="-285.442" y="353.602" font-family="Times,serif" font-size="14.00">index</text>
<text text-anchor="start" x="-285.442" y="367.602" font-family="Times,serif" font-size="14.00">new</text>
<text text-anchor="start" x="-285.442" y="381.602" font-family="Times,serif" font-size="14.00">show</text>
<text text-anchor="start" x="-285.442" y="395.602" font-family="Times,serif" font-size="14.00">update</text>
<polyline fill="none" stroke="black" points="-293.442,402.402 -169.324,402.402 "/>
<polyline fill="none" stroke="black" points="-293.442,426.402 -169.324,426.402 "/>
<text text-anchor="start" x="-285.442" y="441.602" font-family="Times,serif" font-size="14.00">_layout</text>
<text text-anchor="start" x="-285.442" y="455.602" font-family="Times,serif" font-size="14.00">mission_params</text>
<text text-anchor="start" x="-285.442" y="469.602" font-family="Times,serif" font-size="14.00">set_mission</text>
</g>
<!-- ApplicationController&#45;&gt;MissionsController -->
<g id="edge6" class="edge"><title>ApplicationController&#45;&gt;MissionsController</title>
<path fill="none" stroke="black" d="M-31.8011,139.334C-72.3754,187.325 -127.202,252.175 -169.124,301.761"/>
</g>
<!-- RolesController -->
<g id="node9" class="node"><title>RolesController</title>
<path fill="none" stroke="black" d="M224.558,7.04699C224.558,7.04699 305.993,7.04699 305.993,7.04699 311.993,7.04699 317.993,1.04699 317.993,-4.95301 317.993,-4.95301 317.993,-182.953 317.993,-182.953 317.993,-188.953 311.993,-194.953 305.993,-194.953 305.993,-194.953 224.558,-194.953 224.558,-194.953 218.558,-194.953 212.558,-188.953 212.558,-182.953 212.558,-182.953 212.558,-4.95301 212.558,-4.95301 212.558,1.04699 218.558,7.04699 224.558,7.04699"/>
<text text-anchor="middle" x="265.275" y="-179.753" font-family="Times,serif" font-size="14.00">RolesController</text>
<polyline fill="none" stroke="black" points="212.558,-172.953 317.993,-172.953 "/>
<text text-anchor="start" x="220.558" y="-157.753" font-family="Times,serif" font-size="14.00">create</text>
<text text-anchor="start" x="220.558" y="-143.753" font-family="Times,serif" font-size="14.00">destroy</text>
<text text-anchor="start" x="220.558" y="-129.753" font-family="Times,serif" font-size="14.00">edit</text>
<text text-anchor="start" x="220.558" y="-115.753" font-family="Times,serif" font-size="14.00">index</text>
<text text-anchor="start" x="220.558" y="-101.753" font-family="Times,serif" font-size="14.00">new</text>
<text text-anchor="start" x="220.558" y="-87.753" font-family="Times,serif" font-size="14.00">show</text>
<text text-anchor="start" x="220.558" y="-73.753" font-family="Times,serif" font-size="14.00">update</text>
<polyline fill="none" stroke="black" points="212.558,-66.953 317.993,-66.953 "/>
<polyline fill="none" stroke="black" points="212.558,-42.953 317.993,-42.953 "/>
<text text-anchor="start" x="220.558" y="-27.753" font-family="Times,serif" font-size="14.00">_layout</text>
<text text-anchor="start" x="220.558" y="-13.753" font-family="Times,serif" font-size="14.00">role_params</text>
<text text-anchor="start" x="220.558" y="0.246988" font-family="Times,serif" font-size="14.00">set_role</text>
</g>
<!-- ApplicationController&#45;&gt;RolesController -->
<g id="edge7" class="edge"><title>ApplicationController&#45;&gt;RolesController</title>
<path fill="none" stroke="black" d="M119.893,6.7531C151.429,-15.0914 185.344,-38.5845 212.479,-57.3808"/>
</g>
<!-- SeminarsController -->
<g id="node10" class="node"><title>SeminarsController</title>
<path fill="none" stroke="black" d="M-277.627,236.298C-277.627,236.298 -175.979,236.298 -175.979,236.298 -169.979,236.298 -163.979,230.298 -163.979,224.298 -163.979,224.298 -163.979,46.2976 -163.979,46.2976 -163.979,40.2976 -169.979,34.2976 -175.979,34.2976 -175.979,34.2976 -277.627,34.2976 -277.627,34.2976 -283.627,34.2976 -289.627,40.2976 -289.627,46.2976 -289.627,46.2976 -289.627,224.298 -289.627,224.298 -289.627,230.298 -283.627,236.298 -277.627,236.298"/>
<text text-anchor="middle" x="-226.803" y="49.4976" font-family="Times,serif" font-size="14.00">SeminarsController</text>
<polyline fill="none" stroke="black" points="-289.627,56.2976 -163.979,56.2976 "/>
<text text-anchor="start" x="-281.627" y="71.4976" font-family="Times,serif" font-size="14.00">create</text>
<text text-anchor="start" x="-281.627" y="85.4976" font-family="Times,serif" font-size="14.00">destroy</text>
<text text-anchor="start" x="-281.627" y="99.4976" font-family="Times,serif" font-size="14.00">edit</text>
<text text-anchor="start" x="-281.627" y="113.498" font-family="Times,serif" font-size="14.00">index</text>
<text text-anchor="start" x="-281.627" y="127.498" font-family="Times,serif" font-size="14.00">new</text>
<text text-anchor="start" x="-281.627" y="141.498" font-family="Times,serif" font-size="14.00">show</text>
<text text-anchor="start" x="-281.627" y="155.498" font-family="Times,serif" font-size="14.00">update</text>
<polyline fill="none" stroke="black" points="-289.627,162.298 -163.979,162.298 "/>
<polyline fill="none" stroke="black" points="-289.627,186.298 -163.979,186.298 "/>
<text text-anchor="start" x="-281.627" y="201.498" font-family="Times,serif" font-size="14.00">_layout</text>
<text text-anchor="start" x="-281.627" y="215.498" font-family="Times,serif" font-size="14.00">seminar_params</text>
<text text-anchor="start" x="-281.627" y="229.498" font-family="Times,serif" font-size="14.00">set_seminar</text>
</g>
<!-- ApplicationController&#45;&gt;SeminarsController -->
<g id="edge8" class="edge"><title>ApplicationController&#45;&gt;SeminarsController</title>
<path fill="none" stroke="black" d="M-74.935,97.5987C-104.821,105.017 -136.789,112.953 -163.649,119.621"/>
</g>
<!-- StatusesController -->
<g id="node11" class="node"><title>StatusesController</title>
<path fill="none" stroke="black" d="M228.12,230.953C228.12,230.953 323.554,230.953 323.554,230.953 329.554,230.953 335.554,224.953 335.554,218.953 335.554,218.953 335.554,40.9527 335.554,40.9527 335.554,34.9527 329.554,28.9527 323.554,28.9527 323.554,28.9527 228.12,28.9527 228.12,28.9527 222.12,28.9527 216.12,34.9527 216.12,40.9527 216.12,40.9527 216.12,218.953 216.12,218.953 216.12,224.953 222.12,230.953 228.12,230.953"/>
<text text-anchor="middle" x="275.837" y="44.1527" font-family="Times,serif" font-size="14.00">StatusesController</text>
<polyline fill="none" stroke="black" points="216.12,50.9527 335.554,50.9527 "/>
<text text-anchor="start" x="224.12" y="66.1527" font-family="Times,serif" font-size="14.00">create</text>
<text text-anchor="start" x="224.12" y="80.1527" font-family="Times,serif" font-size="14.00">destroy</text>
<text text-anchor="start" x="224.12" y="94.1527" font-family="Times,serif" font-size="14.00">edit</text>
<text text-anchor="start" x="224.12" y="108.153" font-family="Times,serif" font-size="14.00">index</text>
<text text-anchor="start" x="224.12" y="122.153" font-family="Times,serif" font-size="14.00">new</text>
<text text-anchor="start" x="224.12" y="136.153" font-family="Times,serif" font-size="14.00">show</text>
<text text-anchor="start" x="224.12" y="150.153" font-family="Times,serif" font-size="14.00">update</text>
<polyline fill="none" stroke="black" points="216.12,156.953 335.554,156.953 "/>
<polyline fill="none" stroke="black" points="216.12,180.953 335.554,180.953 "/>
<text text-anchor="start" x="224.12" y="196.153" font-family="Times,serif" font-size="14.00">_layout</text>
<text text-anchor="start" x="224.12" y="210.153" font-family="Times,serif" font-size="14.00">set_status</text>
<text text-anchor="start" x="224.12" y="224.153" font-family="Times,serif" font-size="14.00">status_params</text>
</g>
<!-- ApplicationController&#45;&gt;StatusesController -->
<g id="edge9" class="edge"><title>ApplicationController&#45;&gt;StatusesController</title>
<path fill="none" stroke="black" d="M123.36,95.4045C154.704,102.506 188.369,110.134 216.072,116.411"/>
</g>
<!-- UsersController -->
<g id="node13" class="node"><title>UsersController</title>
<path fill="none" stroke="black" d="M232.804,440.255C232.804,440.255 314.231,440.255 314.231,440.255 320.231,440.255 326.231,434.255 326.231,428.255 326.231,428.255 326.231,320.255 326.231,320.255 326.231,314.255 320.231,308.255 314.231,308.255 314.231,308.255 232.804,308.255 232.804,308.255 226.804,308.255 220.804,314.255 220.804,320.255 220.804,320.255 220.804,428.255 220.804,428.255 220.804,434.255 226.804,440.255 232.804,440.255"/>
<text text-anchor="middle" x="273.517" y="323.455" font-family="Times,serif" font-size="14.00">UsersController</text>
<polyline fill="none" stroke="black" points="220.804,330.255 326.231,330.255 "/>
<text text-anchor="start" x="228.804" y="345.455" font-family="Times,serif" font-size="14.00">histories</text>
<text text-anchor="start" x="228.804" y="359.455" font-family="Times,serif" font-size="14.00">index</text>
<text text-anchor="start" x="228.804" y="373.455" font-family="Times,serif" font-size="14.00">show</text>
<polyline fill="none" stroke="black" points="220.804,380.255 326.231,380.255 "/>
<polyline fill="none" stroke="black" points="220.804,404.255 326.231,404.255 "/>
<text text-anchor="start" x="228.804" y="419.455" font-family="Times,serif" font-size="14.00">_layout</text>
<text text-anchor="start" x="228.804" y="433.455" font-family="Times,serif" font-size="14.00">set_user</text>
</g>
<!-- ApplicationController&#45;&gt;UsersController -->
<g id="edge11" class="edge"><title>ApplicationController&#45;&gt;UsersController</title>
<path fill="none" stroke="black" d="M79.0014,139.082C121.125,190.01 179.009,259.993 220.665,310.356"/>
</g>
<!-- WelcomeController -->
<g id="node14" class="node"><title>WelcomeController</title>
<path fill="none" stroke="black" d="M-280.629,-280.101C-280.629,-280.101 -178.564,-280.101 -178.564,-280.101 -172.564,-280.101 -166.564,-286.101 -166.564,-292.101 -166.564,-292.101 -166.564,-400.101 -166.564,-400.101 -166.564,-406.101 -172.564,-412.101 -178.564,-412.101 -178.564,-412.101 -280.629,-412.101 -280.629,-412.101 -286.629,-412.101 -292.629,-406.101 -292.629,-400.101 -292.629,-400.101 -292.629,-292.101 -292.629,-292.101 -292.629,-286.101 -286.629,-280.101 -280.629,-280.101"/>
<text text-anchor="middle" x="-229.597" y="-396.901" font-family="Times,serif" font-size="14.00">WelcomeController</text>
<polyline fill="none" stroke="black" points="-292.629,-390.101 -166.564,-390.101 "/>
<text text-anchor="start" x="-284.629" y="-374.901" font-family="Times,serif" font-size="14.00">about</text>
<text text-anchor="start" x="-284.629" y="-360.901" font-family="Times,serif" font-size="14.00">contact</text>
<text text-anchor="start" x="-284.629" y="-346.901" font-family="Times,serif" font-size="14.00">index</text>
<text text-anchor="start" x="-284.629" y="-332.901" font-family="Times,serif" font-size="14.00">not_found</text>
<polyline fill="none" stroke="black" points="-292.629,-326.101 -166.564,-326.101 "/>
<polyline fill="none" stroke="black" points="-292.629,-302.101 -166.564,-302.101 "/>
<text text-anchor="start" x="-284.629" y="-286.901" font-family="Times,serif" font-size="14.00">_layout</text>
</g>
<!-- ApplicationController&#45;&gt;WelcomeController -->
<g id="edge12" class="edge"><title>ApplicationController&#45;&gt;WelcomeController</title>
<path fill="none" stroke="black" d="M-38.8734,6.72176C-51.4938,-7.99996 -64.1284,-23.9263 -74.7802,-39.6755 -127.539,-117.682 -174.147,-216.123 -202.099,-280.06"/>
</g>
<!-- Users::SessionsController -->
<g id="node12" class="node"><title>Users::SessionsController</title>
<path fill="none" stroke="black" d="M436.129,423.68C436.129,423.68 580.516,423.68 580.516,423.68 586.516,423.68 592.516,417.68 592.516,411.68 592.516,411.68 592.516,331.68 592.516,331.68 592.516,325.68 586.516,319.68 580.516,319.68 580.516,319.68 436.129,319.68 436.129,319.68 430.129,319.68 424.129,325.68 424.129,331.68 424.129,331.68 424.129,411.68 424.129,411.68 424.129,417.68 430.129,423.68 436.129,423.68"/>
<text text-anchor="middle" x="508.323" y="334.88" font-family="Times,serif" font-size="14.00">Users::SessionsController</text>
<polyline fill="none" stroke="black" points="424.129,341.68 592.516,341.68 "/>
<text text-anchor="start" x="432.129" y="356.88" font-family="Times,serif" font-size="14.00">create</text>
<polyline fill="none" stroke="black" points="424.129,363.68 592.516,363.68 "/>
<polyline fill="none" stroke="black" points="424.129,387.68 592.516,387.68 "/>
<text text-anchor="start" x="432.129" y="402.88" font-family="Times,serif" font-size="14.00">_layout</text>
<text text-anchor="start" x="432.129" y="416.88" font-family="Times,serif" font-size="14.00">award_web_access_bonus!</text>
</g>
<!-- Devise::SessionsController -->
<g id="node15" class="node"><title>Devise::SessionsController</title>
<ellipse fill="none" stroke="black" cx="725.424" cy="371.681" rx="106.292" ry="18"/>
<text text-anchor="middle" x="725.424" y="375.881" font-family="Times,serif" font-size="14.00">Devise::SessionsController</text>
</g>
<!-- Devise::SessionsController&#45;&gt;Users::SessionsController -->
<g id="edge10" class="edge"><title>Devise::SessionsController&#45;&gt;Users::SessionsController</title>
<path fill="none" stroke="black" d="M618.781,371.68C609.988,371.68 601.178,371.68 592.583,371.68"/>
</g>
</g>
</svg>
