<?xml version="1.0" encoding="UTF-8" standalone="no"?>
<!DOCTYPE svg PUBLIC "-//W3C//DTD SVG 1.1//EN"
 "http://www.w3.org/Graphics/SVG/1.1/DTD/svg11.dtd">
<!-- Generated by graphviz version 2.38.0 (20140413.2041)
 -->
<!-- Title: models_diagram Pages: 1 -->
<svg width="855pt" height="297pt"
 viewBox="0.00 0.00 855.02 297.00" xmlns="http://www.w3.org/2000/svg" xmlns:xlink="http://www.w3.org/1999/xlink">
<g id="graph0" class="graph" transform="scale(1 1) rotate(0) translate(4 293)">
<title>models_diagram</title>
<polygon fill="white" stroke="none" points="-4,4 -4,-293 851.021,-293 851.021,4 -4,4"/>
<!-- _diagram_info -->
<g id="node1" class="node"><title>_diagram_info</title>
<text text-anchor="start" x="8" y="-274.6" font-family="Times,serif" font-size="13.00">Models diagram</text>
<text text-anchor="start" x="8" y="-261.6" font-family="Times,serif" font-size="13.00">Date: Oct 29 2014 &#45; 23:17</text>
<text text-anchor="start" x="8" y="-248.6" font-family="Times,serif" font-size="13.00">Migration version: 20141029121409</text>
<text text-anchor="start" x="8" y="-235.6" font-family="Times,serif" font-size="13.00">Generated by RailRoady 1.1.2</text>
<text text-anchor="start" x="8" y="-222.6" font-family="Times,serif" font-size="13.00">http://railroady.prestonlee.com</text>
</g>
<!-- Ability -->
<g id="node2" class="node"><title>Ability</title>
<polygon fill="none" stroke="black" points="286.358,-180 231.018,-180 231.018,-144 286.358,-144 286.358,-180"/>
<text text-anchor="middle" x="258.688" y="-157.8" font-family="Times,serif" font-size="14.00">Ability</text>
</g>
<!-- Acquisition -->
<g id="node3" class="node"><title>Acquisition</title>
<ellipse fill="none" stroke="black" cx="352.688" cy="-18" rx="51.2501" ry="18"/>
<text text-anchor="middle" x="352.688" y="-13.8" font-family="Times,serif" font-size="14.00">Acquisition</text>
</g>
<!-- Assign -->
<g id="node4" class="node"><title>Assign</title>
<ellipse fill="none" stroke="black" cx="533.688" cy="-18" rx="34.8545" ry="18"/>
<text text-anchor="middle" x="533.688" y="-13.8" font-family="Times,serif" font-size="14.00">Assign</text>
</g>
<!-- Category -->
<g id="node5" class="node"><title>Category</title>
<ellipse fill="none" stroke="black" cx="442.688" cy="-162" rx="42.5456" ry="18"/>
<text text-anchor="middle" x="442.688" y="-157.8" font-family="Times,serif" font-size="14.00">Category</text>
</g>
<!-- Category&#45;&gt;Acquisition -->
<g id="edge5" class="edge"><title>Category&#45;&gt;Acquisition</title>
<path fill="none" stroke="#7dd62a" d="M427.851,-137.591C411.618,-111.979 385.68,-71.0543 368.916,-44.6048"/>
<ellipse fill="none" stroke="#7dd62a" cx="430.046" cy="-141.054" rx="4.00002" ry="4.00002"/>
<polygon fill="#7dd62a" stroke="#7dd62a" points="368.754,-44.3482 367.201,-33.4927 366.077,-40.125 363.4,-35.9017 363.4,-35.9017 363.4,-35.9017 366.077,-40.125 359.599,-38.3108 368.754,-44.3482 368.754,-44.3482"/>
</g>
<!-- Mission -->
<g id="node8" class="node"><title>Mission</title>
<ellipse fill="none" stroke="black" cx="533.688" cy="-90" rx="38.7215" ry="18"/>
<text text-anchor="middle" x="533.688" y="-85.8" font-family="Times,serif" font-size="14.00">Mission</text>
</g>
<!-- Category&#45;&gt;Mission -->
<g id="edge4" class="edge"><title>Category&#45;&gt;Mission</title>
<path fill="none" stroke="#90adf0" d="M468.884,-140.849C480.631,-131.813 494.486,-121.155 506.364,-112.019"/>
<ellipse fill="none" stroke="#90adf0" cx="465.604" cy="-143.372" rx="4.00002" ry="4.00002"/>
<polygon fill="#90adf0" stroke="#90adf0" points="506.678,-111.777 517.348,-109.246 510.641,-108.728 514.604,-105.68 514.604,-105.68 514.604,-105.68 510.641,-108.728 511.861,-102.113 506.678,-111.777 506.678,-111.777"/>
</g>
<!-- Status -->
<g id="node11" class="node"><title>Status</title>
<ellipse fill="none" stroke="black" cx="729.688" cy="-18" rx="31.9567" ry="18"/>
<text text-anchor="middle" x="729.688" y="-13.8" font-family="Times,serif" font-size="14.00">Status</text>
</g>
<!-- Category&#45;&gt;Status -->
<g id="edge6" class="edge"><title>Category&#45;&gt;Status</title>
<path fill="none" stroke="#a7e410" d="M483.061,-147.737C511.236,-137.969 549.422,-123.7 581.688,-108 625.178,-86.8388 672.625,-57.0078 701.773,-37.8353"/>
<ellipse fill="none" stroke="#a7e410" cx="479.176" cy="-149.071" rx="4.00001" ry="4.00001"/>
<polygon fill="#a7e410" stroke="#a7e410" points="701.87,-37.7711 712.692,-36.0005 706.039,-35.01 710.207,-32.2489 710.207,-32.2489 710.207,-32.2489 706.039,-35.01 707.722,-28.4972 701.87,-37.7711 701.87,-37.7711"/>
</g>
<!-- History -->
<g id="node6" class="node"><title>History</title>
<ellipse fill="none" stroke="black" cx="643.688" cy="-18" rx="36.775" ry="18"/>
<text text-anchor="middle" x="643.688" y="-13.8" font-family="Times,serif" font-size="14.00">History</text>
</g>
<!-- Level -->
<g id="node7" class="node"><title>Level</title>
<ellipse fill="none" stroke="black" cx="533.688" cy="-162" rx="30.4775" ry="18"/>
<text text-anchor="middle" x="533.688" y="-157.8" font-family="Times,serif" font-size="14.00">Level</text>
</g>
<!-- Level&#45;&gt;Mission -->
<g id="edge9" class="edge"><title>Level&#45;&gt;Mission</title>
<path fill="none" stroke="#ed20e7" d="M533.688,-135.64C533.688,-130.063 533.688,-124.132 533.688,-118.476"/>
<ellipse fill="none" stroke="#ed20e7" cx="533.688" cy="-139.697" rx="4" ry="4"/>
<polygon fill="#ed20e7" stroke="#ed20e7" points="533.688,-118.104 538.188,-108.104 533.688,-113.104 533.688,-108.104 533.688,-108.104 533.688,-108.104 533.688,-113.104 529.188,-108.104 533.688,-118.104 533.688,-118.104"/>
</g>
<!-- Mission&#45;&gt;Acquisition -->
<g id="edge11" class="edge"><title>Mission&#45;&gt;Acquisition</title>
<path fill="none" stroke="#389881" d="M497.476,-74.9954C468.08,-63.627 426.564,-47.571 395.52,-35.565"/>
<ellipse fill="none" stroke="#389881" cx="501.277" cy="-76.4654" rx="4.00001" ry="4.00001"/>
<polygon fill="#389881" stroke="#389881" points="395.164,-35.4274 387.461,-27.6232 390.501,-33.6239 385.837,-31.8203 385.837,-31.8203 385.837,-31.8203 390.501,-33.6239 384.214,-36.0174 395.164,-35.4274 395.164,-35.4274"/>
</g>
<!-- Mission&#45;&gt;Assign -->
<g id="edge13" class="edge"><title>Mission&#45;&gt;Assign</title>
<path fill="none" stroke="#a63273" d="M533.688,-63.6398C533.688,-58.0629 533.688,-52.1319 533.688,-46.4761"/>
<ellipse fill="none" stroke="#a63273" cx="533.688" cy="-67.6966" rx="4" ry="4"/>
<polygon fill="#a63273" stroke="#a63273" points="533.688,-46.1043 538.188,-36.1043 533.688,-41.1043 533.688,-36.1043 533.688,-36.1043 533.688,-36.1043 533.688,-41.1043 529.188,-36.1044 533.688,-46.1043 533.688,-46.1043"/>
</g>
<!-- Mission&#45;&gt;History -->
<g id="edge12" class="edge"><title>Mission&#45;&gt;History</title>
<path fill="none" stroke="#b2d7da" d="M562.799,-70.4744C578.364,-60.5696 597.513,-48.3842 613.271,-38.3561"/>
<ellipse fill="none" stroke="#b2d7da" cx="559.058" cy="-72.8552" rx="4.00002" ry="4.00002"/>
<polygon fill="#b2d7da" stroke="#b2d7da" points="613.668,-38.1033 624.521,-36.531 617.887,-35.4189 622.105,-32.7345 622.105,-32.7345 622.105,-32.7345 617.887,-35.4189 619.689,-28.938 613.668,-38.1033 613.668,-38.1033"/>
</g>
<!-- Role -->
<g id="node9" class="node"><title>Role</title>
<ellipse fill="none" stroke="black" cx="782.688" cy="-162" rx="27" ry="18"/>
<text text-anchor="middle" x="782.688" y="-157.8" font-family="Times,serif" font-size="14.00">Role</text>
</g>
<!-- User -->
<g id="node12" class="node"><title>User</title>
<ellipse fill="none" stroke="black" cx="705.688" cy="-90" rx="27" ry="18"/>
<text text-anchor="middle" x="705.688" y="-85.8" font-family="Times,serif" font-size="14.00">User</text>
</g>
<!-- Role&#45;&gt;User -->
<g id="edge15" class="edge"><title>Role&#45;&gt;User</title>
<path fill="none" stroke="#4c2b3e" d="M761.118,-141.391C750.939,-132.138 738.79,-121.093 728.463,-111.705"/>
<ellipse fill="none" stroke="#4c2b3e" cx="764.146" cy="-144.144" rx="4.00002" ry="4.00002"/>
<polygon fill="#4c2b3e" stroke="#4c2b3e" points="728.383,-111.632 724.011,-101.576 724.684,-108.269 720.984,-104.906 720.984,-104.906 720.984,-104.906 724.684,-108.269 717.957,-108.235 728.383,-111.632 728.383,-111.632"/>
</g>
<!-- Seminar -->
<g id="node10" class="node"><title>Seminar</title>
<ellipse fill="none" stroke="black" cx="659.688" cy="-162" rx="39.6558" ry="18"/>
<text text-anchor="middle" x="659.688" y="-157.8" font-family="Times,serif" font-size="14.00">Seminar</text>
</g>
<!-- Seminar&#45;&gt;User -->
<g id="edge17" class="edge"><title>Seminar&#45;&gt;User</title>
<path fill="none" stroke="#f852fc" d="M674.991,-137.713C680.064,-129.993 685.702,-121.413 690.747,-113.735"/>
<ellipse fill="none" stroke="#f852fc" cx="672.786" cy="-141.068" rx="4.00002" ry="4.00002"/>
<ellipse fill="#f852fc" stroke="#f852fc" cx="692.985" cy="-110.331" rx="4.00002" ry="4.00002"/>
</g>
<!-- User&#45;&gt;Assign -->
<g id="edge22" class="edge"><title>User&#45;&gt;Assign</title>
<path fill="none" stroke="#0156cc" d="M675.737,-76.8107C646.144,-64.7671 600.864,-46.3392 569.412,-33.5388"/>
<ellipse fill="none" stroke="#0156cc" cx="679.497" cy="-78.3409" rx="4.00002" ry="4.00002"/>
<polygon fill="#0156cc" stroke="#0156cc" points="569.389,-33.5298 561.823,-25.5922 564.758,-31.645 560.127,-29.7602 560.127,-29.7602 560.127,-29.7602 564.758,-31.645 558.431,-33.9282 569.389,-33.5298 569.389,-33.5298"/>
</g>
<!-- User&#45;&gt;History -->
<g id="edge21" class="edge"><title>User&#45;&gt;History</title>
<path fill="none" stroke="#5b220d" d="M687.216,-68.1451C680.043,-60.0462 671.794,-50.7324 664.419,-42.4057"/>
<ellipse fill="none" stroke="#5b220d" cx="689.887" cy="-71.1604" rx="4.00002" ry="4.00002"/>
<polygon fill="#5b220d" stroke="#5b220d" points="664.309,-42.2826 661.048,-31.813 660.994,-38.5396 657.679,-34.7966 657.679,-34.7966 657.679,-34.7966 660.994,-38.5396 654.31,-37.7803 664.309,-42.2826 664.309,-42.2826"/>
</g>
<!-- User&#45;&gt;Status -->
<g id="edge20" class="edge"><title>User&#45;&gt;Status</title>
<path fill="none" stroke="#f6f38f" d="M714.112,-64.4306C716.192,-58.362 718.431,-51.833 720.544,-45.6698"/>
<ellipse fill="none" stroke="#f6f38f" cx="712.795" cy="-68.2712" rx="4.00001" ry="4.00001"/>
<polygon fill="#f6f38f" stroke="#f6f38f" points="720.688,-45.2485 728.188,-37.2485 722.31,-40.5187 723.932,-35.789 723.932,-35.789 723.932,-35.789 722.31,-40.5187 719.675,-34.3295 720.688,-45.2485 720.688,-45.2485"/>
</g>
<!-- Object -->
<g id="node13" class="node"><title>Object</title>
<ellipse fill="none" stroke="black" cx="258.688" cy="-252.5" rx="33.8596" ry="18"/>
<text text-anchor="middle" x="258.688" y="-248.3" font-family="Times,serif" font-size="14.00">Object</text>
</g>
<!-- Object&#45;&gt;Ability -->
<g id="edge1" class="edge"><title>Object&#45;&gt;Ability</title>
<path fill="none" stroke="black" d="M258.688,-234.436C258.688,-218.765 258.688,-195.666 258.688,-180.011"/>
</g>
<!-- ActiveRecord::Base -->
<g id="node14" class="node"><title>ActiveRecord::Base</title>
<ellipse fill="none" stroke="black" cx="625.688" cy="-252.5" rx="81.1422" ry="18"/>
<text text-anchor="middle" x="625.688" y="-248.3" font-family="Times,serif" font-size="14.00">ActiveRecord::Base</text>
</g>
<!-- ActiveRecord::Base&#45;&gt;Acquisition -->
<g id="edge2" class="edge"><title>ActiveRecord::Base&#45;&gt;Acquisition</title>
<path fill="none" stroke="black" d="M562.043,-241.236C496.639,-229.345 401.031,-207.78 376.688,-180 340.741,-138.98 345.354,-68.3019 349.802,-35.9996"/>
</g>
<!-- ActiveRecord::Base&#45;&gt;Assign -->
<g id="edge3" class="edge"><title>ActiveRecord::Base&#45;&gt;Assign</title>
<path fill="none" stroke="black" d="M562.798,-240.994C500.444,-229.145 411.317,-207.839 390.688,-180 346.506,-120.376 456.817,-56.4178 508.599,-30.6944"/>
</g>
<!-- ActiveRecord::Base&#45;&gt;Category -->
<g id="edge7" class="edge"><title>ActiveRecord::Base&#45;&gt;Category</title>
<path fill="none" stroke="black" d="M593.392,-235.882C558.197,-218.861 502.523,-191.937 469.603,-176.016"/>
</g>
<!-- ActiveRecord::Base&#45;&gt;History -->
<g id="edge8" class="edge"><title>ActiveRecord::Base&#45;&gt;History</title>
<path fill="none" stroke="black" d="M699.186,-244.581C741.656,-236.379 791.847,-218.567 818.688,-180 858.771,-122.405 744.709,-74.174 741.688,-72 718.766,-55.504 690.114,-40.5851 669.724,-30.81"/>
</g>
<!-- ActiveRecord::Base&#45;&gt;Level -->
<g id="edge10" class="edge"><title>ActiveRecord::Base&#45;&gt;Level</title>
<path fill="none" stroke="black" d="M608.383,-234.854C591.31,-218.431 565.457,-193.561 549.08,-177.807"/>
</g>
<!-- ActiveRecord::Base&#45;&gt;Mission -->
<g id="edge14" class="edge"><title>ActiveRecord::Base&#45;&gt;Mission</title>
<path fill="none" stroke="black" d="M618.319,-234.251C608.813,-212.597 591.279,-174.582 572.688,-144 564.854,-131.114 554.73,-117.426 546.76,-107.189"/>
</g>
<!-- ActiveRecord::Base&#45;&gt;Role -->
<g id="edge16" class="edge"><title>ActiveRecord::Base&#45;&gt;Role</title>
<path fill="none" stroke="black" d="M654.119,-235.473C685.401,-217.84 734.887,-189.945 762.45,-174.408"/>
</g>
<!-- ActiveRecord::Base&#45;&gt;Seminar -->
<g id="edge18" class="edge"><title>ActiveRecord::Base&#45;&gt;Seminar</title>
<path fill="none" stroke="black" d="M632.243,-234.436C638.264,-218.765 647.138,-195.666 653.152,-180.011"/>
</g>
<!-- ActiveRecord::Base&#45;&gt;Status -->
<g id="edge19" class="edge"><title>ActiveRecord::Base&#45;&gt;Status</title>
<path fill="none" stroke="black" d="M703.199,-246.96C750.092,-239.736 806.488,-222.121 836.688,-180 875.311,-126.132 790.655,-59.5553 749.947,-31.9407"/>
</g>
<!-- ActiveRecord::Base&#45;&gt;User -->
<g id="edge23" class="edge"><title>ActiveRecord::Base&#45;&gt;User</title>
<path fill="none" stroke="black" d="M654.948,-235.406C674.148,-223.046 697.671,-204.032 708.688,-180 719.318,-156.811 714.999,-126.542 710.585,-107.952"/>
</g>
</g>
</svg>
