<?xml version="1.0" encoding="UTF-8" standalone="no"?>
<!DOCTYPE svg PUBLIC "-//W3C//DTD SVG 1.1//EN"
 "http://www.w3.org/Graphics/SVG/1.1/DTD/svg11.dtd">
<!-- Generated by graphviz version 2.38.0 (20140413.2041)
 -->
<!-- Title: models_diagram Pages: 1 -->
<svg width="855pt" height="297pt"
 viewBox="0.00 0.00 854.78 297.00" xmlns="http://www.w3.org/2000/svg" xmlns:xlink="http://www.w3.org/1999/xlink">
<g id="graph0" class="graph" transform="scale(1 1) rotate(0) translate(4 293)">
<title>models_diagram</title>
<polygon fill="white" stroke="none" points="-4,4 -4,-293 850.783,-293 850.783,4 -4,4"/>
<!-- _diagram_info -->
<g id="node1" class="node"><title>_diagram_info</title>
<text text-anchor="start" x="8" y="-274.6" font-family="Times,serif" font-size="13.00">Models diagram</text>
<text text-anchor="start" x="8" y="-261.6" font-family="Times,serif" font-size="13.00">Date: Oct 16 2014 &#45; 09:59</text>
<text text-anchor="start" x="8" y="-248.6" font-family="Times,serif" font-size="13.00">Migration version: 20141001102406</text>
<text text-anchor="start" x="8" y="-235.6" font-family="Times,serif" font-size="13.00">Generated by RailRoady 1.1.2</text>
<text text-anchor="start" x="8" y="-222.6" font-family="Times,serif" font-size="13.00">http://railroady.prestonlee.com</text>
</g>
<!-- Ability -->
<g id="node2" class="node"><title>Ability</title>
<polygon fill="none" stroke="black" points="286.12,-180 230.78,-180 230.78,-144 286.12,-144 286.12,-180"/>
<text text-anchor="middle" x="258.45" y="-157.8" font-family="Times,serif" font-size="14.00">Ability</text>
</g>
<!-- Acquisition -->
<g id="node3" class="node"><title>Acquisition</title>
<ellipse fill="none" stroke="black" cx="352.45" cy="-18" rx="51.2501" ry="18"/>
<text text-anchor="middle" x="352.45" y="-13.8" font-family="Times,serif" font-size="14.00">Acquisition</text>
</g>
<!-- Assign -->
<g id="node4" class="node"><title>Assign</title>
<ellipse fill="none" stroke="black" cx="533.45" cy="-18" rx="34.8545" ry="18"/>
<text text-anchor="middle" x="533.45" y="-13.8" font-family="Times,serif" font-size="14.00">Assign</text>
</g>
<!-- Category -->
<g id="node5" class="node"><title>Category</title>
<ellipse fill="none" stroke="black" cx="442.45" cy="-162" rx="42.5456" ry="18"/>
<text text-anchor="middle" x="442.45" y="-157.8" font-family="Times,serif" font-size="14.00">Category</text>
</g>
<!-- Category&#45;&gt;Acquisition -->
<g id="edge5" class="edge"><title>Category&#45;&gt;Acquisition</title>
<path fill="none" stroke="#b53ec8" d="M427.613,-137.591C411.38,-111.979 385.442,-71.0543 368.678,-44.6048"/>
<ellipse fill="none" stroke="#b53ec8" cx="429.808" cy="-141.054" rx="4.00002" ry="4.00002"/>
<polygon fill="#b53ec8" stroke="#b53ec8" points="368.515,-44.3482 366.963,-33.4927 365.839,-40.125 363.162,-35.9017 363.162,-35.9017 363.162,-35.9017 365.839,-40.125 359.361,-38.3108 368.515,-44.3482 368.515,-44.3482"/>
</g>
<!-- Mission -->
<g id="node8" class="node"><title>Mission</title>
<ellipse fill="none" stroke="black" cx="533.45" cy="-90" rx="38.7215" ry="18"/>
<text text-anchor="middle" x="533.45" y="-85.8" font-family="Times,serif" font-size="14.00">Mission</text>
</g>
<!-- Category&#45;&gt;Mission -->
<g id="edge4" class="edge"><title>Category&#45;&gt;Mission</title>
<path fill="none" stroke="#337b66" d="M468.646,-140.849C480.393,-131.813 494.248,-121.155 506.125,-112.019"/>
<ellipse fill="none" stroke="#337b66" cx="465.366" cy="-143.372" rx="4.00002" ry="4.00002"/>
<polygon fill="#337b66" stroke="#337b66" points="506.44,-111.777 517.11,-109.246 510.403,-108.728 514.366,-105.68 514.366,-105.68 514.366,-105.68 510.403,-108.728 511.622,-102.113 506.44,-111.777 506.44,-111.777"/>
</g>
<!-- Status -->
<g id="node11" class="node"><title>Status</title>
<ellipse fill="none" stroke="black" cx="729.45" cy="-18" rx="31.9567" ry="18"/>
<text text-anchor="middle" x="729.45" y="-13.8" font-family="Times,serif" font-size="14.00">Status</text>
</g>
<!-- Category&#45;&gt;Status -->
<g id="edge6" class="edge"><title>Category&#45;&gt;Status</title>
<path fill="none" stroke="#8f6253" d="M482.823,-147.737C510.998,-137.969 549.184,-123.7 581.45,-108 624.94,-86.8388 672.387,-57.0078 701.535,-37.8353"/>
<ellipse fill="none" stroke="#8f6253" cx="478.938" cy="-149.071" rx="4.00001" ry="4.00001"/>
<polygon fill="#8f6253" stroke="#8f6253" points="701.632,-37.7711 712.454,-36.0005 705.8,-35.01 709.969,-32.2489 709.969,-32.2489 709.969,-32.2489 705.8,-35.01 707.484,-28.4972 701.632,-37.7711 701.632,-37.7711"/>
</g>
<!-- History -->
<g id="node6" class="node"><title>History</title>
<ellipse fill="none" stroke="black" cx="643.45" cy="-18" rx="36.775" ry="18"/>
<text text-anchor="middle" x="643.45" y="-13.8" font-family="Times,serif" font-size="14.00">History</text>
</g>
<!-- Level -->
<g id="node7" class="node"><title>Level</title>
<ellipse fill="none" stroke="black" cx="533.45" cy="-162" rx="30.4775" ry="18"/>
<text text-anchor="middle" x="533.45" y="-157.8" font-family="Times,serif" font-size="14.00">Level</text>
</g>
<!-- Level&#45;&gt;Mission -->
<g id="edge9" class="edge"><title>Level&#45;&gt;Mission</title>
<path fill="none" stroke="#e5d2f2" d="M533.45,-135.64C533.45,-130.063 533.45,-124.132 533.45,-118.476"/>
<ellipse fill="none" stroke="#e5d2f2" cx="533.45" cy="-139.697" rx="4" ry="4"/>
<polygon fill="#e5d2f2" stroke="#e5d2f2" points="533.45,-118.104 537.95,-108.104 533.45,-113.104 533.45,-108.104 533.45,-108.104 533.45,-108.104 533.45,-113.104 528.95,-108.104 533.45,-118.104 533.45,-118.104"/>
</g>
<!-- Mission&#45;&gt;Acquisition -->
<g id="edge11" class="edge"><title>Mission&#45;&gt;Acquisition</title>
<path fill="none" stroke="#abacf8" d="M497.238,-74.9954C467.842,-63.627 426.326,-47.571 395.282,-35.565"/>
<ellipse fill="none" stroke="#abacf8" cx="501.039" cy="-76.4654" rx="4.00001" ry="4.00001"/>
<polygon fill="#abacf8" stroke="#abacf8" points="394.926,-35.4274 387.223,-27.6232 390.263,-33.6239 385.599,-31.8203 385.599,-31.8203 385.599,-31.8203 390.263,-33.6239 383.976,-36.0174 394.926,-35.4274 394.926,-35.4274"/>
</g>
<!-- Mission&#45;&gt;Assign -->
<g id="edge13" class="edge"><title>Mission&#45;&gt;Assign</title>
<path fill="none" stroke="#852a45" d="M533.45,-63.6398C533.45,-58.0629 533.45,-52.1319 533.45,-46.4761"/>
<ellipse fill="none" stroke="#852a45" cx="533.45" cy="-67.6966" rx="4" ry="4"/>
<polygon fill="#852a45" stroke="#852a45" points="533.45,-46.1043 537.95,-36.1043 533.45,-41.1043 533.45,-36.1043 533.45,-36.1043 533.45,-36.1043 533.45,-41.1043 528.95,-36.1044 533.45,-46.1043 533.45,-46.1043"/>
</g>
<!-- Mission&#45;&gt;History -->
<g id="edge12" class="edge"><title>Mission&#45;&gt;History</title>
<path fill="none" stroke="#9c1867" d="M562.561,-70.4744C578.126,-60.5696 597.275,-48.3842 613.033,-38.3561"/>
<ellipse fill="none" stroke="#9c1867" cx="558.82" cy="-72.8552" rx="4.00002" ry="4.00002"/>
<polygon fill="#9c1867" stroke="#9c1867" points="613.43,-38.1033 624.283,-36.531 617.649,-35.4189 621.867,-32.7345 621.867,-32.7345 621.867,-32.7345 617.649,-35.4189 619.451,-28.938 613.43,-38.1033 613.43,-38.1033"/>
</g>
<!-- Role -->
<g id="node9" class="node"><title>Role</title>
<ellipse fill="none" stroke="black" cx="782.45" cy="-162" rx="27" ry="18"/>
<text text-anchor="middle" x="782.45" y="-157.8" font-family="Times,serif" font-size="14.00">Role</text>
</g>
<!-- User -->
<g id="node12" class="node"><title>User</title>
<ellipse fill="none" stroke="black" cx="705.45" cy="-90" rx="27" ry="18"/>
<text text-anchor="middle" x="705.45" y="-85.8" font-family="Times,serif" font-size="14.00">User</text>
</g>
<!-- Role&#45;&gt;User -->
<g id="edge15" class="edge"><title>Role&#45;&gt;User</title>
<path fill="none" stroke="#98f80c" d="M760.88,-141.391C750.701,-132.138 738.552,-121.093 728.225,-111.705"/>
<ellipse fill="none" stroke="#98f80c" cx="763.908" cy="-144.144" rx="4.00002" ry="4.00002"/>
<polygon fill="#98f80c" stroke="#98f80c" points="728.145,-111.632 723.773,-101.576 724.446,-108.269 720.746,-104.906 720.746,-104.906 720.746,-104.906 724.446,-108.269 717.719,-108.235 728.145,-111.632 728.145,-111.632"/>
</g>
<!-- Seminar -->
<g id="node10" class="node"><title>Seminar</title>
<ellipse fill="none" stroke="black" cx="659.45" cy="-162" rx="39.6558" ry="18"/>
<text text-anchor="middle" x="659.45" y="-157.8" font-family="Times,serif" font-size="14.00">Seminar</text>
</g>
<!-- Seminar&#45;&gt;User -->
<g id="edge17" class="edge"><title>Seminar&#45;&gt;User</title>
<path fill="none" stroke="#e51bc9" d="M674.753,-137.713C679.826,-129.993 685.464,-121.413 690.509,-113.735"/>
<ellipse fill="none" stroke="#e51bc9" cx="672.548" cy="-141.068" rx="4.00002" ry="4.00002"/>
<ellipse fill="#e51bc9" stroke="#e51bc9" cx="692.746" cy="-110.331" rx="4.00002" ry="4.00002"/>
</g>
<!-- User&#45;&gt;Assign -->
<g id="edge22" class="edge"><title>User&#45;&gt;Assign</title>
<path fill="none" stroke="#1e0a51" d="M675.499,-76.8107C645.906,-64.7671 600.626,-46.3392 569.174,-33.5388"/>
<ellipse fill="none" stroke="#1e0a51" cx="679.259" cy="-78.3409" rx="4.00002" ry="4.00002"/>
<polygon fill="#1e0a51" stroke="#1e0a51" points="569.151,-33.5298 561.585,-25.5922 564.52,-31.645 559.889,-29.7602 559.889,-29.7602 559.889,-29.7602 564.52,-31.645 558.193,-33.9282 569.151,-33.5298 569.151,-33.5298"/>
</g>
<!-- User&#45;&gt;History -->
<g id="edge21" class="edge"><title>User&#45;&gt;History</title>
<path fill="none" stroke="#fe37a4" d="M686.978,-68.1451C679.805,-60.0462 671.556,-50.7324 664.18,-42.4057"/>
<ellipse fill="none" stroke="#fe37a4" cx="689.649" cy="-71.1604" rx="4.00002" ry="4.00002"/>
<polygon fill="#fe37a4" stroke="#fe37a4" points="664.071,-42.2826 660.81,-31.813 660.756,-38.5396 657.441,-34.7966 657.441,-34.7966 657.441,-34.7966 660.756,-38.5396 654.072,-37.7803 664.071,-42.2826 664.071,-42.2826"/>
</g>
<!-- User&#45;&gt;Status -->
<g id="edge20" class="edge"><title>User&#45;&gt;Status</title>
<path fill="none" stroke="#9ef641" d="M713.874,-64.4306C715.954,-58.362 718.193,-51.833 720.306,-45.6698"/>
<ellipse fill="none" stroke="#9ef641" cx="712.557" cy="-68.2712" rx="4.00001" ry="4.00001"/>
<polygon fill="#9ef641" stroke="#9ef641" points="720.45,-45.2485 727.95,-37.2485 722.072,-40.5187 723.693,-35.789 723.693,-35.789 723.693,-35.789 722.072,-40.5187 719.437,-34.3295 720.45,-45.2485 720.45,-45.2485"/>
</g>
<!-- Object -->
<g id="node13" class="node"><title>Object</title>
<ellipse fill="none" stroke="black" cx="258.45" cy="-252.5" rx="33.8596" ry="18"/>
<text text-anchor="middle" x="258.45" y="-248.3" font-family="Times,serif" font-size="14.00">Object</text>
</g>
<!-- Object&#45;&gt;Ability -->
<g id="edge1" class="edge"><title>Object&#45;&gt;Ability</title>
<path fill="none" stroke="black" d="M258.45,-234.436C258.45,-218.765 258.45,-195.666 258.45,-180.011"/>
</g>
<!-- ActiveRecord::Base -->
<g id="node14" class="node"><title>ActiveRecord::Base</title>
<ellipse fill="none" stroke="black" cx="625.45" cy="-252.5" rx="81.1422" ry="18"/>
<text text-anchor="middle" x="625.45" y="-248.3" font-family="Times,serif" font-size="14.00">ActiveRecord::Base</text>
</g>
<!-- ActiveRecord::Base&#45;&gt;Acquisition -->
<g id="edge2" class="edge"><title>ActiveRecord::Base&#45;&gt;Acquisition</title>
<path fill="none" stroke="black" d="M561.805,-241.236C496.401,-229.345 400.793,-207.78 376.45,-180 340.503,-138.98 345.116,-68.3019 349.564,-35.9996"/>
</g>
<!-- ActiveRecord::Base&#45;&gt;Assign -->
<g id="edge3" class="edge"><title>ActiveRecord::Base&#45;&gt;Assign</title>
<path fill="none" stroke="black" d="M562.56,-240.994C500.206,-229.145 411.079,-207.839 390.45,-180 346.268,-120.376 456.579,-56.4178 508.361,-30.6944"/>
</g>
<!-- ActiveRecord::Base&#45;&gt;Category -->
<g id="edge7" class="edge"><title>ActiveRecord::Base&#45;&gt;Category</title>
<path fill="none" stroke="black" d="M593.154,-235.882C557.959,-218.861 502.285,-191.937 469.365,-176.016"/>
</g>
<!-- ActiveRecord::Base&#45;&gt;History -->
<g id="edge8" class="edge"><title>ActiveRecord::Base&#45;&gt;History</title>
<path fill="none" stroke="black" d="M698.948,-244.581C741.418,-236.379 791.609,-218.567 818.45,-180 858.533,-122.405 744.471,-74.174 741.45,-72 718.528,-55.504 689.876,-40.5851 669.486,-30.81"/>
</g>
<!-- ActiveRecord::Base&#45;&gt;Level -->
<g id="edge10" class="edge"><title>ActiveRecord::Base&#45;&gt;Level</title>
<path fill="none" stroke="black" d="M608.145,-234.854C591.072,-218.431 565.219,-193.561 548.842,-177.807"/>
</g>
<!-- ActiveRecord::Base&#45;&gt;Mission -->
<g id="edge14" class="edge"><title>ActiveRecord::Base&#45;&gt;Mission</title>
<path fill="none" stroke="black" d="M618.081,-234.251C608.575,-212.597 591.041,-174.582 572.45,-144 564.616,-131.114 554.492,-117.426 546.522,-107.189"/>
</g>
<!-- ActiveRecord::Base&#45;&gt;Role -->
<g id="edge16" class="edge"><title>ActiveRecord::Base&#45;&gt;Role</title>
<path fill="none" stroke="black" d="M653.881,-235.473C685.163,-217.84 734.649,-189.945 762.212,-174.408"/>
</g>
<!-- ActiveRecord::Base&#45;&gt;Seminar -->
<g id="edge18" class="edge"><title>ActiveRecord::Base&#45;&gt;Seminar</title>
<path fill="none" stroke="black" d="M632.005,-234.436C638.026,-218.765 646.9,-195.666 652.914,-180.011"/>
</g>
<!-- ActiveRecord::Base&#45;&gt;Status -->
<g id="edge19" class="edge"><title>ActiveRecord::Base&#45;&gt;Status</title>
<path fill="none" stroke="black" d="M702.961,-246.96C749.854,-239.736 806.25,-222.121 836.45,-180 875.073,-126.132 790.417,-59.5553 749.709,-31.9407"/>
</g>
<!-- ActiveRecord::Base&#45;&gt;User -->
<g id="edge23" class="edge"><title>ActiveRecord::Base&#45;&gt;User</title>
<path fill="none" stroke="black" d="M654.71,-235.406C673.91,-223.046 697.433,-204.032 708.45,-180 719.08,-156.811 714.761,-126.542 710.347,-107.952"/>
</g>
</g>
</svg>
