<?xml version="1.0" encoding="UTF-8" standalone="no"?>
<!DOCTYPE svg PUBLIC "-//W3C//DTD SVG 1.1//EN"
 "http://www.w3.org/Graphics/SVG/1.1/DTD/svg11.dtd">
<!-- Generated by graphviz version 2.38.0 (20140413.2041)
 -->
<!-- Title: models_diagram Pages: 1 -->
<svg width="495pt" height="225pt"
 viewBox="0.00 0.00 495.45 225.00" xmlns="http://www.w3.org/2000/svg" xmlns:xlink="http://www.w3.org/1999/xlink">
<g id="graph0" class="graph" transform="scale(1 1) rotate(0) translate(4 221)">
<title>models_diagram</title>
<polygon fill="white" stroke="none" points="-4,4 -4,-221 491.45,-221 491.45,4 -4,4"/>
<!-- _diagram_info -->
<g id="node1" class="node"><title>_diagram_info</title>
<text text-anchor="start" x="8" y="-202.6" font-family="Times,serif" font-size="13.00">Models diagram</text>
<text text-anchor="start" x="8" y="-189.6" font-family="Times,serif" font-size="13.00">Date: Sep 26 2014 &#45; 20:58</text>
<text text-anchor="start" x="8" y="-176.6" font-family="Times,serif" font-size="13.00">Migration version: 20140926114154</text>
<text text-anchor="start" x="8" y="-163.6" font-family="Times,serif" font-size="13.00">Generated by RailRoady 1.1.2</text>
<text text-anchor="start" x="8" y="-150.6" font-family="Times,serif" font-size="13.00">http://railroady.prestonlee.com</text>
</g>
<!-- Acquisition -->
<g id="node2" class="node"><title>Acquisition</title>
<ellipse fill="none" stroke="black" cx="59.4497" cy="-90" rx="51.2501" ry="18"/>
<text text-anchor="middle" x="59.4497" y="-85.8" font-family="Times,serif" font-size="14.00">Acquisition</text>
</g>
<!-- Category -->
<g id="node3" class="node"><title>Category</title>
<ellipse fill="none" stroke="black" cx="171.45" cy="-90" rx="42.5456" ry="18"/>
<text text-anchor="middle" x="171.45" y="-85.8" font-family="Times,serif" font-size="14.00">Category</text>
</g>
<!-- Level -->
<g id="node4" class="node"><title>Level</title>
<ellipse fill="none" stroke="black" cx="262.45" cy="-90" rx="30.4775" ry="18"/>
<text text-anchor="middle" x="262.45" y="-85.8" font-family="Times,serif" font-size="14.00">Level</text>
</g>
<!-- Mission -->
<g id="node5" class="node"><title>Mission</title>
<ellipse fill="none" stroke="black" cx="349.45" cy="-90" rx="38.7215" ry="18"/>
<text text-anchor="middle" x="349.45" y="-85.8" font-family="Times,serif" font-size="14.00">Mission</text>
</g>
<!-- Role -->
<g id="node6" class="node"><title>Role</title>
<ellipse fill="none" stroke="black" cx="433.45" cy="-90" rx="27" ry="18"/>
<text text-anchor="middle" x="433.45" y="-85.8" font-family="Times,serif" font-size="14.00">Role</text>
</g>
<!-- User -->
<g id="node7" class="node"><title>User</title>
<ellipse fill="none" stroke="black" cx="460.45" cy="-18" rx="27" ry="18"/>
<text text-anchor="middle" x="460.45" y="-13.8" font-family="Times,serif" font-size="14.00">User</text>
</g>
<!-- Role&#45;&gt;User -->
<g id="edge5" class="edge"><title>Role&#45;&gt;User</title>
<path fill="none" stroke="#c8f580" d="M442.793,-64.7779C445.197,-58.544 447.797,-51.8046 450.242,-45.4634"/>
<ellipse fill="none" stroke="#c8f580" cx="441.288" cy="-68.679" rx="4.00001" ry="4.00001"/>
<polygon fill="#c8f580" stroke="#c8f580" points="450.311,-45.2862 458.108,-37.5757 452.11,-40.6212 453.909,-35.9562 453.909,-35.9562 453.909,-35.9562 452.11,-40.6212 449.711,-34.3368 450.311,-45.2862 450.311,-45.2862"/>
</g>
<!-- ActiveRecord::Base -->
<g id="node8" class="node"><title>ActiveRecord::Base</title>
<ellipse fill="none" stroke="black" cx="306.45" cy="-180.5" rx="81.1422" ry="18"/>
<text text-anchor="middle" x="306.45" y="-176.3" font-family="Times,serif" font-size="14.00">ActiveRecord::Base</text>
</g>
<!-- ActiveRecord::Base&#45;&gt;Acquisition -->
<g id="edge1" class="edge"><title>ActiveRecord::Base&#45;&gt;Acquisition</title>
<path fill="none" stroke="black" d="M268.959,-164.442C252.591,-157.981 233.134,-150.45 215.45,-144 174.738,-129.152 127.578,-113.316 95.8594,-102.862"/>
</g>
<!-- ActiveRecord::Base&#45;&gt;Category -->
<g id="edge2" class="edge"><title>ActiveRecord::Base&#45;&gt;Category</title>
<path fill="none" stroke="black" d="M281.689,-163.268C256.569,-146.8 218.035,-121.539 193.813,-105.661"/>
</g>
<!-- ActiveRecord::Base&#45;&gt;Level -->
<g id="edge3" class="edge"><title>ActiveRecord::Base&#45;&gt;Level</title>
<path fill="none" stroke="black" d="M297.966,-162.436C290.075,-146.564 278.395,-123.073 270.61,-107.413"/>
</g>
<!-- ActiveRecord::Base&#45;&gt;Mission -->
<g id="edge4" class="edge"><title>ActiveRecord::Base&#45;&gt;Mission</title>
<path fill="none" stroke="black" d="M314.741,-162.436C322.404,-146.665 333.722,-123.37 341.33,-107.711"/>
</g>
<!-- ActiveRecord::Base&#45;&gt;Role -->
<g id="edge6" class="edge"><title>ActiveRecord::Base&#45;&gt;Role</title>
<path fill="none" stroke="black" d="M330.04,-163.061C354.716,-145.866 392.914,-119.247 415.325,-103.63"/>
</g>
<!-- ActiveRecord::Base&#45;&gt;User -->
<g id="edge7" class="edge"><title>ActiveRecord::Base&#45;&gt;User</title>
<path fill="none" stroke="black" d="M369.66,-169.138C405.467,-159.681 447.393,-141.76 469.45,-108 483.72,-86.1577 475.384,-54.6543 467.968,-35.5767"/>
</g>
</g>
</svg>
