<?xml version="1.0" encoding="UTF-8" standalone="no"?>
<!DOCTYPE svg PUBLIC "-//W3C//DTD SVG 1.1//EN"
 "http://www.w3.org/Graphics/SVG/1.1/DTD/svg11.dtd">
<!-- Generated by graphviz version 2.38.0 (20140413.2041)
 -->
<!-- Title: models_diagram Pages: 1 -->
<svg width="490pt" height="297pt"
 viewBox="0.00 0.00 490.42 297.00" xmlns="http://www.w3.org/2000/svg" xmlns:xlink="http://www.w3.org/1999/xlink">
<g id="graph0" class="graph" transform="scale(1 1) rotate(0) translate(4 293)">
<title>models_diagram</title>
<polygon fill="white" stroke="none" points="-4,4 -4,-293 486.415,-293 486.415,4 -4,4"/>
<!-- _diagram_info -->
<g id="node1" class="node"><title>_diagram_info</title>
<text text-anchor="start" x="8" y="-274.6" font-family="Times,serif" font-size="13.00">Models diagram</text>
<text text-anchor="start" x="8" y="-261.6" font-family="Times,serif" font-size="13.00">Date: Sep 29 2014 &#45; 09:01</text>
<text text-anchor="start" x="8" y="-248.6" font-family="Times,serif" font-size="13.00">Migration version: 20140928235009</text>
<text text-anchor="start" x="8" y="-235.6" font-family="Times,serif" font-size="13.00">Generated by RailRoady 1.1.2</text>
<text text-anchor="start" x="8" y="-222.6" font-family="Times,serif" font-size="13.00">http://railroady.prestonlee.com</text>
</g>
<!-- Acquisition -->
<g id="node2" class="node"><title>Acquisition</title>
<ellipse fill="none" stroke="black" cx="136.688" cy="-18" rx="51.2501" ry="18"/>
<text text-anchor="middle" x="136.688" y="-13.8" font-family="Times,serif" font-size="14.00">Acquisition</text>
</g>
<!-- Assign -->
<g id="node3" class="node"><title>Assign</title>
<ellipse fill="none" stroke="black" cx="366.688" cy="-18" rx="34.8545" ry="18"/>
<text text-anchor="middle" x="366.688" y="-13.8" font-family="Times,serif" font-size="14.00">Assign</text>
</g>
<!-- Category -->
<g id="node4" class="node"><title>Category</title>
<ellipse fill="none" stroke="black" cx="215.688" cy="-162" rx="42.5456" ry="18"/>
<text text-anchor="middle" x="215.688" y="-157.8" font-family="Times,serif" font-size="14.00">Category</text>
</g>
<!-- Category&#45;&gt;Acquisition -->
<g id="edge4" class="edge"><title>Category&#45;&gt;Acquisition</title>
<path fill="none" stroke="#e97e48" d="M197.022,-137.88C190.178,-128.848 182.654,-118.221 176.688,-108 164.87,-87.7558 154.141,-63.3936 146.777,-45.2799"/>
<ellipse fill="none" stroke="#e97e48" cx="199.642" cy="-141.275" rx="4.00002" ry="4.00002"/>
<polygon fill="#e97e48" stroke="#e97e48" points="146.751,-45.214 147.226,-34.2584 144.898,-40.5697 143.046,-35.9254 143.046,-35.9254 143.046,-35.9254 144.898,-40.5697 138.866,-37.5924 146.751,-45.214 146.751,-45.214"/>
</g>
<!-- Mission -->
<g id="node7" class="node"><title>Mission</title>
<ellipse fill="none" stroke="black" cx="224.688" cy="-90" rx="38.7215" ry="18"/>
<text text-anchor="middle" x="224.688" y="-85.8" font-family="Times,serif" font-size="14.00">Mission</text>
</g>
<!-- Category&#45;&gt;Mission -->
<g id="edge3" class="edge"><title>Category&#45;&gt;Mission</title>
<path fill="none" stroke="#55a9fc" d="M218.948,-135.64C219.684,-129.92 220.467,-123.828 221.211,-118.042"/>
<ellipse fill="none" stroke="#55a9fc" cx="218.423" cy="-139.729" rx="4.00001" ry="4.00001"/>
<polygon fill="#55a9fc" stroke="#55a9fc" points="221.213,-118.023 226.952,-108.678 221.851,-113.064 222.489,-108.104 222.489,-108.104 222.489,-108.104 221.851,-113.064 218.025,-107.53 221.213,-118.023 221.213,-118.023"/>
</g>
<!-- Status -->
<g id="node9" class="node"><title>Status</title>
<ellipse fill="none" stroke="black" cx="450.688" cy="-18" rx="31.9567" ry="18"/>
<text text-anchor="middle" x="450.688" y="-13.8" font-family="Times,serif" font-size="14.00">Status</text>
</g>
<!-- Category&#45;&gt;Status -->
<g id="edge5" class="edge"><title>Category&#45;&gt;Status</title>
<path fill="none" stroke="#ad4f79" d="M255.542,-147.611C259.631,-146.345 263.734,-145.119 267.688,-144 333.657,-125.333 366.4,-153.497 417.688,-108 435.452,-92.2412 443.674,-66.0237 447.467,-46.115"/>
<ellipse fill="none" stroke="#ad4f79" cx="251.555" cy="-148.87" rx="4.00001" ry="4.00001"/>
<polygon fill="#ad4f79" stroke="#ad4f79" points="447.493,-45.9574 453.553,-36.8185 448.303,-41.0235 449.113,-36.0895 449.113,-36.0895 449.113,-36.0895 448.303,-41.0235 444.672,-35.3605 447.493,-45.9574 447.493,-45.9574"/>
</g>
<!-- History -->
<g id="node5" class="node"><title>History</title>
<ellipse fill="none" stroke="black" cx="242.688" cy="-18" rx="36.775" ry="18"/>
<text text-anchor="middle" x="242.688" y="-13.8" font-family="Times,serif" font-size="14.00">History</text>
</g>
<!-- Level -->
<g id="node6" class="node"><title>Level</title>
<ellipse fill="none" stroke="black" cx="306.688" cy="-162" rx="30.4775" ry="18"/>
<text text-anchor="middle" x="306.688" y="-157.8" font-family="Times,serif" font-size="14.00">Level</text>
</g>
<!-- Level&#45;&gt;Mission -->
<g id="edge8" class="edge"><title>Level&#45;&gt;Mission</title>
<path fill="none" stroke="#86b2c1" d="M283.935,-141.577C273.477,-132.65 261.03,-122.024 250.25,-112.822"/>
<ellipse fill="none" stroke="#86b2c1" cx="287.052" cy="-144.237" rx="4.00002" ry="4.00002"/>
<polygon fill="#86b2c1" stroke="#86b2c1" points="249.998,-112.606 245.314,-102.691 246.195,-109.36 242.392,-106.114 242.392,-106.114 242.392,-106.114 246.195,-109.36 239.47,-109.536 249.998,-112.606 249.998,-112.606"/>
</g>
<!-- Mission&#45;&gt;Acquisition -->
<g id="edge10" class="edge"><title>Mission&#45;&gt;Acquisition</title>
<path fill="none" stroke="#96f2d9" d="M199.594,-69.0389C188.607,-60.2993 175.678,-50.015 164.408,-41.0502"/>
<ellipse fill="none" stroke="#96f2d9" cx="202.895" cy="-71.6647" rx="4.00002" ry="4.00002"/>
<polygon fill="#96f2d9" stroke="#96f2d9" points="164.372,-41.0219 159.348,-31.2749 160.459,-37.9093 156.546,-34.7966 156.546,-34.7966 156.546,-34.7966 160.459,-37.9093 153.745,-38.3184 164.372,-41.0219 164.372,-41.0219"/>
</g>
<!-- Mission&#45;&gt;Assign -->
<g id="edge12" class="edge"><title>Mission&#45;&gt;Assign</title>
<path fill="none" stroke="#094574" d="M257.743,-72.7051C280.309,-61.5812 310.116,-46.8876 332.847,-35.682"/>
<ellipse fill="none" stroke="#094574" cx="253.991" cy="-74.5549" rx="4.00002" ry="4.00002"/>
<polygon fill="#094574" stroke="#094574" points="333.145,-35.5354 344.104,-35.15 337.629,-33.3246 342.114,-31.1138 342.114,-31.1138 342.114,-31.1138 337.629,-33.3246 340.124,-27.0775 333.145,-35.5354 333.145,-35.5354"/>
</g>
<!-- Mission&#45;&gt;History -->
<g id="edge11" class="edge"><title>Mission&#45;&gt;History</title>
<path fill="none" stroke="#1a844e" d="M231.048,-64.2675C232.535,-58.4845 234.127,-52.2913 235.642,-46.3999"/>
<ellipse fill="none" stroke="#1a844e" cx="230.041" cy="-68.181" rx="4.00001" ry="4.00001"/>
<polygon fill="#1a844e" stroke="#1a844e" points="235.755,-45.9602 242.604,-37.396 237,-41.1178 238.246,-36.2753 238.246,-36.2753 238.246,-36.2753 237,-41.1178 233.887,-35.1546 235.755,-45.9602 235.755,-45.9602"/>
</g>
<!-- Role -->
<g id="node8" class="node"><title>Role</title>
<ellipse fill="none" stroke="black" cx="381.688" cy="-162" rx="27" ry="18"/>
<text text-anchor="middle" x="381.688" y="-157.8" font-family="Times,serif" font-size="14.00">Role</text>
</g>
<!-- User -->
<g id="node10" class="node"><title>User</title>
<ellipse fill="none" stroke="black" cx="381.688" cy="-90" rx="27" ry="18"/>
<text text-anchor="middle" x="381.688" y="-85.8" font-family="Times,serif" font-size="14.00">User</text>
</g>
<!-- Role&#45;&gt;User -->
<g id="edge14" class="edge"><title>Role&#45;&gt;User</title>
<path fill="none" stroke="#f3e327" d="M381.688,-135.64C381.688,-130.063 381.688,-124.132 381.688,-118.476"/>
<ellipse fill="none" stroke="#f3e327" cx="381.688" cy="-139.697" rx="4" ry="4"/>
<polygon fill="#f3e327" stroke="#f3e327" points="381.688,-118.104 386.188,-108.104 381.688,-113.104 381.688,-108.104 381.688,-108.104 381.688,-108.104 381.688,-113.104 377.188,-108.104 381.688,-118.104 381.688,-118.104"/>
</g>
<!-- User&#45;&gt;Assign -->
<g id="edge19" class="edge"><title>User&#45;&gt;Assign</title>
<path fill="none" stroke="#e51993" d="M376.328,-63.9868C375.098,-58.2493 373.785,-52.1211 372.536,-46.2929"/>
<ellipse fill="none" stroke="#e51993" cx="377.219" cy="-68.1437" rx="4.00001" ry="4.00001"/>
<polygon fill="#e51993" stroke="#e51993" points="372.485,-46.0533 374.79,-35.3324 371.437,-41.1643 370.39,-36.2753 370.39,-36.2753 370.39,-36.2753 371.437,-41.1643 365.989,-37.2182 372.485,-46.0533 372.485,-46.0533"/>
</g>
<!-- User&#45;&gt;History -->
<g id="edge18" class="edge"><title>User&#45;&gt;History</title>
<path fill="none" stroke="#f66120" d="M353.43,-74.7696C331.129,-63.5386 299.95,-47.8372 276.356,-35.9551"/>
<ellipse fill="none" stroke="#f66120" cx="357.305" cy="-76.7211" rx="4.00002" ry="4.00002"/>
<polygon fill="#f66120" stroke="#f66120" points="276.331,-35.9425 269.423,-27.4255 271.865,-33.6936 267.399,-31.4446 267.399,-31.4446 267.399,-31.4446 271.865,-33.6936 265.375,-35.4638 276.331,-35.9425 276.331,-35.9425"/>
</g>
<!-- User&#45;&gt;Status -->
<g id="edge17" class="edge"><title>User&#45;&gt;Status</title>
<path fill="none" stroke="#786b10" d="M401.775,-68.6214C410.224,-60.0507 420.078,-50.0538 428.718,-41.288"/>
<ellipse fill="none" stroke="#786b10" cx="398.793" cy="-71.6472" rx="4.00002" ry="4.00002"/>
<polygon fill="#786b10" stroke="#786b10" points="428.913,-41.0902 439.138,-37.1275 432.423,-37.5293 435.933,-33.9684 435.933,-33.9684 435.933,-33.9684 432.423,-37.5293 432.728,-30.8094 428.913,-41.0902 428.913,-41.0902"/>
</g>
<!-- ActiveRecord::Base -->
<g id="node11" class="node"><title>ActiveRecord::Base</title>
<ellipse fill="none" stroke="black" cx="306.688" cy="-252.5" rx="81.1422" ry="18"/>
<text text-anchor="middle" x="306.688" y="-248.3" font-family="Times,serif" font-size="14.00">ActiveRecord::Base</text>
</g>
<!-- ActiveRecord::Base&#45;&gt;Acquisition -->
<g id="edge1" class="edge"><title>ActiveRecord::Base&#45;&gt;Acquisition</title>
<path fill="none" stroke="black" d="M267.935,-236.622C222.999,-219 154.099,-190.689 146.688,-180 116.128,-135.928 125.693,-67.7007 132.452,-36.1179"/>
</g>
<!-- ActiveRecord::Base&#45;&gt;Assign -->
<g id="edge2" class="edge"><title>ActiveRecord::Base&#45;&gt;Assign</title>
<path fill="none" stroke="black" d="M354.707,-237.964C383.088,-227.216 416.704,-209.052 433.688,-180 447.359,-156.615 420.892,-77.9725 417.688,-72 409.598,-56.9217 396.004,-43.1072 384.884,-33.3647"/>
</g>
<!-- ActiveRecord::Base&#45;&gt;Category -->
<g id="edge6" class="edge"><title>ActiveRecord::Base&#45;&gt;Category</title>
<path fill="none" stroke="black" d="M289.571,-234.854C272.993,-218.731 248.044,-194.468 231.811,-178.68"/>
</g>
<!-- ActiveRecord::Base&#45;&gt;History -->
<g id="edge7" class="edge"><title>ActiveRecord::Base&#45;&gt;History</title>
<path fill="none" stroke="black" d="M269.377,-236.413C226.561,-218.726 161.349,-190.495 154.688,-180 137.568,-153.027 174.894,-74.648 176.688,-72 187.814,-55.5746 205.559,-41.734 219.849,-32.3198"/>
</g>
<!-- ActiveRecord::Base&#45;&gt;Level -->
<g id="edge9" class="edge"><title>ActiveRecord::Base&#45;&gt;Level</title>
<path fill="none" stroke="black" d="M306.688,-234.436C306.688,-218.765 306.688,-195.666 306.688,-180.011"/>
</g>
<!-- ActiveRecord::Base&#45;&gt;Mission -->
<g id="edge13" class="edge"><title>ActiveRecord::Base&#45;&gt;Mission</title>
<path fill="none" stroke="black" d="M266.367,-236.846C228.303,-222.096 175.362,-198.889 163.688,-180 155.276,-166.39 157.051,-158.559 163.688,-144 171.369,-127.15 187.347,-113.585 201.024,-104.398"/>
</g>
<!-- ActiveRecord::Base&#45;&gt;Role -->
<g id="edge15" class="edge"><title>ActiveRecord::Base&#45;&gt;Role</title>
<path fill="none" stroke="black" d="M321.148,-234.436C335.025,-218.062 355.774,-193.578 369.018,-177.95"/>
</g>
<!-- ActiveRecord::Base&#45;&gt;Status -->
<g id="edge16" class="edge"><title>ActiveRecord::Base&#45;&gt;Status</title>
<path fill="none" stroke="black" d="M361.132,-239.058C392.516,-228.807 429.458,-210.783 448.688,-180 476.975,-134.718 464.166,-67.3837 455.837,-36.1097"/>
</g>
<!-- ActiveRecord::Base&#45;&gt;User -->
<g id="edge20" class="edge"><title>ActiveRecord::Base&#45;&gt;User</title>
<path fill="none" stroke="black" d="M347.709,-236.888C372.813,-225.566 402.871,-207.168 417.688,-180 431.334,-154.978 410.687,-123.673 395.472,-105.644"/>
</g>
</g>
</svg>
