<?xml version="1.0" encoding="UTF-8" standalone="no"?>
<!DOCTYPE svg PUBLIC "-//W3C//DTD SVG 1.1//EN"
 "http://www.w3.org/Graphics/SVG/1.1/DTD/svg11.dtd">
<!-- Generated by graphviz version 2.38.0 (20140413.2041)
 -->
<!-- Title: models_diagram Pages: 1 -->
<svg width="1198pt" height="702pt"
 viewBox="0.00 0.00 1197.66 702.00" xmlns="http://www.w3.org/2000/svg" xmlns:xlink="http://www.w3.org/1999/xlink">
<g id="graph0" class="graph" transform="scale(1 1) rotate(0) translate(4 698)">
<title>models_diagram</title>
<polygon fill="white" stroke="none" points="-4,4 -4,-698 1193.66,-698 1193.66,4 -4,4"/>
<!-- _diagram_info -->
<g id="node1" class="node"><title>_diagram_info</title>
<text text-anchor="start" x="8" y="-679.6" font-family="Times,serif" font-size="13.00">Models diagram</text>
<text text-anchor="start" x="8" y="-666.6" font-family="Times,serif" font-size="13.00">Date: Oct 16 2014 &#45; 09:59</text>
<text text-anchor="start" x="8" y="-653.6" font-family="Times,serif" font-size="13.00">Migration version: 20141001102406</text>
<text text-anchor="start" x="8" y="-640.6" font-family="Times,serif" font-size="13.00">Generated by RailRoady 1.1.2</text>
<text text-anchor="start" x="8" y="-627.6" font-family="Times,serif" font-size="13.00">http://railroady.prestonlee.com</text>
</g>
<!-- Ability -->
<g id="node2" class="node"><title>Ability</title>
<polygon fill="none" stroke="black" points="230.615,-512.5 230.615,-556.5 286.284,-556.5 286.284,-512.5 230.615,-512.5"/>
<text text-anchor="middle" x="258.45" y="-541.3" font-family="Times,serif" font-size="14.00">Ability</text>
<polyline fill="none" stroke="black" points="230.615,-534.5 286.284,-534.5 "/>
<text text-anchor="middle" x="258.45" y="-519.3" font-family="Times,serif" font-size="14.00"> </text>
</g>
<!-- Acquisition -->
<g id="node3" class="node"><title>Acquisition</title>
<path fill="none" stroke="black" d="M297.944,-7.5C297.944,-7.5 406.955,-7.5 406.955,-7.5 412.955,-7.5 418.955,-13.5 418.955,-19.5 418.955,-19.5 418.955,-109.5 418.955,-109.5 418.955,-115.5 412.955,-121.5 406.955,-121.5 406.955,-121.5 297.944,-121.5 297.944,-121.5 291.944,-121.5 285.944,-115.5 285.944,-109.5 285.944,-109.5 285.944,-19.5 285.944,-19.5 285.944,-13.5 291.944,-7.5 297.944,-7.5"/>
<text text-anchor="middle" x="352.45" y="-106.3" font-family="Times,serif" font-size="14.00">Acquisition</text>
<polyline fill="none" stroke="black" points="285.944,-99.5 418.955,-99.5 "/>
<text text-anchor="start" x="293.944" y="-84.3" font-family="Times,serif" font-size="14.00">id :integer</text>
<text text-anchor="start" x="293.944" y="-70.3" font-family="Times,serif" font-size="14.00">mission_id :integer</text>
<text text-anchor="start" x="293.944" y="-56.3" font-family="Times,serif" font-size="14.00">category_id :integer</text>
<text text-anchor="start" x="293.944" y="-42.3" font-family="Times,serif" font-size="14.00">experience :integer</text>
<text text-anchor="start" x="293.944" y="-28.3" font-family="Times,serif" font-size="14.00">created_at :datetime</text>
<text text-anchor="start" x="293.944" y="-14.3" font-family="Times,serif" font-size="14.00">updated_at :datetime</text>
</g>
<!-- Assign -->
<g id="node4" class="node"><title>Assign</title>
<path fill="none" stroke="black" d="M584.944,-14.5C584.944,-14.5 693.955,-14.5 693.955,-14.5 699.955,-14.5 705.955,-20.5 705.955,-26.5 705.955,-26.5 705.955,-102.5 705.955,-102.5 705.955,-108.5 699.955,-114.5 693.955,-114.5 693.955,-114.5 584.944,-114.5 584.944,-114.5 578.944,-114.5 572.944,-108.5 572.944,-102.5 572.944,-102.5 572.944,-26.5 572.944,-26.5 572.944,-20.5 578.944,-14.5 584.944,-14.5"/>
<text text-anchor="middle" x="639.45" y="-99.3" font-family="Times,serif" font-size="14.00">Assign</text>
<polyline fill="none" stroke="black" points="572.944,-92.5 705.955,-92.5 "/>
<text text-anchor="start" x="580.944" y="-77.3" font-family="Times,serif" font-size="14.00">id :integer</text>
<text text-anchor="start" x="580.944" y="-63.3" font-family="Times,serif" font-size="14.00">user_id :integer</text>
<text text-anchor="start" x="580.944" y="-49.3" font-family="Times,serif" font-size="14.00">mission_id :integer</text>
<text text-anchor="start" x="580.944" y="-35.3" font-family="Times,serif" font-size="14.00">created_at :datetime</text>
<text text-anchor="start" x="580.944" y="-21.3" font-family="Times,serif" font-size="14.00">updated_at :datetime</text>
</g>
<!-- Category -->
<g id="node5" class="node"><title>Category</title>
<path fill="none" stroke="black" d="M411.944,-491.5C411.944,-491.5 520.955,-491.5 520.955,-491.5 526.955,-491.5 532.955,-497.5 532.955,-503.5 532.955,-503.5 532.955,-565.5 532.955,-565.5 532.955,-571.5 526.955,-577.5 520.955,-577.5 520.955,-577.5 411.944,-577.5 411.944,-577.5 405.944,-577.5 399.944,-571.5 399.944,-565.5 399.944,-565.5 399.944,-503.5 399.944,-503.5 399.944,-497.5 405.944,-491.5 411.944,-491.5"/>
<text text-anchor="middle" x="466.45" y="-562.3" font-family="Times,serif" font-size="14.00">Category</text>
<polyline fill="none" stroke="black" points="399.944,-555.5 532.955,-555.5 "/>
<text text-anchor="start" x="407.944" y="-540.3" font-family="Times,serif" font-size="14.00">id :integer</text>
<text text-anchor="start" x="407.944" y="-526.3" font-family="Times,serif" font-size="14.00">name :string</text>
<text text-anchor="start" x="407.944" y="-512.3" font-family="Times,serif" font-size="14.00">created_at :datetime</text>
<text text-anchor="start" x="407.944" y="-498.3" font-family="Times,serif" font-size="14.00">updated_at :datetime</text>
</g>
<!-- Category&#45;&gt;Acquisition -->
<g id="edge5" class="edge"><title>Category&#45;&gt;Acquisition</title>
<path fill="none" stroke="#8dd06e" d="M454.191,-483.175C433.477,-398.14 391.561,-226.061 368.521,-131.477"/>
<ellipse fill="none" stroke="#8dd06e" cx="455.185" cy="-487.256" rx="4.00001" ry="4.00001"/>
<polygon fill="#8dd06e" stroke="#8dd06e" points="368.514,-131.45 370.52,-120.669 367.331,-126.592 366.148,-121.734 366.148,-121.734 366.148,-121.734 367.331,-126.592 361.775,-122.799 368.514,-131.45 368.514,-131.45"/>
</g>
<!-- Mission -->
<g id="node8" class="node"><title>Mission</title>
<path fill="none" stroke="black" d="M584.944,-249.5C584.944,-249.5 693.955,-249.5 693.955,-249.5 699.955,-249.5 705.955,-255.5 705.955,-261.5 705.955,-261.5 705.955,-351.5 705.955,-351.5 705.955,-357.5 699.955,-363.5 693.955,-363.5 693.955,-363.5 584.944,-363.5 584.944,-363.5 578.944,-363.5 572.944,-357.5 572.944,-351.5 572.944,-351.5 572.944,-261.5 572.944,-261.5 572.944,-255.5 578.944,-249.5 584.944,-249.5"/>
<text text-anchor="middle" x="639.45" y="-348.3" font-family="Times,serif" font-size="14.00">Mission</text>
<polyline fill="none" stroke="black" points="572.944,-341.5 705.955,-341.5 "/>
<text text-anchor="start" x="580.944" y="-326.3" font-family="Times,serif" font-size="14.00">id :integer</text>
<text text-anchor="start" x="580.944" y="-312.3" font-family="Times,serif" font-size="14.00">description :string</text>
<text text-anchor="start" x="580.944" y="-298.3" font-family="Times,serif" font-size="14.00">category_id :integer</text>
<text text-anchor="start" x="580.944" y="-284.3" font-family="Times,serif" font-size="14.00">level_id :integer</text>
<text text-anchor="start" x="580.944" y="-270.3" font-family="Times,serif" font-size="14.00">created_at :datetime</text>
<text text-anchor="start" x="580.944" y="-256.3" font-family="Times,serif" font-size="14.00">updated_at :datetime</text>
</g>
<!-- Category&#45;&gt;Mission -->
<g id="edge4" class="edge"><title>Category&#45;&gt;Mission</title>
<path fill="none" stroke="#d9d265" d="M503.757,-484.764C529.089,-451.67 562.854,-407.562 590.364,-371.624"/>
<ellipse fill="none" stroke="#d9d265" cx="501.218" cy="-488.08" rx="4.00002" ry="4.00002"/>
<polygon fill="#d9d265" stroke="#d9d265" points="590.414,-371.559 600.065,-366.353 593.453,-367.588 596.492,-363.618 596.492,-363.618 596.492,-363.618 593.453,-367.588 592.919,-360.883 590.414,-371.559 590.414,-371.559"/>
</g>
<!-- Status -->
<g id="node11" class="node"><title>Status</title>
<path fill="none" stroke="black" d="M977.944,-7.5C977.944,-7.5 1086.96,-7.5 1086.96,-7.5 1092.96,-7.5 1098.96,-13.5 1098.96,-19.5 1098.96,-19.5 1098.96,-109.5 1098.96,-109.5 1098.96,-115.5 1092.96,-121.5 1086.96,-121.5 1086.96,-121.5 977.944,-121.5 977.944,-121.5 971.944,-121.5 965.944,-115.5 965.944,-109.5 965.944,-109.5 965.944,-19.5 965.944,-19.5 965.944,-13.5 971.944,-7.5 977.944,-7.5"/>
<text text-anchor="middle" x="1032.45" y="-106.3" font-family="Times,serif" font-size="14.00">Status</text>
<polyline fill="none" stroke="black" points="965.944,-99.5 1098.96,-99.5 "/>
<text text-anchor="start" x="973.944" y="-84.3" font-family="Times,serif" font-size="14.00">id :integer</text>
<text text-anchor="start" x="973.944" y="-70.3" font-family="Times,serif" font-size="14.00">user_id :integer</text>
<text text-anchor="start" x="973.944" y="-56.3" font-family="Times,serif" font-size="14.00">category_id :integer</text>
<text text-anchor="start" x="973.944" y="-42.3" font-family="Times,serif" font-size="14.00">experience :integer</text>
<text text-anchor="start" x="973.944" y="-28.3" font-family="Times,serif" font-size="14.00">created_at :datetime</text>
<text text-anchor="start" x="973.944" y="-14.3" font-family="Times,serif" font-size="14.00">updated_at :datetime</text>
</g>
<!-- Category&#45;&gt;Status -->
<g id="edge6" class="edge"><title>Category&#45;&gt;Status</title>
<path fill="none" stroke="#fdaeee" d="M534.09,-487.737C536.874,-486.401 539.666,-485.148 542.45,-484 615.052,-454.052 656.391,-499.769 715.45,-448 815.654,-360.164 716.163,-254.976 814.45,-165 862.473,-121.037 898.466,-158.612 956.45,-129 957.79,-128.316 959.127,-127.604 960.459,-126.868"/>
<ellipse fill="none" stroke="#fdaeee" cx="530.322" cy="-489.644" rx="4.00002" ry="4.00002"/>
<polygon fill="#fdaeee" stroke="#fdaeee" points="960.588,-126.791 971.483,-125.544 964.885,-124.234 969.181,-121.677 969.181,-121.677 969.181,-121.677 964.885,-124.234 966.88,-117.81 960.588,-126.791 960.588,-126.791"/>
</g>
<!-- History -->
<g id="node6" class="node"><title>History</title>
<path fill="none" stroke="black" d="M795.413,-0.5C795.413,-0.5 935.486,-0.5 935.486,-0.5 941.486,-0.5 947.486,-6.5 947.486,-12.5 947.486,-12.5 947.486,-116.5 947.486,-116.5 947.486,-122.5 941.486,-128.5 935.486,-128.5 935.486,-128.5 795.413,-128.5 795.413,-128.5 789.413,-128.5 783.413,-122.5 783.413,-116.5 783.413,-116.5 783.413,-12.5 783.413,-12.5 783.413,-6.5 789.413,-0.5 795.413,-0.5"/>
<text text-anchor="middle" x="865.45" y="-113.3" font-family="Times,serif" font-size="14.00">History</text>
<polyline fill="none" stroke="black" points="783.413,-106.5 947.486,-106.5 "/>
<text text-anchor="start" x="791.413" y="-91.3" font-family="Times,serif" font-size="14.00">id :integer</text>
<text text-anchor="start" x="791.413" y="-77.3" font-family="Times,serif" font-size="14.00">user_id :integer</text>
<text text-anchor="start" x="791.413" y="-63.3" font-family="Times,serif" font-size="14.00">mission_id :integer</text>
<text text-anchor="start" x="791.413" y="-49.3" font-family="Times,serif" font-size="14.00">created_at :datetime</text>
<text text-anchor="start" x="791.413" y="-35.3" font-family="Times,serif" font-size="14.00">updated_at :datetime</text>
<text text-anchor="start" x="791.413" y="-21.3" font-family="Times,serif" font-size="14.00">recent_experience :integer</text>
<text text-anchor="start" x="791.413" y="-7.3" font-family="Times,serif" font-size="14.00">experience :integer</text>
</g>
<!-- Level -->
<g id="node7" class="node"><title>Level</title>
<path fill="none" stroke="black" d="M563.189,-484.5C563.189,-484.5 715.71,-484.5 715.71,-484.5 721.71,-484.5 727.71,-490.5 727.71,-496.5 727.71,-496.5 727.71,-572.5 727.71,-572.5 727.71,-578.5 721.71,-584.5 715.71,-584.5 715.71,-584.5 563.189,-584.5 563.189,-584.5 557.189,-584.5 551.189,-578.5 551.189,-572.5 551.189,-572.5 551.189,-496.5 551.189,-496.5 551.189,-490.5 557.189,-484.5 563.189,-484.5"/>
<text text-anchor="middle" x="639.45" y="-569.3" font-family="Times,serif" font-size="14.00">Level</text>
<polyline fill="none" stroke="black" points="551.189,-562.5 727.71,-562.5 "/>
<text text-anchor="start" x="559.189" y="-547.3" font-family="Times,serif" font-size="14.00">id :integer</text>
<text text-anchor="start" x="559.189" y="-533.3" font-family="Times,serif" font-size="14.00">value :integer</text>
<text text-anchor="start" x="559.189" y="-519.3" font-family="Times,serif" font-size="14.00">required_experience :integer</text>
<text text-anchor="start" x="559.189" y="-505.3" font-family="Times,serif" font-size="14.00">created_at :datetime</text>
<text text-anchor="start" x="559.189" y="-491.3" font-family="Times,serif" font-size="14.00">updated_at :datetime</text>
</g>
<!-- Level&#45;&gt;Mission -->
<g id="edge9" class="edge"><title>Level&#45;&gt;Mission</title>
<path fill="none" stroke="#8ecdbd" d="M639.45,-476.343C639.45,-445.173 639.45,-406.431 639.45,-373.924"/>
<ellipse fill="none" stroke="#8ecdbd" cx="639.45" cy="-480.461" rx="4" ry="4"/>
<polygon fill="#8ecdbd" stroke="#8ecdbd" points="639.45,-373.606 643.95,-363.606 639.45,-368.606 639.45,-363.606 639.45,-363.606 639.45,-363.606 639.45,-368.606 634.95,-363.606 639.45,-373.606 639.45,-373.606"/>
</g>
<!-- Mission&#45;&gt;Acquisition -->
<g id="edge11" class="edge"><title>Mission&#45;&gt;Acquisition</title>
<path fill="none" stroke="#1ea6b2" d="M566.57,-244.555C523.865,-208.844 470.046,-163.838 427.048,-127.882"/>
<ellipse fill="none" stroke="#1ea6b2" cx="569.816" cy="-247.27" rx="4.00002" ry="4.00002"/>
<polygon fill="#1ea6b2" stroke="#1ea6b2" points="426.821,-127.692 422.037,-117.825 422.986,-124.485 419.15,-121.277 419.15,-121.277 419.15,-121.277 422.986,-124.485 416.263,-124.729 426.821,-127.692 426.821,-127.692"/>
</g>
<!-- Mission&#45;&gt;Assign -->
<g id="edge13" class="edge"><title>Mission&#45;&gt;Assign</title>
<path fill="none" stroke="#f7a87b" d="M639.45,-240.913C639.45,-204.726 639.45,-159.925 639.45,-124.658"/>
<ellipse fill="none" stroke="#f7a87b" cx="639.45" cy="-245.231" rx="4" ry="4"/>
<polygon fill="#f7a87b" stroke="#f7a87b" points="639.45,-124.51 643.95,-114.51 639.45,-119.51 639.45,-114.51 639.45,-114.51 639.45,-114.51 639.45,-119.51 634.95,-114.51 639.45,-124.51 639.45,-124.51"/>
</g>
<!-- Mission&#45;&gt;History -->
<g id="edge12" class="edge"><title>Mission&#45;&gt;History</title>
<path fill="none" stroke="#813c39" d="M690.857,-243.085C711.886,-218.283 736.796,-189.806 760.45,-165 769.654,-155.347 779.559,-145.417 789.476,-135.74"/>
<ellipse fill="none" stroke="#813c39" cx="688.18" cy="-246.253" rx="4.00002" ry="4.00002"/>
<polygon fill="#813c39" stroke="#813c39" points="789.511,-135.707 799.823,-131.977 793.101,-132.227 796.691,-128.746 796.691,-128.746 796.691,-128.746 793.101,-132.227 793.558,-125.515 789.511,-135.707 789.511,-135.707"/>
</g>
<!-- Role -->
<g id="node9" class="node"><title>Role</title>
<path fill="none" stroke="black" d="M985.055,-484.5C985.055,-484.5 1101.84,-484.5 1101.84,-484.5 1107.84,-484.5 1113.84,-490.5 1113.84,-496.5 1113.84,-496.5 1113.84,-572.5 1113.84,-572.5 1113.84,-578.5 1107.84,-584.5 1101.84,-584.5 1101.84,-584.5 985.055,-584.5 985.055,-584.5 979.055,-584.5 973.055,-578.5 973.055,-572.5 973.055,-572.5 973.055,-496.5 973.055,-496.5 973.055,-490.5 979.055,-484.5 985.055,-484.5"/>
<text text-anchor="middle" x="1043.45" y="-569.3" font-family="Times,serif" font-size="14.00">Role</text>
<polyline fill="none" stroke="black" points="973.055,-562.5 1113.84,-562.5 "/>
<text text-anchor="start" x="981.055" y="-547.3" font-family="Times,serif" font-size="14.00">id :integer</text>
<text text-anchor="start" x="981.055" y="-533.3" font-family="Times,serif" font-size="14.00">name :string</text>
<text text-anchor="start" x="981.055" y="-519.3" font-family="Times,serif" font-size="14.00">created_at :datetime</text>
<text text-anchor="start" x="981.055" y="-505.3" font-family="Times,serif" font-size="14.00">updated_at :datetime</text>
<text text-anchor="start" x="981.055" y="-491.3" font-family="Times,serif" font-size="14.00">japanese_name :string</text>
</g>
<!-- User -->
<g id="node12" class="node"><title>User</title>
<path fill="none" stroke="black" d="M835.172,-165.5C835.172,-165.5 1015.73,-165.5 1015.73,-165.5 1021.73,-165.5 1027.73,-171.5 1027.73,-177.5 1027.73,-177.5 1027.73,-435.5 1027.73,-435.5 1027.73,-441.5 1021.73,-447.5 1015.73,-447.5 1015.73,-447.5 835.172,-447.5 835.172,-447.5 829.172,-447.5 823.172,-441.5 823.172,-435.5 823.172,-435.5 823.172,-177.5 823.172,-177.5 823.172,-171.5 829.172,-165.5 835.172,-165.5"/>
<text text-anchor="middle" x="925.45" y="-432.3" font-family="Times,serif" font-size="14.00">User</text>
<polyline fill="none" stroke="black" points="823.172,-425.5 1027.73,-425.5 "/>
<text text-anchor="start" x="831.172" y="-410.3" font-family="Times,serif" font-size="14.00">id :integer</text>
<text text-anchor="start" x="831.172" y="-396.3" font-family="Times,serif" font-size="14.00">email :string</text>
<text text-anchor="start" x="831.172" y="-382.3" font-family="Times,serif" font-size="14.00">encrypted_password :string</text>
<text text-anchor="start" x="831.172" y="-368.3" font-family="Times,serif" font-size="14.00">reset_password_token :string</text>
<text text-anchor="start" x="831.172" y="-354.3" font-family="Times,serif" font-size="14.00">reset_password_sent_at :datetime</text>
<text text-anchor="start" x="831.172" y="-340.3" font-family="Times,serif" font-size="14.00">remember_created_at :datetime</text>
<text text-anchor="start" x="831.172" y="-326.3" font-family="Times,serif" font-size="14.00">sign_in_count :integer</text>
<text text-anchor="start" x="831.172" y="-312.3" font-family="Times,serif" font-size="14.00">current_sign_in_at :datetime</text>
<text text-anchor="start" x="831.172" y="-298.3" font-family="Times,serif" font-size="14.00">last_sign_in_at :datetime</text>
<text text-anchor="start" x="831.172" y="-284.3" font-family="Times,serif" font-size="14.00">current_sign_in_ip :string</text>
<text text-anchor="start" x="831.172" y="-270.3" font-family="Times,serif" font-size="14.00">last_sign_in_ip :string</text>
<text text-anchor="start" x="831.172" y="-256.3" font-family="Times,serif" font-size="14.00">created_at :datetime</text>
<text text-anchor="start" x="831.172" y="-242.3" font-family="Times,serif" font-size="14.00">updated_at :datetime</text>
<text text-anchor="start" x="831.172" y="-228.3" font-family="Times,serif" font-size="14.00">name :string</text>
<text text-anchor="start" x="831.172" y="-214.3" font-family="Times,serif" font-size="14.00">number :string</text>
<text text-anchor="start" x="831.172" y="-200.3" font-family="Times,serif" font-size="14.00">idm :string</text>
<text text-anchor="start" x="831.172" y="-186.3" font-family="Times,serif" font-size="14.00">role_id :integer</text>
<text text-anchor="start" x="831.172" y="-172.3" font-family="Times,serif" font-size="14.00">seminar_id :integer</text>
</g>
<!-- Role&#45;&gt;User -->
<g id="edge15" class="edge"><title>Role&#45;&gt;User</title>
<path fill="none" stroke="#ccb9e0" d="M1014.03,-477.152C1010.61,-470.606 1007.02,-463.719 1003.31,-456.62"/>
<ellipse fill="none" stroke="#ccb9e0" cx="1015.99" cy="-480.916" rx="4.00002" ry="4.00002"/>
<polygon fill="#ccb9e0" stroke="#ccb9e0" points="1003.19,-456.387 1002.55,-445.44 1000.87,-451.955 998.559,-447.523 998.559,-447.523 998.559,-447.523 1000.87,-451.955 994.57,-449.606 1003.19,-456.387 1003.19,-456.387"/>
</g>
<!-- Seminar -->
<g id="node10" class="node"><title>Seminar</title>
<path fill="none" stroke="black" d="M795.944,-491.5C795.944,-491.5 904.955,-491.5 904.955,-491.5 910.955,-491.5 916.955,-497.5 916.955,-503.5 916.955,-503.5 916.955,-565.5 916.955,-565.5 916.955,-571.5 910.955,-577.5 904.955,-577.5 904.955,-577.5 795.944,-577.5 795.944,-577.5 789.944,-577.5 783.944,-571.5 783.944,-565.5 783.944,-565.5 783.944,-503.5 783.944,-503.5 783.944,-497.5 789.944,-491.5 795.944,-491.5"/>
<text text-anchor="middle" x="850.45" y="-562.3" font-family="Times,serif" font-size="14.00">Seminar</text>
<polyline fill="none" stroke="black" points="783.944,-555.5 916.955,-555.5 "/>
<text text-anchor="start" x="791.944" y="-540.3" font-family="Times,serif" font-size="14.00">id :integer</text>
<text text-anchor="start" x="791.944" y="-526.3" font-family="Times,serif" font-size="14.00">name :string</text>
<text text-anchor="start" x="791.944" y="-512.3" font-family="Times,serif" font-size="14.00">created_at :datetime</text>
<text text-anchor="start" x="791.944" y="-498.3" font-family="Times,serif" font-size="14.00">updated_at :datetime</text>
</g>
<!-- Seminar&#45;&gt;User -->
<g id="edge17" class="edge"><title>Seminar&#45;&gt;User</title>
<path fill="none" stroke="#873429" d="M867.053,-483.47C869.959,-474.712 873.112,-465.212 876.395,-455.318"/>
<ellipse fill="none" stroke="#873429" cx="865.729" cy="-487.46" rx="4.00001" ry="4.00001"/>
<ellipse fill="#873429" stroke="#873429" cx="877.67" cy="-451.477" rx="4.00001" ry="4.00001"/>
</g>
<!-- User&#45;&gt;Assign -->
<g id="edge22" class="edge"><title>User&#45;&gt;Assign</title>
<path fill="none" stroke="#5d9fc5" d="M816.57,-214.133C779.25,-182.815 738.637,-148.734 705.726,-121.116"/>
<ellipse fill="none" stroke="#5d9fc5" cx="819.941" cy="-216.961" rx="4.00002" ry="4.00002"/>
<polygon fill="#5d9fc5" stroke="#5d9fc5" points="705.625,-121.032 700.858,-111.157 701.795,-117.818 697.965,-114.604 697.965,-114.604 697.965,-114.604 701.795,-117.818 695.072,-118.051 705.625,-121.032 705.625,-121.032"/>
</g>
<!-- User&#45;&gt;History -->
<g id="edge21" class="edge"><title>User&#45;&gt;History</title>
<path fill="none" stroke="#73edcd" d="M888.373,-157.195C886.786,-150.845 885.227,-144.608 883.715,-138.559"/>
<ellipse fill="none" stroke="#73edcd" cx="889.404" cy="-161.316" rx="4.00001" ry="4.00001"/>
<polygon fill="#73edcd" stroke="#73edcd" points="883.643,-138.273 885.583,-127.48 882.43,-133.423 881.218,-128.572 881.218,-128.572 881.218,-128.572 882.43,-133.423 876.852,-129.663 883.643,-138.273 883.643,-138.273"/>
</g>
<!-- User&#45;&gt;Status -->
<g id="edge20" class="edge"><title>User&#45;&gt;Status</title>
<path fill="none" stroke="#de04bc" d="M991.337,-157.715C995.428,-148.539 999.417,-139.592 1003.2,-131.106"/>
<ellipse fill="none" stroke="#de04bc" cx="989.63" cy="-161.543" rx="4.00002" ry="4.00002"/>
<polygon fill="#de04bc" stroke="#de04bc" points="1003.31,-130.866 1011.49,-123.565 1005.34,-126.299 1007.38,-121.733 1007.38,-121.733 1007.38,-121.733 1005.34,-126.299 1003.27,-119.9 1003.31,-130.866 1003.31,-130.866"/>
</g>
<!-- Object -->
<g id="node13" class="node"><title>Object</title>
<ellipse fill="none" stroke="black" cx="258.45" cy="-657.5" rx="33.8596" ry="18"/>
<text text-anchor="middle" x="258.45" y="-653.3" font-family="Times,serif" font-size="14.00">Object</text>
</g>
<!-- Object&#45;&gt;Ability -->
<g id="edge1" class="edge"><title>Object&#45;&gt;Ability</title>
<path fill="none" stroke="black" d="M258.45,-639.42C258.45,-617.662 258.45,-580.068 258.45,-556.558"/>
</g>
<!-- ActiveRecord::Base -->
<g id="node14" class="node"><title>ActiveRecord::Base</title>
<ellipse fill="none" stroke="black" cx="803.45" cy="-657.5" rx="81.1422" ry="18"/>
<text text-anchor="middle" x="803.45" y="-653.3" font-family="Times,serif" font-size="14.00">ActiveRecord::Base</text>
</g>
<!-- ActiveRecord::Base&#45;&gt;Acquisition -->
<g id="edge2" class="edge"><title>ActiveRecord::Base&#45;&gt;Acquisition</title>
<path fill="none" stroke="black" d="M722.258,-655.871C604.609,-653.04 395.611,-640.151 348.45,-585 235.757,-453.216 294.579,-226.385 330.864,-121.585"/>
</g>
<!-- ActiveRecord::Base&#45;&gt;Assign -->
<g id="edge3" class="edge"><title>ActiveRecord::Base&#45;&gt;Assign</title>
<path fill="none" stroke="black" d="M722.952,-654.411C615.018,-649.717 432.097,-634.477 390.45,-585 264.854,-435.793 475.069,-212.471 582.381,-114.517"/>
</g>
<!-- ActiveRecord::Base&#45;&gt;Category -->
<g id="edge7" class="edge"><title>ActiveRecord::Base&#45;&gt;Category</title>
<path fill="none" stroke="black" d="M742.803,-645.454C688.7,-634.314 608.123,-614.513 542.45,-585 537.566,-582.806 532.64,-580.321 527.767,-577.662"/>
</g>
<!-- ActiveRecord::Base&#45;&gt;History -->
<g id="edge8" class="edge"><title>ActiveRecord::Base&#45;&gt;History</title>
<path fill="none" stroke="black" d="M878.175,-650.349C962.671,-641.662 1092.43,-622.493 1122.45,-585 1198.22,-490.366 1157.96,-307.62 1036.45,-165 1011.16,-135.321 990.362,-148.239 956.45,-129 953.517,-127.336 950.561,-125.604 947.597,-123.819"/>
</g>
<!-- ActiveRecord::Base&#45;&gt;Level -->
<g id="edge10" class="edge"><title>ActiveRecord::Base&#45;&gt;Level</title>
<path fill="none" stroke="black" d="M780.99,-639.929C761.69,-625.69 732.844,-604.407 706.218,-584.762"/>
</g>
<!-- ActiveRecord::Base&#45;&gt;Mission -->
<g id="edge14" class="edge"><title>ActiveRecord::Base&#45;&gt;Mission</title>
<path fill="none" stroke="black" d="M796.413,-639.502C790.463,-625.045 781.764,-603.714 774.45,-585 756.991,-540.33 756.495,-527.571 736.45,-484 717.452,-442.706 692.735,-397.836 673.007,-363.672"/>
</g>
<!-- ActiveRecord::Base&#45;&gt;Role -->
<g id="edge16" class="edge"><title>ActiveRecord::Base&#45;&gt;Role</title>
<path fill="none" stroke="black" d="M839.265,-641.335C871.212,-627.514 919.042,-606.095 959.45,-585 963.801,-582.728 968.245,-580.336 972.704,-577.88"/>
</g>
<!-- ActiveRecord::Base&#45;&gt;Seminar -->
<g id="edge18" class="edge"><title>ActiveRecord::Base&#45;&gt;Seminar</title>
<path fill="none" stroke="black" d="M810.084,-639.42C816.309,-623.395 825.87,-598.779 834.125,-577.527"/>
</g>
<!-- ActiveRecord::Base&#45;&gt;Status -->
<g id="edge19" class="edge"><title>ActiveRecord::Base&#45;&gt;Status</title>
<path fill="none" stroke="black" d="M880.907,-651.902C973.851,-644.579 1121.46,-626.585 1155.45,-585 1205.16,-524.179 1207.54,-386.454 1112.45,-165 1105.93,-149.827 1096.44,-135.058 1086.24,-121.743"/>
</g>
<!-- ActiveRecord::Base&#45;&gt;User -->
<g id="edge23" class="edge"><title>ActiveRecord::Base&#45;&gt;User</title>
<path fill="none" stroke="black" d="M849.692,-642.686C877.262,-631.797 910.005,-613.581 926.45,-585 949.936,-544.181 955.341,-494.075 953.048,-447.726"/>
</g>
</g>
</svg>
