<?xml version="1.0" encoding="UTF-8" standalone="no"?>
<!DOCTYPE svg PUBLIC "-//W3C//DTD SVG 1.1//EN"
 "http://www.w3.org/Graphics/SVG/1.1/DTD/svg11.dtd">
<!-- Generated by graphviz version 2.38.0 (20140413.2041)
 -->
<!-- Title: models_diagram Pages: 1 -->
<svg width="680pt" height="674pt"
 viewBox="0.00 0.00 679.75 674.00" xmlns="http://www.w3.org/2000/svg" xmlns:xlink="http://www.w3.org/1999/xlink">
<g id="graph0" class="graph" transform="scale(1 1) rotate(0) translate(4 670)">
<title>models_diagram</title>
<polygon fill="white" stroke="none" points="-4,4 -4,-670 675.746,-670 675.746,4 -4,4"/>
<!-- _diagram_info -->
<g id="node1" class="node"><title>_diagram_info</title>
<text text-anchor="start" x="35.3882" y="-651.6" font-family="Times,serif" font-size="13.00">Models diagram</text>
<text text-anchor="start" x="35.3882" y="-638.6" font-family="Times,serif" font-size="13.00">Date: Sep 27 2014 &#45; 00:40</text>
<text text-anchor="start" x="35.3882" y="-625.6" font-family="Times,serif" font-size="13.00">Migration version: 20140926151604</text>
<text text-anchor="start" x="35.3882" y="-612.6" font-family="Times,serif" font-size="13.00">Generated by RailRoady 1.1.2</text>
<text text-anchor="start" x="35.3882" y="-599.6" font-family="Times,serif" font-size="13.00">http://railroady.prestonlee.com</text>
</g>
<!-- Acquisition -->
<g id="node2" class="node"><title>Acquisition</title>
<path fill="none" stroke="black" d="M45.5705,-0.5C45.5705,-0.5 154.581,-0.5 154.581,-0.5 160.581,-0.5 166.581,-6.5 166.581,-12.5 166.581,-12.5 166.581,-102.5 166.581,-102.5 166.581,-108.5 160.581,-114.5 154.581,-114.5 154.581,-114.5 45.5705,-114.5 45.5705,-114.5 39.5705,-114.5 33.5705,-108.5 33.5705,-102.5 33.5705,-102.5 33.5705,-12.5 33.5705,-12.5 33.5705,-6.5 39.5705,-0.5 45.5705,-0.5"/>
<text text-anchor="middle" x="100.076" y="-99.3" font-family="Times,serif" font-size="14.00">Acquisition</text>
<polyline fill="none" stroke="black" points="33.5705,-92.5 166.581,-92.5 "/>
<text text-anchor="start" x="41.5705" y="-77.3" font-family="Times,serif" font-size="14.00">id :integer</text>
<text text-anchor="start" x="41.5705" y="-63.3" font-family="Times,serif" font-size="14.00">mission_id :integer</text>
<text text-anchor="start" x="41.5705" y="-49.3" font-family="Times,serif" font-size="14.00">category_id :integer</text>
<text text-anchor="start" x="41.5705" y="-35.3" font-family="Times,serif" font-size="14.00">experience :integer</text>
<text text-anchor="start" x="41.5705" y="-21.3" font-family="Times,serif" font-size="14.00">created_at :datetime</text>
<text text-anchor="start" x="41.5705" y="-7.3" font-family="Times,serif" font-size="14.00">updated_at :datetime</text>
</g>
<!-- Assign -->
<g id="node3" class="node"><title>Assign</title>
<path fill="none" stroke="black" d="M384.571,-7.5C384.571,-7.5 493.581,-7.5 493.581,-7.5 499.581,-7.5 505.581,-13.5 505.581,-19.5 505.581,-19.5 505.581,-95.5 505.581,-95.5 505.581,-101.5 499.581,-107.5 493.581,-107.5 493.581,-107.5 384.571,-107.5 384.571,-107.5 378.571,-107.5 372.571,-101.5 372.571,-95.5 372.571,-95.5 372.571,-19.5 372.571,-19.5 372.571,-13.5 378.571,-7.5 384.571,-7.5"/>
<text text-anchor="middle" x="439.076" y="-92.3" font-family="Times,serif" font-size="14.00">Assign</text>
<polyline fill="none" stroke="black" points="372.571,-85.5 505.581,-85.5 "/>
<text text-anchor="start" x="380.571" y="-70.3" font-family="Times,serif" font-size="14.00">id :integer</text>
<text text-anchor="start" x="380.571" y="-56.3" font-family="Times,serif" font-size="14.00">user_id :integer</text>
<text text-anchor="start" x="380.571" y="-42.3" font-family="Times,serif" font-size="14.00">mission_id :integer</text>
<text text-anchor="start" x="380.571" y="-28.3" font-family="Times,serif" font-size="14.00">created_at :datetime</text>
<text text-anchor="start" x="380.571" y="-14.3" font-family="Times,serif" font-size="14.00">updated_at :datetime</text>
</g>
<!-- Category -->
<g id="node4" class="node"><title>Category</title>
<path fill="none" stroke="black" d="M128.571,-463.5C128.571,-463.5 237.581,-463.5 237.581,-463.5 243.581,-463.5 249.581,-469.5 249.581,-475.5 249.581,-475.5 249.581,-537.5 249.581,-537.5 249.581,-543.5 243.581,-549.5 237.581,-549.5 237.581,-549.5 128.571,-549.5 128.571,-549.5 122.571,-549.5 116.571,-543.5 116.571,-537.5 116.571,-537.5 116.571,-475.5 116.571,-475.5 116.571,-469.5 122.571,-463.5 128.571,-463.5"/>
<text text-anchor="middle" x="183.076" y="-534.3" font-family="Times,serif" font-size="14.00">Category</text>
<polyline fill="none" stroke="black" points="116.571,-527.5 249.581,-527.5 "/>
<text text-anchor="start" x="124.571" y="-512.3" font-family="Times,serif" font-size="14.00">id :integer</text>
<text text-anchor="start" x="124.571" y="-498.3" font-family="Times,serif" font-size="14.00">name :string</text>
<text text-anchor="start" x="124.571" y="-484.3" font-family="Times,serif" font-size="14.00">created_at :datetime</text>
<text text-anchor="start" x="124.571" y="-470.3" font-family="Times,serif" font-size="14.00">updated_at :datetime</text>
</g>
<!-- Category&#45;&gt;Acquisition -->
<g id="edge4" class="edge"><title>Category&#45;&gt;Acquisition</title>
<path fill="none" stroke="#e2e308" d="M169.471,-455.569C166.513,-443.939 163.536,-431.572 161.076,-420 139.267,-317.433 120.265,-197.16 109.489,-124.451"/>
<ellipse fill="none" stroke="#e2e308" cx="170.512" cy="-459.61" rx="4.00001" ry="4.00001"/>
<polygon fill="#e2e308" stroke="#e2e308" points="109.482,-124.407 112.475,-113.857 108.753,-119.46 108.024,-114.514 108.024,-114.514 108.024,-114.514 108.753,-119.46 103.572,-115.17 109.482,-124.407 109.482,-124.407"/>
</g>
<!-- Mission -->
<g id="node7" class="node"><title>Mission</title>
<path fill="none" stroke="black" d="M182.571,-228.5C182.571,-228.5 291.581,-228.5 291.581,-228.5 297.581,-228.5 303.581,-234.5 303.581,-240.5 303.581,-240.5 303.581,-330.5 303.581,-330.5 303.581,-336.5 297.581,-342.5 291.581,-342.5 291.581,-342.5 182.571,-342.5 182.571,-342.5 176.571,-342.5 170.571,-336.5 170.571,-330.5 170.571,-330.5 170.571,-240.5 170.571,-240.5 170.571,-234.5 176.571,-228.5 182.571,-228.5"/>
<text text-anchor="middle" x="237.076" y="-327.3" font-family="Times,serif" font-size="14.00">Mission</text>
<polyline fill="none" stroke="black" points="170.571,-320.5 303.581,-320.5 "/>
<text text-anchor="start" x="178.571" y="-305.3" font-family="Times,serif" font-size="14.00">id :integer</text>
<text text-anchor="start" x="178.571" y="-291.3" font-family="Times,serif" font-size="14.00">description :text</text>
<text text-anchor="start" x="178.571" y="-277.3" font-family="Times,serif" font-size="14.00">category_id :integer</text>
<text text-anchor="start" x="178.571" y="-263.3" font-family="Times,serif" font-size="14.00">level_id :integer</text>
<text text-anchor="start" x="178.571" y="-249.3" font-family="Times,serif" font-size="14.00">created_at :datetime</text>
<text text-anchor="start" x="178.571" y="-235.3" font-family="Times,serif" font-size="14.00">updated_at :datetime</text>
</g>
<!-- Category&#45;&gt;Mission -->
<g id="edge3" class="edge"><title>Category&#45;&gt;Mission</title>
<path fill="none" stroke="#a80a26" d="M195.427,-455.409C202.937,-424.954 212.614,-385.705 220.751,-352.708"/>
<ellipse fill="none" stroke="#a80a26" cx="194.445" cy="-459.391" rx="4.00001" ry="4.00001"/>
<polygon fill="#a80a26" stroke="#a80a26" points="220.828,-352.394 227.591,-343.762 222.025,-347.539 223.222,-342.685 223.222,-342.685 223.222,-342.685 222.025,-347.539 218.853,-341.607 220.828,-352.394 220.828,-352.394"/>
</g>
<!-- Status -->
<g id="node9" class="node"><title>Status</title>
<path fill="none" stroke="black" d="M535.571,-0.5C535.571,-0.5 644.581,-0.5 644.581,-0.5 650.581,-0.5 656.581,-6.5 656.581,-12.5 656.581,-12.5 656.581,-102.5 656.581,-102.5 656.581,-108.5 650.581,-114.5 644.581,-114.5 644.581,-114.5 535.571,-114.5 535.571,-114.5 529.571,-114.5 523.571,-108.5 523.571,-102.5 523.571,-102.5 523.571,-12.5 523.571,-12.5 523.571,-6.5 529.571,-0.5 535.571,-0.5"/>
<text text-anchor="middle" x="590.076" y="-99.3" font-family="Times,serif" font-size="14.00">Status</text>
<polyline fill="none" stroke="black" points="523.571,-92.5 656.581,-92.5 "/>
<text text-anchor="start" x="531.571" y="-77.3" font-family="Times,serif" font-size="14.00">id :integer</text>
<text text-anchor="start" x="531.571" y="-63.3" font-family="Times,serif" font-size="14.00">user_id :integer</text>
<text text-anchor="start" x="531.571" y="-49.3" font-family="Times,serif" font-size="14.00">category_id :integer</text>
<text text-anchor="start" x="531.571" y="-35.3" font-family="Times,serif" font-size="14.00">experience :integer</text>
<text text-anchor="start" x="531.571" y="-21.3" font-family="Times,serif" font-size="14.00">created_at :datetime</text>
<text text-anchor="start" x="531.571" y="-7.3" font-family="Times,serif" font-size="14.00">updated_at :datetime</text>
</g>
<!-- Category&#45;&gt;Status -->
<g id="edge5" class="edge"><title>Category&#45;&gt;Status</title>
<path fill="none" stroke="#6a3f2c" d="M248.703,-459.866C251.813,-458.446 254.944,-457.146 258.076,-456 321.753,-432.697 514.054,-468.854 561.076,-420 636.13,-342.022 623.466,-205.771 607.044,-124.664"/>
<ellipse fill="none" stroke="#6a3f2c" cx="245.092" cy="-461.627" rx="4.00002" ry="4.00002"/>
<polygon fill="#6a3f2c" stroke="#6a3f2c" points="606.979,-124.355 609.327,-113.644 605.951,-119.462 604.923,-114.569 604.923,-114.569 604.923,-114.569 605.951,-119.462 600.519,-115.494 606.979,-124.355 606.979,-124.355"/>
</g>
<!-- History -->
<g id="node5" class="node"><title>History</title>
<path fill="none" stroke="black" d="M196.571,-7.5C196.571,-7.5 305.581,-7.5 305.581,-7.5 311.581,-7.5 317.581,-13.5 317.581,-19.5 317.581,-19.5 317.581,-95.5 317.581,-95.5 317.581,-101.5 311.581,-107.5 305.581,-107.5 305.581,-107.5 196.571,-107.5 196.571,-107.5 190.571,-107.5 184.571,-101.5 184.571,-95.5 184.571,-95.5 184.571,-19.5 184.571,-19.5 184.571,-13.5 190.571,-7.5 196.571,-7.5"/>
<text text-anchor="middle" x="251.076" y="-92.3" font-family="Times,serif" font-size="14.00">History</text>
<polyline fill="none" stroke="black" points="184.571,-85.5 317.581,-85.5 "/>
<text text-anchor="start" x="192.571" y="-70.3" font-family="Times,serif" font-size="14.00">id :integer</text>
<text text-anchor="start" x="192.571" y="-56.3" font-family="Times,serif" font-size="14.00">user_id :integer</text>
<text text-anchor="start" x="192.571" y="-42.3" font-family="Times,serif" font-size="14.00">mission_id :integer</text>
<text text-anchor="start" x="192.571" y="-28.3" font-family="Times,serif" font-size="14.00">created_at :datetime</text>
<text text-anchor="start" x="192.571" y="-14.3" font-family="Times,serif" font-size="14.00">updated_at :datetime</text>
</g>
<!-- Level -->
<g id="node6" class="node"><title>Level</title>
<path fill="none" stroke="black" d="M279.571,-456.5C279.571,-456.5 388.581,-456.5 388.581,-456.5 394.581,-456.5 400.581,-462.5 400.581,-468.5 400.581,-468.5 400.581,-544.5 400.581,-544.5 400.581,-550.5 394.581,-556.5 388.581,-556.5 388.581,-556.5 279.571,-556.5 279.571,-556.5 273.571,-556.5 267.571,-550.5 267.571,-544.5 267.571,-544.5 267.571,-468.5 267.571,-468.5 267.571,-462.5 273.571,-456.5 279.571,-456.5"/>
<text text-anchor="middle" x="334.076" y="-541.3" font-family="Times,serif" font-size="14.00">Level</text>
<polyline fill="none" stroke="black" points="267.571,-534.5 400.581,-534.5 "/>
<text text-anchor="start" x="275.571" y="-519.3" font-family="Times,serif" font-size="14.00">id :integer</text>
<text text-anchor="start" x="275.571" y="-505.3" font-family="Times,serif" font-size="14.00">value :integer</text>
<text text-anchor="start" x="275.571" y="-491.3" font-family="Times,serif" font-size="14.00">sufficiency :integer</text>
<text text-anchor="start" x="275.571" y="-477.3" font-family="Times,serif" font-size="14.00">created_at :datetime</text>
<text text-anchor="start" x="275.571" y="-463.3" font-family="Times,serif" font-size="14.00">updated_at :datetime</text>
</g>
<!-- Level&#45;&gt;Mission -->
<g id="edge8" class="edge"><title>Level&#45;&gt;Mission</title>
<path fill="none" stroke="#7f487b" d="M308.909,-448.68C295.828,-419.147 279.774,-382.902 266.163,-352.172"/>
<ellipse fill="none" stroke="#7f487b" cx="310.687" cy="-452.695" rx="4.00002" ry="4.00002"/>
<polygon fill="#7f487b" stroke="#7f487b" points="266.074,-351.969 266.138,-341.003 264.049,-347.397 262.024,-342.826 262.024,-342.826 262.024,-342.826 264.049,-347.397 257.909,-344.648 266.074,-351.969 266.074,-351.969"/>
</g>
<!-- Mission&#45;&gt;Acquisition -->
<g id="edge10" class="edge"><title>Mission&#45;&gt;Acquisition</title>
<path fill="none" stroke="#16bbfc" d="M198.777,-221.321C180.317,-190.869 158.198,-154.381 139.583,-123.672"/>
<ellipse fill="none" stroke="#16bbfc" cx="200.961" cy="-224.924" rx="4.00002" ry="4.00002"/>
<polygon fill="#16bbfc" stroke="#16bbfc" points="139.363,-123.31 138.028,-112.426 136.771,-119.034 134.179,-114.758 134.179,-114.758 134.179,-114.758 136.771,-119.034 130.331,-117.091 139.363,-123.31 139.363,-123.31"/>
</g>
<!-- Mission&#45;&gt;Assign -->
<g id="edge12" class="edge"><title>Mission&#45;&gt;Assign</title>
<path fill="none" stroke="#c61ce4" d="M281.693,-221.537C298.815,-198.634 319.063,-172.989 339.076,-151 350.215,-138.761 362.736,-126.302 375.052,-114.657"/>
<ellipse fill="none" stroke="#c61ce4" cx="279.102" cy="-225.022" rx="4.00002" ry="4.00002"/>
<polygon fill="#c61ce4" stroke="#c61ce4" points="375.377,-114.353 385.754,-110.807 379.028,-110.937 382.679,-107.52 382.679,-107.52 382.679,-107.52 379.028,-110.937 379.605,-104.234 375.377,-114.353 375.377,-114.353"/>
</g>
<!-- Mission&#45;&gt;History -->
<g id="edge11" class="edge"><title>Mission&#45;&gt;History</title>
<path fill="none" stroke="#d080a3" d="M241.075,-219.935C243.059,-187.914 245.439,-149.492 247.38,-118.166"/>
<ellipse fill="none" stroke="#d080a3" cx="240.802" cy="-224.352" rx="4" ry="4"/>
<polygon fill="#d080a3" stroke="#d080a3" points="247.401,-117.815 252.511,-108.113 247.711,-112.825 248.02,-107.834 248.02,-107.834 248.02,-107.834 247.711,-112.825 243.528,-107.556 247.401,-117.815 247.401,-117.815"/>
</g>
<!-- Role -->
<g id="node8" class="node"><title>Role</title>
<path fill="none" stroke="black" d="M430.571,-463.5C430.571,-463.5 539.581,-463.5 539.581,-463.5 545.581,-463.5 551.581,-469.5 551.581,-475.5 551.581,-475.5 551.581,-537.5 551.581,-537.5 551.581,-543.5 545.581,-549.5 539.581,-549.5 539.581,-549.5 430.571,-549.5 430.571,-549.5 424.571,-549.5 418.571,-543.5 418.571,-537.5 418.571,-537.5 418.571,-475.5 418.571,-475.5 418.571,-469.5 424.571,-463.5 430.571,-463.5"/>
<text text-anchor="middle" x="485.076" y="-534.3" font-family="Times,serif" font-size="14.00">Role</text>
<polyline fill="none" stroke="black" points="418.571,-527.5 551.581,-527.5 "/>
<text text-anchor="start" x="426.571" y="-512.3" font-family="Times,serif" font-size="14.00">id :integer</text>
<text text-anchor="start" x="426.571" y="-498.3" font-family="Times,serif" font-size="14.00">name :string</text>
<text text-anchor="start" x="426.571" y="-484.3" font-family="Times,serif" font-size="14.00">created_at :datetime</text>
<text text-anchor="start" x="426.571" y="-470.3" font-family="Times,serif" font-size="14.00">updated_at :datetime</text>
</g>
<!-- User -->
<g id="node10" class="node"><title>User</title>
<path fill="none" stroke="black" d="M359.798,-151.5C359.798,-151.5 540.354,-151.5 540.354,-151.5 546.354,-151.5 552.354,-157.5 552.354,-163.5 552.354,-163.5 552.354,-407.5 552.354,-407.5 552.354,-413.5 546.354,-419.5 540.354,-419.5 540.354,-419.5 359.798,-419.5 359.798,-419.5 353.798,-419.5 347.798,-413.5 347.798,-407.5 347.798,-407.5 347.798,-163.5 347.798,-163.5 347.798,-157.5 353.798,-151.5 359.798,-151.5"/>
<text text-anchor="middle" x="450.076" y="-404.3" font-family="Times,serif" font-size="14.00">User</text>
<polyline fill="none" stroke="black" points="347.798,-397.5 552.354,-397.5 "/>
<text text-anchor="start" x="355.798" y="-382.3" font-family="Times,serif" font-size="14.00">id :integer</text>
<text text-anchor="start" x="355.798" y="-368.3" font-family="Times,serif" font-size="14.00">email :string</text>
<text text-anchor="start" x="355.798" y="-354.3" font-family="Times,serif" font-size="14.00">encrypted_password :string</text>
<text text-anchor="start" x="355.798" y="-340.3" font-family="Times,serif" font-size="14.00">reset_password_token :string</text>
<text text-anchor="start" x="355.798" y="-326.3" font-family="Times,serif" font-size="14.00">reset_password_sent_at :datetime</text>
<text text-anchor="start" x="355.798" y="-312.3" font-family="Times,serif" font-size="14.00">remember_created_at :datetime</text>
<text text-anchor="start" x="355.798" y="-298.3" font-family="Times,serif" font-size="14.00">sign_in_count :integer</text>
<text text-anchor="start" x="355.798" y="-284.3" font-family="Times,serif" font-size="14.00">current_sign_in_at :datetime</text>
<text text-anchor="start" x="355.798" y="-270.3" font-family="Times,serif" font-size="14.00">last_sign_in_at :datetime</text>
<text text-anchor="start" x="355.798" y="-256.3" font-family="Times,serif" font-size="14.00">current_sign_in_ip :string</text>
<text text-anchor="start" x="355.798" y="-242.3" font-family="Times,serif" font-size="14.00">last_sign_in_ip :string</text>
<text text-anchor="start" x="355.798" y="-228.3" font-family="Times,serif" font-size="14.00">created_at :datetime</text>
<text text-anchor="start" x="355.798" y="-214.3" font-family="Times,serif" font-size="14.00">updated_at :datetime</text>
<text text-anchor="start" x="355.798" y="-200.3" font-family="Times,serif" font-size="14.00">name :string</text>
<text text-anchor="start" x="355.798" y="-186.3" font-family="Times,serif" font-size="14.00">number :string</text>
<text text-anchor="start" x="355.798" y="-172.3" font-family="Times,serif" font-size="14.00">idm :string</text>
<text text-anchor="start" x="355.798" y="-158.3" font-family="Times,serif" font-size="14.00">role_id :integer</text>
</g>
<!-- Role&#45;&gt;User -->
<g id="edge14" class="edge"><title>Role&#45;&gt;User</title>
<path fill="none" stroke="#220db9" d="M477.03,-455.156C475.762,-447.224 474.4,-438.7 472.986,-429.849"/>
<ellipse fill="none" stroke="#220db9" cx="477.696" cy="-459.325" rx="4.00001" ry="4.00001"/>
<polygon fill="#220db9" stroke="#220db9" points="472.947,-429.606 475.812,-419.021 472.158,-424.668 471.369,-419.731 471.369,-419.731 471.369,-419.731 472.158,-424.668 466.925,-420.441 472.947,-429.606 472.947,-429.606"/>
</g>
<!-- User&#45;&gt;Assign -->
<g id="edge19" class="edge"><title>User&#45;&gt;Assign</title>
<path fill="none" stroke="#b9cdbf" d="M443.193,-143.091C442.769,-134.366 442.356,-125.883 441.966,-117.869"/>
<ellipse fill="none" stroke="#b9cdbf" cx="443.403" cy="-147.406" rx="4" ry="4"/>
<polygon fill="#b9cdbf" stroke="#b9cdbf" points="441.953,-117.611 445.961,-107.404 441.71,-112.617 441.467,-107.622 441.467,-107.622 441.467,-107.622 441.71,-112.617 436.972,-107.841 441.953,-117.611 441.953,-117.611"/>
</g>
<!-- User&#45;&gt;History -->
<g id="edge18" class="edge"><title>User&#45;&gt;History</title>
<path fill="none" stroke="#7ed71a" d="M342.364,-162.174C327.984,-145.842 313.834,-129.773 301.127,-115.342"/>
<ellipse fill="none" stroke="#7ed71a" cx="345.018" cy="-165.188" rx="4.00002" ry="4.00002"/>
<polygon fill="#7ed71a" stroke="#7ed71a" points="300.832,-115.007 297.601,-104.528 297.528,-111.254 294.223,-107.502 294.223,-107.502 294.223,-107.502 297.528,-111.254 290.846,-110.476 300.832,-115.007 300.832,-115.007"/>
</g>
<!-- User&#45;&gt;Status -->
<g id="edge17" class="edge"><title>User&#45;&gt;Status</title>
<path fill="none" stroke="#3f98e8" d="M536.79,-144.518C541.324,-137.199 545.759,-130.04 550.012,-123.175"/>
<ellipse fill="none" stroke="#3f98e8" cx="534.633" cy="-148.001" rx="4.00002" ry="4.00002"/>
<polygon fill="#3f98e8" stroke="#3f98e8" points="550.029,-123.146 559.121,-117.015 552.663,-118.896 555.296,-114.645 555.296,-114.645 555.296,-114.645 552.663,-118.896 551.47,-112.276 550.029,-123.146 550.029,-123.146"/>
</g>
<!-- ActiveRecord::Base -->
<g id="node11" class="node"><title>ActiveRecord::Base</title>
<ellipse fill="none" stroke="black" cx="334.076" cy="-629.5" rx="81.1422" ry="18"/>
<text text-anchor="middle" x="334.076" y="-625.3" font-family="Times,serif" font-size="14.00">ActiveRecord::Base</text>
</g>
<!-- ActiveRecord::Base&#45;&gt;Acquisition -->
<g id="edge1" class="edge"><title>ActiveRecord::Base&#45;&gt;Acquisition</title>
<path fill="none" stroke="black" d="M299.562,-613.109C283.03,-606.199 262.796,-598.403 244.076,-593 161.08,-569.044 108.212,-623.499 53.0759,-557 -52.6215,-429.519 25.0146,-215.724 71.6618,-114.666"/>
</g>
<!-- ActiveRecord::Base&#45;&gt;Assign -->
<g id="edge2" class="edge"><title>ActiveRecord::Base&#45;&gt;Assign</title>
<path fill="none" stroke="black" d="M399.704,-618.782C466.043,-607.458 561.856,-586.466 584.076,-557 629.036,-497.378 663.191,-338.514 561.076,-151 560.834,-150.555 533.115,-129.526 504.163,-107.634"/>
</g>
<!-- ActiveRecord::Base&#45;&gt;Category -->
<g id="edge6" class="edge"><title>ActiveRecord::Base&#45;&gt;Category</title>
<path fill="none" stroke="black" d="M313.397,-611.929C293.446,-595.942 262.415,-571.076 235.637,-549.619"/>
</g>
<!-- ActiveRecord::Base&#45;&gt;History -->
<g id="edge7" class="edge"><title>ActiveRecord::Base&#45;&gt;History</title>
<path fill="none" stroke="black" d="M299.042,-613.237C282.57,-606.435 262.534,-598.693 244.076,-593 174.839,-571.644 130.3,-613.609 85.0759,-557 21.2801,-477.145 74.7211,-306.126 161.076,-151 169.685,-135.534 181.552,-120.805 193.845,-107.83"/>
</g>
<!-- ActiveRecord::Base&#45;&gt;Level -->
<g id="edge9" class="edge"><title>ActiveRecord::Base&#45;&gt;Level</title>
<path fill="none" stroke="black" d="M334.076,-611.42C334.076,-597.154 334.076,-576.079 334.076,-556.63"/>
</g>
<!-- ActiveRecord::Base&#45;&gt;Mission -->
<g id="edge13" class="edge"><title>ActiveRecord::Base&#45;&gt;Mission</title>
<path fill="none" stroke="black" d="M298.087,-613.171C281.764,-606.513 262.114,-598.904 244.076,-593 184.244,-573.415 145.522,-606.854 107.076,-557 55.689,-490.365 120.876,-400.15 176.004,-342.626"/>
</g>
<!-- ActiveRecord::Base&#45;&gt;Role -->
<g id="edge15" class="edge"><title>ActiveRecord::Base&#45;&gt;Role</title>
<path fill="none" stroke="black" d="M354.755,-611.929C374.706,-595.942 405.737,-571.076 432.514,-549.619"/>
</g>
<!-- ActiveRecord::Base&#45;&gt;Status -->
<g id="edge16" class="edge"><title>ActiveRecord::Base&#45;&gt;Status</title>
<path fill="none" stroke="black" d="M404.833,-620.507C479.911,-610.397 591.232,-590.185 617.076,-557 718.391,-426.904 654.207,-214.855 614.554,-114.514"/>
</g>
<!-- ActiveRecord::Base&#45;&gt;User -->
<g id="edge20" class="edge"><title>ActiveRecord::Base&#45;&gt;User</title>
<path fill="none" stroke="black" d="M414.202,-626.069C465.169,-619.849 527.658,-602.562 561.076,-557 592.899,-513.612 579.338,-459.778 552.521,-411.587"/>
</g>
</g>
</svg>
