<?xml version="1.0" encoding="UTF-8" standalone="no"?>
<!DOCTYPE svg PUBLIC "-//W3C//DTD SVG 1.1//EN"
 "http://www.w3.org/Graphics/SVG/1.1/DTD/svg11.dtd">
<!-- Generated by graphviz version 2.38.0 (20140413.2041)
 -->
<!-- Title: models_diagram Pages: 1 -->
<svg width="873pt" height="702pt"
 viewBox="0.00 0.00 872.93 702.00" xmlns="http://www.w3.org/2000/svg" xmlns:xlink="http://www.w3.org/1999/xlink">
<g id="graph0" class="graph" transform="scale(1 1) rotate(0) translate(4 698)">
<title>models_diagram</title>
<polygon fill="white" stroke="none" points="-4,4 -4,-698 868.933,-698 868.933,4 -4,4"/>
<!-- _diagram_info -->
<g id="node1" class="node"><title>_diagram_info</title>
<text text-anchor="start" x="182.684" y="-679.6" font-family="Times,serif" font-size="13.00">Models diagram</text>
<text text-anchor="start" x="182.684" y="-666.6" font-family="Times,serif" font-size="13.00">Date: Oct 01 2014 &#45; 14:28</text>
<text text-anchor="start" x="182.684" y="-653.6" font-family="Times,serif" font-size="13.00">Migration version: 20141001034704</text>
<text text-anchor="start" x="182.684" y="-640.6" font-family="Times,serif" font-size="13.00">Generated by RailRoady 1.1.2</text>
<text text-anchor="start" x="182.684" y="-627.6" font-family="Times,serif" font-size="13.00">http://railroady.prestonlee.com</text>
</g>
<!-- Acquisition -->
<g id="node2" class="node"><title>Acquisition</title>
<path fill="none" stroke="black" d="M18.8666,-7.5C18.8666,-7.5 127.877,-7.5 127.877,-7.5 133.877,-7.5 139.877,-13.5 139.877,-19.5 139.877,-19.5 139.877,-109.5 139.877,-109.5 139.877,-115.5 133.877,-121.5 127.877,-121.5 127.877,-121.5 18.8666,-121.5 18.8666,-121.5 12.8666,-121.5 6.8666,-115.5 6.8666,-109.5 6.8666,-109.5 6.8666,-19.5 6.8666,-19.5 6.8666,-13.5 12.8666,-7.5 18.8666,-7.5"/>
<text text-anchor="middle" x="73.372" y="-106.3" font-family="Times,serif" font-size="14.00">Acquisition</text>
<polyline fill="none" stroke="black" points="6.8666,-99.5 139.877,-99.5 "/>
<text text-anchor="start" x="14.8666" y="-84.3" font-family="Times,serif" font-size="14.00">id :integer</text>
<text text-anchor="start" x="14.8666" y="-70.3" font-family="Times,serif" font-size="14.00">mission_id :integer</text>
<text text-anchor="start" x="14.8666" y="-56.3" font-family="Times,serif" font-size="14.00">category_id :integer</text>
<text text-anchor="start" x="14.8666" y="-42.3" font-family="Times,serif" font-size="14.00">experience :integer</text>
<text text-anchor="start" x="14.8666" y="-28.3" font-family="Times,serif" font-size="14.00">created_at :datetime</text>
<text text-anchor="start" x="14.8666" y="-14.3" font-family="Times,serif" font-size="14.00">updated_at :datetime</text>
</g>
<!-- Assign -->
<g id="node3" class="node"><title>Assign</title>
<path fill="none" stroke="black" d="M283.867,-14.5C283.867,-14.5 392.877,-14.5 392.877,-14.5 398.877,-14.5 404.877,-20.5 404.877,-26.5 404.877,-26.5 404.877,-102.5 404.877,-102.5 404.877,-108.5 398.877,-114.5 392.877,-114.5 392.877,-114.5 283.867,-114.5 283.867,-114.5 277.867,-114.5 271.867,-108.5 271.867,-102.5 271.867,-102.5 271.867,-26.5 271.867,-26.5 271.867,-20.5 277.867,-14.5 283.867,-14.5"/>
<text text-anchor="middle" x="338.372" y="-99.3" font-family="Times,serif" font-size="14.00">Assign</text>
<polyline fill="none" stroke="black" points="271.867,-92.5 404.877,-92.5 "/>
<text text-anchor="start" x="279.867" y="-77.3" font-family="Times,serif" font-size="14.00">id :integer</text>
<text text-anchor="start" x="279.867" y="-63.3" font-family="Times,serif" font-size="14.00">user_id :integer</text>
<text text-anchor="start" x="279.867" y="-49.3" font-family="Times,serif" font-size="14.00">mission_id :integer</text>
<text text-anchor="start" x="279.867" y="-35.3" font-family="Times,serif" font-size="14.00">created_at :datetime</text>
<text text-anchor="start" x="279.867" y="-21.3" font-family="Times,serif" font-size="14.00">updated_at :datetime</text>
</g>
<!-- Category -->
<g id="node4" class="node"><title>Category</title>
<path fill="none" stroke="black" d="M132.867,-491.5C132.867,-491.5 241.877,-491.5 241.877,-491.5 247.877,-491.5 253.877,-497.5 253.877,-503.5 253.877,-503.5 253.877,-565.5 253.877,-565.5 253.877,-571.5 247.877,-577.5 241.877,-577.5 241.877,-577.5 132.867,-577.5 132.867,-577.5 126.867,-577.5 120.867,-571.5 120.867,-565.5 120.867,-565.5 120.867,-503.5 120.867,-503.5 120.867,-497.5 126.867,-491.5 132.867,-491.5"/>
<text text-anchor="middle" x="187.372" y="-562.3" font-family="Times,serif" font-size="14.00">Category</text>
<polyline fill="none" stroke="black" points="120.867,-555.5 253.877,-555.5 "/>
<text text-anchor="start" x="128.867" y="-540.3" font-family="Times,serif" font-size="14.00">id :integer</text>
<text text-anchor="start" x="128.867" y="-526.3" font-family="Times,serif" font-size="14.00">name :string</text>
<text text-anchor="start" x="128.867" y="-512.3" font-family="Times,serif" font-size="14.00">created_at :datetime</text>
<text text-anchor="start" x="128.867" y="-498.3" font-family="Times,serif" font-size="14.00">updated_at :datetime</text>
</g>
<!-- Category&#45;&gt;Acquisition -->
<g id="edge4" class="edge"><title>Category&#45;&gt;Acquisition</title>
<path fill="none" stroke="#3af5ee" d="M175.113,-483.175C154.4,-398.14 112.483,-226.061 89.4433,-131.477"/>
<ellipse fill="none" stroke="#3af5ee" cx="176.107" cy="-487.256" rx="4.00001" ry="4.00001"/>
<polygon fill="#3af5ee" stroke="#3af5ee" points="89.4367,-131.45 91.4421,-120.669 88.2533,-126.592 87.0699,-121.734 87.0699,-121.734 87.0699,-121.734 88.2533,-126.592 82.6978,-122.799 89.4367,-131.45 89.4367,-131.45"/>
</g>
<!-- Mission -->
<g id="node7" class="node"><title>Mission</title>
<path fill="none" stroke="black" d="M283.867,-249.5C283.867,-249.5 392.877,-249.5 392.877,-249.5 398.877,-249.5 404.877,-255.5 404.877,-261.5 404.877,-261.5 404.877,-351.5 404.877,-351.5 404.877,-357.5 398.877,-363.5 392.877,-363.5 392.877,-363.5 283.867,-363.5 283.867,-363.5 277.867,-363.5 271.867,-357.5 271.867,-351.5 271.867,-351.5 271.867,-261.5 271.867,-261.5 271.867,-255.5 277.867,-249.5 283.867,-249.5"/>
<text text-anchor="middle" x="338.372" y="-348.3" font-family="Times,serif" font-size="14.00">Mission</text>
<polyline fill="none" stroke="black" points="271.867,-341.5 404.877,-341.5 "/>
<text text-anchor="start" x="279.867" y="-326.3" font-family="Times,serif" font-size="14.00">id :integer</text>
<text text-anchor="start" x="279.867" y="-312.3" font-family="Times,serif" font-size="14.00">description :string</text>
<text text-anchor="start" x="279.867" y="-298.3" font-family="Times,serif" font-size="14.00">category_id :integer</text>
<text text-anchor="start" x="279.867" y="-284.3" font-family="Times,serif" font-size="14.00">level_id :integer</text>
<text text-anchor="start" x="279.867" y="-270.3" font-family="Times,serif" font-size="14.00">created_at :datetime</text>
<text text-anchor="start" x="279.867" y="-256.3" font-family="Times,serif" font-size="14.00">updated_at :datetime</text>
</g>
<!-- Category&#45;&gt;Mission -->
<g id="edge3" class="edge"><title>Category&#45;&gt;Mission</title>
<path fill="none" stroke="#83144c" d="M220.231,-484.32C242.223,-451.405 271.396,-407.743 295.249,-372.041"/>
<ellipse fill="none" stroke="#83144c" cx="217.819" cy="-487.93" rx="4.00002" ry="4.00002"/>
<polygon fill="#83144c" stroke="#83144c" points="295.322,-371.933 304.619,-366.118 298.099,-367.776 300.877,-363.618 300.877,-363.618 300.877,-363.618 298.099,-367.776 297.135,-361.118 295.322,-371.933 295.322,-371.933"/>
</g>
<!-- Status -->
<g id="node10" class="node"><title>Status</title>
<path fill="none" stroke="black" d="M668.867,-7.5C668.867,-7.5 777.877,-7.5 777.877,-7.5 783.877,-7.5 789.877,-13.5 789.877,-19.5 789.877,-19.5 789.877,-109.5 789.877,-109.5 789.877,-115.5 783.877,-121.5 777.877,-121.5 777.877,-121.5 668.867,-121.5 668.867,-121.5 662.867,-121.5 656.867,-115.5 656.867,-109.5 656.867,-109.5 656.867,-19.5 656.867,-19.5 656.867,-13.5 662.867,-7.5 668.867,-7.5"/>
<text text-anchor="middle" x="723.372" y="-106.3" font-family="Times,serif" font-size="14.00">Status</text>
<polyline fill="none" stroke="black" points="656.867,-99.5 789.877,-99.5 "/>
<text text-anchor="start" x="664.867" y="-84.3" font-family="Times,serif" font-size="14.00">id :integer</text>
<text text-anchor="start" x="664.867" y="-70.3" font-family="Times,serif" font-size="14.00">user_id :integer</text>
<text text-anchor="start" x="664.867" y="-56.3" font-family="Times,serif" font-size="14.00">category_id :integer</text>
<text text-anchor="start" x="664.867" y="-42.3" font-family="Times,serif" font-size="14.00">experience :integer</text>
<text text-anchor="start" x="664.867" y="-28.3" font-family="Times,serif" font-size="14.00">created_at :datetime</text>
<text text-anchor="start" x="664.867" y="-14.3" font-family="Times,serif" font-size="14.00">updated_at :datetime</text>
</g>
<!-- Category&#45;&gt;Status -->
<g id="edge5" class="edge"><title>Category&#45;&gt;Status</title>
<path fill="none" stroke="#5e65e0" d="M254.843,-487.483C257.352,-486.25 259.866,-485.083 262.372,-484 326.099,-456.456 364.004,-495.779 414.372,-448 509.468,-357.791 402.411,-255.351 497.372,-165 547.042,-117.741 586.116,-159.792 647.372,-129 648.716,-128.324 650.057,-127.621 651.394,-126.892"/>
<ellipse fill="none" stroke="#5e65e0" cx="250.895" cy="-489.527" rx="4.00002" ry="4.00002"/>
<polygon fill="#5e65e0" stroke="#5e65e0" points="651.52,-126.817 662.42,-125.619 655.828,-124.28 660.136,-121.742 660.136,-121.742 660.136,-121.742 655.828,-124.28 657.852,-117.865 651.52,-126.817 651.52,-126.817"/>
</g>
<!-- History -->
<g id="node5" class="node"><title>History</title>
<path fill="none" stroke="black" d="M486.335,-0.5C486.335,-0.5 626.409,-0.5 626.409,-0.5 632.409,-0.5 638.409,-6.5 638.409,-12.5 638.409,-12.5 638.409,-116.5 638.409,-116.5 638.409,-122.5 632.409,-128.5 626.409,-128.5 626.409,-128.5 486.335,-128.5 486.335,-128.5 480.335,-128.5 474.335,-122.5 474.335,-116.5 474.335,-116.5 474.335,-12.5 474.335,-12.5 474.335,-6.5 480.335,-0.5 486.335,-0.5"/>
<text text-anchor="middle" x="556.372" y="-113.3" font-family="Times,serif" font-size="14.00">History</text>
<polyline fill="none" stroke="black" points="474.335,-106.5 638.409,-106.5 "/>
<text text-anchor="start" x="482.335" y="-91.3" font-family="Times,serif" font-size="14.00">id :integer</text>
<text text-anchor="start" x="482.335" y="-77.3" font-family="Times,serif" font-size="14.00">user_id :integer</text>
<text text-anchor="start" x="482.335" y="-63.3" font-family="Times,serif" font-size="14.00">mission_id :integer</text>
<text text-anchor="start" x="482.335" y="-49.3" font-family="Times,serif" font-size="14.00">created_at :datetime</text>
<text text-anchor="start" x="482.335" y="-35.3" font-family="Times,serif" font-size="14.00">updated_at :datetime</text>
<text text-anchor="start" x="482.335" y="-21.3" font-family="Times,serif" font-size="14.00">recent_experience :integer</text>
<text text-anchor="start" x="482.335" y="-7.3" font-family="Times,serif" font-size="14.00">experience :integer</text>
</g>
<!-- Level -->
<g id="node6" class="node"><title>Level</title>
<path fill="none" stroke="black" d="M283.867,-484.5C283.867,-484.5 392.877,-484.5 392.877,-484.5 398.877,-484.5 404.877,-490.5 404.877,-496.5 404.877,-496.5 404.877,-572.5 404.877,-572.5 404.877,-578.5 398.877,-584.5 392.877,-584.5 392.877,-584.5 283.867,-584.5 283.867,-584.5 277.867,-584.5 271.867,-578.5 271.867,-572.5 271.867,-572.5 271.867,-496.5 271.867,-496.5 271.867,-490.5 277.867,-484.5 283.867,-484.5"/>
<text text-anchor="middle" x="338.372" y="-569.3" font-family="Times,serif" font-size="14.00">Level</text>
<polyline fill="none" stroke="black" points="271.867,-562.5 404.877,-562.5 "/>
<text text-anchor="start" x="279.867" y="-547.3" font-family="Times,serif" font-size="14.00">id :integer</text>
<text text-anchor="start" x="279.867" y="-533.3" font-family="Times,serif" font-size="14.00">value :integer</text>
<text text-anchor="start" x="279.867" y="-519.3" font-family="Times,serif" font-size="14.00">sufficiency :integer</text>
<text text-anchor="start" x="279.867" y="-505.3" font-family="Times,serif" font-size="14.00">created_at :datetime</text>
<text text-anchor="start" x="279.867" y="-491.3" font-family="Times,serif" font-size="14.00">updated_at :datetime</text>
</g>
<!-- Level&#45;&gt;Mission -->
<g id="edge8" class="edge"><title>Level&#45;&gt;Mission</title>
<path fill="none" stroke="#4c4c7e" d="M338.372,-476.343C338.372,-445.173 338.372,-406.431 338.372,-373.924"/>
<ellipse fill="none" stroke="#4c4c7e" cx="338.372" cy="-480.461" rx="4" ry="4"/>
<polygon fill="#4c4c7e" stroke="#4c4c7e" points="338.372,-373.606 342.872,-363.606 338.372,-368.606 338.372,-363.606 338.372,-363.606 338.372,-363.606 338.372,-368.606 333.872,-363.606 338.372,-373.606 338.372,-373.606"/>
</g>
<!-- Mission&#45;&gt;Acquisition -->
<g id="edge10" class="edge"><title>Mission&#45;&gt;Acquisition</title>
<path fill="none" stroke="#45aef6" d="M270.196,-243.756C231.251,-208.485 182.517,-164.348 143.286,-128.818"/>
<ellipse fill="none" stroke="#45aef6" cx="273.276" cy="-246.546" rx="4.00002" ry="4.00002"/>
<polygon fill="#45aef6" stroke="#45aef6" points="142.984,-128.545 138.593,-118.497 139.278,-125.189 135.572,-121.832 135.572,-121.832 135.572,-121.832 139.278,-125.189 132.551,-125.168 142.984,-128.545 142.984,-128.545"/>
</g>
<!-- Mission&#45;&gt;Assign -->
<g id="edge12" class="edge"><title>Mission&#45;&gt;Assign</title>
<path fill="none" stroke="#2a900f" d="M338.372,-240.913C338.372,-204.726 338.372,-159.925 338.372,-124.658"/>
<ellipse fill="none" stroke="#2a900f" cx="338.372" cy="-245.231" rx="4" ry="4"/>
<polygon fill="#2a900f" stroke="#2a900f" points="338.372,-124.51 342.872,-114.51 338.372,-119.51 338.372,-114.51 338.372,-114.51 338.372,-114.51 338.372,-119.51 333.872,-114.51 338.372,-124.51 338.372,-124.51"/>
</g>
<!-- Mission&#45;&gt;History -->
<g id="edge11" class="edge"><title>Mission&#45;&gt;History</title>
<path fill="none" stroke="#e09bbe" d="M384.764,-242.601C403.948,-217.728 426.926,-189.329 449.372,-165 458.438,-155.173 468.307,-145.175 478.263,-135.493"/>
<ellipse fill="none" stroke="#e09bbe" cx="382.15" cy="-246.006" rx="4.00002" ry="4.00002"/>
<polygon fill="#e09bbe" stroke="#e09bbe" points="478.316,-135.442 488.64,-131.747 481.917,-131.974 485.518,-128.505 485.518,-128.505 485.518,-128.505 481.917,-131.974 482.397,-125.264 478.316,-135.442 478.316,-135.442"/>
</g>
<!-- Role -->
<g id="node8" class="node"><title>Role</title>
<path fill="none" stroke="black" d="M662.977,-484.5C662.977,-484.5 779.767,-484.5 779.767,-484.5 785.767,-484.5 791.767,-490.5 791.767,-496.5 791.767,-496.5 791.767,-572.5 791.767,-572.5 791.767,-578.5 785.767,-584.5 779.767,-584.5 779.767,-584.5 662.977,-584.5 662.977,-584.5 656.977,-584.5 650.977,-578.5 650.977,-572.5 650.977,-572.5 650.977,-496.5 650.977,-496.5 650.977,-490.5 656.977,-484.5 662.977,-484.5"/>
<text text-anchor="middle" x="721.372" y="-569.3" font-family="Times,serif" font-size="14.00">Role</text>
<polyline fill="none" stroke="black" points="650.977,-562.5 791.767,-562.5 "/>
<text text-anchor="start" x="658.977" y="-547.3" font-family="Times,serif" font-size="14.00">id :integer</text>
<text text-anchor="start" x="658.977" y="-533.3" font-family="Times,serif" font-size="14.00">name :string</text>
<text text-anchor="start" x="658.977" y="-519.3" font-family="Times,serif" font-size="14.00">created_at :datetime</text>
<text text-anchor="start" x="658.977" y="-505.3" font-family="Times,serif" font-size="14.00">updated_at :datetime</text>
<text text-anchor="start" x="658.977" y="-491.3" font-family="Times,serif" font-size="14.00">japanese_name :string</text>
</g>
<!-- User -->
<g id="node11" class="node"><title>User</title>
<path fill="none" stroke="black" d="M518.094,-165.5C518.094,-165.5 698.65,-165.5 698.65,-165.5 704.65,-165.5 710.65,-171.5 710.65,-177.5 710.65,-177.5 710.65,-435.5 710.65,-435.5 710.65,-441.5 704.65,-447.5 698.65,-447.5 698.65,-447.5 518.094,-447.5 518.094,-447.5 512.094,-447.5 506.094,-441.5 506.094,-435.5 506.094,-435.5 506.094,-177.5 506.094,-177.5 506.094,-171.5 512.094,-165.5 518.094,-165.5"/>
<text text-anchor="middle" x="608.372" y="-432.3" font-family="Times,serif" font-size="14.00">User</text>
<polyline fill="none" stroke="black" points="506.094,-425.5 710.65,-425.5 "/>
<text text-anchor="start" x="514.094" y="-410.3" font-family="Times,serif" font-size="14.00">id :integer</text>
<text text-anchor="start" x="514.094" y="-396.3" font-family="Times,serif" font-size="14.00">email :string</text>
<text text-anchor="start" x="514.094" y="-382.3" font-family="Times,serif" font-size="14.00">encrypted_password :string</text>
<text text-anchor="start" x="514.094" y="-368.3" font-family="Times,serif" font-size="14.00">reset_password_token :string</text>
<text text-anchor="start" x="514.094" y="-354.3" font-family="Times,serif" font-size="14.00">reset_password_sent_at :datetime</text>
<text text-anchor="start" x="514.094" y="-340.3" font-family="Times,serif" font-size="14.00">remember_created_at :datetime</text>
<text text-anchor="start" x="514.094" y="-326.3" font-family="Times,serif" font-size="14.00">sign_in_count :integer</text>
<text text-anchor="start" x="514.094" y="-312.3" font-family="Times,serif" font-size="14.00">current_sign_in_at :datetime</text>
<text text-anchor="start" x="514.094" y="-298.3" font-family="Times,serif" font-size="14.00">last_sign_in_at :datetime</text>
<text text-anchor="start" x="514.094" y="-284.3" font-family="Times,serif" font-size="14.00">current_sign_in_ip :string</text>
<text text-anchor="start" x="514.094" y="-270.3" font-family="Times,serif" font-size="14.00">last_sign_in_ip :string</text>
<text text-anchor="start" x="514.094" y="-256.3" font-family="Times,serif" font-size="14.00">created_at :datetime</text>
<text text-anchor="start" x="514.094" y="-242.3" font-family="Times,serif" font-size="14.00">updated_at :datetime</text>
<text text-anchor="start" x="514.094" y="-228.3" font-family="Times,serif" font-size="14.00">name :string</text>
<text text-anchor="start" x="514.094" y="-214.3" font-family="Times,serif" font-size="14.00">number :string</text>
<text text-anchor="start" x="514.094" y="-200.3" font-family="Times,serif" font-size="14.00">idm :string</text>
<text text-anchor="start" x="514.094" y="-186.3" font-family="Times,serif" font-size="14.00">role_id :integer</text>
<text text-anchor="start" x="514.094" y="-172.3" font-family="Times,serif" font-size="14.00">seminar_id :integer</text>
</g>
<!-- Role&#45;&gt;User -->
<g id="edge14" class="edge"><title>Role&#45;&gt;User</title>
<path fill="none" stroke="#33b9ac" d="M693.198,-477.152C689.925,-470.606 686.482,-463.719 682.932,-456.62"/>
<ellipse fill="none" stroke="#33b9ac" cx="695.064" cy="-480.884" rx="4.00002" ry="4.00002"/>
<polygon fill="#33b9ac" stroke="#33b9ac" points="682.856,-456.467 682.408,-445.51 680.619,-451.995 678.383,-447.523 678.383,-447.523 678.383,-447.523 680.619,-451.995 674.358,-449.535 682.856,-456.467 682.856,-456.467"/>
</g>
<!-- Seminar -->
<g id="node9" class="node"><title>Seminar</title>
<path fill="none" stroke="black" d="M473.867,-491.5C473.867,-491.5 582.877,-491.5 582.877,-491.5 588.877,-491.5 594.877,-497.5 594.877,-503.5 594.877,-503.5 594.877,-565.5 594.877,-565.5 594.877,-571.5 588.877,-577.5 582.877,-577.5 582.877,-577.5 473.867,-577.5 473.867,-577.5 467.867,-577.5 461.867,-571.5 461.867,-565.5 461.867,-565.5 461.867,-503.5 461.867,-503.5 461.867,-497.5 467.867,-491.5 473.867,-491.5"/>
<text text-anchor="middle" x="528.372" y="-562.3" font-family="Times,serif" font-size="14.00">Seminar</text>
<polyline fill="none" stroke="black" points="461.867,-555.5 594.877,-555.5 "/>
<text text-anchor="start" x="469.867" y="-540.3" font-family="Times,serif" font-size="14.00">id :integer</text>
<text text-anchor="start" x="469.867" y="-526.3" font-family="Times,serif" font-size="14.00">name :string</text>
<text text-anchor="start" x="469.867" y="-512.3" font-family="Times,serif" font-size="14.00">created_at :datetime</text>
<text text-anchor="start" x="469.867" y="-498.3" font-family="Times,serif" font-size="14.00">updated_at :datetime</text>
</g>
<!-- Seminar&#45;&gt;User -->
<g id="edge16" class="edge"><title>Seminar&#45;&gt;User</title>
<path fill="none" stroke="#6d9b8e" d="M546.082,-483.47C549.182,-474.712 552.545,-465.212 556.047,-455.318"/>
<ellipse fill="none" stroke="#6d9b8e" cx="544.66" cy="-487.486" rx="4.00001" ry="4.00001"/>
<ellipse fill="#6d9b8e" stroke="#6d9b8e" cx="557.416" cy="-451.452" rx="4.00001" ry="4.00001"/>
</g>
<!-- User&#45;&gt;Assign -->
<g id="edge21" class="edge"><title>User&#45;&gt;Assign</title>
<path fill="none" stroke="#a30536" d="M499.615,-208.827C466.158,-179.088 430.465,-147.36 401.188,-121.336"/>
<ellipse fill="none" stroke="#a30536" cx="502.922" cy="-211.767" rx="4.00002" ry="4.00002"/>
<polygon fill="#a30536" stroke="#a30536" points="400.973,-121.145 396.489,-111.138 397.236,-117.824 393.499,-114.502 393.499,-114.502 393.499,-114.502 397.236,-117.824 390.509,-117.865 400.973,-121.145 400.973,-121.145"/>
</g>
<!-- User&#45;&gt;History -->
<g id="edge20" class="edge"><title>User&#45;&gt;History</title>
<path fill="none" stroke="#035dfa" d="M576.239,-157.195C574.863,-150.845 573.512,-144.608 572.201,-138.559"/>
<ellipse fill="none" stroke="#035dfa" cx="577.126" cy="-161.287" rx="4.00001" ry="4.00001"/>
<polygon fill="#035dfa" stroke="#035dfa" points="572.155,-138.345 574.436,-127.619 571.096,-133.458 570.038,-128.572 570.038,-128.572 570.038,-128.572 571.096,-133.458 565.64,-129.525 572.155,-138.345 572.155,-138.345"/>
</g>
<!-- User&#45;&gt;Status -->
<g id="edge19" class="edge"><title>User&#45;&gt;Status</title>
<path fill="none" stroke="#7e8668" d="M679.186,-157.715C683.63,-148.44 687.962,-139.4 692.067,-130.832"/>
<ellipse fill="none" stroke="#7e8668" cx="677.329" cy="-161.589" rx="4.00002" ry="4.00002"/>
<polygon fill="#7e8668" stroke="#7e8668" points="692.106,-130.751 700.485,-123.677 694.267,-126.242 696.427,-121.733 696.427,-121.733 696.427,-121.733 694.267,-126.242 692.369,-119.788 692.106,-130.751 692.106,-130.751"/>
</g>
<!-- ActiveRecord::Base -->
<g id="node12" class="node"><title>ActiveRecord::Base</title>
<ellipse fill="none" stroke="black" cx="481.372" cy="-657.5" rx="81.1422" ry="18"/>
<text text-anchor="middle" x="481.372" y="-653.3" font-family="Times,serif" font-size="14.00">ActiveRecord::Base</text>
</g>
<!-- ActiveRecord::Base&#45;&gt;Acquisition -->
<g id="edge1" class="edge"><title>ActiveRecord::Base&#45;&gt;Acquisition</title>
<path fill="none" stroke="black" d="M448.302,-641.016C431.583,-633.822 410.772,-625.813 391.372,-621 321.06,-603.556 115.686,-638.979 67.372,-585 -48.4251,-455.624 13.3184,-227.075 51.0736,-121.653"/>
</g>
<!-- ActiveRecord::Base&#45;&gt;Assign -->
<g id="edge2" class="edge"><title>ActiveRecord::Base&#45;&gt;Assign</title>
<path fill="none" stroke="black" d="M447.843,-640.979C431.188,-633.866 410.567,-625.938 391.372,-621 330.616,-605.371 152.807,-632.104 111.372,-585 -15.7193,-440.522 183.687,-213.742 285.035,-114.622"/>
</g>
<!-- ActiveRecord::Base&#45;&gt;Category -->
<g id="edge6" class="edge"><title>ActiveRecord::Base&#45;&gt;Category</title>
<path fill="none" stroke="black" d="M445.341,-641.299C429.009,-634.666 409.365,-627.041 391.372,-621 334.944,-602.054 316.533,-609.693 262.372,-585 257.546,-582.8 252.678,-580.31 247.866,-577.648"/>
</g>
<!-- ActiveRecord::Base&#45;&gt;History -->
<g id="edge7" class="edge"><title>ActiveRecord::Base&#45;&gt;History</title>
<path fill="none" stroke="black" d="M556.098,-650.349C640.593,-641.662 770.353,-622.493 800.372,-585 873.615,-493.524 838.997,-313.564 719.372,-165 696.934,-137.134 678.123,-147.285 647.372,-129 644.474,-127.277 641.547,-125.493 638.609,-123.664"/>
</g>
<!-- ActiveRecord::Base&#45;&gt;Level -->
<g id="edge9" class="edge"><title>ActiveRecord::Base&#45;&gt;Level</title>
<path fill="none" stroke="black" d="M461.788,-639.929C444.96,-625.69 419.807,-604.407 396.59,-584.762"/>
</g>
<!-- ActiveRecord::Base&#45;&gt;Mission -->
<g id="edge13" class="edge"><title>ActiveRecord::Base&#45;&gt;Mission</title>
<path fill="none" stroke="black" d="M474.336,-639.502C468.386,-625.045 459.686,-603.714 452.372,-585 434.913,-540.33 432.305,-528.482 414.372,-484 398.03,-443.466 378.512,-398.198 363.348,-363.656"/>
</g>
<!-- ActiveRecord::Base&#45;&gt;Role -->
<g id="edge15" class="edge"><title>ActiveRecord::Base&#45;&gt;Role</title>
<path fill="none" stroke="black" d="M517.187,-641.335C549.134,-627.514 596.964,-606.095 637.372,-585 641.724,-582.728 646.167,-580.336 650.626,-577.88"/>
</g>
<!-- ActiveRecord::Base&#45;&gt;Seminar -->
<g id="edge17" class="edge"><title>ActiveRecord::Base&#45;&gt;Seminar</title>
<path fill="none" stroke="black" d="M488.006,-639.42C494.231,-623.395 503.793,-598.779 512.048,-577.527"/>
</g>
<!-- ActiveRecord::Base&#45;&gt;Status -->
<g id="edge18" class="edge"><title>ActiveRecord::Base&#45;&gt;Status</title>
<path fill="none" stroke="black" d="M558.612,-651.868C651.295,-644.511 798.489,-626.481 832.372,-585 878.606,-528.399 883.037,-397.995 793.372,-165 787.607,-150.019 779.095,-135.164 769.976,-121.68"/>
</g>
<!-- ActiveRecord::Base&#45;&gt;User -->
<g id="edge22" class="edge"><title>ActiveRecord::Base&#45;&gt;User</title>
<path fill="none" stroke="black" d="M527.473,-642.604C554.988,-631.683 587.721,-613.462 604.372,-585 628.215,-544.244 634.389,-494.025 632.929,-447.561"/>
</g>
</g>
</svg>
