<?xml version="1.0" encoding="UTF-8" standalone="no"?>
<!DOCTYPE svg PUBLIC "-//W3C//DTD SVG 1.1//EN"
 "http://www.w3.org/Graphics/SVG/1.1/DTD/svg11.dtd">
<!-- Generated by graphviz version 2.38.0 (20140413.2041)
 -->
<!-- Title: models_diagram Pages: 1 -->
<svg width="623pt" height="674pt"
 viewBox="0.00 0.00 622.67 674.00" xmlns="http://www.w3.org/2000/svg" xmlns:xlink="http://www.w3.org/1999/xlink">
<g id="graph0" class="graph" transform="scale(1 1) rotate(0) translate(4 670)">
<title>models_diagram</title>
<polygon fill="white" stroke="none" points="-4,4 -4,-670 618.668,-670 618.668,4 -4,4"/>
<!-- _diagram_info -->
<g id="node1" class="node"><title>_diagram_info</title>
<text text-anchor="start" x="24.9405" y="-651.6" font-family="Times,serif" font-size="13.00">Models diagram</text>
<text text-anchor="start" x="24.9405" y="-638.6" font-family="Times,serif" font-size="13.00">Date: Sep 26 2014 &#45; 21:02</text>
<text text-anchor="start" x="24.9405" y="-625.6" font-family="Times,serif" font-size="13.00">Migration version: 20140926114154</text>
<text text-anchor="start" x="24.9405" y="-612.6" font-family="Times,serif" font-size="13.00">Generated by RailRoady 1.1.2</text>
<text text-anchor="start" x="24.9405" y="-599.6" font-family="Times,serif" font-size="13.00">http://railroady.prestonlee.com</text>
</g>
<!-- Acquisition -->
<g id="node2" class="node"><title>Acquisition</title>
<path fill="none" stroke="black" d="M69.8848,-0.5C69.8848,-0.5 178.896,-0.5 178.896,-0.5 184.896,-0.5 190.896,-6.5 190.896,-12.5 190.896,-12.5 190.896,-102.5 190.896,-102.5 190.896,-108.5 184.896,-114.5 178.896,-114.5 178.896,-114.5 69.8848,-114.5 69.8848,-114.5 63.8848,-114.5 57.8848,-108.5 57.8848,-102.5 57.8848,-102.5 57.8848,-12.5 57.8848,-12.5 57.8848,-6.5 63.8848,-0.5 69.8848,-0.5"/>
<text text-anchor="middle" x="124.39" y="-99.3" font-family="Times,serif" font-size="14.00">Acquisition</text>
<polyline fill="none" stroke="black" points="57.8848,-92.5 190.896,-92.5 "/>
<text text-anchor="start" x="65.8848" y="-77.3" font-family="Times,serif" font-size="14.00">id :integer</text>
<text text-anchor="start" x="65.8848" y="-63.3" font-family="Times,serif" font-size="14.00">mission_id :integer</text>
<text text-anchor="start" x="65.8848" y="-49.3" font-family="Times,serif" font-size="14.00">category_id :integer</text>
<text text-anchor="start" x="65.8848" y="-35.3" font-family="Times,serif" font-size="14.00">experiences :integer</text>
<text text-anchor="start" x="65.8848" y="-21.3" font-family="Times,serif" font-size="14.00">created_at :datetime</text>
<text text-anchor="start" x="65.8848" y="-7.3" font-family="Times,serif" font-size="14.00">updated_at :datetime</text>
</g>
<!-- Category -->
<g id="node3" class="node"><title>Category</title>
<path fill="none" stroke="black" d="M69.8848,-463.5C69.8848,-463.5 178.896,-463.5 178.896,-463.5 184.896,-463.5 190.896,-469.5 190.896,-475.5 190.896,-475.5 190.896,-537.5 190.896,-537.5 190.896,-543.5 184.896,-549.5 178.896,-549.5 178.896,-549.5 69.8848,-549.5 69.8848,-549.5 63.8848,-549.5 57.8848,-543.5 57.8848,-537.5 57.8848,-537.5 57.8848,-475.5 57.8848,-475.5 57.8848,-469.5 63.8848,-463.5 69.8848,-463.5"/>
<text text-anchor="middle" x="124.39" y="-534.3" font-family="Times,serif" font-size="14.00">Category</text>
<polyline fill="none" stroke="black" points="57.8848,-527.5 190.896,-527.5 "/>
<text text-anchor="start" x="65.8848" y="-512.3" font-family="Times,serif" font-size="14.00">id :integer</text>
<text text-anchor="start" x="65.8848" y="-498.3" font-family="Times,serif" font-size="14.00">name :string</text>
<text text-anchor="start" x="65.8848" y="-484.3" font-family="Times,serif" font-size="14.00">created_at :datetime</text>
<text text-anchor="start" x="65.8848" y="-470.3" font-family="Times,serif" font-size="14.00">updated_at :datetime</text>
</g>
<!-- Category&#45;&gt;Acquisition -->
<g id="edge3" class="edge"><title>Category&#45;&gt;Acquisition</title>
<path fill="none" stroke="#975062" d="M124.39,-455.337C124.39,-374.392 124.39,-214.944 124.39,-124.75"/>
<ellipse fill="none" stroke="#975062" cx="124.39" cy="-459.447" rx="4" ry="4"/>
<polygon fill="#975062" stroke="#975062" points="124.39,-124.639 128.89,-114.639 124.39,-119.639 124.39,-114.639 124.39,-114.639 124.39,-114.639 124.39,-119.639 119.89,-114.639 124.39,-124.639 124.39,-124.639"/>
</g>
<!-- Mission -->
<g id="node5" class="node"><title>Mission</title>
<path fill="none" stroke="black" d="M192.885,-228.5C192.885,-228.5 301.896,-228.5 301.896,-228.5 307.896,-228.5 313.896,-234.5 313.896,-240.5 313.896,-240.5 313.896,-330.5 313.896,-330.5 313.896,-336.5 307.896,-342.5 301.896,-342.5 301.896,-342.5 192.885,-342.5 192.885,-342.5 186.885,-342.5 180.885,-336.5 180.885,-330.5 180.885,-330.5 180.885,-240.5 180.885,-240.5 180.885,-234.5 186.885,-228.5 192.885,-228.5"/>
<text text-anchor="middle" x="247.39" y="-327.3" font-family="Times,serif" font-size="14.00">Mission</text>
<polyline fill="none" stroke="black" points="180.885,-320.5 313.896,-320.5 "/>
<text text-anchor="start" x="188.885" y="-305.3" font-family="Times,serif" font-size="14.00">id :integer</text>
<text text-anchor="start" x="188.885" y="-291.3" font-family="Times,serif" font-size="14.00">description :text</text>
<text text-anchor="start" x="188.885" y="-277.3" font-family="Times,serif" font-size="14.00">category_id :integer</text>
<text text-anchor="start" x="188.885" y="-263.3" font-family="Times,serif" font-size="14.00">level_id :integer</text>
<text text-anchor="start" x="188.885" y="-249.3" font-family="Times,serif" font-size="14.00">created_at :datetime</text>
<text text-anchor="start" x="188.885" y="-235.3" font-family="Times,serif" font-size="14.00">updated_at :datetime</text>
</g>
<!-- Category&#45;&gt;Mission -->
<g id="edge2" class="edge"><title>Category&#45;&gt;Mission</title>
<path fill="none" stroke="#df05ed" d="M152.047,-456.258C169.425,-425.317 192.038,-385.054 210.88,-351.506"/>
<ellipse fill="none" stroke="#df05ed" cx="150.065" cy="-459.787" rx="4.00002" ry="4.00002"/>
<polygon fill="#df05ed" stroke="#df05ed" points="210.937,-351.404 219.758,-344.888 213.386,-347.044 215.834,-342.685 215.834,-342.685 215.834,-342.685 213.386,-347.044 211.911,-340.481 210.937,-351.404 210.937,-351.404"/>
</g>
<!-- Level -->
<g id="node4" class="node"><title>Level</title>
<path fill="none" stroke="black" d="M220.885,-456.5C220.885,-456.5 329.896,-456.5 329.896,-456.5 335.896,-456.5 341.896,-462.5 341.896,-468.5 341.896,-468.5 341.896,-544.5 341.896,-544.5 341.896,-550.5 335.896,-556.5 329.896,-556.5 329.896,-556.5 220.885,-556.5 220.885,-556.5 214.885,-556.5 208.885,-550.5 208.885,-544.5 208.885,-544.5 208.885,-468.5 208.885,-468.5 208.885,-462.5 214.885,-456.5 220.885,-456.5"/>
<text text-anchor="middle" x="275.39" y="-541.3" font-family="Times,serif" font-size="14.00">Level</text>
<polyline fill="none" stroke="black" points="208.885,-534.5 341.896,-534.5 "/>
<text text-anchor="start" x="216.885" y="-519.3" font-family="Times,serif" font-size="14.00">id :integer</text>
<text text-anchor="start" x="216.885" y="-505.3" font-family="Times,serif" font-size="14.00">value :integer</text>
<text text-anchor="start" x="216.885" y="-491.3" font-family="Times,serif" font-size="14.00">sufficiencies :integer</text>
<text text-anchor="start" x="216.885" y="-477.3" font-family="Times,serif" font-size="14.00">created_at :datetime</text>
<text text-anchor="start" x="216.885" y="-463.3" font-family="Times,serif" font-size="14.00">updated_at :datetime</text>
</g>
<!-- Level&#45;&gt;Mission -->
<g id="edge5" class="edge"><title>Level&#45;&gt;Mission</title>
<path fill="none" stroke="#2468b2" d="M268.073,-448.268C264.337,-419.051 259.773,-383.349 255.883,-352.924"/>
<ellipse fill="none" stroke="#2468b2" cx="268.599" cy="-452.384" rx="4.00001" ry="4.00001"/>
<polygon fill="#2468b2" stroke="#2468b2" points="255.86,-352.745 259.055,-342.255 255.226,-347.785 254.592,-342.826 254.592,-342.826 254.592,-342.826 255.226,-347.785 250.128,-343.396 255.86,-352.745 255.86,-352.745"/>
</g>
<!-- Mission&#45;&gt;Acquisition -->
<g id="edge7" class="edge"><title>Mission&#45;&gt;Acquisition</title>
<path fill="none" stroke="#e55fa7" d="M212.776,-220.901C196.242,-190.521 176.48,-154.21 159.839,-123.634"/>
<ellipse fill="none" stroke="#e55fa7" cx="214.916" cy="-224.831" rx="4.00002" ry="4.00002"/>
<polygon fill="#e55fa7" stroke="#e55fa7" points="159.789,-123.542 158.961,-112.607 157.399,-119.15 155.009,-114.758 155.009,-114.758 155.009,-114.758 157.399,-119.15 151.056,-116.909 159.789,-123.542 159.789,-123.542"/>
</g>
<!-- Role -->
<g id="node6" class="node"><title>Role</title>
<path fill="none" stroke="black" d="M410.885,-463.5C410.885,-463.5 519.896,-463.5 519.896,-463.5 525.896,-463.5 531.896,-469.5 531.896,-475.5 531.896,-475.5 531.896,-537.5 531.896,-537.5 531.896,-543.5 525.896,-549.5 519.896,-549.5 519.896,-549.5 410.885,-549.5 410.885,-549.5 404.885,-549.5 398.885,-543.5 398.885,-537.5 398.885,-537.5 398.885,-475.5 398.885,-475.5 398.885,-469.5 404.885,-463.5 410.885,-463.5"/>
<text text-anchor="middle" x="465.39" y="-534.3" font-family="Times,serif" font-size="14.00">Role</text>
<polyline fill="none" stroke="black" points="398.885,-527.5 531.896,-527.5 "/>
<text text-anchor="start" x="406.885" y="-512.3" font-family="Times,serif" font-size="14.00">id :integer</text>
<text text-anchor="start" x="406.885" y="-498.3" font-family="Times,serif" font-size="14.00">name :string</text>
<text text-anchor="start" x="406.885" y="-484.3" font-family="Times,serif" font-size="14.00">created_at :datetime</text>
<text text-anchor="start" x="406.885" y="-470.3" font-family="Times,serif" font-size="14.00">updated_at :datetime</text>
</g>
<!-- User -->
<g id="node7" class="node"><title>User</title>
<path fill="none" stroke="black" d="M422.112,-151.5C422.112,-151.5 602.668,-151.5 602.668,-151.5 608.668,-151.5 614.668,-157.5 614.668,-163.5 614.668,-163.5 614.668,-407.5 614.668,-407.5 614.668,-413.5 608.668,-419.5 602.668,-419.5 602.668,-419.5 422.112,-419.5 422.112,-419.5 416.112,-419.5 410.112,-413.5 410.112,-407.5 410.112,-407.5 410.112,-163.5 410.112,-163.5 410.112,-157.5 416.112,-151.5 422.112,-151.5"/>
<text text-anchor="middle" x="512.39" y="-404.3" font-family="Times,serif" font-size="14.00">User</text>
<polyline fill="none" stroke="black" points="410.112,-397.5 614.668,-397.5 "/>
<text text-anchor="start" x="418.112" y="-382.3" font-family="Times,serif" font-size="14.00">id :integer</text>
<text text-anchor="start" x="418.112" y="-368.3" font-family="Times,serif" font-size="14.00">email :string</text>
<text text-anchor="start" x="418.112" y="-354.3" font-family="Times,serif" font-size="14.00">encrypted_password :string</text>
<text text-anchor="start" x="418.112" y="-340.3" font-family="Times,serif" font-size="14.00">reset_password_token :string</text>
<text text-anchor="start" x="418.112" y="-326.3" font-family="Times,serif" font-size="14.00">reset_password_sent_at :datetime</text>
<text text-anchor="start" x="418.112" y="-312.3" font-family="Times,serif" font-size="14.00">remember_created_at :datetime</text>
<text text-anchor="start" x="418.112" y="-298.3" font-family="Times,serif" font-size="14.00">sign_in_count :integer</text>
<text text-anchor="start" x="418.112" y="-284.3" font-family="Times,serif" font-size="14.00">current_sign_in_at :datetime</text>
<text text-anchor="start" x="418.112" y="-270.3" font-family="Times,serif" font-size="14.00">last_sign_in_at :datetime</text>
<text text-anchor="start" x="418.112" y="-256.3" font-family="Times,serif" font-size="14.00">current_sign_in_ip :string</text>
<text text-anchor="start" x="418.112" y="-242.3" font-family="Times,serif" font-size="14.00">last_sign_in_ip :string</text>
<text text-anchor="start" x="418.112" y="-228.3" font-family="Times,serif" font-size="14.00">created_at :datetime</text>
<text text-anchor="start" x="418.112" y="-214.3" font-family="Times,serif" font-size="14.00">updated_at :datetime</text>
<text text-anchor="start" x="418.112" y="-200.3" font-family="Times,serif" font-size="14.00">name :string</text>
<text text-anchor="start" x="418.112" y="-186.3" font-family="Times,serif" font-size="14.00">number :string</text>
<text text-anchor="start" x="418.112" y="-172.3" font-family="Times,serif" font-size="14.00">idm :string</text>
<text text-anchor="start" x="418.112" y="-158.3" font-family="Times,serif" font-size="14.00">role_id :integer</text>
</g>
<!-- Role&#45;&gt;User -->
<g id="edge9" class="edge"><title>Role&#45;&gt;User</title>
<path fill="none" stroke="#38a3ec" d="M476.195,-455.156C477.915,-447.139 479.766,-438.517 481.687,-429.563"/>
<ellipse fill="none" stroke="#38a3ec" cx="475.292" cy="-459.364" rx="4.00001" ry="4.00001"/>
<polygon fill="#38a3ec" stroke="#38a3ec" points="481.699,-429.508 488.197,-420.675 482.748,-424.62 483.797,-419.731 483.797,-419.731 483.797,-419.731 482.748,-424.62 479.397,-418.787 481.699,-429.508 481.699,-429.508"/>
</g>
<!-- ActiveRecord::Base -->
<g id="node8" class="node"><title>ActiveRecord::Base</title>
<ellipse fill="none" stroke="black" cx="323.39" cy="-629.5" rx="81.1422" ry="18"/>
<text text-anchor="middle" x="323.39" y="-625.3" font-family="Times,serif" font-size="14.00">ActiveRecord::Base</text>
</g>
<!-- ActiveRecord::Base&#45;&gt;Acquisition -->
<g id="edge1" class="edge"><title>ActiveRecord::Base&#45;&gt;Acquisition</title>
<path fill="none" stroke="black" d="M288.46,-613.183C271.737,-606.288 251.282,-598.485 232.39,-593 152.367,-569.765 101.354,-621.331 48.3902,-557 -57.4728,-428.417 35.9856,-215.633 90.9758,-114.813"/>
</g>
<!-- ActiveRecord::Base&#45;&gt;Category -->
<g id="edge4" class="edge"><title>ActiveRecord::Base&#45;&gt;Category</title>
<path fill="none" stroke="black" d="M294.536,-612.513C269.217,-598.332 231.528,-576.846 199.39,-557 195.541,-554.623 191.601,-552.149 187.641,-549.631"/>
</g>
<!-- ActiveRecord::Base&#45;&gt;Level -->
<g id="edge6" class="edge"><title>ActiveRecord::Base&#45;&gt;Level</title>
<path fill="none" stroke="black" d="M316.615,-611.42C310.955,-597.154 302.595,-576.079 294.88,-556.63"/>
</g>
<!-- ActiveRecord::Base&#45;&gt;Mission -->
<g id="edge8" class="edge"><title>ActiveRecord::Base&#45;&gt;Mission</title>
<path fill="none" stroke="black" d="M332.181,-611.412C338.943,-597.255 347.729,-576.387 351.39,-557 359.719,-512.891 363.587,-499.2 351.39,-456 339.805,-414.966 315.194,-374.076 292.821,-342.74"/>
</g>
<!-- ActiveRecord::Base&#45;&gt;Role -->
<g id="edge10" class="edge"><title>ActiveRecord::Base&#45;&gt;Role</title>
<path fill="none" stroke="black" d="M342.837,-611.929C361.598,-595.942 390.78,-571.076 415.961,-549.619"/>
</g>
<!-- ActiveRecord::Base&#45;&gt;User -->
<g id="edge11" class="edge"><title>ActiveRecord::Base&#45;&gt;User</title>
<path fill="none" stroke="black" d="M402.045,-624.902C450.727,-618.113 509.786,-600.627 541.39,-557 569.722,-517.89 570.796,-466.869 561.865,-419.691"/>
</g>
</g>
</svg>
