<?xml version="1.0" encoding="UTF-8" standalone="no"?>
<!DOCTYPE svg PUBLIC "-//W3C//DTD SVG 1.1//EN"
 "http://www.w3.org/Graphics/SVG/1.1/DTD/svg11.dtd">
<!-- Generated by graphviz version 2.38.0 (20140413.2041)
 -->
<!-- Title: models_diagram Pages: 1 -->
<svg width="554pt" height="297pt"
 viewBox="0.00 0.00 553.71 297.00" xmlns="http://www.w3.org/2000/svg" xmlns:xlink="http://www.w3.org/1999/xlink">
<g id="graph0" class="graph" transform="scale(1 1) rotate(0) translate(4 293)">
<title>models_diagram</title>
<polygon fill="white" stroke="none" points="-4,4 -4,-293 549.708,-293 549.708,4 -4,4"/>
<!-- _diagram_info -->
<g id="node1" class="node"><title>_diagram_info</title>
<text text-anchor="start" x="25.9252" y="-274.6" font-family="Times,serif" font-size="13.00">Models diagram</text>
<text text-anchor="start" x="25.9252" y="-261.6" font-family="Times,serif" font-size="13.00">Date: Oct 08 2014 &#45; 22:40</text>
<text text-anchor="start" x="25.9252" y="-248.6" font-family="Times,serif" font-size="13.00">Migration version: 20141001102406</text>
<text text-anchor="start" x="25.9252" y="-235.6" font-family="Times,serif" font-size="13.00">Generated by RailRoady 1.1.2</text>
<text text-anchor="start" x="25.9252" y="-222.6" font-family="Times,serif" font-size="13.00">http://railroady.prestonlee.com</text>
</g>
<!-- Acquisition -->
<g id="node2" class="node"><title>Acquisition</title>
<ellipse fill="none" stroke="black" cx="51.3749" cy="-18" rx="51.2501" ry="18"/>
<text text-anchor="middle" x="51.3749" y="-13.8" font-family="Times,serif" font-size="14.00">Acquisition</text>
</g>
<!-- Assign -->
<g id="node3" class="node"><title>Assign</title>
<ellipse fill="none" stroke="black" cx="232.375" cy="-18" rx="34.8545" ry="18"/>
<text text-anchor="middle" x="232.375" y="-13.8" font-family="Times,serif" font-size="14.00">Assign</text>
</g>
<!-- Category -->
<g id="node4" class="node"><title>Category</title>
<ellipse fill="none" stroke="black" cx="141.375" cy="-162" rx="42.5456" ry="18"/>
<text text-anchor="middle" x="141.375" y="-157.8" font-family="Times,serif" font-size="14.00">Category</text>
</g>
<!-- Category&#45;&gt;Acquisition -->
<g id="edge4" class="edge"><title>Category&#45;&gt;Acquisition</title>
<path fill="none" stroke="#b9d68f" d="M126.538,-137.591C110.305,-111.979 84.3671,-71.0543 67.6033,-44.6048"/>
<ellipse fill="none" stroke="#b9d68f" cx="128.733" cy="-141.054" rx="4.00002" ry="4.00002"/>
<polygon fill="#b9d68f" stroke="#b9d68f" points="67.4407,-44.3482 65.8882,-33.4927 64.764,-40.125 62.0873,-35.9017 62.0873,-35.9017 62.0873,-35.9017 64.764,-40.125 58.2864,-38.3108 67.4407,-44.3482 67.4407,-44.3482"/>
</g>
<!-- Mission -->
<g id="node7" class="node"><title>Mission</title>
<ellipse fill="none" stroke="black" cx="232.375" cy="-90" rx="38.7215" ry="18"/>
<text text-anchor="middle" x="232.375" y="-85.8" font-family="Times,serif" font-size="14.00">Mission</text>
</g>
<!-- Category&#45;&gt;Mission -->
<g id="edge3" class="edge"><title>Category&#45;&gt;Mission</title>
<path fill="none" stroke="#cb32ee" d="M167.571,-140.849C179.318,-131.813 193.173,-121.155 205.051,-112.019"/>
<ellipse fill="none" stroke="#cb32ee" cx="164.291" cy="-143.372" rx="4.00002" ry="4.00002"/>
<polygon fill="#cb32ee" stroke="#cb32ee" points="205.365,-111.777 216.035,-109.246 209.328,-108.728 213.291,-105.68 213.291,-105.68 213.291,-105.68 209.328,-108.728 210.548,-102.113 205.365,-111.777 205.365,-111.777"/>
</g>
<!-- Status -->
<g id="node10" class="node"><title>Status</title>
<ellipse fill="none" stroke="black" cx="428.375" cy="-18" rx="31.9567" ry="18"/>
<text text-anchor="middle" x="428.375" y="-13.8" font-family="Times,serif" font-size="14.00">Status</text>
</g>
<!-- Category&#45;&gt;Status -->
<g id="edge5" class="edge"><title>Category&#45;&gt;Status</title>
<path fill="none" stroke="#1b9661" d="M181.748,-147.737C209.923,-137.969 248.109,-123.7 280.375,-108 323.865,-86.8388 371.312,-57.0078 400.46,-37.8353"/>
<ellipse fill="none" stroke="#1b9661" cx="177.863" cy="-149.071" rx="4.00001" ry="4.00001"/>
<polygon fill="#1b9661" stroke="#1b9661" points="400.557,-37.7711 411.379,-36.0005 404.726,-35.01 408.894,-32.2489 408.894,-32.2489 408.894,-32.2489 404.726,-35.01 406.409,-28.4972 400.557,-37.7711 400.557,-37.7711"/>
</g>
<!-- History -->
<g id="node5" class="node"><title>History</title>
<ellipse fill="none" stroke="black" cx="342.375" cy="-18" rx="36.775" ry="18"/>
<text text-anchor="middle" x="342.375" y="-13.8" font-family="Times,serif" font-size="14.00">History</text>
</g>
<!-- Level -->
<g id="node6" class="node"><title>Level</title>
<ellipse fill="none" stroke="black" cx="232.375" cy="-162" rx="30.4775" ry="18"/>
<text text-anchor="middle" x="232.375" y="-157.8" font-family="Times,serif" font-size="14.00">Level</text>
</g>
<!-- Level&#45;&gt;Mission -->
<g id="edge8" class="edge"><title>Level&#45;&gt;Mission</title>
<path fill="none" stroke="#0e143a" d="M232.375,-135.64C232.375,-130.063 232.375,-124.132 232.375,-118.476"/>
<ellipse fill="none" stroke="#0e143a" cx="232.375" cy="-139.697" rx="4" ry="4"/>
<polygon fill="#0e143a" stroke="#0e143a" points="232.375,-118.104 236.875,-108.104 232.375,-113.104 232.375,-108.104 232.375,-108.104 232.375,-108.104 232.375,-113.104 227.875,-108.104 232.375,-118.104 232.375,-118.104"/>
</g>
<!-- Mission&#45;&gt;Acquisition -->
<g id="edge10" class="edge"><title>Mission&#45;&gt;Acquisition</title>
<path fill="none" stroke="#6d4f34" d="M196.163,-74.9954C166.768,-63.627 125.251,-47.571 94.2072,-35.565"/>
<ellipse fill="none" stroke="#6d4f34" cx="199.964" cy="-76.4654" rx="4.00001" ry="4.00001"/>
<polygon fill="#6d4f34" stroke="#6d4f34" points="93.8513,-35.4274 86.1477,-27.6232 89.1879,-33.6239 84.5245,-31.8203 84.5245,-31.8203 84.5245,-31.8203 89.1879,-33.6239 82.9013,-36.0174 93.8513,-35.4274 93.8513,-35.4274"/>
</g>
<!-- Mission&#45;&gt;Assign -->
<g id="edge12" class="edge"><title>Mission&#45;&gt;Assign</title>
<path fill="none" stroke="#f25a10" d="M232.375,-63.6398C232.375,-58.0629 232.375,-52.1319 232.375,-46.4761"/>
<ellipse fill="none" stroke="#f25a10" cx="232.375" cy="-67.6966" rx="4" ry="4"/>
<polygon fill="#f25a10" stroke="#f25a10" points="232.375,-46.1043 236.875,-36.1043 232.375,-41.1043 232.375,-36.1043 232.375,-36.1043 232.375,-36.1043 232.375,-41.1043 227.875,-36.1044 232.375,-46.1043 232.375,-46.1043"/>
</g>
<!-- Mission&#45;&gt;History -->
<g id="edge11" class="edge"><title>Mission&#45;&gt;History</title>
<path fill="none" stroke="#f29dec" d="M261.486,-70.4744C277.051,-60.5696 296.2,-48.3842 311.958,-38.3561"/>
<ellipse fill="none" stroke="#f29dec" cx="257.745" cy="-72.8552" rx="4.00002" ry="4.00002"/>
<polygon fill="#f29dec" stroke="#f29dec" points="312.355,-38.1033 323.208,-36.531 316.574,-35.4189 320.792,-32.7345 320.792,-32.7345 320.792,-32.7345 316.574,-35.4189 318.376,-28.938 312.355,-38.1033 312.355,-38.1033"/>
</g>
<!-- Role -->
<g id="node8" class="node"><title>Role</title>
<ellipse fill="none" stroke="black" cx="481.375" cy="-162" rx="27" ry="18"/>
<text text-anchor="middle" x="481.375" y="-157.8" font-family="Times,serif" font-size="14.00">Role</text>
</g>
<!-- User -->
<g id="node11" class="node"><title>User</title>
<ellipse fill="none" stroke="black" cx="404.375" cy="-90" rx="27" ry="18"/>
<text text-anchor="middle" x="404.375" y="-85.8" font-family="Times,serif" font-size="14.00">User</text>
</g>
<!-- Role&#45;&gt;User -->
<g id="edge14" class="edge"><title>Role&#45;&gt;User</title>
<path fill="none" stroke="#6679f6" d="M459.805,-141.391C449.626,-132.138 437.477,-121.093 427.15,-111.705"/>
<ellipse fill="none" stroke="#6679f6" cx="462.833" cy="-144.144" rx="4.00002" ry="4.00002"/>
<polygon fill="#6679f6" stroke="#6679f6" points="427.07,-111.632 422.698,-101.576 423.371,-108.269 419.671,-104.906 419.671,-104.906 419.671,-104.906 423.371,-108.269 416.644,-108.235 427.07,-111.632 427.07,-111.632"/>
</g>
<!-- Seminar -->
<g id="node9" class="node"><title>Seminar</title>
<ellipse fill="none" stroke="black" cx="358.375" cy="-162" rx="39.6558" ry="18"/>
<text text-anchor="middle" x="358.375" y="-157.8" font-family="Times,serif" font-size="14.00">Seminar</text>
</g>
<!-- Seminar&#45;&gt;User -->
<g id="edge16" class="edge"><title>Seminar&#45;&gt;User</title>
<path fill="none" stroke="#5ce97a" d="M373.678,-137.713C378.751,-129.993 384.389,-121.413 389.435,-113.735"/>
<ellipse fill="none" stroke="#5ce97a" cx="371.473" cy="-141.068" rx="4.00002" ry="4.00002"/>
<ellipse fill="#5ce97a" stroke="#5ce97a" cx="391.672" cy="-110.331" rx="4.00002" ry="4.00002"/>
</g>
<!-- User&#45;&gt;Assign -->
<g id="edge21" class="edge"><title>User&#45;&gt;Assign</title>
<path fill="none" stroke="#ce2f77" d="M374.424,-76.8107C344.831,-64.7671 299.551,-46.3392 268.099,-33.5388"/>
<ellipse fill="none" stroke="#ce2f77" cx="378.184" cy="-78.3409" rx="4.00002" ry="4.00002"/>
<polygon fill="#ce2f77" stroke="#ce2f77" points="268.077,-33.5298 260.511,-25.5922 263.445,-31.645 258.814,-29.7602 258.814,-29.7602 258.814,-29.7602 263.445,-31.645 257.118,-33.9282 268.077,-33.5298 268.077,-33.5298"/>
</g>
<!-- User&#45;&gt;History -->
<g id="edge20" class="edge"><title>User&#45;&gt;History</title>
<path fill="none" stroke="#8e8086" d="M385.903,-68.1451C378.73,-60.0462 370.481,-50.7324 363.106,-42.4057"/>
<ellipse fill="none" stroke="#8e8086" cx="388.574" cy="-71.1604" rx="4.00002" ry="4.00002"/>
<polygon fill="#8e8086" stroke="#8e8086" points="362.997,-42.2826 359.735,-31.813 359.681,-38.5396 356.366,-34.7966 356.366,-34.7966 356.366,-34.7966 359.681,-38.5396 352.998,-37.7803 362.997,-42.2826 362.997,-42.2826"/>
</g>
<!-- User&#45;&gt;Status -->
<g id="edge19" class="edge"><title>User&#45;&gt;Status</title>
<path fill="none" stroke="#d5ea0d" d="M412.799,-64.4306C414.879,-58.362 417.118,-51.833 419.231,-45.6698"/>
<ellipse fill="none" stroke="#d5ea0d" cx="411.482" cy="-68.2712" rx="4.00001" ry="4.00001"/>
<polygon fill="#d5ea0d" stroke="#d5ea0d" points="419.375,-45.2485 426.875,-37.2485 420.997,-40.5187 422.619,-35.789 422.619,-35.789 422.619,-35.789 420.997,-40.5187 418.362,-34.3295 419.375,-45.2485 419.375,-45.2485"/>
</g>
<!-- ActiveRecord::Base -->
<g id="node12" class="node"><title>ActiveRecord::Base</title>
<ellipse fill="none" stroke="black" cx="324.375" cy="-252.5" rx="81.1422" ry="18"/>
<text text-anchor="middle" x="324.375" y="-248.3" font-family="Times,serif" font-size="14.00">ActiveRecord::Base</text>
</g>
<!-- ActiveRecord::Base&#45;&gt;Acquisition -->
<g id="edge1" class="edge"><title>ActiveRecord::Base&#45;&gt;Acquisition</title>
<path fill="none" stroke="black" d="M288.933,-236.266C272.274,-229.471 252.017,-221.726 233.375,-216 164.527,-194.855 124.329,-232.826 75.3749,-180 38.3016,-139.995 43.4869,-68.8015 48.2843,-36.184"/>
</g>
<!-- ActiveRecord::Base&#45;&gt;Assign -->
<g id="edge2" class="edge"><title>ActiveRecord::Base&#45;&gt;Assign</title>
<path fill="none" stroke="black" d="M288.442,-236.267C271.855,-229.551 251.795,-221.869 233.375,-216 170.519,-195.972 129.973,-231.998 89.3749,-180 43.5907,-121.361 155.396,-56.6008 207.454,-30.6695"/>
</g>
<!-- ActiveRecord::Base&#45;&gt;Category -->
<g id="edge6" class="edge"><title>ActiveRecord::Base&#45;&gt;Category</title>
<path fill="none" stroke="black" d="M292.079,-235.882C256.885,-218.861 201.21,-191.937 168.29,-176.016"/>
</g>
<!-- ActiveRecord::Base&#45;&gt;History -->
<g id="edge7" class="edge"><title>ActiveRecord::Base&#45;&gt;History</title>
<path fill="none" stroke="black" d="M397.873,-244.581C440.343,-236.379 490.534,-218.567 517.375,-180 557.458,-122.405 443.396,-74.174 440.375,-72 417.453,-55.504 388.802,-40.5851 368.411,-30.81"/>
</g>
<!-- ActiveRecord::Base&#45;&gt;Level -->
<g id="edge9" class="edge"><title>ActiveRecord::Base&#45;&gt;Level</title>
<path fill="none" stroke="black" d="M307.07,-234.854C289.998,-218.431 264.144,-193.561 247.767,-177.807"/>
</g>
<!-- ActiveRecord::Base&#45;&gt;Mission -->
<g id="edge13" class="edge"><title>ActiveRecord::Base&#45;&gt;Mission</title>
<path fill="none" stroke="black" d="M317.006,-234.251C307.501,-212.597 289.966,-174.582 271.375,-144 263.542,-131.114 253.417,-117.426 245.448,-107.189"/>
</g>
<!-- ActiveRecord::Base&#45;&gt;Role -->
<g id="edge15" class="edge"><title>ActiveRecord::Base&#45;&gt;Role</title>
<path fill="none" stroke="black" d="M352.806,-235.473C384.088,-217.84 433.574,-189.945 461.137,-174.408"/>
</g>
<!-- ActiveRecord::Base&#45;&gt;Seminar -->
<g id="edge17" class="edge"><title>ActiveRecord::Base&#45;&gt;Seminar</title>
<path fill="none" stroke="black" d="M330.93,-234.436C336.951,-218.765 345.825,-195.666 351.839,-180.011"/>
</g>
<!-- ActiveRecord::Base&#45;&gt;Status -->
<g id="edge18" class="edge"><title>ActiveRecord::Base&#45;&gt;Status</title>
<path fill="none" stroke="black" d="M401.886,-246.96C448.779,-239.736 505.175,-222.121 535.375,-180 573.998,-126.132 489.342,-59.5553 448.634,-31.9407"/>
</g>
<!-- ActiveRecord::Base&#45;&gt;User -->
<g id="edge22" class="edge"><title>ActiveRecord::Base&#45;&gt;User</title>
<path fill="none" stroke="black" d="M353.635,-235.406C372.835,-223.046 396.358,-204.032 407.375,-180 418.005,-156.811 413.686,-126.542 409.272,-107.952"/>
</g>
</g>
</svg>
