<?xml version="1.0" encoding="UTF-8" standalone="no"?>
<!DOCTYPE svg PUBLIC "-//W3C//DTD SVG 1.1//EN"
 "http://www.w3.org/Graphics/SVG/1.1/DTD/svg11.dtd">
<!-- Generated by graphviz version 2.38.0 (20140413.2041)
 -->
<!-- Title: models_diagram Pages: 1 -->
<svg width="685pt" height="688pt"
 viewBox="0.00 0.00 684.52 688.00" xmlns="http://www.w3.org/2000/svg" xmlns:xlink="http://www.w3.org/1999/xlink">
<g id="graph0" class="graph" transform="scale(1 1) rotate(0) translate(4 684)">
<title>models_diagram</title>
<polygon fill="white" stroke="none" points="-4,4 -4,-684 680.524,-684 680.524,4 -4,4"/>
<!-- _diagram_info -->
<g id="node1" class="node"><title>_diagram_info</title>
<text text-anchor="start" x="39.3254" y="-665.6" font-family="Times,serif" font-size="13.00">Models diagram</text>
<text text-anchor="start" x="39.3254" y="-652.6" font-family="Times,serif" font-size="13.00">Date: Sep 29 2014 &#45; 09:01</text>
<text text-anchor="start" x="39.3254" y="-639.6" font-family="Times,serif" font-size="13.00">Migration version: 20140928235009</text>
<text text-anchor="start" x="39.3254" y="-626.6" font-family="Times,serif" font-size="13.00">Generated by RailRoady 1.1.2</text>
<text text-anchor="start" x="39.3254" y="-613.6" font-family="Times,serif" font-size="13.00">http://railroady.prestonlee.com</text>
</g>
<!-- Acquisition -->
<g id="node2" class="node"><title>Acquisition</title>
<path fill="none" stroke="black" d="M33.5078,-7.5C33.5078,-7.5 142.519,-7.5 142.519,-7.5 148.519,-7.5 154.519,-13.5 154.519,-19.5 154.519,-19.5 154.519,-109.5 154.519,-109.5 154.519,-115.5 148.519,-121.5 142.519,-121.5 142.519,-121.5 33.5078,-121.5 33.5078,-121.5 27.5078,-121.5 21.5078,-115.5 21.5078,-109.5 21.5078,-109.5 21.5078,-19.5 21.5078,-19.5 21.5078,-13.5 27.5078,-7.5 33.5078,-7.5"/>
<text text-anchor="middle" x="88.0132" y="-106.3" font-family="Times,serif" font-size="14.00">Acquisition</text>
<polyline fill="none" stroke="black" points="21.5078,-99.5 154.519,-99.5 "/>
<text text-anchor="start" x="29.5078" y="-84.3" font-family="Times,serif" font-size="14.00">id :integer</text>
<text text-anchor="start" x="29.5078" y="-70.3" font-family="Times,serif" font-size="14.00">mission_id :integer</text>
<text text-anchor="start" x="29.5078" y="-56.3" font-family="Times,serif" font-size="14.00">category_id :integer</text>
<text text-anchor="start" x="29.5078" y="-42.3" font-family="Times,serif" font-size="14.00">experience :integer</text>
<text text-anchor="start" x="29.5078" y="-28.3" font-family="Times,serif" font-size="14.00">created_at :datetime</text>
<text text-anchor="start" x="29.5078" y="-14.3" font-family="Times,serif" font-size="14.00">updated_at :datetime</text>
</g>
<!-- Assign -->
<g id="node3" class="node"><title>Assign</title>
<path fill="none" stroke="black" d="M388.508,-14.5C388.508,-14.5 497.519,-14.5 497.519,-14.5 503.519,-14.5 509.519,-20.5 509.519,-26.5 509.519,-26.5 509.519,-102.5 509.519,-102.5 509.519,-108.5 503.519,-114.5 497.519,-114.5 497.519,-114.5 388.508,-114.5 388.508,-114.5 382.508,-114.5 376.508,-108.5 376.508,-102.5 376.508,-102.5 376.508,-26.5 376.508,-26.5 376.508,-20.5 382.508,-14.5 388.508,-14.5"/>
<text text-anchor="middle" x="443.013" y="-99.3" font-family="Times,serif" font-size="14.00">Assign</text>
<polyline fill="none" stroke="black" points="376.508,-92.5 509.519,-92.5 "/>
<text text-anchor="start" x="384.508" y="-77.3" font-family="Times,serif" font-size="14.00">id :integer</text>
<text text-anchor="start" x="384.508" y="-63.3" font-family="Times,serif" font-size="14.00">user_id :integer</text>
<text text-anchor="start" x="384.508" y="-49.3" font-family="Times,serif" font-size="14.00">mission_id :integer</text>
<text text-anchor="start" x="384.508" y="-35.3" font-family="Times,serif" font-size="14.00">created_at :datetime</text>
<text text-anchor="start" x="384.508" y="-21.3" font-family="Times,serif" font-size="14.00">updated_at :datetime</text>
</g>
<!-- Category -->
<g id="node4" class="node"><title>Category</title>
<path fill="none" stroke="black" d="M132.508,-477.5C132.508,-477.5 241.519,-477.5 241.519,-477.5 247.519,-477.5 253.519,-483.5 253.519,-489.5 253.519,-489.5 253.519,-551.5 253.519,-551.5 253.519,-557.5 247.519,-563.5 241.519,-563.5 241.519,-563.5 132.508,-563.5 132.508,-563.5 126.508,-563.5 120.508,-557.5 120.508,-551.5 120.508,-551.5 120.508,-489.5 120.508,-489.5 120.508,-483.5 126.508,-477.5 132.508,-477.5"/>
<text text-anchor="middle" x="187.013" y="-548.3" font-family="Times,serif" font-size="14.00">Category</text>
<polyline fill="none" stroke="black" points="120.508,-541.5 253.519,-541.5 "/>
<text text-anchor="start" x="128.508" y="-526.3" font-family="Times,serif" font-size="14.00">id :integer</text>
<text text-anchor="start" x="128.508" y="-512.3" font-family="Times,serif" font-size="14.00">name :string</text>
<text text-anchor="start" x="128.508" y="-498.3" font-family="Times,serif" font-size="14.00">created_at :datetime</text>
<text text-anchor="start" x="128.508" y="-484.3" font-family="Times,serif" font-size="14.00">updated_at :datetime</text>
</g>
<!-- Category&#45;&gt;Acquisition -->
<g id="edge4" class="edge"><title>Category&#45;&gt;Acquisition</title>
<path fill="none" stroke="#7a7ecd" d="M170.827,-469.267C167.367,-457.741 163.892,-445.495 161.013,-434 134.797,-329.317 111.973,-206.008 99.1087,-131.886"/>
<ellipse fill="none" stroke="#7a7ecd" cx="172.048" cy="-473.286" rx="4.00001" ry="4.00001"/>
<polygon fill="#7a7ecd" stroke="#7a7ecd" points="99.0619,-131.614 101.795,-120.994 98.2111,-126.687 97.3603,-121.76 97.3603,-121.76 97.3603,-121.76 98.2111,-126.687 92.9259,-122.526 99.0619,-131.614 99.0619,-131.614"/>
</g>
<!-- Mission -->
<g id="node7" class="node"><title>Mission</title>
<path fill="none" stroke="black" d="M182.508,-242.5C182.508,-242.5 291.519,-242.5 291.519,-242.5 297.519,-242.5 303.519,-248.5 303.519,-254.5 303.519,-254.5 303.519,-344.5 303.519,-344.5 303.519,-350.5 297.519,-356.5 291.519,-356.5 291.519,-356.5 182.508,-356.5 182.508,-356.5 176.508,-356.5 170.508,-350.5 170.508,-344.5 170.508,-344.5 170.508,-254.5 170.508,-254.5 170.508,-248.5 176.508,-242.5 182.508,-242.5"/>
<text text-anchor="middle" x="237.013" y="-341.3" font-family="Times,serif" font-size="14.00">Mission</text>
<polyline fill="none" stroke="black" points="170.508,-334.5 303.519,-334.5 "/>
<text text-anchor="start" x="178.508" y="-319.3" font-family="Times,serif" font-size="14.00">id :integer</text>
<text text-anchor="start" x="178.508" y="-305.3" font-family="Times,serif" font-size="14.00">description :string</text>
<text text-anchor="start" x="178.508" y="-291.3" font-family="Times,serif" font-size="14.00">category_id :integer</text>
<text text-anchor="start" x="178.508" y="-277.3" font-family="Times,serif" font-size="14.00">level_id :integer</text>
<text text-anchor="start" x="178.508" y="-263.3" font-family="Times,serif" font-size="14.00">created_at :datetime</text>
<text text-anchor="start" x="178.508" y="-249.3" font-family="Times,serif" font-size="14.00">updated_at :datetime</text>
</g>
<!-- Category&#45;&gt;Mission -->
<g id="edge3" class="edge"><title>Category&#45;&gt;Mission</title>
<path fill="none" stroke="#a86617" d="M198.449,-469.409C205.403,-438.954 214.364,-399.705 221.897,-366.708"/>
<ellipse fill="none" stroke="#a86617" cx="197.544" cy="-473.375" rx="4.00001" ry="4.00001"/>
<polygon fill="#a86617" stroke="#a86617" points="221.96,-366.434 228.573,-357.686 223.073,-361.559 224.186,-356.685 224.186,-356.685 224.186,-356.685 223.073,-361.559 219.799,-355.683 221.96,-366.434 221.96,-366.434"/>
</g>
<!-- Status -->
<g id="node9" class="node"><title>Status</title>
<path fill="none" stroke="black" d="M539.508,-7.5C539.508,-7.5 648.519,-7.5 648.519,-7.5 654.519,-7.5 660.519,-13.5 660.519,-19.5 660.519,-19.5 660.519,-109.5 660.519,-109.5 660.519,-115.5 654.519,-121.5 648.519,-121.5 648.519,-121.5 539.508,-121.5 539.508,-121.5 533.508,-121.5 527.508,-115.5 527.508,-109.5 527.508,-109.5 527.508,-19.5 527.508,-19.5 527.508,-13.5 533.508,-7.5 539.508,-7.5"/>
<text text-anchor="middle" x="594.013" y="-106.3" font-family="Times,serif" font-size="14.00">Status</text>
<polyline fill="none" stroke="black" points="527.508,-99.5 660.519,-99.5 "/>
<text text-anchor="start" x="535.508" y="-84.3" font-family="Times,serif" font-size="14.00">id :integer</text>
<text text-anchor="start" x="535.508" y="-70.3" font-family="Times,serif" font-size="14.00">user_id :integer</text>
<text text-anchor="start" x="535.508" y="-56.3" font-family="Times,serif" font-size="14.00">category_id :integer</text>
<text text-anchor="start" x="535.508" y="-42.3" font-family="Times,serif" font-size="14.00">experience :integer</text>
<text text-anchor="start" x="535.508" y="-28.3" font-family="Times,serif" font-size="14.00">created_at :datetime</text>
<text text-anchor="start" x="535.508" y="-14.3" font-family="Times,serif" font-size="14.00">updated_at :datetime</text>
</g>
<!-- Category&#45;&gt;Status -->
<g id="edge5" class="edge"><title>Category&#45;&gt;Status</title>
<path fill="none" stroke="#5d7c6e" d="M252.64,-473.866C255.75,-472.446 258.882,-471.146 262.013,-470 325.69,-446.697 518.028,-482.889 565.013,-434 641.85,-354.049 628.173,-214.143 611.165,-131.643"/>
<ellipse fill="none" stroke="#5d7c6e" cx="249.03" cy="-475.627" rx="4.00002" ry="4.00002"/>
<polygon fill="#5d7c6e" stroke="#5d7c6e" points="611.115,-131.408 613.427,-120.688 610.071,-126.518 609.026,-121.628 609.026,-121.628 609.026,-121.628 610.071,-126.518 604.626,-122.568 611.115,-131.408 611.115,-131.408"/>
</g>
<!-- History -->
<g id="node5" class="node"><title>History</title>
<path fill="none" stroke="black" d="M184.977,-0.5C184.977,-0.5 325.05,-0.5 325.05,-0.5 331.05,-0.5 337.05,-6.5 337.05,-12.5 337.05,-12.5 337.05,-116.5 337.05,-116.5 337.05,-122.5 331.05,-128.5 325.05,-128.5 325.05,-128.5 184.977,-128.5 184.977,-128.5 178.977,-128.5 172.977,-122.5 172.977,-116.5 172.977,-116.5 172.977,-12.5 172.977,-12.5 172.977,-6.5 178.977,-0.5 184.977,-0.5"/>
<text text-anchor="middle" x="255.013" y="-113.3" font-family="Times,serif" font-size="14.00">History</text>
<polyline fill="none" stroke="black" points="172.977,-106.5 337.05,-106.5 "/>
<text text-anchor="start" x="180.977" y="-91.3" font-family="Times,serif" font-size="14.00">id :integer</text>
<text text-anchor="start" x="180.977" y="-77.3" font-family="Times,serif" font-size="14.00">user_id :integer</text>
<text text-anchor="start" x="180.977" y="-63.3" font-family="Times,serif" font-size="14.00">mission_id :integer</text>
<text text-anchor="start" x="180.977" y="-49.3" font-family="Times,serif" font-size="14.00">created_at :datetime</text>
<text text-anchor="start" x="180.977" y="-35.3" font-family="Times,serif" font-size="14.00">updated_at :datetime</text>
<text text-anchor="start" x="180.977" y="-21.3" font-family="Times,serif" font-size="14.00">recent_experience :integer</text>
<text text-anchor="start" x="180.977" y="-7.3" font-family="Times,serif" font-size="14.00">experience :integer</text>
</g>
<!-- Level -->
<g id="node6" class="node"><title>Level</title>
<path fill="none" stroke="black" d="M283.508,-470.5C283.508,-470.5 392.519,-470.5 392.519,-470.5 398.519,-470.5 404.519,-476.5 404.519,-482.5 404.519,-482.5 404.519,-558.5 404.519,-558.5 404.519,-564.5 398.519,-570.5 392.519,-570.5 392.519,-570.5 283.508,-570.5 283.508,-570.5 277.508,-570.5 271.508,-564.5 271.508,-558.5 271.508,-558.5 271.508,-482.5 271.508,-482.5 271.508,-476.5 277.508,-470.5 283.508,-470.5"/>
<text text-anchor="middle" x="338.013" y="-555.3" font-family="Times,serif" font-size="14.00">Level</text>
<polyline fill="none" stroke="black" points="271.508,-548.5 404.519,-548.5 "/>
<text text-anchor="start" x="279.508" y="-533.3" font-family="Times,serif" font-size="14.00">id :integer</text>
<text text-anchor="start" x="279.508" y="-519.3" font-family="Times,serif" font-size="14.00">value :integer</text>
<text text-anchor="start" x="279.508" y="-505.3" font-family="Times,serif" font-size="14.00">sufficiency :integer</text>
<text text-anchor="start" x="279.508" y="-491.3" font-family="Times,serif" font-size="14.00">created_at :datetime</text>
<text text-anchor="start" x="279.508" y="-477.3" font-family="Times,serif" font-size="14.00">updated_at :datetime</text>
</g>
<!-- Level&#45;&gt;Mission -->
<g id="edge8" class="edge"><title>Level&#45;&gt;Mission</title>
<path fill="none" stroke="#c2e3a2" d="M311.809,-462.68C298.188,-433.147 281.472,-396.902 267.3,-366.172"/>
<ellipse fill="none" stroke="#c2e3a2" cx="313.672" cy="-466.72" rx="4.00002" ry="4.00002"/>
<polygon fill="#c2e3a2" stroke="#c2e3a2" points="267.178,-365.907 267.076,-354.941 265.084,-361.366 262.99,-356.826 262.99,-356.826 262.99,-356.826 265.084,-361.366 258.903,-358.71 267.178,-365.907 267.178,-365.907"/>
</g>
<!-- Mission&#45;&gt;Acquisition -->
<g id="edge10" class="edge"><title>Mission&#45;&gt;Acquisition</title>
<path fill="none" stroke="#81e313" d="M196.664,-235.403C175.797,-202.772 150.368,-163.008 129.359,-130.154"/>
<ellipse fill="none" stroke="#81e313" cx="198.979" cy="-239.024" rx="4.00002" ry="4.00002"/>
<polygon fill="#81e313" stroke="#81e313" points="129.226,-129.947 127.63,-119.098 126.532,-125.735 123.839,-121.522 123.839,-121.522 123.839,-121.522 126.532,-125.735 120.048,-123.947 129.226,-129.947 129.226,-129.947"/>
</g>
<!-- Mission&#45;&gt;Assign -->
<g id="edge12" class="edge"><title>Mission&#45;&gt;Assign</title>
<path fill="none" stroke="#a6f5d7" d="M284.141,-236.068C302.013,-213.228 322.91,-187.486 343.013,-165 355.871,-150.618 370.283,-135.666 384.077,-121.857"/>
<ellipse fill="none" stroke="#a6f5d7" cx="281.642" cy="-239.274" rx="4.00002" ry="4.00002"/>
<polygon fill="#a6f5d7" stroke="#a6f5d7" points="384.133,-121.802 394.396,-117.939 387.677,-118.275 391.222,-114.749 391.222,-114.749 391.222,-114.749 387.677,-118.275 388.048,-111.559 384.133,-121.802 384.133,-121.802"/>
</g>
<!-- Mission&#45;&gt;History -->
<g id="edge11" class="edge"><title>Mission&#45;&gt;History</title>
<path fill="none" stroke="#7dcf7d" d="M241.982,-234.178C244.269,-204.577 246.993,-169.313 249.358,-138.699"/>
<ellipse fill="none" stroke="#7dcf7d" cx="241.656" cy="-238.406" rx="4" ry="4"/>
<polygon fill="#7dcf7d" stroke="#7dcf7d" points="249.375,-138.481 254.632,-128.857 249.76,-133.496 250.145,-128.511 250.145,-128.511 250.145,-128.511 249.76,-133.496 245.659,-128.164 249.375,-138.481 249.375,-138.481"/>
</g>
<!-- Role -->
<g id="node8" class="node"><title>Role</title>
<path fill="none" stroke="black" d="M434.508,-477.5C434.508,-477.5 543.519,-477.5 543.519,-477.5 549.519,-477.5 555.519,-483.5 555.519,-489.5 555.519,-489.5 555.519,-551.5 555.519,-551.5 555.519,-557.5 549.519,-563.5 543.519,-563.5 543.519,-563.5 434.508,-563.5 434.508,-563.5 428.508,-563.5 422.508,-557.5 422.508,-551.5 422.508,-551.5 422.508,-489.5 422.508,-489.5 422.508,-483.5 428.508,-477.5 434.508,-477.5"/>
<text text-anchor="middle" x="489.013" y="-548.3" font-family="Times,serif" font-size="14.00">Role</text>
<polyline fill="none" stroke="black" points="422.508,-541.5 555.519,-541.5 "/>
<text text-anchor="start" x="430.508" y="-526.3" font-family="Times,serif" font-size="14.00">id :integer</text>
<text text-anchor="start" x="430.508" y="-512.3" font-family="Times,serif" font-size="14.00">name :string</text>
<text text-anchor="start" x="430.508" y="-498.3" font-family="Times,serif" font-size="14.00">created_at :datetime</text>
<text text-anchor="start" x="430.508" y="-484.3" font-family="Times,serif" font-size="14.00">updated_at :datetime</text>
</g>
<!-- User -->
<g id="node10" class="node"><title>User</title>
<path fill="none" stroke="black" d="M363.735,-165.5C363.735,-165.5 544.291,-165.5 544.291,-165.5 550.291,-165.5 556.291,-171.5 556.291,-177.5 556.291,-177.5 556.291,-421.5 556.291,-421.5 556.291,-427.5 550.291,-433.5 544.291,-433.5 544.291,-433.5 363.735,-433.5 363.735,-433.5 357.735,-433.5 351.735,-427.5 351.735,-421.5 351.735,-421.5 351.735,-177.5 351.735,-177.5 351.735,-171.5 357.735,-165.5 363.735,-165.5"/>
<text text-anchor="middle" x="454.013" y="-418.3" font-family="Times,serif" font-size="14.00">User</text>
<polyline fill="none" stroke="black" points="351.735,-411.5 556.291,-411.5 "/>
<text text-anchor="start" x="359.735" y="-396.3" font-family="Times,serif" font-size="14.00">id :integer</text>
<text text-anchor="start" x="359.735" y="-382.3" font-family="Times,serif" font-size="14.00">email :string</text>
<text text-anchor="start" x="359.735" y="-368.3" font-family="Times,serif" font-size="14.00">encrypted_password :string</text>
<text text-anchor="start" x="359.735" y="-354.3" font-family="Times,serif" font-size="14.00">reset_password_token :string</text>
<text text-anchor="start" x="359.735" y="-340.3" font-family="Times,serif" font-size="14.00">reset_password_sent_at :datetime</text>
<text text-anchor="start" x="359.735" y="-326.3" font-family="Times,serif" font-size="14.00">remember_created_at :datetime</text>
<text text-anchor="start" x="359.735" y="-312.3" font-family="Times,serif" font-size="14.00">sign_in_count :integer</text>
<text text-anchor="start" x="359.735" y="-298.3" font-family="Times,serif" font-size="14.00">current_sign_in_at :datetime</text>
<text text-anchor="start" x="359.735" y="-284.3" font-family="Times,serif" font-size="14.00">last_sign_in_at :datetime</text>
<text text-anchor="start" x="359.735" y="-270.3" font-family="Times,serif" font-size="14.00">current_sign_in_ip :string</text>
<text text-anchor="start" x="359.735" y="-256.3" font-family="Times,serif" font-size="14.00">last_sign_in_ip :string</text>
<text text-anchor="start" x="359.735" y="-242.3" font-family="Times,serif" font-size="14.00">created_at :datetime</text>
<text text-anchor="start" x="359.735" y="-228.3" font-family="Times,serif" font-size="14.00">updated_at :datetime</text>
<text text-anchor="start" x="359.735" y="-214.3" font-family="Times,serif" font-size="14.00">name :string</text>
<text text-anchor="start" x="359.735" y="-200.3" font-family="Times,serif" font-size="14.00">number :string</text>
<text text-anchor="start" x="359.735" y="-186.3" font-family="Times,serif" font-size="14.00">idm :string</text>
<text text-anchor="start" x="359.735" y="-172.3" font-family="Times,serif" font-size="14.00">role_id :integer</text>
</g>
<!-- Role&#45;&gt;User -->
<g id="edge14" class="edge"><title>Role&#45;&gt;User</title>
<path fill="none" stroke="#f4cd3a" d="M480.967,-469.156C479.7,-461.224 478.337,-452.7 476.923,-443.849"/>
<ellipse fill="none" stroke="#f4cd3a" cx="481.634" cy="-473.325" rx="4.00001" ry="4.00001"/>
<polygon fill="#f4cd3a" stroke="#f4cd3a" points="476.884,-443.606 479.749,-433.021 476.095,-438.668 475.306,-433.731 475.306,-433.731 475.306,-433.731 476.095,-438.668 470.862,-434.441 476.884,-443.606 476.884,-443.606"/>
</g>
<!-- User&#45;&gt;Assign -->
<g id="edge19" class="edge"><title>User&#45;&gt;Assign</title>
<path fill="none" stroke="#8c2275" d="M447.349,-157.334C446.811,-145.939 446.288,-134.873 445.803,-124.601"/>
<ellipse fill="none" stroke="#8c2275" cx="447.537" cy="-161.331" rx="4" ry="4"/>
<polygon fill="#8c2275" stroke="#8c2275" points="445.803,-124.6 449.827,-114.399 445.568,-119.606 445.332,-114.611 445.332,-114.611 445.332,-114.611 445.568,-119.606 440.837,-114.824 445.803,-124.6 445.803,-124.6"/>
</g>
<!-- User&#45;&gt;History -->
<g id="edge18" class="edge"><title>User&#45;&gt;History</title>
<path fill="none" stroke="#0a31c8" d="M346.07,-172.114C335.605,-159.861 325.266,-147.756 315.52,-136.344"/>
<ellipse fill="none" stroke="#0a31c8" cx="349.001" cy="-175.546" rx="4.00002" ry="4.00002"/>
<polygon fill="#0a31c8" stroke="#0a31c8" points="315.367,-136.166 312.294,-125.639 312.12,-132.364 308.873,-128.562 308.873,-128.562 308.873,-128.562 312.12,-132.364 305.451,-131.484 315.367,-136.166 315.367,-136.166"/>
</g>
<!-- User&#45;&gt;Status -->
<g id="edge17" class="edge"><title>User&#45;&gt;Status</title>
<path fill="none" stroke="#9ab287" d="M538.318,-158.192C544.076,-148.61 549.698,-139.252 555.021,-130.394"/>
<ellipse fill="none" stroke="#9ab287" cx="536.091" cy="-161.898" rx="4.00002" ry="4.00002"/>
<polygon fill="#9ab287" stroke="#9ab287" points="555.088,-130.283 564.095,-124.029 557.663,-125.997 560.238,-121.711 560.238,-121.711 560.238,-121.711 557.663,-125.997 556.381,-119.394 555.088,-130.283 555.088,-130.283"/>
</g>
<!-- ActiveRecord::Base -->
<g id="node11" class="node"><title>ActiveRecord::Base</title>
<ellipse fill="none" stroke="black" cx="338.013" cy="-643.5" rx="81.1422" ry="18"/>
<text text-anchor="middle" x="338.013" y="-639.3" font-family="Times,serif" font-size="14.00">ActiveRecord::Base</text>
</g>
<!-- ActiveRecord::Base&#45;&gt;Acquisition -->
<g id="edge1" class="edge"><title>ActiveRecord::Base&#45;&gt;Acquisition</title>
<path fill="none" stroke="black" d="M303.499,-627.109C286.967,-620.199 266.733,-612.403 248.013,-607 165.018,-583.044 112.149,-637.499 57.0132,-571 -50.1763,-441.72 19.8373,-223.96 62.3015,-121.714"/>
</g>
<!-- ActiveRecord::Base&#45;&gt;Assign -->
<g id="edge2" class="edge"><title>ActiveRecord::Base&#45;&gt;Assign</title>
<path fill="none" stroke="black" d="M403.642,-632.782C469.98,-621.458 565.793,-600.466 588.013,-571 632.859,-511.53 666.782,-352.974 565.013,-165 552.486,-141.861 538.504,-145.506 518.013,-129 512.3,-124.398 506.39,-119.55 500.511,-114.669"/>
</g>
<!-- ActiveRecord::Base&#45;&gt;Category -->
<g id="edge6" class="edge"><title>ActiveRecord::Base&#45;&gt;Category</title>
<path fill="none" stroke="black" d="M317.334,-625.929C297.383,-609.942 266.352,-585.076 239.575,-563.619"/>
</g>
<!-- ActiveRecord::Base&#45;&gt;History -->
<g id="edge7" class="edge"><title>ActiveRecord::Base&#45;&gt;History</title>
<path fill="none" stroke="black" d="M302.98,-627.237C286.508,-620.435 266.471,-612.693 248.013,-607 178.776,-585.644 134.238,-627.609 89.0132,-571 27.0959,-493.497 75.2094,-324.174 161.013,-165 167.892,-152.24 176.829,-139.911 186.454,-128.533"/>
</g>
<!-- ActiveRecord::Base&#45;&gt;Level -->
<g id="edge9" class="edge"><title>ActiveRecord::Base&#45;&gt;Level</title>
<path fill="none" stroke="black" d="M338.013,-625.42C338.013,-611.154 338.013,-590.079 338.013,-570.63"/>
</g>
<!-- ActiveRecord::Base&#45;&gt;Mission -->
<g id="edge13" class="edge"><title>ActiveRecord::Base&#45;&gt;Mission</title>
<path fill="none" stroke="black" d="M302.025,-627.171C285.701,-620.513 266.052,-612.904 248.013,-607 188.181,-587.415 149.459,-620.854 111.013,-571 59.8401,-504.643 123.634,-414.151 177.544,-356.514"/>
</g>
<!-- ActiveRecord::Base&#45;&gt;Role -->
<g id="edge15" class="edge"><title>ActiveRecord::Base&#45;&gt;Role</title>
<path fill="none" stroke="black" d="M358.692,-625.929C378.643,-609.942 409.674,-585.076 436.452,-563.619"/>
</g>
<!-- ActiveRecord::Base&#45;&gt;Status -->
<g id="edge16" class="edge"><title>ActiveRecord::Base&#45;&gt;Status</title>
<path fill="none" stroke="black" d="M408.77,-634.507C483.849,-624.397 595.17,-604.185 621.013,-571 724.017,-438.735 658.531,-222.923 618.456,-121.501"/>
</g>
<!-- ActiveRecord::Base&#45;&gt;User -->
<g id="edge20" class="edge"><title>ActiveRecord::Base&#45;&gt;User</title>
<path fill="none" stroke="black" d="M418.14,-640.069C469.106,-633.849 531.596,-616.562 565.013,-571 596.836,-527.612 583.275,-473.778 556.458,-425.587"/>
</g>
</g>
</svg>
