<?xml version="1.0" encoding="UTF-8" standalone="no"?>
<!DOCTYPE svg PUBLIC "-//W3C//DTD SVG 1.1//EN"
 "http://www.w3.org/Graphics/SVG/1.1/DTD/svg11.dtd">
<!-- Generated by graphviz version 2.38.0 (20140413.2041)
 -->
<!-- Title: models_diagram Pages: 1 -->
<svg width="452pt" height="297pt"
 viewBox="0.00 0.00 452.45 297.00" xmlns="http://www.w3.org/2000/svg" xmlns:xlink="http://www.w3.org/1999/xlink">
<g id="graph0" class="graph" transform="scale(1 1) rotate(0) translate(4 293)">
<title>models_diagram</title>
<polygon fill="white" stroke="none" points="-4,4 -4,-293 448.45,-293 448.45,4 -4,4"/>
<!-- _diagram_info -->
<g id="node1" class="node"><title>_diagram_info</title>
<text text-anchor="start" x="8" y="-274.6" font-family="Times,serif" font-size="13.00">Models diagram</text>
<text text-anchor="start" x="8" y="-261.6" font-family="Times,serif" font-size="13.00">Date: Sep 26 2014 &#45; 21:02</text>
<text text-anchor="start" x="8" y="-248.6" font-family="Times,serif" font-size="13.00">Migration version: 20140926114154</text>
<text text-anchor="start" x="8" y="-235.6" font-family="Times,serif" font-size="13.00">Generated by RailRoady 1.1.2</text>
<text text-anchor="start" x="8" y="-222.6" font-family="Times,serif" font-size="13.00">http://railroady.prestonlee.com</text>
</g>
<!-- Acquisition -->
<g id="node2" class="node"><title>Acquisition</title>
<ellipse fill="none" stroke="black" cx="186.45" cy="-18" rx="51.2501" ry="18"/>
<text text-anchor="middle" x="186.45" y="-13.8" font-family="Times,serif" font-size="14.00">Acquisition</text>
</g>
<!-- Category -->
<g id="node3" class="node"><title>Category</title>
<ellipse fill="none" stroke="black" cx="186.45" cy="-162" rx="42.5456" ry="18"/>
<text text-anchor="middle" x="186.45" y="-157.8" font-family="Times,serif" font-size="14.00">Category</text>
</g>
<!-- Category&#45;&gt;Acquisition -->
<g id="edge3" class="edge"><title>Category&#45;&gt;Acquisition</title>
<path fill="none" stroke="#6a22eb" d="M186.45,-135.558C186.45,-110.444 186.45,-72.164 186.45,-46.3932"/>
<ellipse fill="none" stroke="#6a22eb" cx="186.45" cy="-139.871" rx="4" ry="4"/>
<polygon fill="#6a22eb" stroke="#6a22eb" points="186.45,-46.1893 190.95,-36.1892 186.45,-41.1893 186.45,-36.1893 186.45,-36.1893 186.45,-36.1893 186.45,-41.1893 181.95,-36.1893 186.45,-46.1893 186.45,-46.1893"/>
</g>
<!-- Mission -->
<g id="node5" class="node"><title>Mission</title>
<ellipse fill="none" stroke="black" cx="265.45" cy="-90" rx="38.7215" ry="18"/>
<text text-anchor="middle" x="265.45" y="-85.8" font-family="Times,serif" font-size="14.00">Mission</text>
</g>
<!-- Category&#45;&gt;Mission -->
<g id="edge2" class="edge"><title>Category&#45;&gt;Mission</title>
<path fill="none" stroke="#a972df" d="M210.138,-140.011C219.712,-131.527 230.77,-121.729 240.471,-113.133"/>
<ellipse fill="none" stroke="#a972df" cx="206.976" cy="-142.812" rx="4.00002" ry="4.00002"/>
<polygon fill="#a972df" stroke="#a972df" points="240.753,-112.883 251.222,-109.619 244.496,-109.567 248.238,-106.251 248.238,-106.251 248.238,-106.251 244.496,-109.567 245.254,-102.883 240.753,-112.883 240.753,-112.883"/>
</g>
<!-- Level -->
<g id="node4" class="node"><title>Level</title>
<ellipse fill="none" stroke="black" cx="277.45" cy="-162" rx="30.4775" ry="18"/>
<text text-anchor="middle" x="277.45" y="-157.8" font-family="Times,serif" font-size="14.00">Level</text>
</g>
<!-- Level&#45;&gt;Mission -->
<g id="edge5" class="edge"><title>Level&#45;&gt;Mission</title>
<path fill="none" stroke="#b8897e" d="M273.162,-135.987C272.178,-130.249 271.128,-124.121 270.128,-118.293"/>
<ellipse fill="none" stroke="#b8897e" cx="273.869" cy="-140.112" rx="4.00001" ry="4.00001"/>
<polygon fill="#b8897e" stroke="#b8897e" points="270.101,-118.132 272.846,-107.515 269.256,-113.203 268.411,-108.275 268.411,-108.275 268.411,-108.275 269.256,-113.203 263.976,-109.036 270.101,-118.132 270.101,-118.132"/>
</g>
<!-- Mission&#45;&gt;Acquisition -->
<g id="edge7" class="edge"><title>Mission&#45;&gt;Acquisition</title>
<path fill="none" stroke="#3523bb" d="M242.242,-68.4359C232.702,-59.9834 221.626,-50.1688 211.869,-41.523"/>
<ellipse fill="none" stroke="#3523bb" cx="245.314" cy="-71.1583" rx="4.00002" ry="4.00002"/>
<polygon fill="#3523bb" stroke="#3523bb" points="211.865,-41.5201 207.365,-31.5201 208.123,-38.2041 204.381,-34.8882 204.381,-34.8882 204.381,-34.8882 208.123,-38.2041 201.396,-38.2562 211.865,-41.5201 211.865,-41.5201"/>
</g>
<!-- Role -->
<g id="node6" class="node"><title>Role</title>
<ellipse fill="none" stroke="black" cx="390.45" cy="-162" rx="27" ry="18"/>
<text text-anchor="middle" x="390.45" y="-157.8" font-family="Times,serif" font-size="14.00">Role</text>
</g>
<!-- User -->
<g id="node7" class="node"><title>User</title>
<ellipse fill="none" stroke="black" cx="417.45" cy="-90" rx="27" ry="18"/>
<text text-anchor="middle" x="417.45" y="-85.8" font-family="Times,serif" font-size="14.00">User</text>
</g>
<!-- Role&#45;&gt;User -->
<g id="edge9" class="edge"><title>Role&#45;&gt;User</title>
<path fill="none" stroke="#5d7bcb" d="M399.793,-136.778C402.197,-130.544 404.797,-123.805 407.242,-117.463"/>
<ellipse fill="none" stroke="#5d7bcb" cx="398.288" cy="-140.679" rx="4.00001" ry="4.00001"/>
<polygon fill="#5d7bcb" stroke="#5d7bcb" points="407.311,-117.286 415.108,-109.576 409.11,-112.621 410.909,-107.956 410.909,-107.956 410.909,-107.956 409.11,-112.621 406.711,-106.337 407.311,-117.286 407.311,-117.286"/>
</g>
<!-- ActiveRecord::Base -->
<g id="node8" class="node"><title>ActiveRecord::Base</title>
<ellipse fill="none" stroke="black" cx="306.45" cy="-252.5" rx="81.1422" ry="18"/>
<text text-anchor="middle" x="306.45" y="-248.3" font-family="Times,serif" font-size="14.00">ActiveRecord::Base</text>
</g>
<!-- ActiveRecord::Base&#45;&gt;Acquisition -->
<g id="edge1" class="edge"><title>ActiveRecord::Base&#45;&gt;Acquisition</title>
<path fill="none" stroke="black" d="M268.833,-236.465C218.822,-216.391 136.447,-182.993 134.45,-180 103.147,-133.088 148.048,-65.9816 172.455,-35.3603"/>
</g>
<!-- ActiveRecord::Base&#45;&gt;Category -->
<g id="edge4" class="edge"><title>ActiveRecord::Base&#45;&gt;Category</title>
<path fill="none" stroke="black" d="M284.16,-235.061C261.928,-218.665 228.081,-193.703 206.624,-177.878"/>
</g>
<!-- ActiveRecord::Base&#45;&gt;Level -->
<g id="edge6" class="edge"><title>ActiveRecord::Base&#45;&gt;Level</title>
<path fill="none" stroke="black" d="M300.858,-234.436C295.69,-218.665 288.057,-195.37 282.926,-179.711"/>
</g>
<!-- ActiveRecord::Base&#45;&gt;Mission -->
<g id="edge8" class="edge"><title>ActiveRecord::Base&#45;&gt;Mission</title>
<path fill="none" stroke="black" d="M312.744,-234.412C319.742,-212.596 328.57,-174.076 316.45,-144 310.197,-128.484 296.989,-114.97 285.581,-105.471"/>
</g>
<!-- ActiveRecord::Base&#45;&gt;Role -->
<g id="edge10" class="edge"><title>ActiveRecord::Base&#45;&gt;Role</title>
<path fill="none" stroke="black" d="M322.646,-234.436C338.283,-217.961 361.712,-193.277 376.532,-177.664"/>
</g>
<!-- ActiveRecord::Base&#45;&gt;User -->
<g id="edge11" class="edge"><title>ActiveRecord::Base&#45;&gt;User</title>
<path fill="none" stroke="black" d="M351.598,-237.389C378.509,-226.383 410.455,-208.148 426.45,-180 439.263,-157.451 431.529,-126.447 424.603,-107.615"/>
</g>
</g>
</svg>
