<?xml version="1.0" encoding="UTF-8" standalone="no"?>
<!DOCTYPE svg PUBLIC "-//W3C//DTD SVG 1.1//EN"
 "http://www.w3.org/Graphics/SVG/1.1/DTD/svg11.dtd">
<!-- Generated by graphviz version 2.38.0 (20140413.2041)
 -->
<!-- Title: models_diagram Pages: 1 -->
<svg width="1210pt" height="730pt"
 viewBox="0.00 0.00 1210.07 730.00" xmlns="http://www.w3.org/2000/svg" xmlns:xlink="http://www.w3.org/1999/xlink">
<g id="graph0" class="graph" transform="scale(1 1) rotate(0) translate(4 726)">
<title>models_diagram</title>
<polygon fill="white" stroke="none" points="-4,4 -4,-726 1206.07,-726 1206.07,4 -4,4"/>
<!-- _diagram_info -->
<g id="node1" class="node"><title>_diagram_info</title>
<text text-anchor="start" x="8" y="-707.6" font-family="Times,serif" font-size="13.00">Models diagram</text>
<text text-anchor="start" x="8" y="-694.6" font-family="Times,serif" font-size="13.00">Date: Oct 29 2014 &#45; 23:17</text>
<text text-anchor="start" x="8" y="-681.6" font-family="Times,serif" font-size="13.00">Migration version: 20141029121409</text>
<text text-anchor="start" x="8" y="-668.6" font-family="Times,serif" font-size="13.00">Generated by RailRoady 1.1.2</text>
<text text-anchor="start" x="8" y="-655.6" font-family="Times,serif" font-size="13.00">http://railroady.prestonlee.com</text>
</g>
<!-- Ability -->
<g id="node2" class="node"><title>Ability</title>
<polygon fill="none" stroke="black" points="230.853,-540.5 230.853,-584.5 286.522,-584.5 286.522,-540.5 230.853,-540.5"/>
<text text-anchor="middle" x="258.688" y="-569.3" font-family="Times,serif" font-size="14.00">Ability</text>
<polyline fill="none" stroke="black" points="230.853,-562.5 286.522,-562.5 "/>
<text text-anchor="middle" x="258.688" y="-547.3" font-family="Times,serif" font-size="14.00"> </text>
</g>
<!-- Acquisition -->
<g id="node3" class="node"><title>Acquisition</title>
<path fill="none" stroke="black" d="M298.182,-7.5C298.182,-7.5 407.193,-7.5 407.193,-7.5 413.193,-7.5 419.193,-13.5 419.193,-19.5 419.193,-19.5 419.193,-109.5 419.193,-109.5 419.193,-115.5 413.193,-121.5 407.193,-121.5 407.193,-121.5 298.182,-121.5 298.182,-121.5 292.182,-121.5 286.182,-115.5 286.182,-109.5 286.182,-109.5 286.182,-19.5 286.182,-19.5 286.182,-13.5 292.182,-7.5 298.182,-7.5"/>
<text text-anchor="middle" x="352.688" y="-106.3" font-family="Times,serif" font-size="14.00">Acquisition</text>
<polyline fill="none" stroke="black" points="286.182,-99.5 419.193,-99.5 "/>
<text text-anchor="start" x="294.182" y="-84.3" font-family="Times,serif" font-size="14.00">id :integer</text>
<text text-anchor="start" x="294.182" y="-70.3" font-family="Times,serif" font-size="14.00">mission_id :integer</text>
<text text-anchor="start" x="294.182" y="-56.3" font-family="Times,serif" font-size="14.00">category_id :integer</text>
<text text-anchor="start" x="294.182" y="-42.3" font-family="Times,serif" font-size="14.00">experience :integer</text>
<text text-anchor="start" x="294.182" y="-28.3" font-family="Times,serif" font-size="14.00">created_at :datetime</text>
<text text-anchor="start" x="294.182" y="-14.3" font-family="Times,serif" font-size="14.00">updated_at :datetime</text>
</g>
<!-- Assign -->
<g id="node4" class="node"><title>Assign</title>
<path fill="none" stroke="black" d="M585.182,-14.5C585.182,-14.5 694.193,-14.5 694.193,-14.5 700.193,-14.5 706.193,-20.5 706.193,-26.5 706.193,-26.5 706.193,-102.5 706.193,-102.5 706.193,-108.5 700.193,-114.5 694.193,-114.5 694.193,-114.5 585.182,-114.5 585.182,-114.5 579.182,-114.5 573.182,-108.5 573.182,-102.5 573.182,-102.5 573.182,-26.5 573.182,-26.5 573.182,-20.5 579.182,-14.5 585.182,-14.5"/>
<text text-anchor="middle" x="639.688" y="-99.3" font-family="Times,serif" font-size="14.00">Assign</text>
<polyline fill="none" stroke="black" points="573.182,-92.5 706.193,-92.5 "/>
<text text-anchor="start" x="581.182" y="-77.3" font-family="Times,serif" font-size="14.00">id :integer</text>
<text text-anchor="start" x="581.182" y="-63.3" font-family="Times,serif" font-size="14.00">user_id :integer</text>
<text text-anchor="start" x="581.182" y="-49.3" font-family="Times,serif" font-size="14.00">mission_id :integer</text>
<text text-anchor="start" x="581.182" y="-35.3" font-family="Times,serif" font-size="14.00">created_at :datetime</text>
<text text-anchor="start" x="581.182" y="-21.3" font-family="Times,serif" font-size="14.00">updated_at :datetime</text>
</g>
<!-- Category -->
<g id="node5" class="node"><title>Category</title>
<path fill="none" stroke="black" d="M412.182,-519.5C412.182,-519.5 521.193,-519.5 521.193,-519.5 527.193,-519.5 533.193,-525.5 533.193,-531.5 533.193,-531.5 533.193,-593.5 533.193,-593.5 533.193,-599.5 527.193,-605.5 521.193,-605.5 521.193,-605.5 412.182,-605.5 412.182,-605.5 406.182,-605.5 400.182,-599.5 400.182,-593.5 400.182,-593.5 400.182,-531.5 400.182,-531.5 400.182,-525.5 406.182,-519.5 412.182,-519.5"/>
<text text-anchor="middle" x="466.688" y="-590.3" font-family="Times,serif" font-size="14.00">Category</text>
<polyline fill="none" stroke="black" points="400.182,-583.5 533.193,-583.5 "/>
<text text-anchor="start" x="408.182" y="-568.3" font-family="Times,serif" font-size="14.00">id :integer</text>
<text text-anchor="start" x="408.182" y="-554.3" font-family="Times,serif" font-size="14.00">name :string</text>
<text text-anchor="start" x="408.182" y="-540.3" font-family="Times,serif" font-size="14.00">created_at :datetime</text>
<text text-anchor="start" x="408.182" y="-526.3" font-family="Times,serif" font-size="14.00">updated_at :datetime</text>
</g>
<!-- Category&#45;&gt;Acquisition -->
<g id="edge5" class="edge"><title>Category&#45;&gt;Acquisition</title>
<path fill="none" stroke="#d309e4" d="M455.161,-511.348C434.48,-421.368 391.08,-232.539 367.954,-131.924"/>
<ellipse fill="none" stroke="#d309e4" cx="456.072" cy="-515.313" rx="4.00001" ry="4.00001"/>
<polygon fill="#d309e4" stroke="#d309e4" points="367.885,-131.623 370.031,-120.869 366.765,-126.75 365.645,-121.877 365.645,-121.877 365.645,-121.877 366.765,-126.75 361.26,-122.885 367.885,-131.623 367.885,-131.623"/>
</g>
<!-- Mission -->
<g id="node8" class="node"><title>Mission</title>
<path fill="none" stroke="black" d="M585.182,-263.5C585.182,-263.5 694.193,-263.5 694.193,-263.5 700.193,-263.5 706.193,-269.5 706.193,-275.5 706.193,-275.5 706.193,-365.5 706.193,-365.5 706.193,-371.5 700.193,-377.5 694.193,-377.5 694.193,-377.5 585.182,-377.5 585.182,-377.5 579.182,-377.5 573.182,-371.5 573.182,-365.5 573.182,-365.5 573.182,-275.5 573.182,-275.5 573.182,-269.5 579.182,-263.5 585.182,-263.5"/>
<text text-anchor="middle" x="639.688" y="-362.3" font-family="Times,serif" font-size="14.00">Mission</text>
<polyline fill="none" stroke="black" points="573.182,-355.5 706.193,-355.5 "/>
<text text-anchor="start" x="581.182" y="-340.3" font-family="Times,serif" font-size="14.00">id :integer</text>
<text text-anchor="start" x="581.182" y="-326.3" font-family="Times,serif" font-size="14.00">description :string</text>
<text text-anchor="start" x="581.182" y="-312.3" font-family="Times,serif" font-size="14.00">category_id :integer</text>
<text text-anchor="start" x="581.182" y="-298.3" font-family="Times,serif" font-size="14.00">level_id :integer</text>
<text text-anchor="start" x="581.182" y="-284.3" font-family="Times,serif" font-size="14.00">created_at :datetime</text>
<text text-anchor="start" x="581.182" y="-270.3" font-family="Times,serif" font-size="14.00">updated_at :datetime</text>
</g>
<!-- Category&#45;&gt;Mission -->
<g id="edge4" class="edge"><title>Category&#45;&gt;Mission</title>
<path fill="none" stroke="#55d2cb" d="M501.802,-512.787C528.166,-476.213 564.519,-425.78 593.28,-385.881"/>
<ellipse fill="none" stroke="#55d2cb" cx="499.359" cy="-516.176" rx="4.00002" ry="4.00002"/>
<polygon fill="#55d2cb" stroke="#55d2cb" points="593.448,-385.648 602.946,-380.167 596.372,-381.592 599.295,-377.536 599.295,-377.536 599.295,-377.536 596.372,-381.592 595.645,-374.904 593.448,-385.648 593.448,-385.648"/>
</g>
<!-- Status -->
<g id="node11" class="node"><title>Status</title>
<path fill="none" stroke="black" d="M982.182,-7.5C982.182,-7.5 1091.19,-7.5 1091.19,-7.5 1097.19,-7.5 1103.19,-13.5 1103.19,-19.5 1103.19,-19.5 1103.19,-109.5 1103.19,-109.5 1103.19,-115.5 1097.19,-121.5 1091.19,-121.5 1091.19,-121.5 982.182,-121.5 982.182,-121.5 976.182,-121.5 970.182,-115.5 970.182,-109.5 970.182,-109.5 970.182,-19.5 970.182,-19.5 970.182,-13.5 976.182,-7.5 982.182,-7.5"/>
<text text-anchor="middle" x="1036.69" y="-106.3" font-family="Times,serif" font-size="14.00">Status</text>
<polyline fill="none" stroke="black" points="970.182,-99.5 1103.19,-99.5 "/>
<text text-anchor="start" x="978.182" y="-84.3" font-family="Times,serif" font-size="14.00">id :integer</text>
<text text-anchor="start" x="978.182" y="-70.3" font-family="Times,serif" font-size="14.00">user_id :integer</text>
<text text-anchor="start" x="978.182" y="-56.3" font-family="Times,serif" font-size="14.00">category_id :integer</text>
<text text-anchor="start" x="978.182" y="-42.3" font-family="Times,serif" font-size="14.00">experience :integer</text>
<text text-anchor="start" x="978.182" y="-28.3" font-family="Times,serif" font-size="14.00">created_at :datetime</text>
<text text-anchor="start" x="978.182" y="-14.3" font-family="Times,serif" font-size="14.00">updated_at :datetime</text>
</g>
<!-- Category&#45;&gt;Status -->
<g id="edge6" class="edge"><title>Category&#45;&gt;Status</title>
<path fill="none" stroke="#3cb939" d="M534.328,-515.737C537.112,-514.401 539.904,-513.148 542.688,-512 615.29,-482.052 659.371,-530.738 715.688,-476 817.572,-376.972 687.919,-264.147 789.688,-165 845.318,-110.803 890.813,-162.905 960.688,-129 962.23,-128.252 963.767,-127.465 965.297,-126.645"/>
<ellipse fill="none" stroke="#3cb939" cx="530.56" cy="-517.644" rx="4.00002" ry="4.00002"/>
<polygon fill="#3cb939" stroke="#3cb939" points="965.327,-126.628 976.234,-125.497 969.651,-124.117 973.974,-121.605 973.974,-121.605 973.974,-121.605 969.651,-124.117 971.714,-117.714 965.327,-126.628 965.327,-126.628"/>
</g>
<!-- History -->
<g id="node6" class="node"><title>History</title>
<path fill="none" stroke="black" d="M799.651,-0.5C799.651,-0.5 939.724,-0.5 939.724,-0.5 945.724,-0.5 951.724,-6.5 951.724,-12.5 951.724,-12.5 951.724,-116.5 951.724,-116.5 951.724,-122.5 945.724,-128.5 939.724,-128.5 939.724,-128.5 799.651,-128.5 799.651,-128.5 793.651,-128.5 787.651,-122.5 787.651,-116.5 787.651,-116.5 787.651,-12.5 787.651,-12.5 787.651,-6.5 793.651,-0.5 799.651,-0.5"/>
<text text-anchor="middle" x="869.688" y="-113.3" font-family="Times,serif" font-size="14.00">History</text>
<polyline fill="none" stroke="black" points="787.651,-106.5 951.724,-106.5 "/>
<text text-anchor="start" x="795.651" y="-91.3" font-family="Times,serif" font-size="14.00">id :integer</text>
<text text-anchor="start" x="795.651" y="-77.3" font-family="Times,serif" font-size="14.00">user_id :integer</text>
<text text-anchor="start" x="795.651" y="-63.3" font-family="Times,serif" font-size="14.00">mission_id :integer</text>
<text text-anchor="start" x="795.651" y="-49.3" font-family="Times,serif" font-size="14.00">created_at :datetime</text>
<text text-anchor="start" x="795.651" y="-35.3" font-family="Times,serif" font-size="14.00">updated_at :datetime</text>
<text text-anchor="start" x="795.651" y="-21.3" font-family="Times,serif" font-size="14.00">recent_experience :integer</text>
<text text-anchor="start" x="795.651" y="-7.3" font-family="Times,serif" font-size="14.00">experience :integer</text>
</g>
<!-- Level -->
<g id="node7" class="node"><title>Level</title>
<path fill="none" stroke="black" d="M563.427,-512.5C563.427,-512.5 715.948,-512.5 715.948,-512.5 721.948,-512.5 727.948,-518.5 727.948,-524.5 727.948,-524.5 727.948,-600.5 727.948,-600.5 727.948,-606.5 721.948,-612.5 715.948,-612.5 715.948,-612.5 563.427,-612.5 563.427,-612.5 557.427,-612.5 551.427,-606.5 551.427,-600.5 551.427,-600.5 551.427,-524.5 551.427,-524.5 551.427,-518.5 557.427,-512.5 563.427,-512.5"/>
<text text-anchor="middle" x="639.688" y="-597.3" font-family="Times,serif" font-size="14.00">Level</text>
<polyline fill="none" stroke="black" points="551.427,-590.5 727.948,-590.5 "/>
<text text-anchor="start" x="559.427" y="-575.3" font-family="Times,serif" font-size="14.00">id :integer</text>
<text text-anchor="start" x="559.427" y="-561.3" font-family="Times,serif" font-size="14.00">value :integer</text>
<text text-anchor="start" x="559.427" y="-547.3" font-family="Times,serif" font-size="14.00">required_experience :integer</text>
<text text-anchor="start" x="559.427" y="-533.3" font-family="Times,serif" font-size="14.00">created_at :datetime</text>
<text text-anchor="start" x="559.427" y="-519.3" font-family="Times,serif" font-size="14.00">updated_at :datetime</text>
</g>
<!-- Level&#45;&gt;Mission -->
<g id="edge9" class="edge"><title>Level&#45;&gt;Mission</title>
<path fill="none" stroke="#b16e2f" d="M639.688,-503.887C639.688,-468.931 639.688,-424.189 639.688,-387.769"/>
<ellipse fill="none" stroke="#b16e2f" cx="639.688" cy="-508.353" rx="4" ry="4"/>
<polygon fill="#b16e2f" stroke="#b16e2f" points="639.688,-387.733 644.188,-377.733 639.688,-382.733 639.688,-377.733 639.688,-377.733 639.688,-377.733 639.688,-382.733 635.188,-377.733 639.688,-387.733 639.688,-387.733"/>
</g>
<!-- Mission&#45;&gt;Acquisition -->
<g id="edge11" class="edge"><title>Mission&#45;&gt;Acquisition</title>
<path fill="none" stroke="#d3681c" d="M570.128,-257.938C525.831,-218.735 468.601,-168.085 423.974,-128.589"/>
<ellipse fill="none" stroke="#d3681c" cx="573.354" cy="-260.793" rx="4.00002" ry="4.00002"/>
<polygon fill="#d3681c" stroke="#d3681c" points="423.849,-128.479 419.342,-118.481 420.104,-125.165 416.36,-121.851 416.36,-121.851 416.36,-121.851 420.104,-125.165 413.378,-125.221 423.849,-128.479 423.849,-128.479"/>
</g>
<!-- Mission&#45;&gt;Assign -->
<g id="edge13" class="edge"><title>Mission&#45;&gt;Assign</title>
<path fill="none" stroke="#05a4e4" d="M639.688,-255.442C639.688,-215.306 639.688,-163.943 639.688,-124.752"/>
<ellipse fill="none" stroke="#05a4e4" cx="639.688" cy="-259.444" rx="4" ry="4"/>
<polygon fill="#05a4e4" stroke="#05a4e4" points="639.688,-124.553 644.188,-114.553 639.688,-119.553 639.688,-114.553 639.688,-114.553 639.688,-114.553 639.688,-119.553 635.188,-114.553 639.688,-124.553 639.688,-124.553"/>
</g>
<!-- Mission&#45;&gt;History -->
<g id="edge12" class="edge"><title>Mission&#45;&gt;History</title>
<path fill="none" stroke="#0a9882" d="M676.509,-256.309C695.074,-227.003 719.067,-192.629 744.688,-165 755.386,-153.463 767.481,-142.153 779.828,-131.536"/>
<ellipse fill="none" stroke="#0a9882" cx="674.277" cy="-259.865" rx="4.00002" ry="4.00002"/>
<polygon fill="#0a9882" stroke="#0a9882" points="779.901,-131.475 790.444,-128.457 783.72,-128.247 787.539,-125.02 787.539,-125.02 787.539,-125.02 783.72,-128.247 784.634,-121.583 779.901,-131.475 779.901,-131.475"/>
</g>
<!-- Role -->
<g id="node9" class="node"><title>Role</title>
<path fill="none" stroke="black" d="M985.293,-512.5C985.293,-512.5 1102.08,-512.5 1102.08,-512.5 1108.08,-512.5 1114.08,-518.5 1114.08,-524.5 1114.08,-524.5 1114.08,-600.5 1114.08,-600.5 1114.08,-606.5 1108.08,-612.5 1102.08,-612.5 1102.08,-612.5 985.293,-612.5 985.293,-612.5 979.293,-612.5 973.293,-606.5 973.293,-600.5 973.293,-600.5 973.293,-524.5 973.293,-524.5 973.293,-518.5 979.293,-512.5 985.293,-512.5"/>
<text text-anchor="middle" x="1043.69" y="-597.3" font-family="Times,serif" font-size="14.00">Role</text>
<polyline fill="none" stroke="black" points="973.293,-590.5 1114.08,-590.5 "/>
<text text-anchor="start" x="981.293" y="-575.3" font-family="Times,serif" font-size="14.00">id :integer</text>
<text text-anchor="start" x="981.293" y="-561.3" font-family="Times,serif" font-size="14.00">name :string</text>
<text text-anchor="start" x="981.293" y="-547.3" font-family="Times,serif" font-size="14.00">created_at :datetime</text>
<text text-anchor="start" x="981.293" y="-533.3" font-family="Times,serif" font-size="14.00">updated_at :datetime</text>
<text text-anchor="start" x="981.293" y="-519.3" font-family="Times,serif" font-size="14.00">japanese_name :string</text>
</g>
<!-- User -->
<g id="node12" class="node"><title>User</title>
<path fill="none" stroke="black" d="M810.768,-165.5C810.768,-165.5 1056.61,-165.5 1056.61,-165.5 1062.61,-165.5 1068.61,-171.5 1068.61,-177.5 1068.61,-177.5 1068.61,-463.5 1068.61,-463.5 1068.61,-469.5 1062.61,-475.5 1056.61,-475.5 1056.61,-475.5 810.768,-475.5 810.768,-475.5 804.768,-475.5 798.768,-469.5 798.768,-463.5 798.768,-463.5 798.768,-177.5 798.768,-177.5 798.768,-171.5 804.768,-165.5 810.768,-165.5"/>
<text text-anchor="middle" x="933.688" y="-460.3" font-family="Times,serif" font-size="14.00">User</text>
<polyline fill="none" stroke="black" points="798.768,-453.5 1068.61,-453.5 "/>
<text text-anchor="start" x="806.768" y="-438.3" font-family="Times,serif" font-size="14.00">id :integer</text>
<text text-anchor="start" x="806.768" y="-424.3" font-family="Times,serif" font-size="14.00">email :string</text>
<text text-anchor="start" x="806.768" y="-410.3" font-family="Times,serif" font-size="14.00">encrypted_password :string</text>
<text text-anchor="start" x="806.768" y="-396.3" font-family="Times,serif" font-size="14.00">reset_password_token :string</text>
<text text-anchor="start" x="806.768" y="-382.3" font-family="Times,serif" font-size="14.00">reset_password_sent_at :datetime</text>
<text text-anchor="start" x="806.768" y="-368.3" font-family="Times,serif" font-size="14.00">remember_created_at :datetime</text>
<text text-anchor="start" x="806.768" y="-354.3" font-family="Times,serif" font-size="14.00">sign_in_count :integer</text>
<text text-anchor="start" x="806.768" y="-340.3" font-family="Times,serif" font-size="14.00">current_sign_in_at :datetime</text>
<text text-anchor="start" x="806.768" y="-326.3" font-family="Times,serif" font-size="14.00">last_sign_in_at :datetime</text>
<text text-anchor="start" x="806.768" y="-312.3" font-family="Times,serif" font-size="14.00">current_sign_in_ip :string</text>
<text text-anchor="start" x="806.768" y="-298.3" font-family="Times,serif" font-size="14.00">last_sign_in_ip :string</text>
<text text-anchor="start" x="806.768" y="-284.3" font-family="Times,serif" font-size="14.00">created_at :datetime</text>
<text text-anchor="start" x="806.768" y="-270.3" font-family="Times,serif" font-size="14.00">updated_at :datetime</text>
<text text-anchor="start" x="806.768" y="-256.3" font-family="Times,serif" font-size="14.00">name :string</text>
<text text-anchor="start" x="806.768" y="-242.3" font-family="Times,serif" font-size="14.00">number :string</text>
<text text-anchor="start" x="806.768" y="-228.3" font-family="Times,serif" font-size="14.00">fpno :string</text>
<text text-anchor="start" x="806.768" y="-214.3" font-family="Times,serif" font-size="14.00">role_id :integer</text>
<text text-anchor="start" x="806.768" y="-200.3" font-family="Times,serif" font-size="14.00">seminar_id :integer</text>
<text text-anchor="start" x="806.768" y="-186.3" font-family="Times,serif" font-size="14.00">card_number :string</text>
<text text-anchor="start" x="806.768" y="-172.3" font-family="Times,serif" font-size="14.00">recent_web_access_bonus_awarded_on :date</text>
</g>
<!-- Role&#45;&gt;User -->
<g id="edge15" class="edge"><title>Role&#45;&gt;User</title>
<path fill="none" stroke="#003d0d" d="M1017.74,-504.889C1014.88,-498.644 1011.87,-492.077 1008.76,-485.294"/>
<ellipse fill="none" stroke="#003d0d" cx="1019.5" cy="-508.717" rx="4.00002" ry="4.00002"/>
<polygon fill="#003d0d" stroke="#003d0d" points="1008.63,-485.01 1008.55,-474.045 1006.55,-480.465 1004.46,-475.92 1004.46,-475.92 1004.46,-475.92 1006.55,-480.465 1000.37,-477.795 1008.63,-485.01 1008.63,-485.01"/>
</g>
<!-- Seminar -->
<g id="node10" class="node"><title>Seminar</title>
<path fill="none" stroke="black" d="M796.182,-519.5C796.182,-519.5 905.193,-519.5 905.193,-519.5 911.193,-519.5 917.193,-525.5 917.193,-531.5 917.193,-531.5 917.193,-593.5 917.193,-593.5 917.193,-599.5 911.193,-605.5 905.193,-605.5 905.193,-605.5 796.182,-605.5 796.182,-605.5 790.182,-605.5 784.182,-599.5 784.182,-593.5 784.182,-593.5 784.182,-531.5 784.182,-531.5 784.182,-525.5 790.182,-519.5 796.182,-519.5"/>
<text text-anchor="middle" x="850.688" y="-590.3" font-family="Times,serif" font-size="14.00">Seminar</text>
<polyline fill="none" stroke="black" points="784.182,-583.5 917.193,-583.5 "/>
<text text-anchor="start" x="792.182" y="-568.3" font-family="Times,serif" font-size="14.00">id :integer</text>
<text text-anchor="start" x="792.182" y="-554.3" font-family="Times,serif" font-size="14.00">name :string</text>
<text text-anchor="start" x="792.182" y="-540.3" font-family="Times,serif" font-size="14.00">created_at :datetime</text>
<text text-anchor="start" x="792.182" y="-526.3" font-family="Times,serif" font-size="14.00">updated_at :datetime</text>
</g>
<!-- Seminar&#45;&gt;User -->
<g id="edge17" class="edge"><title>Seminar&#45;&gt;User</title>
<path fill="none" stroke="#76a4f6" d="M867.936,-511.625C870.971,-502.85 874.273,-493.303 877.727,-483.315"/>
<ellipse fill="none" stroke="#76a4f6" cx="866.548" cy="-515.64" rx="4.00001" ry="4.00001"/>
<ellipse fill="#76a4f6" stroke="#76a4f6" cx="879.089" cy="-479.376" rx="4.00001" ry="4.00001"/>
</g>
<!-- User&#45;&gt;Assign -->
<g id="edge22" class="edge"><title>User&#45;&gt;Assign</title>
<path fill="none" stroke="#ec418f" d="M792.411,-197.444C761.556,-170.788 730.365,-143.84 704.286,-121.309"/>
<ellipse fill="none" stroke="#ec418f" cx="795.707" cy="-200.293" rx="4.00002" ry="4.00002"/>
<polygon fill="#ec418f" stroke="#ec418f" points="704.284,-121.308 699.659,-111.365 700.501,-118.039 696.717,-114.77 696.717,-114.77 696.717,-114.77 700.501,-118.039 693.775,-118.175 704.284,-121.308 704.284,-121.308"/>
</g>
<!-- User&#45;&gt;History -->
<g id="edge21" class="edge"><title>User&#45;&gt;History</title>
<path fill="none" stroke="#c07373" d="M892.776,-157.13C891.172,-150.766 889.601,-144.531 888.08,-138.496"/>
<ellipse fill="none" stroke="#c07373" cx="893.821" cy="-161.28" rx="4.00001" ry="4.00001"/>
<polygon fill="#c07373" stroke="#c07373" points="888.015,-138.237 889.935,-127.441 886.794,-133.389 885.572,-128.54 885.572,-128.54 885.572,-128.54 886.794,-133.389 881.208,-129.64 888.015,-138.237 888.015,-138.237"/>
</g>
<!-- User&#45;&gt;Status -->
<g id="edge20" class="edge"><title>User&#45;&gt;Status</title>
<path fill="none" stroke="#fc8bbc" d="M999.324,-157.641C1003.06,-148.431 1006.69,-139.485 1010.12,-131.02"/>
<ellipse fill="none" stroke="#fc8bbc" cx="997.778" cy="-161.452" rx="4.00001" ry="4.00001"/>
<polygon fill="#fc8bbc" stroke="#fc8bbc" points="1010.15,-130.946 1018.08,-123.37 1012.03,-126.312 1013.91,-121.679 1013.91,-121.679 1013.91,-121.679 1012.03,-126.312 1009.74,-119.988 1010.15,-130.946 1010.15,-130.946"/>
</g>
<!-- Object -->
<g id="node13" class="node"><title>Object</title>
<ellipse fill="none" stroke="black" cx="258.688" cy="-685.5" rx="33.8596" ry="18"/>
<text text-anchor="middle" x="258.688" y="-681.3" font-family="Times,serif" font-size="14.00">Object</text>
</g>
<!-- Object&#45;&gt;Ability -->
<g id="edge1" class="edge"><title>Object&#45;&gt;Ability</title>
<path fill="none" stroke="black" d="M258.688,-667.42C258.688,-645.662 258.688,-608.068 258.688,-584.558"/>
</g>
<!-- ActiveRecord::Base -->
<g id="node14" class="node"><title>ActiveRecord::Base</title>
<ellipse fill="none" stroke="black" cx="803.688" cy="-685.5" rx="81.1422" ry="18"/>
<text text-anchor="middle" x="803.688" y="-681.3" font-family="Times,serif" font-size="14.00">ActiveRecord::Base</text>
</g>
<!-- ActiveRecord::Base&#45;&gt;Acquisition -->
<g id="edge2" class="edge"><title>ActiveRecord::Base&#45;&gt;Acquisition</title>
<path fill="none" stroke="black" d="M722.63,-683.938C604.559,-681.203 394.135,-668.448 346.688,-613 284.807,-540.685 323.407,-246.5 343.154,-121.798"/>
</g>
<!-- ActiveRecord::Base&#45;&gt;Assign -->
<g id="edge3" class="edge"><title>ActiveRecord::Base&#45;&gt;Assign</title>
<path fill="none" stroke="black" d="M723.19,-682.411C615.256,-677.717 432.335,-662.477 390.688,-613 258.384,-455.824 476.524,-216.849 584.586,-114.65"/>
</g>
<!-- ActiveRecord::Base&#45;&gt;Category -->
<g id="edge7" class="edge"><title>ActiveRecord::Base&#45;&gt;Category</title>
<path fill="none" stroke="black" d="M743.041,-673.454C688.938,-662.314 608.361,-642.513 542.688,-613 537.804,-610.806 532.878,-608.321 528.005,-605.662"/>
</g>
<!-- ActiveRecord::Base&#45;&gt;History -->
<g id="edge8" class="edge"><title>ActiveRecord::Base&#45;&gt;History</title>
<path fill="none" stroke="black" d="M878.413,-678.349C962.909,-669.662 1092.67,-650.493 1122.69,-613 1156.84,-570.347 1163.11,-266.293 1077.69,-165 1042.61,-123.41 1009.59,-152.854 960.688,-129 957.744,-127.564 954.791,-126.039 951.841,-124.442"/>
</g>
<!-- ActiveRecord::Base&#45;&gt;Level -->
<g id="edge10" class="edge"><title>ActiveRecord::Base&#45;&gt;Level</title>
<path fill="none" stroke="black" d="M781.228,-667.929C761.928,-653.69 733.082,-632.407 706.456,-612.762"/>
</g>
<!-- ActiveRecord::Base&#45;&gt;Mission -->
<g id="edge14" class="edge"><title>ActiveRecord::Base&#45;&gt;Mission</title>
<path fill="none" stroke="black" d="M796.651,-667.502C790.701,-653.045 782.002,-631.714 774.688,-613 757.229,-568.33 756.043,-555.882 736.688,-512 716.393,-465.988 690.407,-415.315 670.44,-377.805"/>
</g>
<!-- ActiveRecord::Base&#45;&gt;Role -->
<g id="edge16" class="edge"><title>ActiveRecord::Base&#45;&gt;Role</title>
<path fill="none" stroke="black" d="M839.503,-669.335C871.45,-655.514 919.28,-634.095 959.688,-613 964.039,-610.728 968.483,-608.336 972.942,-605.88"/>
</g>
<!-- ActiveRecord::Base&#45;&gt;Seminar -->
<g id="edge18" class="edge"><title>ActiveRecord::Base&#45;&gt;Seminar</title>
<path fill="none" stroke="black" d="M810.322,-667.42C816.547,-651.395 826.108,-626.779 834.363,-605.527"/>
</g>
<!-- ActiveRecord::Base&#45;&gt;Status -->
<g id="edge19" class="edge"><title>ActiveRecord::Base&#45;&gt;Status</title>
<path fill="none" stroke="black" d="M880.594,-679.535C971.511,-671.875 1114.68,-653.575 1147.69,-613 1192.85,-557.488 1251.42,-461.764 1126.69,-165 1120.14,-149.432 1110.09,-134.702 1099.04,-121.583"/>
</g>
<!-- ActiveRecord::Base&#45;&gt;User -->
<g id="edge23" class="edge"><title>ActiveRecord::Base&#45;&gt;User</title>
<path fill="none" stroke="black" d="M849.695,-670.549C877.173,-659.606 909.901,-641.382 926.688,-613 950.784,-572.261 958.212,-522.395 957.934,-475.505"/>
</g>
</g>
</svg>
