<?xml version="1.0" encoding="UTF-8" standalone="no"?>
<!DOCTYPE svg PUBLIC "-//W3C//DTD SVG 1.1//EN"
 "http://www.w3.org/Graphics/SVG/1.1/DTD/svg11.dtd">
<!-- Generated by graphviz version 2.38.0 (20140413.2041)
 -->
<!-- Title: models_diagram Pages: 1 -->
<svg width="828pt" height="537pt"
 viewBox="0.00 0.00 827.78 537.00" xmlns="http://www.w3.org/2000/svg" xmlns:xlink="http://www.w3.org/1999/xlink">
<g id="graph0" class="graph" transform="scale(1 1) rotate(0) translate(4 533)">
<title>models_diagram</title>
<polygon fill="white" stroke="none" points="-4,4 -4,-533 823.783,-533 823.783,4 -4,4"/>
<!-- _diagram_info -->
<g id="node1" class="node"><title>_diagram_info</title>
<text text-anchor="start" x="146.056" y="-514.6" font-family="Times,serif" font-size="13.00">Models diagram</text>
<text text-anchor="start" x="146.056" y="-501.6" font-family="Times,serif" font-size="13.00">Date: Sep 26 2014 &#45; 20:58</text>
<text text-anchor="start" x="146.056" y="-488.6" font-family="Times,serif" font-size="13.00">Migration version: 20140926114154</text>
<text text-anchor="start" x="146.056" y="-475.6" font-family="Times,serif" font-size="13.00">Generated by RailRoady 1.1.2</text>
<text text-anchor="start" x="146.056" y="-462.6" font-family="Times,serif" font-size="13.00">http://railroady.prestonlee.com</text>
</g>
<!-- Acquisition -->
<g id="node2" class="node"><title>Acquisition</title>
<path fill="none" stroke="black" d="M12,-305.5C12,-305.5 121.011,-305.5 121.011,-305.5 127.011,-305.5 133.011,-311.5 133.011,-317.5 133.011,-317.5 133.011,-407.5 133.011,-407.5 133.011,-413.5 127.011,-419.5 121.011,-419.5 121.011,-419.5 12,-419.5 12,-419.5 6,-419.5 0,-413.5 0,-407.5 0,-407.5 0,-317.5 0,-317.5 0,-311.5 6,-305.5 12,-305.5"/>
<text text-anchor="middle" x="66.5054" y="-404.3" font-family="Times,serif" font-size="14.00">Acquisition</text>
<polyline fill="none" stroke="black" points="0,-397.5 133.011,-397.5 "/>
<text text-anchor="start" x="8" y="-382.3" font-family="Times,serif" font-size="14.00">id :integer</text>
<text text-anchor="start" x="8" y="-368.3" font-family="Times,serif" font-size="14.00">mission_id :integer</text>
<text text-anchor="start" x="8" y="-354.3" font-family="Times,serif" font-size="14.00">category_id :integer</text>
<text text-anchor="start" x="8" y="-340.3" font-family="Times,serif" font-size="14.00">experiences :integer</text>
<text text-anchor="start" x="8" y="-326.3" font-family="Times,serif" font-size="14.00">created_at :datetime</text>
<text text-anchor="start" x="8" y="-312.3" font-family="Times,serif" font-size="14.00">updated_at :datetime</text>
</g>
<!-- Category -->
<g id="node3" class="node"><title>Category</title>
<path fill="none" stroke="black" d="M163,-319.5C163,-319.5 272.011,-319.5 272.011,-319.5 278.011,-319.5 284.011,-325.5 284.011,-331.5 284.011,-331.5 284.011,-393.5 284.011,-393.5 284.011,-399.5 278.011,-405.5 272.011,-405.5 272.011,-405.5 163,-405.5 163,-405.5 157,-405.5 151,-399.5 151,-393.5 151,-393.5 151,-331.5 151,-331.5 151,-325.5 157,-319.5 163,-319.5"/>
<text text-anchor="middle" x="217.505" y="-390.3" font-family="Times,serif" font-size="14.00">Category</text>
<polyline fill="none" stroke="black" points="151,-383.5 284.011,-383.5 "/>
<text text-anchor="start" x="159" y="-368.3" font-family="Times,serif" font-size="14.00">id :integer</text>
<text text-anchor="start" x="159" y="-354.3" font-family="Times,serif" font-size="14.00">name :string</text>
<text text-anchor="start" x="159" y="-340.3" font-family="Times,serif" font-size="14.00">created_at :datetime</text>
<text text-anchor="start" x="159" y="-326.3" font-family="Times,serif" font-size="14.00">updated_at :datetime</text>
</g>
<!-- Level -->
<g id="node4" class="node"><title>Level</title>
<path fill="none" stroke="black" d="M314,-312.5C314,-312.5 423.011,-312.5 423.011,-312.5 429.011,-312.5 435.011,-318.5 435.011,-324.5 435.011,-324.5 435.011,-400.5 435.011,-400.5 435.011,-406.5 429.011,-412.5 423.011,-412.5 423.011,-412.5 314,-412.5 314,-412.5 308,-412.5 302,-406.5 302,-400.5 302,-400.5 302,-324.5 302,-324.5 302,-318.5 308,-312.5 314,-312.5"/>
<text text-anchor="middle" x="368.505" y="-397.3" font-family="Times,serif" font-size="14.00">Level</text>
<polyline fill="none" stroke="black" points="302,-390.5 435.011,-390.5 "/>
<text text-anchor="start" x="310" y="-375.3" font-family="Times,serif" font-size="14.00">id :integer</text>
<text text-anchor="start" x="310" y="-361.3" font-family="Times,serif" font-size="14.00">value :integer</text>
<text text-anchor="start" x="310" y="-347.3" font-family="Times,serif" font-size="14.00">sufficiencies :integer</text>
<text text-anchor="start" x="310" y="-333.3" font-family="Times,serif" font-size="14.00">created_at :datetime</text>
<text text-anchor="start" x="310" y="-319.3" font-family="Times,serif" font-size="14.00">updated_at :datetime</text>
</g>
<!-- Mission -->
<g id="node5" class="node"><title>Mission</title>
<path fill="none" stroke="black" d="M465,-305.5C465,-305.5 574.011,-305.5 574.011,-305.5 580.011,-305.5 586.011,-311.5 586.011,-317.5 586.011,-317.5 586.011,-407.5 586.011,-407.5 586.011,-413.5 580.011,-419.5 574.011,-419.5 574.011,-419.5 465,-419.5 465,-419.5 459,-419.5 453,-413.5 453,-407.5 453,-407.5 453,-317.5 453,-317.5 453,-311.5 459,-305.5 465,-305.5"/>
<text text-anchor="middle" x="519.505" y="-404.3" font-family="Times,serif" font-size="14.00">Mission</text>
<polyline fill="none" stroke="black" points="453,-397.5 586.011,-397.5 "/>
<text text-anchor="start" x="461" y="-382.3" font-family="Times,serif" font-size="14.00">id :integer</text>
<text text-anchor="start" x="461" y="-368.3" font-family="Times,serif" font-size="14.00">description :text</text>
<text text-anchor="start" x="461" y="-354.3" font-family="Times,serif" font-size="14.00">category_id :integer</text>
<text text-anchor="start" x="461" y="-340.3" font-family="Times,serif" font-size="14.00">level_id :integer</text>
<text text-anchor="start" x="461" y="-326.3" font-family="Times,serif" font-size="14.00">created_at :datetime</text>
<text text-anchor="start" x="461" y="-312.3" font-family="Times,serif" font-size="14.00">updated_at :datetime</text>
</g>
<!-- Role -->
<g id="node6" class="node"><title>Role</title>
<path fill="none" stroke="black" d="M616,-319.5C616,-319.5 725.011,-319.5 725.011,-319.5 731.011,-319.5 737.011,-325.5 737.011,-331.5 737.011,-331.5 737.011,-393.5 737.011,-393.5 737.011,-399.5 731.011,-405.5 725.011,-405.5 725.011,-405.5 616,-405.5 616,-405.5 610,-405.5 604,-399.5 604,-393.5 604,-393.5 604,-331.5 604,-331.5 604,-325.5 610,-319.5 616,-319.5"/>
<text text-anchor="middle" x="670.505" y="-390.3" font-family="Times,serif" font-size="14.00">Role</text>
<polyline fill="none" stroke="black" points="604,-383.5 737.011,-383.5 "/>
<text text-anchor="start" x="612" y="-368.3" font-family="Times,serif" font-size="14.00">id :integer</text>
<text text-anchor="start" x="612" y="-354.3" font-family="Times,serif" font-size="14.00">name :string</text>
<text text-anchor="start" x="612" y="-340.3" font-family="Times,serif" font-size="14.00">created_at :datetime</text>
<text text-anchor="start" x="612" y="-326.3" font-family="Times,serif" font-size="14.00">updated_at :datetime</text>
</g>
<!-- User -->
<g id="node7" class="node"><title>User</title>
<path fill="none" stroke="black" d="M627.228,-0.5C627.228,-0.5 807.783,-0.5 807.783,-0.5 813.783,-0.5 819.783,-6.5 819.783,-12.5 819.783,-12.5 819.783,-256.5 819.783,-256.5 819.783,-262.5 813.783,-268.5 807.783,-268.5 807.783,-268.5 627.228,-268.5 627.228,-268.5 621.228,-268.5 615.228,-262.5 615.228,-256.5 615.228,-256.5 615.228,-12.5 615.228,-12.5 615.228,-6.5 621.228,-0.5 627.228,-0.5"/>
<text text-anchor="middle" x="717.505" y="-253.3" font-family="Times,serif" font-size="14.00">User</text>
<polyline fill="none" stroke="black" points="615.228,-246.5 819.783,-246.5 "/>
<text text-anchor="start" x="623.228" y="-231.3" font-family="Times,serif" font-size="14.00">id :integer</text>
<text text-anchor="start" x="623.228" y="-217.3" font-family="Times,serif" font-size="14.00">email :string</text>
<text text-anchor="start" x="623.228" y="-203.3" font-family="Times,serif" font-size="14.00">encrypted_password :string</text>
<text text-anchor="start" x="623.228" y="-189.3" font-family="Times,serif" font-size="14.00">reset_password_token :string</text>
<text text-anchor="start" x="623.228" y="-175.3" font-family="Times,serif" font-size="14.00">reset_password_sent_at :datetime</text>
<text text-anchor="start" x="623.228" y="-161.3" font-family="Times,serif" font-size="14.00">remember_created_at :datetime</text>
<text text-anchor="start" x="623.228" y="-147.3" font-family="Times,serif" font-size="14.00">sign_in_count :integer</text>
<text text-anchor="start" x="623.228" y="-133.3" font-family="Times,serif" font-size="14.00">current_sign_in_at :datetime</text>
<text text-anchor="start" x="623.228" y="-119.3" font-family="Times,serif" font-size="14.00">last_sign_in_at :datetime</text>
<text text-anchor="start" x="623.228" y="-105.3" font-family="Times,serif" font-size="14.00">current_sign_in_ip :string</text>
<text text-anchor="start" x="623.228" y="-91.3" font-family="Times,serif" font-size="14.00">last_sign_in_ip :string</text>
<text text-anchor="start" x="623.228" y="-77.3" font-family="Times,serif" font-size="14.00">created_at :datetime</text>
<text text-anchor="start" x="623.228" y="-63.3" font-family="Times,serif" font-size="14.00">updated_at :datetime</text>
<text text-anchor="start" x="623.228" y="-49.3" font-family="Times,serif" font-size="14.00">name :string</text>
<text text-anchor="start" x="623.228" y="-35.3" font-family="Times,serif" font-size="14.00">number :string</text>
<text text-anchor="start" x="623.228" y="-21.3" font-family="Times,serif" font-size="14.00">idm :string</text>
<text text-anchor="start" x="623.228" y="-7.3" font-family="Times,serif" font-size="14.00">role_id :integer</text>
</g>
<!-- Role&#45;&gt;User -->
<g id="edge5" class="edge"><title>Role&#45;&gt;User</title>
<path fill="none" stroke="#5058ee" d="M680.928,-311.384C683.039,-301.23 685.358,-290.081 687.771,-278.478"/>
<ellipse fill="none" stroke="#5058ee" cx="680.105" cy="-315.34" rx="4.00001" ry="4.00001"/>
<polygon fill="#5058ee" stroke="#5058ee" points="687.781,-278.428 694.223,-269.553 688.8,-273.532 689.818,-268.637 689.818,-268.637 689.818,-268.637 688.8,-273.532 685.412,-267.721 687.781,-278.428 687.781,-278.428"/>
</g>
<!-- ActiveRecord::Base -->
<g id="node8" class="node"><title>ActiveRecord::Base</title>
<ellipse fill="none" stroke="black" cx="444.505" cy="-492.5" rx="81.1422" ry="18"/>
<text text-anchor="middle" x="444.505" y="-488.3" font-family="Times,serif" font-size="14.00">ActiveRecord::Base</text>
</g>
<!-- ActiveRecord::Base&#45;&gt;Acquisition -->
<g id="edge1" class="edge"><title>ActiveRecord::Base&#45;&gt;Acquisition</title>
<path fill="none" stroke="black" d="M410.067,-476.15C393.278,-469.164 372.627,-461.294 353.505,-456 261.399,-430.501 229.273,-457.825 141.505,-420 138.661,-418.774 135.826,-417.419 133.014,-415.96"/>
</g>
<!-- ActiveRecord::Base&#45;&gt;Category -->
<g id="edge2" class="edge"><title>ActiveRecord::Base&#45;&gt;Category</title>
<path fill="none" stroke="black" d="M407.173,-476.495C375.712,-463.255 329.965,-442.59 292.505,-420 285.246,-415.622 277.841,-410.692 270.65,-405.614"/>
</g>
<!-- ActiveRecord::Base&#45;&gt;Level -->
<g id="edge3" class="edge"><title>ActiveRecord::Base&#45;&gt;Level</title>
<path fill="none" stroke="black" d="M434.413,-474.503C425.045,-458.725 410.635,-434.455 397.675,-412.628"/>
</g>
<!-- ActiveRecord::Base&#45;&gt;Mission -->
<g id="edge4" class="edge"><title>ActiveRecord::Base&#45;&gt;Mission</title>
<path fill="none" stroke="black" d="M454.465,-474.503C462.713,-460.426 474.923,-439.587 486.543,-419.755"/>
</g>
<!-- ActiveRecord::Base&#45;&gt;Role -->
<g id="edge6" class="edge"><title>ActiveRecord::Base&#45;&gt;Role</title>
<path fill="none" stroke="black" d="M481.584,-476.457C512.833,-463.193 558.276,-442.516 595.505,-420 602.759,-415.613 610.16,-410.677 617.35,-405.596"/>
</g>
<!-- ActiveRecord::Base&#45;&gt;User -->
<g id="edge7" class="edge"><title>ActiveRecord::Base&#45;&gt;User</title>
<path fill="none" stroke="black" d="M517.433,-484.505C597.504,-475.139 718.472,-455.446 746.505,-420 779.767,-377.943 779.803,-320.737 768.728,-268.649"/>
</g>
</g>
</svg>
