<?xml version="1.0" encoding="UTF-8" standalone="no"?>
<!DOCTYPE svg PUBLIC "-//W3C//DTD SVG 1.1//EN"
 "http://www.w3.org/Graphics/SVG/1.1/DTD/svg11.dtd">
<!-- Generated by graphviz version 2.38.0 (20140413.2041)
 -->
<!-- Title: models_diagram Pages: 1 -->
<svg width="1198pt" height="702pt"
 viewBox="0.00 0.00 1197.90 702.00" xmlns="http://www.w3.org/2000/svg" xmlns:xlink="http://www.w3.org/1999/xlink">
<g id="graph0" class="graph" transform="scale(1 1) rotate(0) translate(4 698)">
<title>models_diagram</title>
<polygon fill="white" stroke="none" points="-4,4 -4,-698 1193.9,-698 1193.9,4 -4,4"/>
<!-- _diagram_info -->
<g id="node1" class="node"><title>_diagram_info</title>
<text text-anchor="start" x="8" y="-679.6" font-family="Times,serif" font-size="13.00">Models diagram</text>
<text text-anchor="start" x="8" y="-666.6" font-family="Times,serif" font-size="13.00">Date: Oct 17 2014 &#45; 01:51</text>
<text text-anchor="start" x="8" y="-653.6" font-family="Times,serif" font-size="13.00">Migration version: 20141016044124</text>
<text text-anchor="start" x="8" y="-640.6" font-family="Times,serif" font-size="13.00">Generated by RailRoady 1.1.2</text>
<text text-anchor="start" x="8" y="-627.6" font-family="Times,serif" font-size="13.00">http://railroady.prestonlee.com</text>
</g>
<!-- Ability -->
<g id="node2" class="node"><title>Ability</title>
<polygon fill="none" stroke="black" points="230.853,-512.5 230.853,-556.5 286.522,-556.5 286.522,-512.5 230.853,-512.5"/>
<text text-anchor="middle" x="258.688" y="-541.3" font-family="Times,serif" font-size="14.00">Ability</text>
<polyline fill="none" stroke="black" points="230.853,-534.5 286.522,-534.5 "/>
<text text-anchor="middle" x="258.688" y="-519.3" font-family="Times,serif" font-size="14.00"> </text>
</g>
<!-- Acquisition -->
<g id="node3" class="node"><title>Acquisition</title>
<path fill="none" stroke="black" d="M298.182,-7.5C298.182,-7.5 407.193,-7.5 407.193,-7.5 413.193,-7.5 419.193,-13.5 419.193,-19.5 419.193,-19.5 419.193,-109.5 419.193,-109.5 419.193,-115.5 413.193,-121.5 407.193,-121.5 407.193,-121.5 298.182,-121.5 298.182,-121.5 292.182,-121.5 286.182,-115.5 286.182,-109.5 286.182,-109.5 286.182,-19.5 286.182,-19.5 286.182,-13.5 292.182,-7.5 298.182,-7.5"/>
<text text-anchor="middle" x="352.688" y="-106.3" font-family="Times,serif" font-size="14.00">Acquisition</text>
<polyline fill="none" stroke="black" points="286.182,-99.5 419.193,-99.5 "/>
<text text-anchor="start" x="294.182" y="-84.3" font-family="Times,serif" font-size="14.00">id :integer</text>
<text text-anchor="start" x="294.182" y="-70.3" font-family="Times,serif" font-size="14.00">mission_id :integer</text>
<text text-anchor="start" x="294.182" y="-56.3" font-family="Times,serif" font-size="14.00">category_id :integer</text>
<text text-anchor="start" x="294.182" y="-42.3" font-family="Times,serif" font-size="14.00">experience :integer</text>
<text text-anchor="start" x="294.182" y="-28.3" font-family="Times,serif" font-size="14.00">created_at :datetime</text>
<text text-anchor="start" x="294.182" y="-14.3" font-family="Times,serif" font-size="14.00">updated_at :datetime</text>
</g>
<!-- Assign -->
<g id="node4" class="node"><title>Assign</title>
<path fill="none" stroke="black" d="M585.182,-14.5C585.182,-14.5 694.193,-14.5 694.193,-14.5 700.193,-14.5 706.193,-20.5 706.193,-26.5 706.193,-26.5 706.193,-102.5 706.193,-102.5 706.193,-108.5 700.193,-114.5 694.193,-114.5 694.193,-114.5 585.182,-114.5 585.182,-114.5 579.182,-114.5 573.182,-108.5 573.182,-102.5 573.182,-102.5 573.182,-26.5 573.182,-26.5 573.182,-20.5 579.182,-14.5 585.182,-14.5"/>
<text text-anchor="middle" x="639.688" y="-99.3" font-family="Times,serif" font-size="14.00">Assign</text>
<polyline fill="none" stroke="black" points="573.182,-92.5 706.193,-92.5 "/>
<text text-anchor="start" x="581.182" y="-77.3" font-family="Times,serif" font-size="14.00">id :integer</text>
<text text-anchor="start" x="581.182" y="-63.3" font-family="Times,serif" font-size="14.00">user_id :integer</text>
<text text-anchor="start" x="581.182" y="-49.3" font-family="Times,serif" font-size="14.00">mission_id :integer</text>
<text text-anchor="start" x="581.182" y="-35.3" font-family="Times,serif" font-size="14.00">created_at :datetime</text>
<text text-anchor="start" x="581.182" y="-21.3" font-family="Times,serif" font-size="14.00">updated_at :datetime</text>
</g>
<!-- Category -->
<g id="node5" class="node"><title>Category</title>
<path fill="none" stroke="black" d="M412.182,-491.5C412.182,-491.5 521.193,-491.5 521.193,-491.5 527.193,-491.5 533.193,-497.5 533.193,-503.5 533.193,-503.5 533.193,-565.5 533.193,-565.5 533.193,-571.5 527.193,-577.5 521.193,-577.5 521.193,-577.5 412.182,-577.5 412.182,-577.5 406.182,-577.5 400.182,-571.5 400.182,-565.5 400.182,-565.5 400.182,-503.5 400.182,-503.5 400.182,-497.5 406.182,-491.5 412.182,-491.5"/>
<text text-anchor="middle" x="466.688" y="-562.3" font-family="Times,serif" font-size="14.00">Category</text>
<polyline fill="none" stroke="black" points="400.182,-555.5 533.193,-555.5 "/>
<text text-anchor="start" x="408.182" y="-540.3" font-family="Times,serif" font-size="14.00">id :integer</text>
<text text-anchor="start" x="408.182" y="-526.3" font-family="Times,serif" font-size="14.00">name :string</text>
<text text-anchor="start" x="408.182" y="-512.3" font-family="Times,serif" font-size="14.00">created_at :datetime</text>
<text text-anchor="start" x="408.182" y="-498.3" font-family="Times,serif" font-size="14.00">updated_at :datetime</text>
</g>
<!-- Category&#45;&gt;Acquisition -->
<g id="edge5" class="edge"><title>Category&#45;&gt;Acquisition</title>
<path fill="none" stroke="#596801" d="M454.429,-483.175C433.715,-398.14 391.799,-226.061 368.759,-131.477"/>
<ellipse fill="none" stroke="#596801" cx="455.423" cy="-487.256" rx="4.00001" ry="4.00001"/>
<polygon fill="#596801" stroke="#596801" points="368.752,-131.45 370.758,-120.669 367.569,-126.592 366.386,-121.734 366.386,-121.734 366.386,-121.734 367.569,-126.592 362.014,-122.799 368.752,-131.45 368.752,-131.45"/>
</g>
<!-- Mission -->
<g id="node8" class="node"><title>Mission</title>
<path fill="none" stroke="black" d="M585.182,-249.5C585.182,-249.5 694.193,-249.5 694.193,-249.5 700.193,-249.5 706.193,-255.5 706.193,-261.5 706.193,-261.5 706.193,-351.5 706.193,-351.5 706.193,-357.5 700.193,-363.5 694.193,-363.5 694.193,-363.5 585.182,-363.5 585.182,-363.5 579.182,-363.5 573.182,-357.5 573.182,-351.5 573.182,-351.5 573.182,-261.5 573.182,-261.5 573.182,-255.5 579.182,-249.5 585.182,-249.5"/>
<text text-anchor="middle" x="639.688" y="-348.3" font-family="Times,serif" font-size="14.00">Mission</text>
<polyline fill="none" stroke="black" points="573.182,-341.5 706.193,-341.5 "/>
<text text-anchor="start" x="581.182" y="-326.3" font-family="Times,serif" font-size="14.00">id :integer</text>
<text text-anchor="start" x="581.182" y="-312.3" font-family="Times,serif" font-size="14.00">description :string</text>
<text text-anchor="start" x="581.182" y="-298.3" font-family="Times,serif" font-size="14.00">category_id :integer</text>
<text text-anchor="start" x="581.182" y="-284.3" font-family="Times,serif" font-size="14.00">level_id :integer</text>
<text text-anchor="start" x="581.182" y="-270.3" font-family="Times,serif" font-size="14.00">created_at :datetime</text>
<text text-anchor="start" x="581.182" y="-256.3" font-family="Times,serif" font-size="14.00">updated_at :datetime</text>
</g>
<!-- Category&#45;&gt;Mission -->
<g id="edge4" class="edge"><title>Category&#45;&gt;Mission</title>
<path fill="none" stroke="#71143a" d="M503.995,-484.764C529.327,-451.67 563.092,-407.562 590.602,-371.624"/>
<ellipse fill="none" stroke="#71143a" cx="501.456" cy="-488.08" rx="4.00002" ry="4.00002"/>
<polygon fill="#71143a" stroke="#71143a" points="590.652,-371.559 600.303,-366.353 593.691,-367.588 596.73,-363.618 596.73,-363.618 596.73,-363.618 593.691,-367.588 593.157,-360.883 590.652,-371.559 590.652,-371.559"/>
</g>
<!-- Status -->
<g id="node11" class="node"><title>Status</title>
<path fill="none" stroke="black" d="M978.182,-7.5C978.182,-7.5 1087.19,-7.5 1087.19,-7.5 1093.19,-7.5 1099.19,-13.5 1099.19,-19.5 1099.19,-19.5 1099.19,-109.5 1099.19,-109.5 1099.19,-115.5 1093.19,-121.5 1087.19,-121.5 1087.19,-121.5 978.182,-121.5 978.182,-121.5 972.182,-121.5 966.182,-115.5 966.182,-109.5 966.182,-109.5 966.182,-19.5 966.182,-19.5 966.182,-13.5 972.182,-7.5 978.182,-7.5"/>
<text text-anchor="middle" x="1032.69" y="-106.3" font-family="Times,serif" font-size="14.00">Status</text>
<polyline fill="none" stroke="black" points="966.182,-99.5 1099.19,-99.5 "/>
<text text-anchor="start" x="974.182" y="-84.3" font-family="Times,serif" font-size="14.00">id :integer</text>
<text text-anchor="start" x="974.182" y="-70.3" font-family="Times,serif" font-size="14.00">user_id :integer</text>
<text text-anchor="start" x="974.182" y="-56.3" font-family="Times,serif" font-size="14.00">category_id :integer</text>
<text text-anchor="start" x="974.182" y="-42.3" font-family="Times,serif" font-size="14.00">experience :integer</text>
<text text-anchor="start" x="974.182" y="-28.3" font-family="Times,serif" font-size="14.00">created_at :datetime</text>
<text text-anchor="start" x="974.182" y="-14.3" font-family="Times,serif" font-size="14.00">updated_at :datetime</text>
</g>
<!-- Category&#45;&gt;Status -->
<g id="edge6" class="edge"><title>Category&#45;&gt;Status</title>
<path fill="none" stroke="#27de21" d="M534.328,-487.737C537.112,-486.401 539.904,-485.148 542.688,-484 615.29,-454.052 656.63,-499.769 715.688,-448 815.892,-360.164 716.401,-254.976 814.688,-165 862.711,-121.037 898.704,-158.612 956.688,-129 958.028,-128.316 959.365,-127.604 960.698,-126.868"/>
<ellipse fill="none" stroke="#27de21" cx="530.56" cy="-489.644" rx="4.00002" ry="4.00002"/>
<polygon fill="#27de21" stroke="#27de21" points="960.826,-126.791 971.721,-125.544 965.123,-124.234 969.419,-121.677 969.419,-121.677 969.419,-121.677 965.123,-124.234 967.118,-117.81 960.826,-126.791 960.826,-126.791"/>
</g>
<!-- History -->
<g id="node6" class="node"><title>History</title>
<path fill="none" stroke="black" d="M795.651,-0.5C795.651,-0.5 935.724,-0.5 935.724,-0.5 941.724,-0.5 947.724,-6.5 947.724,-12.5 947.724,-12.5 947.724,-116.5 947.724,-116.5 947.724,-122.5 941.724,-128.5 935.724,-128.5 935.724,-128.5 795.651,-128.5 795.651,-128.5 789.651,-128.5 783.651,-122.5 783.651,-116.5 783.651,-116.5 783.651,-12.5 783.651,-12.5 783.651,-6.5 789.651,-0.5 795.651,-0.5"/>
<text text-anchor="middle" x="865.688" y="-113.3" font-family="Times,serif" font-size="14.00">History</text>
<polyline fill="none" stroke="black" points="783.651,-106.5 947.724,-106.5 "/>
<text text-anchor="start" x="791.651" y="-91.3" font-family="Times,serif" font-size="14.00">id :integer</text>
<text text-anchor="start" x="791.651" y="-77.3" font-family="Times,serif" font-size="14.00">user_id :integer</text>
<text text-anchor="start" x="791.651" y="-63.3" font-family="Times,serif" font-size="14.00">mission_id :integer</text>
<text text-anchor="start" x="791.651" y="-49.3" font-family="Times,serif" font-size="14.00">created_at :datetime</text>
<text text-anchor="start" x="791.651" y="-35.3" font-family="Times,serif" font-size="14.00">updated_at :datetime</text>
<text text-anchor="start" x="791.651" y="-21.3" font-family="Times,serif" font-size="14.00">recent_experience :integer</text>
<text text-anchor="start" x="791.651" y="-7.3" font-family="Times,serif" font-size="14.00">experience :integer</text>
</g>
<!-- Level -->
<g id="node7" class="node"><title>Level</title>
<path fill="none" stroke="black" d="M563.427,-484.5C563.427,-484.5 715.948,-484.5 715.948,-484.5 721.948,-484.5 727.948,-490.5 727.948,-496.5 727.948,-496.5 727.948,-572.5 727.948,-572.5 727.948,-578.5 721.948,-584.5 715.948,-584.5 715.948,-584.5 563.427,-584.5 563.427,-584.5 557.427,-584.5 551.427,-578.5 551.427,-572.5 551.427,-572.5 551.427,-496.5 551.427,-496.5 551.427,-490.5 557.427,-484.5 563.427,-484.5"/>
<text text-anchor="middle" x="639.688" y="-569.3" font-family="Times,serif" font-size="14.00">Level</text>
<polyline fill="none" stroke="black" points="551.427,-562.5 727.948,-562.5 "/>
<text text-anchor="start" x="559.427" y="-547.3" font-family="Times,serif" font-size="14.00">id :integer</text>
<text text-anchor="start" x="559.427" y="-533.3" font-family="Times,serif" font-size="14.00">value :integer</text>
<text text-anchor="start" x="559.427" y="-519.3" font-family="Times,serif" font-size="14.00">required_experience :integer</text>
<text text-anchor="start" x="559.427" y="-505.3" font-family="Times,serif" font-size="14.00">created_at :datetime</text>
<text text-anchor="start" x="559.427" y="-491.3" font-family="Times,serif" font-size="14.00">updated_at :datetime</text>
</g>
<!-- Level&#45;&gt;Mission -->
<g id="edge9" class="edge"><title>Level&#45;&gt;Mission</title>
<path fill="none" stroke="#94dff4" d="M639.688,-476.343C639.688,-445.173 639.688,-406.431 639.688,-373.924"/>
<ellipse fill="none" stroke="#94dff4" cx="639.688" cy="-480.461" rx="4" ry="4"/>
<polygon fill="#94dff4" stroke="#94dff4" points="639.688,-373.606 644.188,-363.606 639.688,-368.606 639.688,-363.606 639.688,-363.606 639.688,-363.606 639.688,-368.606 635.188,-363.606 639.688,-373.606 639.688,-373.606"/>
</g>
<!-- Mission&#45;&gt;Acquisition -->
<g id="edge11" class="edge"><title>Mission&#45;&gt;Acquisition</title>
<path fill="none" stroke="#facb44" d="M566.808,-244.555C524.103,-208.844 470.284,-163.838 427.286,-127.882"/>
<ellipse fill="none" stroke="#facb44" cx="570.054" cy="-247.27" rx="4.00002" ry="4.00002"/>
<polygon fill="#facb44" stroke="#facb44" points="427.059,-127.692 422.275,-117.825 423.224,-124.485 419.388,-121.277 419.388,-121.277 419.388,-121.277 423.224,-124.485 416.501,-124.729 427.059,-127.692 427.059,-127.692"/>
</g>
<!-- Mission&#45;&gt;Assign -->
<g id="edge13" class="edge"><title>Mission&#45;&gt;Assign</title>
<path fill="none" stroke="#58a462" d="M639.688,-240.913C639.688,-204.726 639.688,-159.925 639.688,-124.658"/>
<ellipse fill="none" stroke="#58a462" cx="639.688" cy="-245.231" rx="4" ry="4"/>
<polygon fill="#58a462" stroke="#58a462" points="639.688,-124.51 644.188,-114.51 639.688,-119.51 639.688,-114.51 639.688,-114.51 639.688,-114.51 639.688,-119.51 635.188,-114.51 639.688,-124.51 639.688,-124.51"/>
</g>
<!-- Mission&#45;&gt;History -->
<g id="edge12" class="edge"><title>Mission&#45;&gt;History</title>
<path fill="none" stroke="#b4eb4a" d="M691.095,-243.085C712.124,-218.283 737.034,-189.806 760.688,-165 769.892,-155.347 779.797,-145.417 789.714,-135.74"/>
<ellipse fill="none" stroke="#b4eb4a" cx="688.418" cy="-246.253" rx="4.00002" ry="4.00002"/>
<polygon fill="#b4eb4a" stroke="#b4eb4a" points="789.749,-135.707 800.061,-131.977 793.339,-132.227 796.929,-128.746 796.929,-128.746 796.929,-128.746 793.339,-132.227 793.796,-125.515 789.749,-135.707 789.749,-135.707"/>
</g>
<!-- Role -->
<g id="node9" class="node"><title>Role</title>
<path fill="none" stroke="black" d="M985.293,-484.5C985.293,-484.5 1102.08,-484.5 1102.08,-484.5 1108.08,-484.5 1114.08,-490.5 1114.08,-496.5 1114.08,-496.5 1114.08,-572.5 1114.08,-572.5 1114.08,-578.5 1108.08,-584.5 1102.08,-584.5 1102.08,-584.5 985.293,-584.5 985.293,-584.5 979.293,-584.5 973.293,-578.5 973.293,-572.5 973.293,-572.5 973.293,-496.5 973.293,-496.5 973.293,-490.5 979.293,-484.5 985.293,-484.5"/>
<text text-anchor="middle" x="1043.69" y="-569.3" font-family="Times,serif" font-size="14.00">Role</text>
<polyline fill="none" stroke="black" points="973.293,-562.5 1114.08,-562.5 "/>
<text text-anchor="start" x="981.293" y="-547.3" font-family="Times,serif" font-size="14.00">id :integer</text>
<text text-anchor="start" x="981.293" y="-533.3" font-family="Times,serif" font-size="14.00">name :string</text>
<text text-anchor="start" x="981.293" y="-519.3" font-family="Times,serif" font-size="14.00">created_at :datetime</text>
<text text-anchor="start" x="981.293" y="-505.3" font-family="Times,serif" font-size="14.00">updated_at :datetime</text>
<text text-anchor="start" x="981.293" y="-491.3" font-family="Times,serif" font-size="14.00">japanese_name :string</text>
</g>
<!-- User -->
<g id="node12" class="node"><title>User</title>
<path fill="none" stroke="black" d="M835.41,-165.5C835.41,-165.5 1015.97,-165.5 1015.97,-165.5 1021.97,-165.5 1027.97,-171.5 1027.97,-177.5 1027.97,-177.5 1027.97,-435.5 1027.97,-435.5 1027.97,-441.5 1021.97,-447.5 1015.97,-447.5 1015.97,-447.5 835.41,-447.5 835.41,-447.5 829.41,-447.5 823.41,-441.5 823.41,-435.5 823.41,-435.5 823.41,-177.5 823.41,-177.5 823.41,-171.5 829.41,-165.5 835.41,-165.5"/>
<text text-anchor="middle" x="925.688" y="-432.3" font-family="Times,serif" font-size="14.00">User</text>
<polyline fill="none" stroke="black" points="823.41,-425.5 1027.97,-425.5 "/>
<text text-anchor="start" x="831.41" y="-410.3" font-family="Times,serif" font-size="14.00">id :integer</text>
<text text-anchor="start" x="831.41" y="-396.3" font-family="Times,serif" font-size="14.00">email :string</text>
<text text-anchor="start" x="831.41" y="-382.3" font-family="Times,serif" font-size="14.00">encrypted_password :string</text>
<text text-anchor="start" x="831.41" y="-368.3" font-family="Times,serif" font-size="14.00">reset_password_token :string</text>
<text text-anchor="start" x="831.41" y="-354.3" font-family="Times,serif" font-size="14.00">reset_password_sent_at :datetime</text>
<text text-anchor="start" x="831.41" y="-340.3" font-family="Times,serif" font-size="14.00">remember_created_at :datetime</text>
<text text-anchor="start" x="831.41" y="-326.3" font-family="Times,serif" font-size="14.00">sign_in_count :integer</text>
<text text-anchor="start" x="831.41" y="-312.3" font-family="Times,serif" font-size="14.00">current_sign_in_at :datetime</text>
<text text-anchor="start" x="831.41" y="-298.3" font-family="Times,serif" font-size="14.00">last_sign_in_at :datetime</text>
<text text-anchor="start" x="831.41" y="-284.3" font-family="Times,serif" font-size="14.00">current_sign_in_ip :string</text>
<text text-anchor="start" x="831.41" y="-270.3" font-family="Times,serif" font-size="14.00">last_sign_in_ip :string</text>
<text text-anchor="start" x="831.41" y="-256.3" font-family="Times,serif" font-size="14.00">created_at :datetime</text>
<text text-anchor="start" x="831.41" y="-242.3" font-family="Times,serif" font-size="14.00">updated_at :datetime</text>
<text text-anchor="start" x="831.41" y="-228.3" font-family="Times,serif" font-size="14.00">name :string</text>
<text text-anchor="start" x="831.41" y="-214.3" font-family="Times,serif" font-size="14.00">number :string</text>
<text text-anchor="start" x="831.41" y="-200.3" font-family="Times,serif" font-size="14.00">fpno :string</text>
<text text-anchor="start" x="831.41" y="-186.3" font-family="Times,serif" font-size="14.00">role_id :integer</text>
<text text-anchor="start" x="831.41" y="-172.3" font-family="Times,serif" font-size="14.00">seminar_id :integer</text>
</g>
<!-- Role&#45;&gt;User -->
<g id="edge15" class="edge"><title>Role&#45;&gt;User</title>
<path fill="none" stroke="#f2aa43" d="M1014.27,-477.152C1010.85,-470.606 1007.25,-463.719 1003.55,-456.62"/>
<ellipse fill="none" stroke="#f2aa43" cx="1016.23" cy="-480.916" rx="4.00002" ry="4.00002"/>
<polygon fill="#f2aa43" stroke="#f2aa43" points="1003.43,-456.387 1002.79,-445.44 1001.11,-451.955 998.797,-447.523 998.797,-447.523 998.797,-447.523 1001.11,-451.955 994.808,-449.606 1003.43,-456.387 1003.43,-456.387"/>
</g>
<!-- Seminar -->
<g id="node10" class="node"><title>Seminar</title>
<path fill="none" stroke="black" d="M796.182,-491.5C796.182,-491.5 905.193,-491.5 905.193,-491.5 911.193,-491.5 917.193,-497.5 917.193,-503.5 917.193,-503.5 917.193,-565.5 917.193,-565.5 917.193,-571.5 911.193,-577.5 905.193,-577.5 905.193,-577.5 796.182,-577.5 796.182,-577.5 790.182,-577.5 784.182,-571.5 784.182,-565.5 784.182,-565.5 784.182,-503.5 784.182,-503.5 784.182,-497.5 790.182,-491.5 796.182,-491.5"/>
<text text-anchor="middle" x="850.688" y="-562.3" font-family="Times,serif" font-size="14.00">Seminar</text>
<polyline fill="none" stroke="black" points="784.182,-555.5 917.193,-555.5 "/>
<text text-anchor="start" x="792.182" y="-540.3" font-family="Times,serif" font-size="14.00">id :integer</text>
<text text-anchor="start" x="792.182" y="-526.3" font-family="Times,serif" font-size="14.00">name :string</text>
<text text-anchor="start" x="792.182" y="-512.3" font-family="Times,serif" font-size="14.00">created_at :datetime</text>
<text text-anchor="start" x="792.182" y="-498.3" font-family="Times,serif" font-size="14.00">updated_at :datetime</text>
</g>
<!-- Seminar&#45;&gt;User -->
<g id="edge17" class="edge"><title>Seminar&#45;&gt;User</title>
<path fill="none" stroke="#f37921" d="M867.291,-483.47C870.197,-474.712 873.35,-465.212 876.633,-455.318"/>
<ellipse fill="none" stroke="#f37921" cx="865.967" cy="-487.46" rx="4.00001" ry="4.00001"/>
<ellipse fill="#f37921" stroke="#f37921" cx="877.908" cy="-451.477" rx="4.00001" ry="4.00001"/>
</g>
<!-- User&#45;&gt;Assign -->
<g id="edge22" class="edge"><title>User&#45;&gt;Assign</title>
<path fill="none" stroke="#14b0cd" d="M816.808,-214.133C779.488,-182.815 738.875,-148.734 705.964,-121.116"/>
<ellipse fill="none" stroke="#14b0cd" cx="820.179" cy="-216.961" rx="4.00002" ry="4.00002"/>
<polygon fill="#14b0cd" stroke="#14b0cd" points="705.863,-121.032 701.096,-111.157 702.033,-117.818 698.203,-114.604 698.203,-114.604 698.203,-114.604 702.033,-117.818 695.31,-118.051 705.863,-121.032 705.863,-121.032"/>
</g>
<!-- User&#45;&gt;History -->
<g id="edge21" class="edge"><title>User&#45;&gt;History</title>
<path fill="none" stroke="#c2ce34" d="M888.611,-157.195C887.024,-150.845 885.465,-144.608 883.953,-138.559"/>
<ellipse fill="none" stroke="#c2ce34" cx="889.642" cy="-161.316" rx="4.00001" ry="4.00001"/>
<polygon fill="#c2ce34" stroke="#c2ce34" points="883.881,-138.273 885.821,-127.48 882.668,-133.423 881.456,-128.572 881.456,-128.572 881.456,-128.572 882.668,-133.423 877.09,-129.663 883.881,-138.273 883.881,-138.273"/>
</g>
<!-- User&#45;&gt;Status -->
<g id="edge20" class="edge"><title>User&#45;&gt;Status</title>
<path fill="none" stroke="#c9b1c0" d="M991.575,-157.715C995.666,-148.539 999.655,-139.592 1003.44,-131.106"/>
<ellipse fill="none" stroke="#c9b1c0" cx="989.868" cy="-161.543" rx="4.00002" ry="4.00002"/>
<polygon fill="#c9b1c0" stroke="#c9b1c0" points="1003.55,-130.866 1011.73,-123.565 1005.58,-126.299 1007.62,-121.733 1007.62,-121.733 1007.62,-121.733 1005.58,-126.299 1003.51,-119.9 1003.55,-130.866 1003.55,-130.866"/>
</g>
<!-- Object -->
<g id="node13" class="node"><title>Object</title>
<ellipse fill="none" stroke="black" cx="258.688" cy="-657.5" rx="33.8596" ry="18"/>
<text text-anchor="middle" x="258.688" y="-653.3" font-family="Times,serif" font-size="14.00">Object</text>
</g>
<!-- Object&#45;&gt;Ability -->
<g id="edge1" class="edge"><title>Object&#45;&gt;Ability</title>
<path fill="none" stroke="black" d="M258.688,-639.42C258.688,-617.662 258.688,-580.068 258.688,-556.558"/>
</g>
<!-- ActiveRecord::Base -->
<g id="node14" class="node"><title>ActiveRecord::Base</title>
<ellipse fill="none" stroke="black" cx="803.688" cy="-657.5" rx="81.1422" ry="18"/>
<text text-anchor="middle" x="803.688" y="-653.3" font-family="Times,serif" font-size="14.00">ActiveRecord::Base</text>
</g>
<!-- ActiveRecord::Base&#45;&gt;Acquisition -->
<g id="edge2" class="edge"><title>ActiveRecord::Base&#45;&gt;Acquisition</title>
<path fill="none" stroke="black" d="M722.496,-655.871C604.847,-653.04 395.849,-640.151 348.688,-585 235.995,-453.216 294.818,-226.385 331.102,-121.585"/>
</g>
<!-- ActiveRecord::Base&#45;&gt;Assign -->
<g id="edge3" class="edge"><title>ActiveRecord::Base&#45;&gt;Assign</title>
<path fill="none" stroke="black" d="M723.19,-654.411C615.256,-649.717 432.335,-634.477 390.688,-585 265.092,-435.793 475.307,-212.471 582.619,-114.517"/>
</g>
<!-- ActiveRecord::Base&#45;&gt;Category -->
<g id="edge7" class="edge"><title>ActiveRecord::Base&#45;&gt;Category</title>
<path fill="none" stroke="black" d="M743.041,-645.454C688.938,-634.314 608.361,-614.513 542.688,-585 537.804,-582.806 532.878,-580.321 528.005,-577.662"/>
</g>
<!-- ActiveRecord::Base&#45;&gt;History -->
<g id="edge8" class="edge"><title>ActiveRecord::Base&#45;&gt;History</title>
<path fill="none" stroke="black" d="M878.413,-650.349C962.909,-641.662 1092.67,-622.493 1122.69,-585 1198.46,-490.366 1158.2,-307.62 1036.69,-165 1011.4,-135.321 990.6,-148.239 956.688,-129 953.755,-127.336 950.799,-125.604 947.835,-123.819"/>
</g>
<!-- ActiveRecord::Base&#45;&gt;Level -->
<g id="edge10" class="edge"><title>ActiveRecord::Base&#45;&gt;Level</title>
<path fill="none" stroke="black" d="M781.228,-639.929C761.928,-625.69 733.082,-604.407 706.456,-584.762"/>
</g>
<!-- ActiveRecord::Base&#45;&gt;Mission -->
<g id="edge14" class="edge"><title>ActiveRecord::Base&#45;&gt;Mission</title>
<path fill="none" stroke="black" d="M796.651,-639.502C790.701,-625.045 782.002,-603.714 774.688,-585 757.229,-540.33 756.733,-527.571 736.688,-484 717.69,-442.706 692.973,-397.836 673.245,-363.672"/>
</g>
<!-- ActiveRecord::Base&#45;&gt;Role -->
<g id="edge16" class="edge"><title>ActiveRecord::Base&#45;&gt;Role</title>
<path fill="none" stroke="black" d="M839.503,-641.335C871.45,-627.514 919.28,-606.095 959.688,-585 964.039,-582.728 968.483,-580.336 972.942,-577.88"/>
</g>
<!-- ActiveRecord::Base&#45;&gt;Seminar -->
<g id="edge18" class="edge"><title>ActiveRecord::Base&#45;&gt;Seminar</title>
<path fill="none" stroke="black" d="M810.322,-639.42C816.547,-623.395 826.108,-598.779 834.363,-577.527"/>
</g>
<!-- ActiveRecord::Base&#45;&gt;Status -->
<g id="edge19" class="edge"><title>ActiveRecord::Base&#45;&gt;Status</title>
<path fill="none" stroke="black" d="M881.145,-651.902C974.089,-644.579 1121.7,-626.585 1155.69,-585 1205.4,-524.179 1207.78,-386.454 1112.69,-165 1106.17,-149.827 1096.67,-135.058 1086.48,-121.743"/>
</g>
<!-- ActiveRecord::Base&#45;&gt;User -->
<g id="edge23" class="edge"><title>ActiveRecord::Base&#45;&gt;User</title>
<path fill="none" stroke="black" d="M849.93,-642.686C877.5,-631.797 910.243,-613.581 926.688,-585 950.174,-544.181 955.579,-494.075 953.286,-447.726"/>
</g>
</g>
</svg>
