<?xml version="1.0" encoding="UTF-8" standalone="no"?>
<!DOCTYPE svg PUBLIC "-//W3C//DTD SVG 1.1//EN"
 "http://www.w3.org/Graphics/SVG/1.1/DTD/svg11.dtd">
<!-- Generated by graphviz version 2.38.0 (20140413.2041)
 -->
<!-- Title: models_diagram Pages: 1 -->
<svg width="919pt" height="702pt"
 viewBox="0.00 0.00 919.06 702.00" xmlns="http://www.w3.org/2000/svg" xmlns:xlink="http://www.w3.org/1999/xlink">
<g id="graph0" class="graph" transform="scale(1 1) rotate(0) translate(4 698)">
<title>models_diagram</title>
<polygon fill="white" stroke="none" points="-4,4 -4,-698 915.063,-698 915.063,4 -4,4"/>
<!-- _diagram_info -->
<g id="node1" class="node"><title>_diagram_info</title>
<text text-anchor="start" x="226.405" y="-679.6" font-family="Times,serif" font-size="13.00">Models diagram</text>
<text text-anchor="start" x="226.405" y="-666.6" font-family="Times,serif" font-size="13.00">Date: Oct 01 2014 &#45; 22:24</text>
<text text-anchor="start" x="226.405" y="-653.6" font-family="Times,serif" font-size="13.00">Migration version: 20141001102406</text>
<text text-anchor="start" x="226.405" y="-640.6" font-family="Times,serif" font-size="13.00">Generated by RailRoady 1.1.2</text>
<text text-anchor="start" x="226.405" y="-627.6" font-family="Times,serif" font-size="13.00">http://railroady.prestonlee.com</text>
</g>
<!-- Acquisition -->
<g id="node2" class="node"><title>Acquisition</title>
<path fill="none" stroke="black" d="M19.3497,-7.5C19.3497,-7.5 128.36,-7.5 128.36,-7.5 134.36,-7.5 140.36,-13.5 140.36,-19.5 140.36,-19.5 140.36,-109.5 140.36,-109.5 140.36,-115.5 134.36,-121.5 128.36,-121.5 128.36,-121.5 19.3497,-121.5 19.3497,-121.5 13.3497,-121.5 7.34969,-115.5 7.34969,-109.5 7.34969,-109.5 7.34969,-19.5 7.34969,-19.5 7.34969,-13.5 13.3497,-7.5 19.3497,-7.5"/>
<text text-anchor="middle" x="73.8551" y="-106.3" font-family="Times,serif" font-size="14.00">Acquisition</text>
<polyline fill="none" stroke="black" points="7.34969,-99.5 140.36,-99.5 "/>
<text text-anchor="start" x="15.3497" y="-84.3" font-family="Times,serif" font-size="14.00">id :integer</text>
<text text-anchor="start" x="15.3497" y="-70.3" font-family="Times,serif" font-size="14.00">mission_id :integer</text>
<text text-anchor="start" x="15.3497" y="-56.3" font-family="Times,serif" font-size="14.00">category_id :integer</text>
<text text-anchor="start" x="15.3497" y="-42.3" font-family="Times,serif" font-size="14.00">experience :integer</text>
<text text-anchor="start" x="15.3497" y="-28.3" font-family="Times,serif" font-size="14.00">created_at :datetime</text>
<text text-anchor="start" x="15.3497" y="-14.3" font-family="Times,serif" font-size="14.00">updated_at :datetime</text>
</g>
<!-- Assign -->
<g id="node3" class="node"><title>Assign</title>
<path fill="none" stroke="black" d="M306.35,-14.5C306.35,-14.5 415.36,-14.5 415.36,-14.5 421.36,-14.5 427.36,-20.5 427.36,-26.5 427.36,-26.5 427.36,-102.5 427.36,-102.5 427.36,-108.5 421.36,-114.5 415.36,-114.5 415.36,-114.5 306.35,-114.5 306.35,-114.5 300.35,-114.5 294.35,-108.5 294.35,-102.5 294.35,-102.5 294.35,-26.5 294.35,-26.5 294.35,-20.5 300.35,-14.5 306.35,-14.5"/>
<text text-anchor="middle" x="360.855" y="-99.3" font-family="Times,serif" font-size="14.00">Assign</text>
<polyline fill="none" stroke="black" points="294.35,-92.5 427.36,-92.5 "/>
<text text-anchor="start" x="302.35" y="-77.3" font-family="Times,serif" font-size="14.00">id :integer</text>
<text text-anchor="start" x="302.35" y="-63.3" font-family="Times,serif" font-size="14.00">user_id :integer</text>
<text text-anchor="start" x="302.35" y="-49.3" font-family="Times,serif" font-size="14.00">mission_id :integer</text>
<text text-anchor="start" x="302.35" y="-35.3" font-family="Times,serif" font-size="14.00">created_at :datetime</text>
<text text-anchor="start" x="302.35" y="-21.3" font-family="Times,serif" font-size="14.00">updated_at :datetime</text>
</g>
<!-- Category -->
<g id="node4" class="node"><title>Category</title>
<path fill="none" stroke="black" d="M133.35,-491.5C133.35,-491.5 242.36,-491.5 242.36,-491.5 248.36,-491.5 254.36,-497.5 254.36,-503.5 254.36,-503.5 254.36,-565.5 254.36,-565.5 254.36,-571.5 248.36,-577.5 242.36,-577.5 242.36,-577.5 133.35,-577.5 133.35,-577.5 127.35,-577.5 121.35,-571.5 121.35,-565.5 121.35,-565.5 121.35,-503.5 121.35,-503.5 121.35,-497.5 127.35,-491.5 133.35,-491.5"/>
<text text-anchor="middle" x="187.855" y="-562.3" font-family="Times,serif" font-size="14.00">Category</text>
<polyline fill="none" stroke="black" points="121.35,-555.5 254.36,-555.5 "/>
<text text-anchor="start" x="129.35" y="-540.3" font-family="Times,serif" font-size="14.00">id :integer</text>
<text text-anchor="start" x="129.35" y="-526.3" font-family="Times,serif" font-size="14.00">name :string</text>
<text text-anchor="start" x="129.35" y="-512.3" font-family="Times,serif" font-size="14.00">created_at :datetime</text>
<text text-anchor="start" x="129.35" y="-498.3" font-family="Times,serif" font-size="14.00">updated_at :datetime</text>
</g>
<!-- Category&#45;&gt;Acquisition -->
<g id="edge4" class="edge"><title>Category&#45;&gt;Acquisition</title>
<path fill="none" stroke="#e9a7c0" d="M175.596,-483.175C154.883,-398.14 112.966,-226.061 89.9264,-131.477"/>
<ellipse fill="none" stroke="#e9a7c0" cx="176.591" cy="-487.256" rx="4.00001" ry="4.00001"/>
<polygon fill="#e9a7c0" stroke="#e9a7c0" points="89.9198,-131.45 91.9252,-120.669 88.7364,-126.592 87.553,-121.734 87.553,-121.734 87.553,-121.734 88.7364,-126.592 83.1808,-122.799 89.9198,-131.45 89.9198,-131.45"/>
</g>
<!-- Mission -->
<g id="node7" class="node"><title>Mission</title>
<path fill="none" stroke="black" d="M306.35,-249.5C306.35,-249.5 415.36,-249.5 415.36,-249.5 421.36,-249.5 427.36,-255.5 427.36,-261.5 427.36,-261.5 427.36,-351.5 427.36,-351.5 427.36,-357.5 421.36,-363.5 415.36,-363.5 415.36,-363.5 306.35,-363.5 306.35,-363.5 300.35,-363.5 294.35,-357.5 294.35,-351.5 294.35,-351.5 294.35,-261.5 294.35,-261.5 294.35,-255.5 300.35,-249.5 306.35,-249.5"/>
<text text-anchor="middle" x="360.855" y="-348.3" font-family="Times,serif" font-size="14.00">Mission</text>
<polyline fill="none" stroke="black" points="294.35,-341.5 427.36,-341.5 "/>
<text text-anchor="start" x="302.35" y="-326.3" font-family="Times,serif" font-size="14.00">id :integer</text>
<text text-anchor="start" x="302.35" y="-312.3" font-family="Times,serif" font-size="14.00">description :string</text>
<text text-anchor="start" x="302.35" y="-298.3" font-family="Times,serif" font-size="14.00">category_id :integer</text>
<text text-anchor="start" x="302.35" y="-284.3" font-family="Times,serif" font-size="14.00">level_id :integer</text>
<text text-anchor="start" x="302.35" y="-270.3" font-family="Times,serif" font-size="14.00">created_at :datetime</text>
<text text-anchor="start" x="302.35" y="-256.3" font-family="Times,serif" font-size="14.00">updated_at :datetime</text>
</g>
<!-- Category&#45;&gt;Mission -->
<g id="edge3" class="edge"><title>Category&#45;&gt;Mission</title>
<path fill="none" stroke="#89b0fe" d="M225.162,-484.764C250.495,-451.67 284.259,-407.562 311.769,-371.624"/>
<ellipse fill="none" stroke="#89b0fe" cx="222.623" cy="-488.08" rx="4.00002" ry="4.00002"/>
<polygon fill="#89b0fe" stroke="#89b0fe" points="311.819,-371.559 321.471,-366.353 314.858,-367.588 317.897,-363.618 317.897,-363.618 317.897,-363.618 314.858,-367.588 314.324,-360.883 311.819,-371.559 311.819,-371.559"/>
</g>
<!-- Status -->
<g id="node10" class="node"><title>Status</title>
<path fill="none" stroke="black" d="M699.35,-7.5C699.35,-7.5 808.36,-7.5 808.36,-7.5 814.36,-7.5 820.36,-13.5 820.36,-19.5 820.36,-19.5 820.36,-109.5 820.36,-109.5 820.36,-115.5 814.36,-121.5 808.36,-121.5 808.36,-121.5 699.35,-121.5 699.35,-121.5 693.35,-121.5 687.35,-115.5 687.35,-109.5 687.35,-109.5 687.35,-19.5 687.35,-19.5 687.35,-13.5 693.35,-7.5 699.35,-7.5"/>
<text text-anchor="middle" x="753.855" y="-106.3" font-family="Times,serif" font-size="14.00">Status</text>
<polyline fill="none" stroke="black" points="687.35,-99.5 820.36,-99.5 "/>
<text text-anchor="start" x="695.35" y="-84.3" font-family="Times,serif" font-size="14.00">id :integer</text>
<text text-anchor="start" x="695.35" y="-70.3" font-family="Times,serif" font-size="14.00">user_id :integer</text>
<text text-anchor="start" x="695.35" y="-56.3" font-family="Times,serif" font-size="14.00">category_id :integer</text>
<text text-anchor="start" x="695.35" y="-42.3" font-family="Times,serif" font-size="14.00">experience :integer</text>
<text text-anchor="start" x="695.35" y="-28.3" font-family="Times,serif" font-size="14.00">created_at :datetime</text>
<text text-anchor="start" x="695.35" y="-14.3" font-family="Times,serif" font-size="14.00">updated_at :datetime</text>
</g>
<!-- Category&#45;&gt;Status -->
<g id="edge5" class="edge"><title>Category&#45;&gt;Status</title>
<path fill="none" stroke="#7a7e4c" d="M255.495,-487.737C258.279,-486.401 261.071,-485.148 263.855,-484 336.457,-454.052 377.797,-499.769 436.855,-448 537.059,-360.164 437.568,-254.976 535.855,-165 583.879,-121.037 619.871,-158.612 677.855,-129 679.195,-128.316 680.532,-127.604 681.865,-126.868"/>
<ellipse fill="none" stroke="#7a7e4c" cx="251.727" cy="-489.644" rx="4.00002" ry="4.00002"/>
<polygon fill="#7a7e4c" stroke="#7a7e4c" points="681.993,-126.791 692.888,-125.544 686.29,-124.234 690.587,-121.677 690.587,-121.677 690.587,-121.677 686.29,-124.234 688.285,-117.81 681.993,-126.791 681.993,-126.791"/>
</g>
<!-- History -->
<g id="node5" class="node"><title>History</title>
<path fill="none" stroke="black" d="M516.818,-0.5C516.818,-0.5 656.892,-0.5 656.892,-0.5 662.892,-0.5 668.892,-6.5 668.892,-12.5 668.892,-12.5 668.892,-116.5 668.892,-116.5 668.892,-122.5 662.892,-128.5 656.892,-128.5 656.892,-128.5 516.818,-128.5 516.818,-128.5 510.818,-128.5 504.818,-122.5 504.818,-116.5 504.818,-116.5 504.818,-12.5 504.818,-12.5 504.818,-6.5 510.818,-0.5 516.818,-0.5"/>
<text text-anchor="middle" x="586.855" y="-113.3" font-family="Times,serif" font-size="14.00">History</text>
<polyline fill="none" stroke="black" points="504.818,-106.5 668.892,-106.5 "/>
<text text-anchor="start" x="512.818" y="-91.3" font-family="Times,serif" font-size="14.00">id :integer</text>
<text text-anchor="start" x="512.818" y="-77.3" font-family="Times,serif" font-size="14.00">user_id :integer</text>
<text text-anchor="start" x="512.818" y="-63.3" font-family="Times,serif" font-size="14.00">mission_id :integer</text>
<text text-anchor="start" x="512.818" y="-49.3" font-family="Times,serif" font-size="14.00">created_at :datetime</text>
<text text-anchor="start" x="512.818" y="-35.3" font-family="Times,serif" font-size="14.00">updated_at :datetime</text>
<text text-anchor="start" x="512.818" y="-21.3" font-family="Times,serif" font-size="14.00">recent_experience :integer</text>
<text text-anchor="start" x="512.818" y="-7.3" font-family="Times,serif" font-size="14.00">experience :integer</text>
</g>
<!-- Level -->
<g id="node6" class="node"><title>Level</title>
<path fill="none" stroke="black" d="M284.594,-484.5C284.594,-484.5 437.116,-484.5 437.116,-484.5 443.116,-484.5 449.116,-490.5 449.116,-496.5 449.116,-496.5 449.116,-572.5 449.116,-572.5 449.116,-578.5 443.116,-584.5 437.116,-584.5 437.116,-584.5 284.594,-584.5 284.594,-584.5 278.594,-584.5 272.594,-578.5 272.594,-572.5 272.594,-572.5 272.594,-496.5 272.594,-496.5 272.594,-490.5 278.594,-484.5 284.594,-484.5"/>
<text text-anchor="middle" x="360.855" y="-569.3" font-family="Times,serif" font-size="14.00">Level</text>
<polyline fill="none" stroke="black" points="272.594,-562.5 449.116,-562.5 "/>
<text text-anchor="start" x="280.594" y="-547.3" font-family="Times,serif" font-size="14.00">id :integer</text>
<text text-anchor="start" x="280.594" y="-533.3" font-family="Times,serif" font-size="14.00">value :integer</text>
<text text-anchor="start" x="280.594" y="-519.3" font-family="Times,serif" font-size="14.00">required_experience :integer</text>
<text text-anchor="start" x="280.594" y="-505.3" font-family="Times,serif" font-size="14.00">created_at :datetime</text>
<text text-anchor="start" x="280.594" y="-491.3" font-family="Times,serif" font-size="14.00">updated_at :datetime</text>
</g>
<!-- Level&#45;&gt;Mission -->
<g id="edge8" class="edge"><title>Level&#45;&gt;Mission</title>
<path fill="none" stroke="#efea85" d="M360.855,-476.343C360.855,-445.173 360.855,-406.431 360.855,-373.924"/>
<ellipse fill="none" stroke="#efea85" cx="360.855" cy="-480.461" rx="4" ry="4"/>
<polygon fill="#efea85" stroke="#efea85" points="360.855,-373.606 365.355,-363.606 360.855,-368.606 360.855,-363.606 360.855,-363.606 360.855,-363.606 360.855,-368.606 356.355,-363.606 360.855,-373.606 360.855,-373.606"/>
</g>
<!-- Mission&#45;&gt;Acquisition -->
<g id="edge10" class="edge"><title>Mission&#45;&gt;Acquisition</title>
<path fill="none" stroke="#059bea" d="M287.975,-244.555C245.271,-208.844 191.451,-163.838 148.453,-127.882"/>
<ellipse fill="none" stroke="#059bea" cx="291.222" cy="-247.27" rx="4.00002" ry="4.00002"/>
<polygon fill="#059bea" stroke="#059bea" points="148.227,-127.692 143.442,-117.825 144.391,-124.485 140.556,-121.277 140.556,-121.277 140.556,-121.277 144.391,-124.485 137.669,-124.729 148.227,-127.692 148.227,-127.692"/>
</g>
<!-- Mission&#45;&gt;Assign -->
<g id="edge12" class="edge"><title>Mission&#45;&gt;Assign</title>
<path fill="none" stroke="#afca5e" d="M360.855,-240.913C360.855,-204.726 360.855,-159.925 360.855,-124.658"/>
<ellipse fill="none" stroke="#afca5e" cx="360.855" cy="-245.231" rx="4" ry="4"/>
<polygon fill="#afca5e" stroke="#afca5e" points="360.855,-124.51 365.355,-114.51 360.855,-119.51 360.855,-114.51 360.855,-114.51 360.855,-114.51 360.855,-119.51 356.355,-114.51 360.855,-124.51 360.855,-124.51"/>
</g>
<!-- Mission&#45;&gt;History -->
<g id="edge11" class="edge"><title>Mission&#45;&gt;History</title>
<path fill="none" stroke="#68cd06" d="M412.263,-243.085C433.292,-218.283 458.201,-189.806 481.855,-165 491.059,-155.347 500.964,-145.417 510.882,-135.74"/>
<ellipse fill="none" stroke="#68cd06" cx="409.585" cy="-246.253" rx="4.00002" ry="4.00002"/>
<polygon fill="#68cd06" stroke="#68cd06" points="510.916,-135.707 521.228,-131.977 514.506,-132.227 518.096,-128.746 518.096,-128.746 518.096,-128.746 514.506,-132.227 514.964,-125.515 510.916,-135.707 510.916,-135.707"/>
</g>
<!-- Role -->
<g id="node8" class="node"><title>Role</title>
<path fill="none" stroke="black" d="M706.46,-484.5C706.46,-484.5 823.25,-484.5 823.25,-484.5 829.25,-484.5 835.25,-490.5 835.25,-496.5 835.25,-496.5 835.25,-572.5 835.25,-572.5 835.25,-578.5 829.25,-584.5 823.25,-584.5 823.25,-584.5 706.46,-584.5 706.46,-584.5 700.46,-584.5 694.46,-578.5 694.46,-572.5 694.46,-572.5 694.46,-496.5 694.46,-496.5 694.46,-490.5 700.46,-484.5 706.46,-484.5"/>
<text text-anchor="middle" x="764.855" y="-569.3" font-family="Times,serif" font-size="14.00">Role</text>
<polyline fill="none" stroke="black" points="694.46,-562.5 835.25,-562.5 "/>
<text text-anchor="start" x="702.46" y="-547.3" font-family="Times,serif" font-size="14.00">id :integer</text>
<text text-anchor="start" x="702.46" y="-533.3" font-family="Times,serif" font-size="14.00">name :string</text>
<text text-anchor="start" x="702.46" y="-519.3" font-family="Times,serif" font-size="14.00">created_at :datetime</text>
<text text-anchor="start" x="702.46" y="-505.3" font-family="Times,serif" font-size="14.00">updated_at :datetime</text>
<text text-anchor="start" x="702.46" y="-491.3" font-family="Times,serif" font-size="14.00">japanese_name :string</text>
</g>
<!-- User -->
<g id="node11" class="node"><title>User</title>
<path fill="none" stroke="black" d="M556.577,-165.5C556.577,-165.5 737.133,-165.5 737.133,-165.5 743.133,-165.5 749.133,-171.5 749.133,-177.5 749.133,-177.5 749.133,-435.5 749.133,-435.5 749.133,-441.5 743.133,-447.5 737.133,-447.5 737.133,-447.5 556.577,-447.5 556.577,-447.5 550.577,-447.5 544.577,-441.5 544.577,-435.5 544.577,-435.5 544.577,-177.5 544.577,-177.5 544.577,-171.5 550.577,-165.5 556.577,-165.5"/>
<text text-anchor="middle" x="646.855" y="-432.3" font-family="Times,serif" font-size="14.00">User</text>
<polyline fill="none" stroke="black" points="544.577,-425.5 749.133,-425.5 "/>
<text text-anchor="start" x="552.577" y="-410.3" font-family="Times,serif" font-size="14.00">id :integer</text>
<text text-anchor="start" x="552.577" y="-396.3" font-family="Times,serif" font-size="14.00">email :string</text>
<text text-anchor="start" x="552.577" y="-382.3" font-family="Times,serif" font-size="14.00">encrypted_password :string</text>
<text text-anchor="start" x="552.577" y="-368.3" font-family="Times,serif" font-size="14.00">reset_password_token :string</text>
<text text-anchor="start" x="552.577" y="-354.3" font-family="Times,serif" font-size="14.00">reset_password_sent_at :datetime</text>
<text text-anchor="start" x="552.577" y="-340.3" font-family="Times,serif" font-size="14.00">remember_created_at :datetime</text>
<text text-anchor="start" x="552.577" y="-326.3" font-family="Times,serif" font-size="14.00">sign_in_count :integer</text>
<text text-anchor="start" x="552.577" y="-312.3" font-family="Times,serif" font-size="14.00">current_sign_in_at :datetime</text>
<text text-anchor="start" x="552.577" y="-298.3" font-family="Times,serif" font-size="14.00">last_sign_in_at :datetime</text>
<text text-anchor="start" x="552.577" y="-284.3" font-family="Times,serif" font-size="14.00">current_sign_in_ip :string</text>
<text text-anchor="start" x="552.577" y="-270.3" font-family="Times,serif" font-size="14.00">last_sign_in_ip :string</text>
<text text-anchor="start" x="552.577" y="-256.3" font-family="Times,serif" font-size="14.00">created_at :datetime</text>
<text text-anchor="start" x="552.577" y="-242.3" font-family="Times,serif" font-size="14.00">updated_at :datetime</text>
<text text-anchor="start" x="552.577" y="-228.3" font-family="Times,serif" font-size="14.00">name :string</text>
<text text-anchor="start" x="552.577" y="-214.3" font-family="Times,serif" font-size="14.00">number :string</text>
<text text-anchor="start" x="552.577" y="-200.3" font-family="Times,serif" font-size="14.00">idm :string</text>
<text text-anchor="start" x="552.577" y="-186.3" font-family="Times,serif" font-size="14.00">role_id :integer</text>
<text text-anchor="start" x="552.577" y="-172.3" font-family="Times,serif" font-size="14.00">seminar_id :integer</text>
</g>
<!-- Role&#45;&gt;User -->
<g id="edge14" class="edge"><title>Role&#45;&gt;User</title>
<path fill="none" stroke="#86ef75" d="M735.434,-477.152C732.017,-470.606 728.421,-463.719 724.714,-456.62"/>
<ellipse fill="none" stroke="#86ef75" cx="737.399" cy="-480.916" rx="4.00002" ry="4.00002"/>
<polygon fill="#86ef75" stroke="#86ef75" points="724.593,-456.387 723.953,-445.44 722.278,-451.955 719.964,-447.523 719.964,-447.523 719.964,-447.523 722.278,-451.955 715.975,-449.606 724.593,-456.387 724.593,-456.387"/>
</g>
<!-- Seminar -->
<g id="node9" class="node"><title>Seminar</title>
<path fill="none" stroke="black" d="M517.35,-491.5C517.35,-491.5 626.36,-491.5 626.36,-491.5 632.36,-491.5 638.36,-497.5 638.36,-503.5 638.36,-503.5 638.36,-565.5 638.36,-565.5 638.36,-571.5 632.36,-577.5 626.36,-577.5 626.36,-577.5 517.35,-577.5 517.35,-577.5 511.35,-577.5 505.35,-571.5 505.35,-565.5 505.35,-565.5 505.35,-503.5 505.35,-503.5 505.35,-497.5 511.35,-491.5 517.35,-491.5"/>
<text text-anchor="middle" x="571.855" y="-562.3" font-family="Times,serif" font-size="14.00">Seminar</text>
<polyline fill="none" stroke="black" points="505.35,-555.5 638.36,-555.5 "/>
<text text-anchor="start" x="513.35" y="-540.3" font-family="Times,serif" font-size="14.00">id :integer</text>
<text text-anchor="start" x="513.35" y="-526.3" font-family="Times,serif" font-size="14.00">name :string</text>
<text text-anchor="start" x="513.35" y="-512.3" font-family="Times,serif" font-size="14.00">created_at :datetime</text>
<text text-anchor="start" x="513.35" y="-498.3" font-family="Times,serif" font-size="14.00">updated_at :datetime</text>
</g>
<!-- Seminar&#45;&gt;User -->
<g id="edge16" class="edge"><title>Seminar&#45;&gt;User</title>
<path fill="none" stroke="#f4ef7a" d="M588.458,-483.47C591.365,-474.712 594.517,-465.212 597.8,-455.318"/>
<ellipse fill="none" stroke="#f4ef7a" cx="587.134" cy="-487.46" rx="4.00001" ry="4.00001"/>
<ellipse fill="#f4ef7a" stroke="#f4ef7a" cx="599.075" cy="-451.477" rx="4.00001" ry="4.00001"/>
</g>
<!-- User&#45;&gt;Assign -->
<g id="edge21" class="edge"><title>User&#45;&gt;Assign</title>
<path fill="none" stroke="#5a2d53" d="M537.976,-214.133C500.655,-182.815 460.042,-148.734 427.131,-121.116"/>
<ellipse fill="none" stroke="#5a2d53" cx="541.346" cy="-216.961" rx="4.00002" ry="4.00002"/>
<polygon fill="#5a2d53" stroke="#5a2d53" points="427.03,-121.032 422.263,-111.157 423.2,-117.818 419.37,-114.604 419.37,-114.604 419.37,-114.604 423.2,-117.818 416.478,-118.051 427.03,-121.032 427.03,-121.032"/>
</g>
<!-- User&#45;&gt;History -->
<g id="edge20" class="edge"><title>User&#45;&gt;History</title>
<path fill="none" stroke="#b917c2" d="M609.779,-157.195C608.191,-150.845 606.632,-144.608 605.12,-138.559"/>
<ellipse fill="none" stroke="#b917c2" cx="610.809" cy="-161.316" rx="4.00001" ry="4.00001"/>
<polygon fill="#b917c2" stroke="#b917c2" points="605.048,-138.273 606.989,-127.48 603.836,-133.423 602.623,-128.572 602.623,-128.572 602.623,-128.572 603.836,-133.423 598.257,-129.663 605.048,-138.273 605.048,-138.273"/>
</g>
<!-- User&#45;&gt;Status -->
<g id="edge19" class="edge"><title>User&#45;&gt;Status</title>
<path fill="none" stroke="#663fa1" d="M712.743,-157.715C716.834,-148.539 720.822,-139.592 724.606,-131.106"/>
<ellipse fill="none" stroke="#663fa1" cx="711.036" cy="-161.543" rx="4.00002" ry="4.00002"/>
<polygon fill="#663fa1" stroke="#663fa1" points="724.713,-130.866 732.895,-123.565 726.749,-126.299 728.785,-121.733 728.785,-121.733 728.785,-121.733 726.749,-126.299 724.675,-119.9 724.713,-130.866 724.713,-130.866"/>
</g>
<!-- ActiveRecord::Base -->
<g id="node12" class="node"><title>ActiveRecord::Base</title>
<ellipse fill="none" stroke="black" cx="524.855" cy="-657.5" rx="81.1422" ry="18"/>
<text text-anchor="middle" x="524.855" y="-653.3" font-family="Times,serif" font-size="14.00">ActiveRecord::Base</text>
</g>
<!-- ActiveRecord::Base&#45;&gt;Acquisition -->
<g id="edge1" class="edge"><title>ActiveRecord::Base&#45;&gt;Acquisition</title>
<path fill="none" stroke="black" d="M491.426,-640.918C474.524,-633.7 453.481,-625.699 433.855,-621 354.375,-601.971 122.743,-645.551 67.8551,-585 -48.7555,-456.357 13.3979,-227.438 51.4065,-121.788"/>
</g>
<!-- ActiveRecord::Base&#45;&gt;Assign -->
<g id="edge2" class="edge"><title>ActiveRecord::Base&#45;&gt;Assign</title>
<path fill="none" stroke="black" d="M491.399,-641.03C474.49,-633.84 453.449,-625.829 433.855,-621 363.946,-603.77 159.856,-638.667 111.855,-585 -18.3324,-439.446 194.911,-213.724 303.45,-114.79"/>
</g>
<!-- ActiveRecord::Base&#45;&gt;Category -->
<g id="edge6" class="edge"><title>ActiveRecord::Base&#45;&gt;Category</title>
<path fill="none" stroke="black" d="M489.453,-641.136C472.802,-634.313 452.541,-626.583 433.855,-621 359.856,-598.892 335.199,-614.576 263.855,-585 258.619,-582.829 253.352,-580.29 248.167,-577.529"/>
</g>
<!-- ActiveRecord::Base&#45;&gt;History -->
<g id="edge7" class="edge"><title>ActiveRecord::Base&#45;&gt;History</title>
<path fill="none" stroke="black" d="M599.581,-650.349C684.076,-641.662 813.836,-622.493 843.855,-585 919.626,-490.366 879.363,-307.62 757.855,-165 732.569,-135.321 711.767,-148.239 677.855,-129 674.923,-127.336 671.966,-125.604 669.002,-123.819"/>
</g>
<!-- ActiveRecord::Base&#45;&gt;Level -->
<g id="edge9" class="edge"><title>ActiveRecord::Base&#45;&gt;Level</title>
<path fill="none" stroke="black" d="M502.395,-639.929C483.096,-625.69 454.249,-604.407 427.623,-584.762"/>
</g>
<!-- ActiveRecord::Base&#45;&gt;Mission -->
<g id="edge13" class="edge"><title>ActiveRecord::Base&#45;&gt;Mission</title>
<path fill="none" stroke="black" d="M517.819,-639.502C511.869,-625.045 503.169,-603.714 495.855,-585 478.396,-540.33 477.9,-527.571 457.855,-484 438.857,-442.706 414.141,-397.836 394.412,-363.672"/>
</g>
<!-- ActiveRecord::Base&#45;&gt;Role -->
<g id="edge15" class="edge"><title>ActiveRecord::Base&#45;&gt;Role</title>
<path fill="none" stroke="black" d="M560.67,-641.335C592.617,-627.514 640.447,-606.095 680.855,-585 685.207,-582.728 689.65,-580.336 694.109,-577.88"/>
</g>
<!-- ActiveRecord::Base&#45;&gt;Seminar -->
<g id="edge17" class="edge"><title>ActiveRecord::Base&#45;&gt;Seminar</title>
<path fill="none" stroke="black" d="M531.489,-639.42C537.714,-623.395 547.276,-598.779 555.531,-577.527"/>
</g>
<!-- ActiveRecord::Base&#45;&gt;Status -->
<g id="edge18" class="edge"><title>ActiveRecord::Base&#45;&gt;Status</title>
<path fill="none" stroke="black" d="M602.313,-651.902C695.257,-644.579 842.868,-626.585 876.855,-585 926.564,-524.179 928.946,-386.454 833.855,-165 827.34,-149.827 817.841,-135.058 807.648,-121.743"/>
</g>
<!-- ActiveRecord::Base&#45;&gt;User -->
<g id="edge22" class="edge"><title>ActiveRecord::Base&#45;&gt;User</title>
<path fill="none" stroke="black" d="M571.097,-642.686C598.667,-631.797 631.41,-613.581 647.855,-585 671.341,-544.181 676.746,-494.075 674.453,-447.726"/>
</g>
</g>
</svg>
